<svg width="16" height="12" viewBox="0 0 16 12" fill="none" xmlns="http://www.w3.org/2000/svg">
<path d="M12 1.65688C10.9315 0.588438 9.511 0 8 0C6.489 0 5.06844 0.588406 4.00003 1.65681L0 5.65684L4.00003 9.65681C5.06847 10.7253 6.489 11.3137 8 11.3137C9.511 11.3137 10.9316 10.7253 12 9.65681L16 5.65684L12 1.65688ZM11.1111 8.76794C10.2801 9.59894 9.17525 10.0566 8 10.0566C6.82475 10.0566 5.71991 9.59897 4.88891 8.76794L1.77775 5.65684L4.88891 2.54575C5.71991 1.71475 6.82475 1.25709 8 1.25709C9.17525 1.25709 10.2801 1.71475 11.1111 2.54575L14.2222 5.65684L11.1111 8.76794Z" fill="white"/>
<path d="M9.62953 4.02721C8.73088 3.12861 7.26878 3.12864 6.37031 4.02721C5.93503 4.46249 5.69531 5.04124 5.69531 5.65683C5.69531 6.27242 5.935 6.85117 6.37031 7.28646C6.81959 7.73574 7.40978 7.96036 7.99994 7.96036C8.59009 7.96036 9.18028 7.73574 9.62953 7.28646C10.0648 6.85117 10.3045 6.27242 10.3045 5.65683C10.3045 5.04124 10.0648 4.46249 9.62953 4.02721ZM8.74066 6.39761C8.33219 6.80605 7.66766 6.80605 7.25919 6.39761C7.06138 6.19974 6.95238 5.93667 6.95238 5.65686C6.95238 5.37705 7.06131 5.11399 7.25919 4.91611C7.46341 4.71186 7.73169 4.60977 7.99994 4.60977C8.26819 4.60977 8.53647 4.71189 8.74066 4.91611C8.93847 5.11399 9.04747 5.37705 9.04747 5.65686C9.04747 5.93667 8.9385 6.19977 8.74066 6.39761Z" fill="white"/>
</svg>
