<svg width="36" height="44" viewBox="0 0 36 44" fill="none" xmlns="http://www.w3.org/2000/svg">
<path d="M4.35423 25.8748L5.21094 26.3906L5.21317 26.3868L4.35423 25.8748ZM1.95839 29.8539L1.10169 29.3381L1.10154 29.3384L1.95839 29.8539ZM4.20839 35.9581L3.8878 36.9053L3.89151 36.9065L4.20839 35.9581ZM31.8543 35.9581L31.5404 35.0086L31.5374 35.0096L31.8543 35.9581ZM34.1043 29.8539L34.9618 29.3394L34.961 29.3381L34.1043 29.8539ZM31.7085 25.8748L30.8423 26.3745L30.8469 26.3826L30.8518 26.3906L31.7085 25.8748ZM21.896 3.6665L21.6171 4.62685C21.9831 4.73309 22.3776 4.62214 22.6345 4.34074C22.8914 4.05934 22.966 3.65639 22.827 3.30163L21.896 3.6665ZM19.896 3.24984L19.7719 4.24212L19.7756 4.24257L19.896 3.24984ZM14.1876 3.6665L13.2566 3.30163C13.1175 3.65645 13.1922 4.05946 13.4492 4.34087C13.7062 4.62227 14.1008 4.73313 14.4668 4.62675L14.1876 3.6665ZM13.6252 41.1252L14.3323 40.4181L14.3323 40.4181L13.6252 41.1252ZM18.0418 2.06227C10.5936 2.06227 4.54173 8.11415 4.54173 15.5623H6.54173C6.54173 9.21873 11.6982 4.06227 18.0418 4.06227V2.06227ZM4.54173 15.5623V21.5831H6.54173V15.5623H4.54173ZM4.54173 21.5831C4.54173 22.098 4.42821 22.8055 4.2266 23.5318C4.02508 24.2577 3.75781 24.9223 3.49528 25.3627L5.21317 26.3868C5.59648 25.7439 5.92296 24.898 6.15373 24.0667C6.38441 23.2357 6.54173 22.339 6.54173 21.5831H4.54173ZM3.49753 25.3589L1.10169 29.3381L2.81509 30.3697L5.21093 26.3906L3.49753 25.3589ZM1.10154 29.3384C0.220577 30.8025 0.0510577 32.4156 0.575307 33.8314C1.09912 35.246 2.27709 36.3601 3.8878 36.9053L4.52899 35.0109C3.43137 34.6394 2.74475 33.9306 2.45086 33.1369C2.1574 32.3444 2.21705 31.3637 2.81525 30.3695L1.10154 29.3384ZM3.89151 36.9065C13.0763 39.9753 22.9863 39.9753 32.1712 36.9065L31.5374 35.0096C22.7639 37.9409 13.2988 37.9409 4.52528 35.0096L3.89151 36.9065ZM32.1682 36.9076C35.3011 35.8719 36.6645 32.1772 34.9618 29.3394L33.2468 30.3684C34.2941 32.114 33.4492 34.3776 31.5404 35.0086L32.1682 36.9076ZM34.961 29.3381L32.5652 25.3589L30.8518 26.3906L33.2476 30.3697L34.961 29.3381ZM32.5746 25.375C32.3183 24.9307 32.0546 24.262 31.8551 23.5348C31.6554 22.8064 31.5418 22.0983 31.5418 21.5831H29.5418C29.5418 22.3387 29.699 23.2348 29.9264 24.0637C30.154 24.8937 30.4736 25.7355 30.8423 26.3745L32.5746 25.375ZM31.5418 21.5831V15.5623H29.5418V21.5831H31.5418ZM31.5418 15.5623C31.5418 8.13499 25.4691 2.06227 18.0418 2.06227V4.06227C24.3645 4.06227 29.5418 9.23956 29.5418 15.5623H31.5418ZM22.1748 2.70616C21.4855 2.50604 20.7654 2.34791 20.0163 2.2571L19.7756 4.24257C20.4015 4.31843 21.0148 4.45197 21.6171 4.62685L22.1748 2.70616ZM20.02 2.25756C17.8925 1.99163 15.8382 2.14528 13.9085 2.70625L14.4668 4.62675C16.1204 4.14606 17.8994 4.00805 19.7719 4.24211L20.02 2.25756ZM15.1187 4.03138C15.5769 2.86208 16.7146 2.0415 18.0418 2.0415V0.0415039C15.8689 0.0415039 14.0067 1.38759 13.2566 3.30163L15.1187 4.03138ZM18.0418 2.0415C19.3689 2.0415 20.5067 2.86208 20.9649 4.03138L22.827 3.30163C22.0769 1.38759 20.2146 0.0415039 18.0418 0.0415039V2.0415ZM23.2918 36.7085C23.2918 39.5937 20.927 41.9585 18.0418 41.9585V43.9585C22.0316 43.9585 25.2918 40.6983 25.2918 36.7085H23.2918ZM18.0418 41.9585C16.6101 41.9585 15.2779 41.3638 14.3323 40.4181L12.918 41.8323C14.2223 43.1366 16.0568 43.9585 18.0418 43.9585V41.9585ZM14.3323 40.4181C13.3866 39.4724 12.7918 38.1402 12.7918 36.7085H10.7918C10.7918 38.6935 11.6138 40.528 12.9181 41.8323L14.3323 40.4181Z" fill="url(#paint0_linear_917_84554)"/>
<defs>
<linearGradient id="paint0_linear_917_84554" x1="17.9902" y1="1.0415" x2="17.9902" y2="42.9585" gradientUnits="userSpaceOnUse">
<stop stop-color="#C91EFE"/>
<stop offset="1" stop-color="#4A68F2"/>
</linearGradient>
</defs>
</svg>
