<svg width="18" height="20" viewBox="0 0 18 20" fill="none" xmlns="http://www.w3.org/2000/svg">
<path d="M10.1722 3.64836C10.0527 3.74792 9.9223 3.83664 9.7811 3.90276C9.54267 4.01441 9.2737 4.05102 9.01042 4.05106C9.00697 4.05106 9.00353 4.05106 9.00008 4.05106C8.85356 4.05106 8.70705 4.05106 8.5239 4.01445C8.2675 3.97784 8.08436 3.83141 7.86458 3.64836C7.42503 3.31888 7.20526 2.84297 7.20526 2.25723C7.20526 1.67148 7.46166 1.19557 7.86458 0.866089C8.04773 0.719653 8.23087 0.646435 8.45064 0.573218C8.63379 0.536609 8.78031 0.5 8.96345 0.5C9.04051 0.5 9.11756 0.50648 9.19462 0.516715C9.40793 0.545046 9.61744 0.604155 9.81053 0.699136C9.96388 0.774569 10.0936 0.860751 10.2088 0.975915C10.5751 1.342 10.7949 1.7447 10.7949 2.29383C10.7583 2.84297 10.5751 3.31888 10.1722 3.64836ZM15.4834 3.61175C16.7288 5.14933 17.3515 6.86994 17.3515 8.81021C17.3515 10.3478 14.5677 19.5 9.00008 19.5C3.46911 19.5 0.648682 10.3478 0.648682 8.81021C0.648682 6.86994 1.308 5.11272 2.51676 3.57514C3.60172 2.23563 4.9369 1.34067 6.52227 0.866069C6.73233 0.803186 6.92384 1.09339 6.8148 1.28363C6.80759 1.29622 6.80001 1.31233 6.79548 1.32612C6.68942 1.64869 6.6192 1.97126 6.6192 2.29383C6.6192 2.76975 6.72908 3.20906 6.98549 3.57514C7.17682 3.88111 7.10221 4.42061 6.77986 4.58282C6.15077 4.89937 5.60884 5.34866 5.15404 5.95472C4.49472 6.79672 4.20169 7.74856 4.20169 8.81021C4.20169 10.0549 6.39942 15.9123 8.96345 15.9123C11.5275 15.9123 13.7252 10.5308 13.7252 8.81021C13.7252 7.74856 13.4322 6.79672 12.7362 5.95472C12.3413 5.4504 11.8939 5.05114 11.3781 4.74909C10.9517 4.49938 10.8302 3.7974 11.0513 3.35549C11.2344 3.02601 11.3077 2.69653 11.3077 2.29383C11.3077 2.00096 11.2711 1.7447 11.1246 1.45183C11.0243 1.18462 11.252 0.84237 11.5227 0.932571C13.1066 1.46019 14.4268 2.33835 15.4834 3.61175Z" fill="white"/>
</svg>
