<svg width="128" height="115" viewBox="0 0 128 115" fill="none" xmlns="http://www.w3.org/2000/svg">
<path d="M44.91 114.1L45.4023 114.012L45.5068 114.6H44.91V114.1ZM35.04 58.64L34.5477 58.7276L34.4432 58.14H35.04V58.64ZM51.49 58.64H51.99V59.14H51.49V58.64ZM51.49 0.360016V-0.139984H51.99V0.360016H51.49ZM0.730001 0.360016H0.230001V-0.139984H0.730001V0.360016ZM0.730001 59.11L0.248777 59.2458L0.230001 59.1792V59.11H0.730001ZM16.24 114.1V114.6H15.8615L15.7588 114.236L16.24 114.1ZM121.05 114.1L121.542 114.012L121.647 114.6H121.05V114.1ZM111.18 58.64L110.688 58.7276L110.583 58.14H111.18V58.64ZM127.63 58.64H128.13V59.14H127.63V58.64ZM127.63 0.360016V-0.139984H128.13V0.360016H127.63ZM76.87 0.360016H76.37V-0.139984H76.87V0.360016ZM76.87 59.11L76.3888 59.2458L76.37 59.1792V59.11H76.87ZM92.38 114.1V114.6H92.0015L91.8988 114.236L92.38 114.1ZM44.4177 114.188L34.5477 58.7276L35.5323 58.5524L45.4023 114.012L44.4177 114.188ZM35.04 58.14H51.49V59.14H35.04V58.14ZM50.99 58.64V0.360016H51.99V58.64H50.99ZM51.49 0.860016H0.730001V-0.139984H51.49V0.860016ZM1.23 0.360016V59.11H0.230001V0.360016H1.23ZM1.21123 58.9743L16.7212 113.964L15.7588 114.236L0.248777 59.2458L1.21123 58.9743ZM16.24 113.6H44.91V114.6H16.24V113.6ZM120.558 114.188L110.688 58.7276L111.672 58.5524L121.542 114.012L120.558 114.188ZM111.18 58.14H127.63V59.14H111.18V58.14ZM127.13 58.64V0.360016H128.13V58.64H127.13ZM127.63 0.860016H76.87V-0.139984H127.63V0.860016ZM77.37 0.360016V59.11H76.37V0.360016H77.37ZM77.3512 58.9743L92.8612 113.964L91.8988 114.236L76.3888 59.2458L77.3512 58.9743ZM92.38 113.6H121.05V114.6H92.38V113.6Z" fill="url(#paint0_linear_917_79719)"/>
<defs>
<linearGradient id="paint0_linear_917_79719" x1="64" y1="-40" x2="64" y2="-86" gradientUnits="userSpaceOnUse">
<stop stop-color="#C91EFE"/>
<stop offset="1" stop-color="#4A68F2"/>
</linearGradient>
</defs>
</svg>
