<svg width="17" height="17" viewBox="0 0 17 17" fill="none" xmlns="http://www.w3.org/2000/svg">
<path d="M16.4398 7.38749L15.1731 6.12083C14.9564 5.90417 14.7814 5.47917 14.7814 5.17917V3.37917C14.7814 2.64583 14.1814 2.04583 13.4481 2.04583H11.6564C11.3564 2.04583 10.9314 1.87083 10.7148 1.65417L9.4481 0.3875C8.93144 -0.129167 8.08144 -0.129167 7.56477 0.3875L6.28145 1.65417C6.07311 1.87083 5.64811 2.04583 5.33978 2.04583H3.54811C2.81478 2.04583 2.21478 2.64583 2.21478 3.37917V5.17083C2.21478 5.47083 2.03978 5.89583 1.82311 6.1125L0.556445 7.37916C0.0397786 7.89583 0.0397786 8.74583 0.556445 9.26249L1.82311 10.5292C2.03978 10.7458 2.21478 11.1708 2.21478 11.4708V13.2625C2.21478 13.9958 2.81478 14.5958 3.54811 14.5958H5.33978C5.63978 14.5958 6.06478 14.7708 6.28145 14.9875L7.5481 16.2542C8.06477 16.7708 8.91477 16.7708 9.43144 16.2542L10.6981 14.9875C10.9148 14.7708 11.3398 14.5958 11.6398 14.5958H13.4314C14.1648 14.5958 14.7648 13.9958 14.7648 13.2625V11.4708C14.7648 11.1708 14.9398 10.7458 15.1564 10.5292L16.4231 9.26249C16.9648 8.75416 16.9648 7.90416 16.4398 7.38749ZM5.16478 5.82917C5.16478 5.37083 5.53978 4.99583 5.99811 4.99583C6.45645 4.99583 6.83145 5.37083 6.83145 5.82917C6.83145 6.2875 6.46478 6.6625 5.99811 6.6625C5.53978 6.6625 5.16478 6.2875 5.16478 5.82917ZM6.43978 11.2708C6.31478 11.3958 6.15645 11.4542 5.99811 11.4542C5.83978 11.4542 5.68145 11.3958 5.55645 11.2708C5.31478 11.0292 5.31478 10.6292 5.55645 10.3875L10.5564 5.3875C10.7981 5.14583 11.1981 5.14583 11.4398 5.3875C11.6814 5.62917 11.6814 6.02917 11.4398 6.27083L6.43978 11.2708ZM10.9981 11.6625C10.5314 11.6625 10.1564 11.2875 10.1564 10.8292C10.1564 10.3708 10.5314 9.99583 10.9898 9.99583C11.4481 9.99583 11.8231 10.3708 11.8231 10.8292C11.8231 11.2875 11.4564 11.6625 10.9981 11.6625Z" fill="url(#paint0_linear_917_79484)"/>
<defs>
<linearGradient id="paint0_linear_917_79484" x1="8.5002" y1="0" x2="8.5002" y2="16.6417" gradientUnits="userSpaceOnUse">
<stop stop-color="#D11AFF"/>
<stop offset="1" stop-color="#3D70F1"/>
</linearGradient>
</defs>
</svg>
