<svg width="30" height="29" viewBox="0 0 30 29" fill="none" xmlns="http://www.w3.org/2000/svg">
<g clip-path="url(#clip0_917_131588)">
<path d="M28.4206 9.14351C28.4055 8.04531 28.1928 6.95803 27.7921 5.93031C27.4446 5.06343 26.9139 4.27614 26.2339 3.61876C25.5538 2.96138 24.7394 2.44835 23.8426 2.11246C22.7931 1.73162 21.6844 1.5257 20.5636 1.50346C19.1206 1.44111 18.6631 1.42371 15.0001 1.42371C11.3371 1.42371 10.8676 1.42371 9.43511 1.50346C8.31484 1.52586 7.20663 1.73178 6.15761 2.11246C5.26069 2.44812 4.44614 2.96106 3.76606 3.61847C3.08597 4.27589 2.55534 5.06329 2.20811 5.93031C1.81335 6.94405 1.60079 8.01557 1.57961 9.09856C1.51511 10.4949 1.49561 10.9372 1.49561 14.4781C1.49561 18.019 1.49561 18.4714 1.57961 19.8576C1.60211 20.9422 1.81361 22.0123 2.20811 23.0287C2.55592 23.8955 3.08695 24.6825 3.76726 25.3397C4.44757 25.9968 5.2622 26.5095 6.15911 26.8451C7.20526 27.2412 8.31366 27.4619 9.43661 27.4976C10.8811 27.56 11.3386 27.5788 15.0016 27.5788C18.6646 27.5788 19.1341 27.5788 20.5666 27.4976C21.6873 27.4763 22.7961 27.2708 23.8456 26.8901C24.7421 26.5538 25.5564 26.0406 26.2364 25.3833C26.9164 24.7259 27.4472 23.9389 27.7951 23.0722C28.1896 22.0572 28.4011 20.9871 28.4236 19.9011C28.4881 18.5062 28.5076 18.0639 28.5076 14.5216C28.5046 10.9807 28.5046 10.5312 28.4206 9.14351ZM14.9911 21.1742C11.1601 21.1742 8.0566 18.1741 8.0566 14.4708C8.0566 10.7675 11.1601 7.76746 14.9911 7.76746C16.8302 7.76746 18.5941 8.4737 19.8945 9.73082C21.195 10.9879 21.9256 12.693 21.9256 14.4708C21.9256 16.2486 21.195 17.9537 19.8945 19.2108C18.5941 20.4679 16.8302 21.1742 14.9911 21.1742ZM22.2016 9.0826C21.9892 9.0828 21.7788 9.0425 21.5826 8.96401C21.3863 8.88553 21.208 8.7704 21.0578 8.62521C20.9076 8.48002 20.7885 8.30763 20.7073 8.1179C20.6261 7.92817 20.5844 7.72483 20.5846 7.51951C20.5846 7.31433 20.6264 7.11117 20.7076 6.92161C20.7889 6.73206 20.9079 6.55982 21.058 6.41474C21.2081 6.26966 21.3863 6.15458 21.5823 6.07606C21.7784 5.99754 21.9886 5.95713 22.2009 5.95713C22.4131 5.95713 22.6233 5.99754 22.8194 6.07606C23.0155 6.15458 23.1936 6.26966 23.3437 6.41474C23.4938 6.55982 23.6129 6.73206 23.6941 6.92161C23.7753 7.11117 23.8171 7.31433 23.8171 7.51951C23.8171 8.38371 23.0941 9.0826 22.2016 9.0826Z" fill="#2A3149" stroke="url(#paint0_linear_917_131588)" stroke-linecap="round"/>
<path d="M14.9908 18.8242C17.4786 18.8242 19.4953 16.8747 19.4953 14.4698C19.4953 12.065 17.4786 10.1155 14.9908 10.1155C12.5031 10.1155 10.4863 12.065 10.4863 14.4698C10.4863 16.8747 12.5031 18.8242 14.9908 18.8242Z" fill="#2A3149" stroke="url(#paint1_linear_917_131588)" stroke-linecap="round"/>
</g>
<defs>
<linearGradient id="paint0_linear_917_131588" x1="15.0016" y1="1.42371" x2="15.0016" y2="27.5788" gradientUnits="userSpaceOnUse">
<stop stop-color="#C91EFE"/>
<stop offset="1" stop-color="#4A68F2"/>
</linearGradient>
<linearGradient id="paint1_linear_917_131588" x1="14.9908" y1="10.1155" x2="14.9908" y2="18.8242" gradientUnits="userSpaceOnUse">
<stop stop-color="#C91EFE"/>
<stop offset="1" stop-color="#4A68F2"/>
</linearGradient>
<clipPath id="clip0_917_131588">
<rect width="30" height="29" fill="white"/>
</clipPath>
</defs>
</svg>
