<svg width="35" height="21" viewBox="0 0 35 21" fill="none" xmlns="http://www.w3.org/2000/svg">
<path fill-rule="evenodd" clip-rule="evenodd" d="M29.1608 12.997C30.2328 14.0488 31.3643 15.0386 32.3259 16.1965C32.7506 16.711 33.1527 17.2421 33.4603 17.8393C33.8962 18.6882 33.5014 19.6224 32.744 19.6731L28.0358 19.671C26.8214 19.7722 25.8527 19.2809 25.0382 18.4465C24.3862 17.7792 23.7826 17.069 23.1556 16.3791C22.8986 16.0972 22.6297 15.8319 22.3084 15.6222C21.6656 15.2029 21.1077 15.3313 20.7404 16.005C20.3666 16.6903 20.2818 17.4491 20.245 18.2128C20.1946 19.327 19.8594 19.6199 18.7458 19.6709C16.3657 19.7837 14.107 19.4218 12.0087 18.2152C10.1587 17.1514 8.72423 15.6497 7.47551 13.9496C5.04443 10.6391 3.18269 7.00151 1.50941 3.26194C1.13277 2.41944 1.40821 1.96733 2.33318 1.95109C3.86915 1.92108 5.40491 1.92324 6.94269 1.94894C7.56693 1.95811 7.98021 2.31797 8.22123 2.91069C9.05223 4.96424 10.0691 6.91816 11.3454 8.72903C11.6853 9.21114 12.0319 9.6933 12.5254 10.0327C13.0715 10.4084 13.4871 10.2839 13.744 9.67259C13.907 9.285 13.9783 8.86752 14.0151 8.4524C14.1368 7.02421 14.1529 5.59849 13.9394 4.17529C13.8084 3.28716 13.3106 2.71214 12.4287 2.54389C11.9787 2.45821 12.0457 2.28992 12.2636 2.03177C12.642 1.58672 12.9979 1.30957 13.7075 1.30957H19.0286C19.8662 1.47572 20.0523 1.85393 20.167 2.70106L20.1715 8.6412C20.1624 8.96915 20.3345 9.94231 20.9223 10.1594C21.3926 10.3139 21.7027 9.93569 21.9849 9.63593C23.259 8.277 24.1682 6.67101 24.9805 5.00805C25.341 4.27684 25.6511 3.51741 25.9514 2.75867C26.1739 2.19564 26.5232 1.91861 27.1543 1.93079L32.2754 1.93546C32.4267 1.93188 32.5781 1.94109 32.7279 1.96299C33.5908 2.11078 33.8273 2.48384 33.5607 3.33076C33.1408 4.65948 32.3237 5.76691 31.5246 6.87918C30.6706 8.06684 29.7572 9.21382 28.9102 10.4085C28.1321 11.4995 28.1939 12.0494 29.1607 12.997L29.1608 12.997Z" fill="#2A3149" stroke="url(#paint0_linear_917_131594)" stroke-linecap="round"/>
<defs>
<linearGradient id="paint0_linear_917_131594" x1="17.5053" y1="1.30957" x2="17.5053" y2="19.6904" gradientUnits="userSpaceOnUse">
<stop stop-color="#C91EFE"/>
<stop offset="1" stop-color="#4A68F2"/>
</linearGradient>
</defs>
</svg>
