<svg width="18" height="35" viewBox="0 0 18 35" fill="none" xmlns="http://www.w3.org/2000/svg">
<path d="M1.4341 18.2573H4.94181V33.0991C4.94181 33.3922 5.17283 33.6296 5.45794 33.6296H11.4054C11.6905 33.6296 11.9215 33.3922 11.9215 33.0991V18.3273H15.9539C16.2161 18.3273 16.4367 18.125 16.4667 17.8574L17.0791 12.3934C17.0959 12.243 17.0496 12.0925 16.9517 11.9797C16.8538 11.8668 16.7136 11.8022 16.5665 11.8022H11.9217V8.3771C11.9217 7.3446 12.4626 6.82103 13.5296 6.82103C13.6816 6.82103 16.5665 6.82103 16.5665 6.82103C16.8516 6.82103 17.0826 6.58349 17.0826 6.29056V1.27511C17.0826 0.982085 16.8516 0.744648 16.5665 0.744648H12.3812C12.3517 0.743163 12.2861 0.740723 12.1895 0.740723C11.4633 0.740723 8.93913 0.887237 6.94522 2.77251C4.73598 4.8617 5.04308 7.36316 5.11647 7.79687V11.8021H1.4341C1.14899 11.8021 0.917969 12.0395 0.917969 12.3326V17.7268C0.917969 18.0198 1.14899 18.2573 1.4341 18.2573Z" fill="#2A3149" stroke="url(#paint0_linear_917_131597)" stroke-linecap="round"/>
<defs>
<linearGradient id="paint0_linear_917_131597" x1="9.00029" y1="0.740723" x2="9.00029" y2="33.6296" gradientUnits="userSpaceOnUse">
<stop stop-color="#C91EFE"/>
<stop offset="1" stop-color="#4A68F2"/>
</linearGradient>
</defs>
</svg>
