<svg width="35" height="24" viewBox="0 0 35 24" fill="none" xmlns="http://www.w3.org/2000/svg">
<path d="M32.3946 2.93786C31.2284 1.58035 29.0753 1.02661 24.9632 1.02661H10.0365C5.8304 1.02661 3.64077 1.61607 2.47894 3.06134C1.34619 4.47048 1.34619 6.54675 1.34619 9.42035V14.8974C1.34619 20.4645 2.69019 23.2911 10.0365 23.2911H24.9633C28.5293 23.2911 30.5052 22.8024 31.7836 21.6044C33.0945 20.3759 33.6539 18.3701 33.6539 14.8974V9.42035C33.6539 6.38989 33.5662 4.30138 32.3946 2.93786ZM22.0878 12.915L15.3097 16.3839C15.1581 16.4615 14.9924 16.5 14.8269 16.5C14.6396 16.5 14.4526 16.4506 14.287 16.3524C13.9752 16.1674 13.7848 15.8364 13.7848 15.4794V8.56392C13.7848 8.20756 13.9746 7.8769 14.2858 7.69178C14.5971 7.50666 14.9843 7.494 15.3073 7.65831L22.0854 11.1048C22.4303 11.2802 22.6469 11.6288 22.6474 12.0091C22.6478 12.3898 22.4322 12.7389 22.0878 12.915Z" fill="#2A3149" stroke="url(#paint0_linear_917_131600)" stroke-linecap="round"/>
<defs>
<linearGradient id="paint0_linear_917_131600" x1="17.5" y1="1.02661" x2="17.5" y2="23.2911" gradientUnits="userSpaceOnUse">
<stop stop-color="#C91EFE"/>
<stop offset="1" stop-color="#4A68F2"/>
</linearGradient>
</defs>
</svg>
