<svg width="140" height="140" viewBox="0 0 140 140" fill="none" xmlns="http://www.w3.org/2000/svg">
<g clip-path="url(#clip0_917_79381)">
<path style="mix-blend-mode:color-dodge" d="M94.8802 125.742C94.2189 125.742 93.6726 126.288 93.6726 126.949C93.6726 127.61 94.2189 128.156 94.8802 128.156C95.5416 128.156 96.0879 127.61 96.0879 126.949C96.0879 126.288 95.5416 125.742 94.8802 125.742Z" fill="white"/>
<path style="mix-blend-mode:color-dodge" d="M111.845 96.2259C111.146 96.2259 110.58 95.6598 110.58 94.9614C110.58 94.263 111.146 93.6968 111.845 93.6968C112.543 93.6968 113.11 94.263 113.11 94.9614C113.11 95.6598 112.543 96.2259 111.845 96.2259Z" fill="white"/>
<path style="mix-blend-mode:color-dodge" d="M119.838 121.173C119.119 121.173 118.573 121.747 118.573 122.437C118.573 123.127 119.148 123.702 119.838 123.702C120.528 123.702 121.103 123.127 121.103 122.437C121.103 121.747 120.528 121.173 119.838 121.173Z" fill="white"/>
<path style="mix-blend-mode:color-dodge" d="M56.9541 130.369C56.2395 130.369 55.6602 129.79 55.6602 129.076C55.6602 128.362 56.2395 127.783 56.9541 127.783C57.6687 127.783 58.248 128.362 58.248 129.076C58.248 129.79 57.6687 130.369 56.9541 130.369Z" fill="white"/>
<path style="mix-blend-mode:color-dodge" d="M72.7975 95.1913C72.0511 95.1913 71.4461 94.5865 71.4461 93.8405C71.4461 93.0945 72.0511 92.4897 72.7975 92.4897C73.5439 92.4897 74.1489 93.0945 74.1489 93.8405C74.1489 94.5865 73.5439 95.1913 72.7975 95.1913Z" fill="white"/>
<path style="mix-blend-mode:color-dodge" d="M82.9474 123.069C82.1998 123.069 81.596 123.673 81.596 124.42C81.596 125.167 82.1998 125.771 82.9474 125.771C83.695 125.771 84.2988 125.167 84.2988 124.42C84.2988 123.673 83.695 123.069 82.9474 123.069Z" fill="url(#paint0_radial_917_79381)"/>
<path style="mix-blend-mode:color-dodge" d="M103.449 63.606C102.672 63.606 102.011 64.2382 102.011 65.043C102.011 65.8477 102.643 66.48 103.449 66.48C104.254 66.48 104.886 65.8477 104.886 65.043C104.886 64.2382 104.254 63.606 103.449 63.606Z" fill="white"/>
<path style="mix-blend-mode:color-dodge" d="M25.2103 122.523C24.4052 122.523 23.7726 123.156 23.7726 123.96C23.7726 124.765 24.4052 125.397 25.2103 125.397C26.0154 125.397 26.6479 124.765 26.6479 123.96C26.6479 123.156 26.0154 122.523 25.2103 122.523Z" fill="white"/>
<path style="mix-blend-mode:color-dodge" d="M113.368 85.8508C112.563 85.8508 111.931 86.5119 111.931 87.2878C111.931 88.0638 112.592 88.7248 113.368 88.7248C114.145 88.7248 114.806 88.0638 114.806 87.2878C114.806 86.5119 114.145 85.8508 113.368 85.8508Z" fill="white"/>
<path style="mix-blend-mode:color-dodge" d="M46.4012 92.0879C45.5961 92.0879 44.9348 92.7489 44.9348 93.5536C44.9348 94.3584 45.5961 95.0194 46.4012 95.0194C47.2063 95.0194 47.8677 94.3584 47.8677 93.5536C47.8677 92.7489 47.2063 92.0879 46.4012 92.0879Z" fill="white"/>
<path style="mix-blend-mode:color-dodge" d="M66.0976 123.098C65.2718 123.098 64.6024 122.429 64.6024 121.604C64.6024 120.778 65.2718 120.109 66.0976 120.109C66.9234 120.109 67.5928 120.778 67.5928 121.604C67.5928 122.429 66.9234 123.098 66.0976 123.098Z" fill="white"/>
<path style="mix-blend-mode:color-dodge" d="M82.4009 66.6812C81.5592 66.6812 80.8769 65.9992 80.8769 65.158C80.8769 64.3167 81.5592 63.6348 82.4009 63.6348C83.2425 63.6348 83.9248 64.3167 83.9248 65.158C83.9248 65.9992 83.2425 66.6812 82.4009 66.6812Z" fill="white"/>
<path style="mix-blend-mode:color-dodge" d="M98.877 88.1501C98.0195 88.1501 97.3243 87.4552 97.3243 86.5981C97.3243 85.741 98.0195 85.0461 98.877 85.0461C99.7345 85.0461 100.43 85.741 100.43 86.5981C100.43 87.4552 99.7345 88.1501 98.877 88.1501Z" fill="white"/>
<path style="mix-blend-mode:color-dodge" d="M11.7535 91.0815C10.8909 91.0815 10.1721 91.8 10.1721 92.6622C10.1721 93.5245 10.8909 94.243 11.7535 94.243C12.6161 94.243 13.335 93.5245 13.335 92.6622C13.335 91.8 12.6161 91.0815 11.7535 91.0815Z" fill="url(#paint1_radial_917_79381)"/>
<path style="mix-blend-mode:color-dodge" d="M114.691 37.1938C113.828 37.1938 113.11 37.9123 113.11 38.7746C113.11 39.6368 113.828 40.3553 114.691 40.3553C115.554 40.3553 116.272 39.6368 116.272 38.7746C116.272 37.9123 115.554 37.1938 114.691 37.1938Z" fill="url(#paint2_radial_917_79381)"/>
<path style="mix-blend-mode:color-dodge" d="M18.0504 142.412C17.177 142.412 16.4689 141.704 16.4689 140.831C16.4689 139.958 17.177 139.25 18.0504 139.25C18.9238 139.25 19.6318 139.958 19.6318 140.831C19.6318 141.704 18.9238 142.412 18.0504 142.412Z" fill="white"/>
<path style="mix-blend-mode:color-dodge" d="M120.126 137.21C119.236 137.21 118.515 136.489 118.515 135.6C118.515 134.711 119.236 133.991 120.126 133.991C121.015 133.991 121.736 134.711 121.736 135.6C121.736 136.489 121.015 137.21 120.126 137.21Z" fill="white"/>
<path style="mix-blend-mode:color-dodge" d="M102.5 36.9639C101.608 36.9639 100.889 37.6824 100.889 38.5733C100.889 39.4643 101.608 40.1828 102.5 40.1828C103.391 40.1828 104.11 39.4643 104.11 38.5733C104.11 37.6824 103.391 36.9639 102.5 36.9639Z" fill="white"/>
<path style="mix-blend-mode:color-dodge" d="M31.9669 68.9517C31.0756 68.9517 30.3567 69.6702 30.3567 70.5611C30.3567 71.4521 31.0756 72.1706 31.9669 72.1706C32.8583 72.1706 33.5771 71.4521 33.5771 70.5611C33.5771 69.6702 32.8583 68.9517 31.9669 68.9517Z" fill="url(#paint3_radial_917_79381)"/>
<path style="mix-blend-mode:color-dodge" d="M56.5514 112.234C55.6601 112.234 54.9412 112.953 54.9412 113.844C54.9412 114.735 55.6601 115.453 56.5514 115.453C57.4428 115.453 58.1616 114.735 58.1616 113.844C58.1616 112.953 57.4428 112.234 56.5514 112.234Z" fill="white"/>
<path style="mix-blend-mode:color-dodge" d="M79.6404 91.829C78.7193 91.829 77.9727 91.0827 77.9727 90.162C77.9727 89.2414 78.7193 88.4951 79.6404 88.4951C80.5614 88.4951 81.3081 89.2414 81.3081 90.162C81.3081 91.0827 80.5614 91.829 79.6404 91.829Z" fill="white"/>
<path style="mix-blend-mode:color-dodge" d="M62.5032 36.5903C61.5831 36.5903 60.8355 37.3376 60.8355 38.2573C60.8355 39.1769 61.5831 39.9242 62.5032 39.9242C63.4233 39.9242 64.1709 39.1769 64.1709 38.2573C64.1709 37.3376 63.4233 36.5903 62.5032 36.5903Z" fill="white"/>
<path style="mix-blend-mode:color-dodge" d="M102.96 11.9023C102.023 11.9023 101.263 11.1431 101.263 10.2067C101.263 9.27016 102.023 8.51099 102.96 8.51099C103.897 8.51099 104.656 9.27016 104.656 10.2067C104.656 11.1431 103.897 11.9023 102.96 11.9023Z" fill="white"/>
<path style="mix-blend-mode:color-dodge" d="M101.896 59.2378C100.947 59.2378 100.171 60.0138 100.171 60.9622C100.171 61.9106 100.947 62.6579 101.896 62.6579C102.845 62.6579 103.621 61.8819 103.621 60.9622C103.621 60.0425 102.845 59.2378 101.896 59.2378Z" fill="url(#paint4_radial_917_79381)"/>
<path style="mix-blend-mode:color-dodge" d="M1.66101 102.204C0.712139 102.204 -0.0642037 102.98 -0.0642037 103.929C-0.0642037 104.877 0.712139 105.653 1.66101 105.653C2.60988 105.653 3.38623 104.877 3.38623 103.929C3.38623 102.98 2.60988 102.204 1.66101 102.204Z" fill="white"/>
<path style="mix-blend-mode:color-dodge" d="M114.778 -0.7146C113.8 -0.7146 113.024 0.0613811 113.024 1.03855C113.024 2.01571 113.8 2.7917 114.778 2.7917C115.755 2.7917 116.532 2.01571 116.532 1.03855C116.532 0.0613811 115.755 -0.7146 114.778 -0.7146Z" fill="white"/>
<path style="mix-blend-mode:color-dodge" d="M52.4682 71.6245C51.4906 71.6245 50.7142 72.4005 50.7142 73.3777C50.7142 74.3548 51.4906 75.1308 52.4682 75.1308C53.4458 75.1308 54.2222 74.3548 54.2222 73.3777C54.2222 72.4005 53.4458 71.6245 52.4682 71.6245Z" fill="white"/>
<path style="mix-blend-mode:color-dodge" d="M110.148 135.284C109.164 135.284 108.366 134.486 108.366 133.502C108.366 132.518 109.164 131.72 110.148 131.72C111.133 131.72 111.931 132.518 111.931 133.502C111.931 134.486 111.133 135.284 110.148 135.284Z" fill="white"/>
<path style="mix-blend-mode:color-dodge" d="M82.8033 50.4141C81.7969 50.4141 80.9918 51.2188 80.9918 52.2247C80.9918 53.2306 81.7969 54.0353 82.8033 54.0353C83.8096 54.0353 84.6147 53.2306 84.6147 52.2247C84.6147 51.2188 83.8096 50.4141 82.8033 50.4141Z" fill="white"/>
<path style="mix-blend-mode:color-dodge" d="M23.1685 10.7527C22.1621 10.7527 21.357 11.5574 21.357 12.5633C21.357 13.5692 22.1621 14.3739 23.1685 14.3739C24.1749 14.3739 24.98 13.5692 24.98 12.5633C24.98 11.5574 24.1749 10.7527 23.1685 10.7527Z" fill="url(#paint5_radial_917_79381)"/>
<path style="mix-blend-mode:color-dodge" d="M112.88 29.4915C111.845 29.4915 111.011 30.3249 111.011 31.3596C111.011 32.3942 111.845 33.2277 112.88 33.2277C113.915 33.2277 114.72 32.3942 114.72 31.3596C114.72 30.3249 113.886 29.4915 112.88 29.4915Z" fill="white"/>
<path style="mix-blend-mode:color-dodge" d="M67.133 134.709C66.0978 134.709 65.264 135.542 65.264 136.577C65.264 137.612 66.0978 138.445 67.133 138.445C68.1681 138.445 69.002 137.612 69.002 136.577C69.002 135.542 68.1681 134.709 67.133 134.709Z" fill="url(#paint6_radial_917_79381)"/>
<path style="mix-blend-mode:color-dodge" d="M25.0378 49.6667C24.0027 49.6667 23.1401 50.5002 23.1401 51.5636C23.1401 52.627 23.9739 53.4604 25.0378 53.4604C26.1017 53.4604 26.9355 52.627 26.9355 51.5636C26.9355 50.5002 26.1017 49.6667 25.0378 49.6667Z" fill="white"/>
<path style="mix-blend-mode:color-dodge" d="M111.672 102.175C110.608 102.175 109.774 103.037 109.774 104.072C109.774 105.107 110.637 105.969 111.672 105.969C112.707 105.969 113.57 105.107 113.57 104.072C113.57 103.037 112.707 102.175 111.672 102.175Z" fill="url(#paint7_radial_917_79381)"/>
<path style="mix-blend-mode:color-dodge" d="M66.615 21.1279C65.5511 21.1279 64.6885 21.9901 64.6885 23.0535C64.6885 24.1169 65.5511 24.9791 66.615 24.9791C67.6789 24.9791 68.5415 24.1169 68.5415 23.0535C68.5415 21.9901 67.6789 21.1279 66.615 21.1279Z" fill="white"/>
<path style="mix-blend-mode:color-dodge" d="M109.056 -3.04224C107.963 -3.04224 107.072 -2.15129 107.072 -1.05916C107.072 0.032963 107.963 0.92391 109.056 0.92391C110.148 0.92391 111.04 0.032963 111.04 -1.05916C111.04 -2.15129 110.148 -3.04224 109.056 -3.04224Z" fill="white"/>
<path style="mix-blend-mode:color-dodge" d="M135.93 119.139C134.786 119.139 133.859 118.212 133.859 117.069C133.859 115.926 134.786 115 135.93 115C137.073 115 138 115.926 138 117.069C138 118.212 137.073 119.139 135.93 119.139Z" fill="white"/>
<path style="mix-blend-mode:color-dodge" d="M28.7755 8.74097C27.6254 8.74097 26.6765 9.68939 26.6765 10.839C26.6765 11.9886 27.6254 12.937 28.7755 12.937C29.9256 12.937 30.8745 11.9886 30.8745 10.839C30.8745 9.68939 29.9256 8.74097 28.7755 8.74097Z" fill="white"/>
<path style="mix-blend-mode:color-dodge" d="M35.964 121.92C34.7851 121.92 33.8363 122.868 33.8363 124.046C33.8363 125.225 34.7851 126.173 35.964 126.173C37.1429 126.173 38.0918 125.225 38.0918 124.046C38.0918 122.868 37.1429 121.92 35.964 121.92Z" fill="url(#paint8_radial_917_79381)"/>
<path style="mix-blend-mode:color-dodge" d="M120.816 26.876C119.608 26.876 118.63 27.8531 118.63 29.0602C118.63 30.2673 119.608 31.2445 120.816 31.2445C122.023 31.2445 123.001 30.2673 123.001 29.0602C123.001 27.8531 122.023 26.876 120.816 26.876Z" fill="url(#paint9_radial_917_79381)"/>
<path style="mix-blend-mode:color-dodge" d="M83.4934 71.337C82.2865 71.337 81.3082 70.3591 81.3082 69.1528C81.3082 67.9464 82.2865 66.9685 83.4934 66.9685C84.7003 66.9685 85.6787 67.9464 85.6787 69.1528C85.6787 70.3591 84.7003 71.337 83.4934 71.337Z" fill="white"/>
<g style="mix-blend-mode:color-dodge" opacity="0.9">
<path d="M102.758 156.293C102.758 156.293 102.96 156.178 102.988 156.121C103.017 156.063 103.075 155.948 103.046 155.833L95.2824 126.863C95.2249 126.691 95.0811 126.576 94.9086 126.576C94.6786 126.633 94.5923 126.719 94.5636 126.777C94.5348 126.834 94.4773 126.949 94.5348 127.064L102.327 156.063C102.327 156.063 102.528 156.322 102.701 156.322C102.73 156.322 102.758 156.322 102.787 156.322L102.758 156.293Z" fill="url(#paint10_linear_917_79381)"/>
</g>
<g style="mix-blend-mode:color-dodge" opacity="0.9">
<path d="M94.8801 127.352C94.8801 127.352 95.1389 127.294 95.2252 127.15L112.19 95.1627C112.276 94.9903 112.19 94.7603 112.017 94.6454C111.96 94.6166 111.902 94.5879 111.816 94.5879C111.701 94.5879 111.557 94.6454 111.471 94.7891L94.5351 126.748C94.5351 126.748 94.4776 126.978 94.5351 127.036C94.5351 127.093 94.5926 127.208 94.7364 127.265C94.7939 127.294 94.8514 127.323 94.9089 127.323L94.8801 127.352Z" fill="url(#paint11_linear_917_79381)"/>
</g>
<g style="mix-blend-mode:color-dodge" opacity="0.9">
<path d="M102.673 156.35C102.673 156.35 102.931 156.293 103.018 156.149L120.183 122.638C120.27 122.466 120.183 122.236 120.011 122.121C119.953 122.092 119.896 122.063 119.838 122.063C119.723 122.063 119.58 122.121 119.493 122.265L102.327 155.776C102.241 155.977 102.327 156.207 102.5 156.293C102.557 156.293 102.615 156.322 102.673 156.322V156.35Z" fill="url(#paint12_linear_917_79381)"/>
</g>
<g style="mix-blend-mode:color-dodge" opacity="0.9">
<path d="M119.838 122.811C119.838 122.811 119.896 122.811 119.953 122.811C120.154 122.753 120.298 122.552 120.241 122.322L112.247 94.8751C112.19 94.7314 112.046 94.6165 111.873 94.6165C111.643 94.6739 111.557 94.7602 111.528 94.8176C111.5 94.8751 111.442 94.9901 111.5 95.105L119.493 122.552C119.551 122.696 119.694 122.811 119.867 122.811H119.838Z" fill="url(#paint13_linear_917_79381)"/>
</g>
<g style="mix-blend-mode:color-dodge" opacity="0.9">
<path d="M70.5543 158.937C70.5543 158.937 70.6693 158.937 70.7268 158.908C70.8705 158.851 70.8993 158.736 70.9281 158.678C70.9281 158.621 70.9856 158.506 70.9281 158.391L57.3276 128.904C57.3276 128.904 57.1263 128.674 56.9826 128.674C56.9251 128.674 56.8675 128.674 56.81 128.702C56.695 128.76 56.6375 128.875 56.6088 128.932C56.6088 128.99 56.5513 129.105 56.6088 129.22L70.2092 158.707C70.2092 158.707 70.4105 158.937 70.5543 158.937Z" fill="url(#paint14_linear_917_79381)"/>
</g>
<g style="mix-blend-mode:color-dodge" opacity="0.9">
<path d="M56.9542 129.45C57.098 129.45 57.2417 129.364 57.2992 129.22L73.1425 93.9845C73.2287 93.7834 73.1425 93.5822 72.9412 93.4672C72.8837 93.4672 72.8262 93.4385 72.7687 93.4385C72.6249 93.4385 72.4811 93.5247 72.4236 93.6684L56.5804 128.904C56.4941 129.105 56.5804 129.335 56.7817 129.421C56.8392 129.421 56.8967 129.45 56.9542 129.45Z" fill="url(#paint15_linear_917_79381)"/>
</g>
<g style="mix-blend-mode:color-dodge" opacity="0.9">
<path d="M70.5543 158.937C70.5543 158.937 70.8418 158.851 70.9281 158.678L83.3209 124.564C83.3784 124.363 83.2921 124.161 83.0909 124.075C83.0334 124.075 83.0046 124.075 82.9471 124.075C82.8033 124.075 82.6596 124.161 82.5733 124.334L70.1805 158.448C70.123 158.65 70.2092 158.851 70.4105 158.937C70.468 158.937 70.4968 158.937 70.5543 158.937Z" fill="url(#paint16_linear_917_79381)"/>
</g>
<g style="mix-blend-mode:color-dodge" opacity="0.9">
<path d="M82.9473 124.823C82.9473 124.823 83.0335 124.823 83.0623 124.823C83.2061 124.765 83.2636 124.679 83.2923 124.621C83.2923 124.564 83.3498 124.449 83.2923 124.334L73.1423 93.7258C73.1423 93.7258 72.941 93.4958 72.7685 93.4958C72.5097 93.5533 72.4522 93.6395 72.4234 93.697C72.4234 93.7545 72.3659 93.8695 72.4234 93.9844L82.5447 124.564C82.6022 124.736 82.7747 124.823 82.9185 124.823H82.9473Z" fill="url(#paint17_linear_917_79381)"/>
</g>
<g style="mix-blend-mode:color-dodge" opacity="0.9">
<path d="M113.34 87.6615C113.34 87.6615 113.455 87.6615 113.484 87.6328C113.685 87.5465 113.771 87.3166 113.685 87.1154L103.794 64.8706C103.794 64.8706 103.592 64.6406 103.449 64.6406C103.391 64.6406 103.334 64.6406 103.305 64.6694C103.161 64.7269 103.132 64.8131 103.104 64.8706C103.104 64.928 103.046 65.043 103.104 65.1579L112.995 87.4028C112.995 87.4028 113.196 87.6328 113.34 87.6328V87.6615Z" fill="url(#paint18_linear_917_79381)"/>
</g>
<g style="mix-blend-mode:color-dodge" opacity="0.9">
<path d="M25.2102 124.334C25.2102 124.334 25.469 124.277 25.5265 124.162L46.6892 93.7547C46.8042 93.5822 46.7467 93.3523 46.5742 93.2373C46.4879 93.1799 46.4017 93.1511 46.3441 93.1511C46.2291 93.1511 46.1141 93.2086 46.0279 93.3236L24.8652 123.702C24.8652 123.702 24.7789 123.932 24.8077 123.989C24.8077 124.047 24.8652 124.162 24.9802 124.248C25.0665 124.305 25.1527 124.305 25.2102 124.305V124.334Z" fill="url(#paint19_linear_917_79381)"/>
</g>
<g style="mix-blend-mode:color-dodge" opacity="0.9">
<path d="M103.449 65.4454C103.65 65.4454 103.851 65.2729 103.822 65.043C103.822 64.8418 103.65 64.6406 103.42 64.6406L82.3723 64.7556C82.171 64.7556 81.9985 64.928 81.9985 65.1579C81.9985 65.3016 82.056 65.3879 82.1135 65.4454C82.1422 65.5028 82.2572 65.5603 82.401 65.5603L103.449 65.4454Z" fill="url(#paint20_linear_917_79381)"/>
</g>
<g style="mix-blend-mode:color-dodge" opacity="0.9">
<path d="M113.34 87.69C113.34 87.69 113.57 87.6325 113.656 87.5176C113.743 87.4026 113.743 87.2877 113.714 87.2302C113.714 87.1727 113.656 87.0577 113.57 86.9715L82.6024 64.8416C82.6024 64.8416 82.4298 64.7554 82.3723 64.7554C82.2573 64.7554 82.1423 64.8129 82.056 64.9278C81.941 65.1003 81.9698 65.3589 82.1423 65.4739L113.11 87.6038C113.11 87.6038 113.282 87.6613 113.34 87.6613V87.69Z" fill="url(#paint21_linear_917_79381)"/>
</g>
<g style="mix-blend-mode:color-dodge" opacity="0.9">
<path d="M66.0691 121.977C66.0691 121.977 66.2128 121.977 66.2991 121.92C66.4141 121.834 66.4429 121.719 66.4716 121.661C66.5004 121.604 66.4716 121.489 66.4141 121.374L46.7467 93.3234C46.7467 93.3234 46.5741 93.1797 46.4304 93.1797C46.3729 93.1797 46.2866 93.1797 46.2003 93.2372C46.0278 93.3521 45.9703 93.6108 46.0853 93.7832L65.7528 121.834C65.7528 121.834 65.9253 121.977 66.0691 121.977Z" fill="url(#paint22_linear_917_79381)"/>
</g>
<g style="mix-blend-mode:color-dodge" opacity="0.9">
<path d="M98.8767 86.9715C98.8767 86.9715 99.0205 86.9715 99.1067 86.8853C99.2217 86.7991 99.2505 86.6841 99.2505 86.6266C99.2505 86.5692 99.2505 86.4542 99.1642 86.3392L82.6884 64.8991C82.6884 64.8991 82.4871 64.7554 82.3721 64.7554C82.3146 64.7554 82.2284 64.7554 82.1421 64.8416C81.9696 64.9853 81.9408 65.2152 82.0558 65.3877L98.5316 86.8278C98.5316 86.8278 98.7329 86.9715 98.8479 86.9715H98.8767Z" fill="url(#paint23_linear_917_79381)"/>
</g>
<g style="mix-blend-mode:color-dodge" opacity="0.9">
<path d="M-18.7253 107.665C-18.7253 107.665 -18.6103 107.665 -18.5528 107.636L11.926 93.0073C11.926 93.0073 12.0985 92.8348 12.1273 92.7773C12.1273 92.7199 12.1848 92.6049 12.1273 92.4899C12.041 92.3175 11.8972 92.26 11.7822 92.26C11.7247 92.26 11.6672 92.26 11.6097 92.2888L-18.8691 106.918C-19.0704 107.004 -19.1566 107.234 -19.0416 107.435C-18.9554 107.607 -18.8116 107.665 -18.6966 107.665H-18.7253Z" fill="url(#paint24_linear_917_79381)"/>
</g>
<g style="mix-blend-mode:color-dodge" opacity="0.9">
<path d="M98.8768 86.9716C99.0781 86.9716 99.2506 86.8279 99.2506 86.6267L102.902 38.6306C102.902 38.4295 102.759 38.257 102.557 38.2283C102.327 38.2283 102.155 38.372 102.126 38.5732L98.4743 86.5692C98.4743 86.7704 98.6181 86.9429 98.8193 86.9716H98.8481H98.8768Z" fill="url(#paint25_linear_917_79381)"/>
</g>
<g style="mix-blend-mode:color-dodge" opacity="0.9">
<path d="M11.782 93.0358C11.782 93.0358 11.9545 93.0357 12.0695 92.9208L32.2833 70.8771C32.4271 70.7046 32.4271 70.4747 32.2833 70.331C32.197 70.2448 32.082 70.2161 32.0245 70.2161C31.967 70.2161 31.8232 70.2161 31.737 70.331L11.5232 92.4035C11.3794 92.5472 11.4082 92.8058 11.5519 92.9495C11.6382 93.0358 11.7532 93.0645 11.8107 93.0645L11.782 93.0358Z" fill="url(#paint26_linear_917_79381)"/>
</g>
<g style="mix-blend-mode:color-dodge" opacity="0.9">
<path d="M114.662 39.1481C114.864 39.1481 115.036 38.9756 115.036 38.7744C115.036 38.5445 114.864 38.3721 114.662 38.3721L102.5 38.1709C102.327 38.1709 102.155 38.3433 102.126 38.5445C102.126 38.7457 102.298 38.9469 102.5 38.9469L114.634 39.1481H114.662Z" fill="url(#paint27_linear_917_79381)"/>
</g>
<g style="mix-blend-mode:color-dodge" opacity="0.9">
<path d="M56.5517 114.246C56.5517 114.246 56.7242 114.246 56.8392 114.131L79.9284 90.4206C79.9284 90.4206 80.0434 90.047 79.9284 89.9033C79.8421 89.8171 79.6983 89.7883 79.6408 89.7883C79.5833 89.7883 79.4683 89.7883 79.3533 89.9033L56.2642 113.585C56.2642 113.585 56.1491 113.815 56.1491 113.873C56.1491 113.93 56.1491 114.045 56.2642 114.16C56.3504 114.246 56.4654 114.275 56.5229 114.275L56.5517 114.246Z" fill="url(#paint28_linear_917_79381)"/>
</g>
<g style="mix-blend-mode:color-dodge" opacity="0.9">
<path d="M108.423 146.205C108.423 146.205 108.596 146.205 108.682 146.119L120.385 135.888C120.385 135.888 120.5 135.686 120.528 135.629C120.528 135.571 120.528 135.456 120.442 135.341C120.327 135.226 120.212 135.198 120.155 135.198C120.097 135.198 119.982 135.198 119.896 135.284L108.193 145.515C108.193 145.515 108.078 145.717 108.049 145.774C108.049 145.832 108.049 145.947 108.136 146.062C108.251 146.176 108.366 146.205 108.423 146.205Z" fill="url(#paint29_linear_917_79381)"/>
</g>
<g style="mix-blend-mode:color-dodge" opacity="0.9">
<path d="M31.967 70.9634C31.967 70.9634 32.1395 70.9634 32.2545 70.8484L62.7908 38.5158C62.9346 38.3721 62.9059 38.1134 62.7908 37.9697C62.7046 37.8835 62.5896 37.8547 62.5321 37.8547C62.4746 37.8547 62.3595 37.8547 62.2445 37.9697L31.7082 70.2737C31.5644 70.4174 31.5644 70.676 31.7082 70.8197C31.7945 70.9059 31.9095 70.9347 31.967 70.9347V70.9634Z" fill="url(#paint30_linear_917_79381)"/>
</g>
<g style="mix-blend-mode:color-dodge" opacity="0.9">
<path d="M102.5 38.9755C102.701 38.9755 102.873 38.8031 102.902 38.6019L103.362 10.2354C103.362 10.0054 103.19 9.83301 102.989 9.83301C102.758 9.83301 102.586 10.0054 102.586 10.2066L102.126 38.5732C102.126 38.5732 102.183 38.8031 102.241 38.8606C102.27 38.9181 102.385 38.9755 102.528 38.9755H102.5Z" fill="url(#paint31_linear_917_79381)"/>
</g>
<g style="mix-blend-mode:color-dodge" opacity="0.9">
<path d="M18.0504 141.233C18.0504 141.233 18.1654 141.233 18.1941 141.205C18.3954 141.118 18.4817 140.888 18.3954 140.687L2.00585 103.785C2.00585 103.785 1.80458 103.555 1.63206 103.555C1.57455 103.555 1.51704 103.555 1.48828 103.584C1.28701 103.67 1.20075 103.9 1.28701 104.101L17.6766 141.003C17.6766 141.003 17.8778 141.233 18.0216 141.233H18.0504Z" fill="url(#paint32_linear_917_79381)"/>
</g>
<g style="mix-blend-mode:color-dodge" opacity="0.9">
<path d="M120.126 135.974C120.126 135.974 120.327 135.974 120.413 135.859L135.882 118.241C135.882 118.241 135.969 118.011 135.969 117.954C135.969 117.896 135.969 117.781 135.825 117.695C135.739 117.609 135.624 117.609 135.566 117.609C135.509 117.609 135.365 117.609 135.279 117.753L119.78 135.37C119.665 135.514 119.665 135.744 119.838 135.888C119.924 135.974 120.039 136.003 120.097 136.003L120.126 135.974Z" fill="url(#paint33_linear_917_79381)"/>
</g>
<g style="mix-blend-mode:color-dodge" opacity="0.9">
<path d="M79.6407 90.5356C79.6407 90.5356 79.8707 90.4782 79.9569 90.3919L102.212 61.1919C102.327 61.0195 102.299 60.7896 102.126 60.6746C102.04 60.6171 101.953 60.5884 101.896 60.5884C101.781 60.5884 101.666 60.6459 101.58 60.7321L79.3244 89.9321C79.2094 90.1045 79.2381 90.3345 79.4106 90.4782C79.4969 90.5356 79.5832 90.5644 79.6407 90.5644V90.5356Z" fill="url(#paint34_linear_917_79381)"/>
</g>
<g style="mix-blend-mode:color-dodge" opacity="0.9">
<path d="M56.5803 114.246C56.5803 114.246 56.8103 114.16 56.839 114.102C56.8678 114.045 56.9253 113.959 56.9253 113.815L52.871 73.3488C52.871 73.1476 52.6698 73.0039 52.4972 73.0039C52.3247 73.0039 52.2385 73.0901 52.1809 73.1476C52.1522 73.2051 52.0947 73.2913 52.0947 73.435L56.1489 113.901C56.1489 114.102 56.3215 114.246 56.5227 114.246H56.5515H56.5803Z" fill="url(#paint35_linear_917_79381)"/>
</g>
<g style="mix-blend-mode:color-dodge" opacity="0.9">
<path d="M108.423 146.205C108.624 146.205 108.797 146.062 108.797 145.86L110.522 133.56C110.522 133.387 110.407 133.186 110.206 133.157C109.947 133.157 109.803 133.301 109.774 133.473L108.049 145.774C108.02 145.975 108.164 146.177 108.394 146.205H108.452H108.423Z" fill="url(#paint36_linear_917_79381)"/>
</g>
<g style="mix-blend-mode:color-dodge" opacity="0.9">
<path d="M102.96 10.6091C102.96 10.6091 103.104 10.6091 103.19 10.5229L115.008 1.3548C115.18 1.2111 115.209 0.981179 115.065 0.808738C114.979 0.722517 114.864 0.665039 114.749 0.665039C114.691 0.665039 114.605 0.665041 114.519 0.751262L102.701 9.91937C102.529 10.0631 102.5 10.293 102.644 10.4654C102.73 10.5517 102.845 10.6091 102.96 10.6091Z" fill="url(#paint37_linear_917_79381)"/>
</g>
<g style="mix-blend-mode:color-dodge" opacity="0.9">
<path d="M110.148 133.904C110.148 133.904 110.292 133.904 110.349 133.847L135.825 118.298C135.998 118.183 136.055 117.953 135.94 117.781C135.883 117.666 135.739 117.58 135.595 117.58C135.538 117.58 135.451 117.58 135.394 117.637L109.918 133.157C109.746 133.272 109.688 133.502 109.803 133.703C109.861 133.818 110.004 133.904 110.148 133.904Z" fill="url(#paint38_linear_917_79381)"/>
</g>
<g style="mix-blend-mode:color-dodge" opacity="0.9">
<path d="M101.867 61.3068C102.011 61.3068 102.155 61.2205 102.212 61.0768C102.27 60.9619 102.241 60.8469 102.212 60.7894C102.212 60.732 102.155 60.617 102.011 60.5595L82.9187 51.8513C82.9187 51.8513 82.8037 51.8225 82.7462 51.8225C82.6024 51.8225 82.4587 51.9087 82.4012 52.0524C82.3437 52.1961 82.3724 52.3111 82.4012 52.3398C82.4012 52.3973 82.4874 52.5123 82.6024 52.5698L101.724 61.278C101.724 61.278 101.81 61.278 101.867 61.278V61.3068Z" fill="url(#paint39_linear_917_79381)"/>
</g>
<g style="mix-blend-mode:color-dodge" opacity="0.9">
<path d="M-2.62324 32.0206C-2.62324 32.0206 -2.47948 32.0206 -2.39322 31.9344L23.3988 12.8509C23.5425 12.7359 23.6 12.506 23.4563 12.3336C23.37 12.2186 23.255 12.1611 23.14 12.1611C23.0825 12.1611 22.9962 12.1611 22.9099 12.2474L-2.85328 31.3308C-2.85328 31.3308 -2.99704 31.532 -2.99704 31.5895C-2.99704 31.647 -2.99705 31.7619 -2.91079 31.8769C-2.82452 31.9631 -2.70951 32.0493 -2.59449 32.0493L-2.62324 32.0206Z" fill="url(#paint40_linear_917_79381)"/>
</g>
<g style="mix-blend-mode:color-dodge" opacity="0.9">
<path d="M1.6607 104.331C1.6607 104.331 1.97699 104.245 2.0345 104.072C2.09201 103.929 2.0345 103.842 2.0345 103.785C2.0345 103.727 1.94823 103.641 1.80447 103.584L-32.9874 91.4553C-32.9874 91.4553 -33.0449 91.4553 -33.0736 91.4553C-33.3037 91.4553 -33.4187 91.5415 -33.4762 91.6852C-33.5337 91.8289 -33.4762 91.9439 -33.4762 91.9726C-33.4762 92.0301 -33.3899 92.1163 -33.2462 92.1738L1.54568 104.302H1.6607V104.331Z" fill="url(#paint41_linear_917_79381)"/>
</g>
<g style="mix-blend-mode:color-dodge" opacity="0.9">
<path d="M82.8036 52.6272C82.8036 52.6272 82.9473 52.6273 83.0336 52.5698L113.11 31.7044C113.282 31.5894 113.311 31.3595 113.196 31.1871C113.11 31.0721 112.995 31.0146 112.88 31.0146C112.794 31.0146 112.736 31.0146 112.679 31.0721L82.6023 51.9375C82.6023 51.9375 82.4585 52.1387 82.4298 52.1961C82.4298 52.2536 82.4298 52.3686 82.4873 52.4835C82.6023 52.6272 82.7461 52.656 82.8036 52.656V52.6272Z" fill="url(#paint42_linear_917_79381)"/>
</g>
<g style="mix-blend-mode:color-dodge" opacity="0.9">
<path d="M82.8036 52.5986C82.8036 52.5986 82.9186 52.5986 82.9761 52.5411C83.0911 52.4837 83.1486 52.3687 83.1774 52.3112C83.1774 52.2537 83.2061 52.1388 83.1486 52.0238L66.9603 22.8525C66.8741 22.7088 66.7303 22.6514 66.6153 22.6514C66.5578 22.6514 66.5003 22.6514 66.4428 22.7088C66.3278 22.7663 66.2703 22.8813 66.2415 22.9388C66.2415 22.9963 66.2128 23.1112 66.2703 23.2262L82.4585 52.3974C82.5448 52.5411 82.6886 52.5986 82.8036 52.5986Z" fill="url(#paint43_linear_917_79381)"/>
</g>
<g style="mix-blend-mode:color-dodge" opacity="0.9">
<path d="M23.1685 12.9371C23.1685 12.9371 23.2547 12.9371 23.2835 12.9371C23.4272 12.8796 23.4848 12.7934 23.5135 12.7359C23.5135 12.6784 23.571 12.5635 23.5135 12.4485L12.1558 -20.6314C12.1558 -20.6314 11.9545 -20.8613 11.8108 -20.8613C11.552 -20.8038 11.4945 -20.7176 11.4657 -20.6601C11.4657 -20.6027 11.4082 -20.4877 11.4657 -20.3727L22.8234 12.7072C22.8809 12.8796 23.0534 12.9658 23.1972 12.9658L23.1685 12.9371Z" fill="url(#paint44_linear_917_79381)"/>
</g>
<g style="mix-blend-mode:color-dodge" opacity="0.9">
<path d="M66.644 23.4559C66.8453 23.4559 67.0178 23.2548 66.989 23.0248L63.9699 -6.80746C63.9699 -7.00865 63.7686 -7.15234 63.5674 -7.15234C63.3086 -7.15234 63.1648 -6.95116 63.1648 -6.72124L66.1839 23.111C66.1839 23.3122 66.3852 23.4559 66.5865 23.4559H66.6152H66.644Z" fill="url(#paint45_linear_917_79381)"/>
</g>
<g style="mix-blend-mode:color-dodge" opacity="0.9">
<path d="M112.909 31.7042C113.11 31.7042 113.282 31.5031 113.254 31.2731L109.458 -1.11704C109.458 -1.31822 109.257 -1.46191 109.084 -1.46191C108.826 -1.46191 108.682 -1.23199 108.682 -1.03081L112.477 31.3881C112.477 31.5605 112.679 31.7042 112.851 31.7042H112.88H112.909Z" fill="url(#paint46_linear_917_79381)"/>
</g>
<g style="mix-blend-mode:color-dodge" opacity="0.9">
<path d="M66.6154 23.4559C66.6154 23.4559 66.7592 23.4559 66.8167 23.3984L109.286 -0.714601C109.43 -0.800822 109.516 -1.03074 109.401 -1.23193C109.315 -1.37563 109.171 -1.43311 109.056 -1.43311C108.998 -1.43311 108.941 -1.43311 108.883 -1.37563L66.4429 22.7374C66.4429 22.7374 66.2704 22.9098 66.2704 22.9673C66.2704 23.0248 66.2416 23.1397 66.2991 23.2547C66.3567 23.3697 66.5004 23.4559 66.6442 23.4559H66.6154Z" fill="url(#paint47_linear_917_79381)"/>
</g>
<g style="mix-blend-mode:color-dodge" opacity="0.9">
<path d="M35.9638 124.42C35.9638 124.42 36.1651 124.42 36.2513 124.277L83.8098 69.4116C83.9535 69.2391 83.9248 69.0092 83.781 68.8655C83.6948 68.7793 83.5797 68.7793 83.5222 68.7793C83.4647 68.7793 83.321 68.7793 83.2347 68.923L35.6763 123.788C35.6763 123.788 35.59 124.018 35.59 124.075C35.59 124.133 35.59 124.248 35.7338 124.334C35.82 124.42 35.935 124.42 35.9925 124.42H35.9638Z" fill="url(#paint48_linear_917_79381)"/>
</g>
<g style="mix-blend-mode:color-dodge" opacity="0.9">
<path d="M83.4938 69.555C83.4938 69.555 83.6664 69.555 83.7814 69.4401L121.075 29.3475C121.219 29.2038 121.219 28.9452 121.075 28.8015C120.989 28.7153 120.874 28.6865 120.816 28.6865C120.759 28.6865 120.643 28.6865 120.528 28.8015L83.2351 68.894C83.2351 68.894 83.12 69.1239 83.12 69.1814C83.12 69.2389 83.12 69.3539 83.2351 69.4401C83.3213 69.5263 83.4363 69.555 83.4938 69.555Z" fill="url(#paint49_linear_917_79381)"/>
</g>
<mask id="path-82-outside-1_917_79381" maskUnits="userSpaceOnUse" x="50.561" y="-2" width="40" height="144" fill="black">
<rect fill="white" x="50.561" y="-2" width="40" height="144"/>
<path d="M85.6335 64.4386C85.6335 60.6541 83.8787 57.276 81.1494 55.0731V45.5252C81.1494 44.2298 80.9323 42.983 80.5444 41.8261V38.0139C80.5444 36.005 79.9256 34.1462 78.875 32.6015V31.283C78.875 28.8954 77.7089 26.785 75.9217 25.4734V23.5916C75.9217 21.5296 74.6171 19.7701 72.7883 19.0912L72.0055 13.5957C71.8462 12.455 71.4329 11.4621 70.9688 10.9726V0.639607C70.9688 0.286322 70.6848 0 70.3292 0C69.9782 0 69.6896 0.286322 69.6896 0.639607V11.0396C69.2485 11.5545 68.8606 12.4989 68.7013 13.5911L67.8908 19.082C67.2327 19.3244 66.637 19.7054 66.1475 20.188C65.2793 21.0608 64.7413 22.2569 64.7413 23.5893V25.4711C62.9518 26.7827 61.788 28.8931 61.788 31.2807V32.5992C60.7351 34.1416 60.1186 36.0027 60.1186 38.0116V41.8238C59.7306 42.9807 59.5159 44.2298 59.5159 45.5229C59.5159 49.5545 59.5159 53.0851 59.5159 55.0685C56.7797 57.2737 55.0294 60.6472 55.0294 64.4363V86.7879H52.561V139.998H88.1042V86.7879H85.6382L85.6335 64.4386ZM56.461 130.477H54.1912V126.217H56.461V130.477ZM56.461 123.151H54.1912V118.888H56.461V123.151ZM56.461 115.824H54.1912V111.566H56.461V115.824ZM56.461 108.5H54.1912V104.237H56.461V108.5ZM56.461 101.171H54.1912V96.9177H56.461V101.171ZM56.461 93.8513H54.1912V89.5911H56.461V93.8513ZM59.6498 130.477H57.3846V126.217H59.6498V130.477ZM59.6498 123.151H57.3846V118.888H59.6498V123.151ZM59.6498 115.824H57.3846V111.566H59.6498V115.824ZM59.6498 108.5H57.3846V104.237H59.6498V108.5ZM59.6498 101.171H57.3846V96.9177H59.6498V101.171ZM59.6498 93.8513H57.3846V89.5911H59.6498V93.8513ZM65.397 130.477H63.1296V126.217H65.397V130.477ZM65.397 123.151H63.1296V118.888H65.397V123.151ZM65.397 115.824H63.1296V111.566H65.397V115.824ZM65.397 108.5H63.1296V104.237H65.397V108.5ZM65.397 101.171H63.1296V96.9177H65.397V101.171ZM65.397 93.8513H63.1296V89.5911H65.397V93.8513ZM65.397 86.1322H63.1296V81.8743H65.397V86.1322ZM65.397 78.4176H63.1296V74.1597H65.397V78.4176ZM65.397 70.7077H63.1296V68.5765C63.1296 67.4035 63.6375 66.4475 64.2656 66.4475H65.4017V70.71L65.397 70.7077ZM68.5905 130.477H66.323V126.217H68.5905V130.477ZM68.5905 123.151H66.323V118.888H68.5905V123.151ZM68.5905 115.824H66.323V111.566H68.5905V115.824ZM68.5905 108.5H66.323V104.237H68.5905V108.5ZM68.5905 101.171H66.323V96.9177H68.5905V101.171ZM68.5905 93.8513H66.323V89.5911H68.5905V93.8513ZM68.5905 86.1322H66.323V81.8743H68.5905V86.1322ZM68.5905 78.4176H66.323V74.1597H68.5905V78.4176ZM68.5905 70.7077H66.323V66.4452H68.5905V70.7077ZM74.3377 130.477H72.0679V126.217H74.3377V130.477ZM74.3377 123.151H72.0679V118.888H74.3377V123.151ZM74.3377 115.824H72.0679V111.566H74.3377V115.824ZM74.3377 108.5H72.0679V104.237H74.3377V108.5ZM74.3377 101.171H72.0679V96.9177H74.3377V101.171ZM74.3377 93.8513H72.0679V89.5911H74.3377V93.8513ZM74.3377 86.1322H72.0679V81.8743H74.3377V86.1322ZM74.3377 78.4176H72.0679V74.1597H74.3377V78.4176ZM74.3377 70.7077H72.0679V66.4452H74.3377V70.7077ZM77.5265 130.477H75.2636V126.217H77.5265V130.477ZM77.5265 123.151H75.2636V118.888H77.5265V123.151ZM77.5265 115.824H75.2636V111.566H77.5265V115.824ZM77.5265 108.5H75.2636V104.237H77.5265V108.5ZM77.5265 101.171H75.2636V96.9177H77.5265V101.171ZM77.5265 93.8513H75.2636V89.5911H77.5265V93.8513ZM77.5265 86.1322H75.2636V81.8743H77.5265V86.1322ZM77.5265 78.4176H75.2636V74.1597H77.5265V78.4176ZM77.5265 70.7077H75.2636V66.4452C75.2636 66.4452 75.7716 66.4452 76.395 66.4452C77.0208 66.4452 77.5288 67.4012 77.5288 68.5742L77.5265 70.7077ZM80.8861 86.7879H78.5609V68.8351C78.5609 64.1339 74.8711 60.3216 70.3246 60.3216C65.7803 60.3216 62.0951 64.1339 62.0951 68.8351V86.7879H59.89V69.0845C59.89 63.1202 64.5981 58.2689 70.3869 58.2689C76.1688 58.2689 80.8815 63.1202 80.8815 69.0845V86.7879H80.8861ZM83.2714 130.477H81.0085V126.217H83.2714V130.477ZM83.2714 123.151H81.0085V118.888H83.2714V123.151ZM83.2714 115.824H81.0085V111.566H83.2714V115.824ZM83.2714 108.5H81.0085V104.237H83.2714V108.5ZM83.2714 101.171H81.0085V96.9177H83.2714V101.171ZM83.2714 93.8513H81.0085V89.5911H83.2714V93.8513ZM86.4717 130.477H84.1996V126.217H86.4717V130.477ZM86.4717 123.151H84.1996V118.888H86.4717V123.151ZM86.4717 115.824H84.1996V111.566H86.4717V115.824ZM86.4717 108.5H84.1996V104.237H86.4717V108.5ZM86.4717 101.171H84.1996V96.9177H86.4717V101.171ZM86.4717 89.5911V93.8513H84.1996V89.5911H86.4717Z"/>
</mask>
<path d="M85.6335 64.4386C85.6335 60.6541 83.8787 57.276 81.1494 55.0731V45.5252C81.1494 44.2298 80.9323 42.983 80.5444 41.8261V38.0139C80.5444 36.005 79.9256 34.1462 78.875 32.6015V31.283C78.875 28.8954 77.7089 26.785 75.9217 25.4734V23.5916C75.9217 21.5296 74.6171 19.7701 72.7883 19.0912L72.0055 13.5957C71.8462 12.455 71.4329 11.4621 70.9688 10.9726V0.639607C70.9688 0.286322 70.6848 0 70.3292 0C69.9782 0 69.6896 0.286322 69.6896 0.639607V11.0396C69.2485 11.5545 68.8606 12.4989 68.7013 13.5911L67.8908 19.082C67.2327 19.3244 66.637 19.7054 66.1475 20.188C65.2793 21.0608 64.7413 22.2569 64.7413 23.5893V25.4711C62.9518 26.7827 61.788 28.8931 61.788 31.2807V32.5992C60.7351 34.1416 60.1186 36.0027 60.1186 38.0116V41.8238C59.7306 42.9807 59.5159 44.2298 59.5159 45.5229C59.5159 49.5545 59.5159 53.0851 59.5159 55.0685C56.7797 57.2737 55.0294 60.6472 55.0294 64.4363V86.7879H52.561V139.998H88.1042V86.7879H85.6382L85.6335 64.4386ZM56.461 130.477H54.1912V126.217H56.461V130.477ZM56.461 123.151H54.1912V118.888H56.461V123.151ZM56.461 115.824H54.1912V111.566H56.461V115.824ZM56.461 108.5H54.1912V104.237H56.461V108.5ZM56.461 101.171H54.1912V96.9177H56.461V101.171ZM56.461 93.8513H54.1912V89.5911H56.461V93.8513ZM59.6498 130.477H57.3846V126.217H59.6498V130.477ZM59.6498 123.151H57.3846V118.888H59.6498V123.151ZM59.6498 115.824H57.3846V111.566H59.6498V115.824ZM59.6498 108.5H57.3846V104.237H59.6498V108.5ZM59.6498 101.171H57.3846V96.9177H59.6498V101.171ZM59.6498 93.8513H57.3846V89.5911H59.6498V93.8513ZM65.397 130.477H63.1296V126.217H65.397V130.477ZM65.397 123.151H63.1296V118.888H65.397V123.151ZM65.397 115.824H63.1296V111.566H65.397V115.824ZM65.397 108.5H63.1296V104.237H65.397V108.5ZM65.397 101.171H63.1296V96.9177H65.397V101.171ZM65.397 93.8513H63.1296V89.5911H65.397V93.8513ZM65.397 86.1322H63.1296V81.8743H65.397V86.1322ZM65.397 78.4176H63.1296V74.1597H65.397V78.4176ZM65.397 70.7077H63.1296V68.5765C63.1296 67.4035 63.6375 66.4475 64.2656 66.4475H65.4017V70.71L65.397 70.7077ZM68.5905 130.477H66.323V126.217H68.5905V130.477ZM68.5905 123.151H66.323V118.888H68.5905V123.151ZM68.5905 115.824H66.323V111.566H68.5905V115.824ZM68.5905 108.5H66.323V104.237H68.5905V108.5ZM68.5905 101.171H66.323V96.9177H68.5905V101.171ZM68.5905 93.8513H66.323V89.5911H68.5905V93.8513ZM68.5905 86.1322H66.323V81.8743H68.5905V86.1322ZM68.5905 78.4176H66.323V74.1597H68.5905V78.4176ZM68.5905 70.7077H66.323V66.4452H68.5905V70.7077ZM74.3377 130.477H72.0679V126.217H74.3377V130.477ZM74.3377 123.151H72.0679V118.888H74.3377V123.151ZM74.3377 115.824H72.0679V111.566H74.3377V115.824ZM74.3377 108.5H72.0679V104.237H74.3377V108.5ZM74.3377 101.171H72.0679V96.9177H74.3377V101.171ZM74.3377 93.8513H72.0679V89.5911H74.3377V93.8513ZM74.3377 86.1322H72.0679V81.8743H74.3377V86.1322ZM74.3377 78.4176H72.0679V74.1597H74.3377V78.4176ZM74.3377 70.7077H72.0679V66.4452H74.3377V70.7077ZM77.5265 130.477H75.2636V126.217H77.5265V130.477ZM77.5265 123.151H75.2636V118.888H77.5265V123.151ZM77.5265 115.824H75.2636V111.566H77.5265V115.824ZM77.5265 108.5H75.2636V104.237H77.5265V108.5ZM77.5265 101.171H75.2636V96.9177H77.5265V101.171ZM77.5265 93.8513H75.2636V89.5911H77.5265V93.8513ZM77.5265 86.1322H75.2636V81.8743H77.5265V86.1322ZM77.5265 78.4176H75.2636V74.1597H77.5265V78.4176ZM77.5265 70.7077H75.2636V66.4452C75.2636 66.4452 75.7716 66.4452 76.395 66.4452C77.0208 66.4452 77.5288 67.4012 77.5288 68.5742L77.5265 70.7077ZM80.8861 86.7879H78.5609V68.8351C78.5609 64.1339 74.8711 60.3216 70.3246 60.3216C65.7803 60.3216 62.0951 64.1339 62.0951 68.8351V86.7879H59.89V69.0845C59.89 63.1202 64.5981 58.2689 70.3869 58.2689C76.1688 58.2689 80.8815 63.1202 80.8815 69.0845V86.7879H80.8861ZM83.2714 130.477H81.0085V126.217H83.2714V130.477ZM83.2714 123.151H81.0085V118.888H83.2714V123.151ZM83.2714 115.824H81.0085V111.566H83.2714V115.824ZM83.2714 108.5H81.0085V104.237H83.2714V108.5ZM83.2714 101.171H81.0085V96.9177H83.2714V101.171ZM83.2714 93.8513H81.0085V89.5911H83.2714V93.8513ZM86.4717 130.477H84.1996V126.217H86.4717V130.477ZM86.4717 123.151H84.1996V118.888H86.4717V123.151ZM86.4717 115.824H84.1996V111.566H86.4717V115.824ZM86.4717 108.5H84.1996V104.237H86.4717V108.5ZM86.4717 101.171H84.1996V96.9177H86.4717V101.171ZM86.4717 89.5911V93.8513H84.1996V89.5911H86.4717Z" stroke="white" stroke-width="3" mask="url(#path-82-outside-1_917_79381)"/>
<path d="M26.377 139.998V140.748H27.127H47.8461H48.5961V139.998V45.2159C48.5961 45.2159 48.5961 45.2158 48.5961 45.2157C48.5972 40.5066 47.4702 36.2072 45.6088 33.0598C43.7571 29.929 41.0915 27.8152 38.0003 27.8152H36.9751C33.8838 27.8152 31.2182 29.9297 29.3663 33.0607C27.5045 36.2083 26.377 40.5077 26.377 45.2157V139.998ZM38.8274 134.574V45.2577C38.93 45.7335 38.9902 46.2769 38.9902 46.8621V134.574H38.8274ZM34.9782 134.574V46.8621C34.9782 46.2735 35.0394 45.7273 35.1433 45.2497V134.574H34.9782Z" stroke="white" stroke-width="1.5"/>
<path d="M92.1567 60.6384H91.4067V61.3884V140V140.75H92.1567H112.876H113.626V140V61.3884V60.6384H112.876H92.1567ZM110.413 99.345H107.913V95.2918H110.413V99.345ZM96.9785 118.977H94.4815V114.93H96.9785V118.977ZM97.0039 109.158H94.5046V105.112H97.0039V109.158ZM97.0293 99.345H94.53V95.2918H97.0293V99.345ZM97.0524 89.5246H94.5508V85.4737H97.0524V89.5246ZM97.0778 79.7066H94.5739V75.6556H97.0778V79.7066ZM97.1009 69.8862H94.6016V65.8375H97.1009V69.8862ZM103.649 118.977H101.152V114.93H103.649V118.977ZM103.672 109.158H101.171V105.112H103.67L103.672 109.158ZM103.696 99.345H101.196V95.2918H103.696V99.345ZM103.719 89.5246H101.219V85.4737H103.719V89.5246ZM103.746 79.7066H101.247V75.6556H103.746V79.7066ZM103.772 69.8862H101.27V65.8375H103.772V69.8862ZM110.364 118.977H107.865V114.93H110.364V118.977ZM110.387 109.158H107.89V105.112H110.387V109.158ZM110.436 89.5246H107.939V85.4737H110.436V89.5246ZM110.461 79.7066H107.964V75.6556H110.461V79.7066ZM110.484 69.8862H107.987V65.8375H110.484V69.8862Z" stroke="white" stroke-width="1.5"/>
</g>
<defs>
<radialGradient id="paint0_radial_917_79381" cx="0" cy="0" r="1" gradientUnits="userSpaceOnUse" gradientTransform="translate(82.9474 124.449) rotate(180) scale(1.35142 1.35079)">
<stop stop-color="white"/>
<stop offset="0.11" stop-color="#FAFAFA"/>
<stop offset="0.23" stop-color="#ECECEC"/>
<stop offset="0.36" stop-color="#D4D4D4"/>
<stop offset="0.5" stop-color="#B4B4B4"/>
<stop offset="0.64" stop-color="#8A8A8A"/>
<stop offset="0.79" stop-color="#565656"/>
<stop offset="0.94" stop-color="#1A1A1A"/>
<stop offset="1"/>
</radialGradient>
<radialGradient id="paint1_radial_917_79381" cx="0" cy="0" r="1" gradientUnits="userSpaceOnUse" gradientTransform="translate(11.7535 92.6335) rotate(180) scale(1.58145 1.58071)">
<stop stop-color="white"/>
<stop offset="0.11" stop-color="#FAFAFA"/>
<stop offset="0.23" stop-color="#ECECEC"/>
<stop offset="0.36" stop-color="#D4D4D4"/>
<stop offset="0.5" stop-color="#B4B4B4"/>
<stop offset="0.64" stop-color="#8A8A8A"/>
<stop offset="0.79" stop-color="#565656"/>
<stop offset="0.94" stop-color="#1A1A1A"/>
<stop offset="1"/>
</radialGradient>
<radialGradient id="paint2_radial_917_79381" cx="0" cy="0" r="1" gradientUnits="userSpaceOnUse" gradientTransform="translate(114.691 38.7746) rotate(180) scale(1.58145 1.58071)">
<stop stop-color="white"/>
<stop offset="0.11" stop-color="#FAFAFA"/>
<stop offset="0.23" stop-color="#ECECEC"/>
<stop offset="0.36" stop-color="#D4D4D4"/>
<stop offset="0.5" stop-color="#B4B4B4"/>
<stop offset="0.64" stop-color="#8A8A8A"/>
<stop offset="0.79" stop-color="#565656"/>
<stop offset="0.94" stop-color="#1A1A1A"/>
<stop offset="1"/>
</radialGradient>
<radialGradient id="paint3_radial_917_79381" cx="0" cy="0" r="1" gradientUnits="userSpaceOnUse" gradientTransform="translate(31.9669 70.5899) rotate(180) scale(1.61021 1.60945)">
<stop stop-color="white"/>
<stop offset="0.11" stop-color="#FAFAFA"/>
<stop offset="0.23" stop-color="#ECECEC"/>
<stop offset="0.36" stop-color="#D4D4D4"/>
<stop offset="0.5" stop-color="#B4B4B4"/>
<stop offset="0.64" stop-color="#8A8A8A"/>
<stop offset="0.79" stop-color="#565656"/>
<stop offset="0.94" stop-color="#1A1A1A"/>
<stop offset="1"/>
</radialGradient>
<radialGradient id="paint4_radial_917_79381" cx="0" cy="0" r="1" gradientUnits="userSpaceOnUse" gradientTransform="translate(101.896 60.9335) rotate(180) scale(1.72522 1.72441)">
<stop stop-color="white"/>
<stop offset="0.11" stop-color="#FAFAFA"/>
<stop offset="0.23" stop-color="#ECECEC"/>
<stop offset="0.36" stop-color="#D4D4D4"/>
<stop offset="0.5" stop-color="#B4B4B4"/>
<stop offset="0.64" stop-color="#8A8A8A"/>
<stop offset="0.79" stop-color="#565656"/>
<stop offset="0.94" stop-color="#1A1A1A"/>
<stop offset="1"/>
</radialGradient>
<radialGradient id="paint5_radial_917_79381" cx="0" cy="0" r="1" gradientUnits="userSpaceOnUse" gradientTransform="translate(23.1685 12.5346) rotate(180) scale(1.81147 1.81063)">
<stop stop-color="white"/>
<stop offset="0.11" stop-color="#FAFAFA"/>
<stop offset="0.23" stop-color="#ECECEC"/>
<stop offset="0.36" stop-color="#D4D4D4"/>
<stop offset="0.5" stop-color="#B4B4B4"/>
<stop offset="0.64" stop-color="#8A8A8A"/>
<stop offset="0.79" stop-color="#565656"/>
<stop offset="0.94" stop-color="#1A1A1A"/>
<stop offset="1"/>
</radialGradient>
<radialGradient id="paint6_radial_917_79381" cx="0" cy="0" r="1" gradientUnits="userSpaceOnUse" gradientTransform="translate(67.133 136.577) rotate(180) scale(1.86899 1.8681)">
<stop stop-color="white"/>
<stop offset="0.11" stop-color="#FAFAFA"/>
<stop offset="0.23" stop-color="#ECECEC"/>
<stop offset="0.36" stop-color="#D4D4D4"/>
<stop offset="0.5" stop-color="#B4B4B4"/>
<stop offset="0.64" stop-color="#8A8A8A"/>
<stop offset="0.79" stop-color="#565656"/>
<stop offset="0.94" stop-color="#1A1A1A"/>
<stop offset="1"/>
</radialGradient>
<radialGradient id="paint7_radial_917_79381" cx="0" cy="0" r="1" gradientUnits="userSpaceOnUse" gradientTransform="translate(111.672 104.101) rotate(180) scale(1.89774 1.89685)">
<stop stop-color="white"/>
<stop offset="0.11" stop-color="#FAFAFA"/>
<stop offset="0.23" stop-color="#ECECEC"/>
<stop offset="0.36" stop-color="#D4D4D4"/>
<stop offset="0.5" stop-color="#B4B4B4"/>
<stop offset="0.64" stop-color="#8A8A8A"/>
<stop offset="0.79" stop-color="#565656"/>
<stop offset="0.94" stop-color="#1A1A1A"/>
<stop offset="1"/>
</radialGradient>
<radialGradient id="paint8_radial_917_79381" cx="0" cy="0" r="1" gradientUnits="userSpaceOnUse" gradientTransform="translate(35.964 124.018) rotate(180) scale(2.12777 2.12678)">
<stop stop-color="white"/>
<stop offset="0.11" stop-color="#FAFAFA"/>
<stop offset="0.23" stop-color="#ECECEC"/>
<stop offset="0.36" stop-color="#D4D4D4"/>
<stop offset="0.5" stop-color="#B4B4B4"/>
<stop offset="0.64" stop-color="#8A8A8A"/>
<stop offset="0.79" stop-color="#565656"/>
<stop offset="0.94" stop-color="#1A1A1A"/>
<stop offset="1"/>
</radialGradient>
<radialGradient id="paint9_radial_917_79381" cx="0" cy="0" r="1" gradientUnits="userSpaceOnUse" gradientTransform="translate(120.816 29.0315) rotate(180) scale(2.18527 2.18425)">
<stop stop-color="white"/>
<stop offset="0.11" stop-color="#FAFAFA"/>
<stop offset="0.23" stop-color="#ECECEC"/>
<stop offset="0.36" stop-color="#D4D4D4"/>
<stop offset="0.5" stop-color="#B4B4B4"/>
<stop offset="0.64" stop-color="#8A8A8A"/>
<stop offset="0.79" stop-color="#565656"/>
<stop offset="0.94" stop-color="#1A1A1A"/>
<stop offset="1"/>
</radialGradient>
<linearGradient id="paint10_linear_917_79381" x1="98.782" y1="126.576" x2="98.782" y2="156.322" gradientUnits="userSpaceOnUse">
<stop stop-color="#C91EFE"/>
<stop offset="1" stop-color="#4A68F2"/>
</linearGradient>
<linearGradient id="paint11_linear_917_79381" x1="103.367" y1="94.5879" x2="103.367" y2="127.352" gradientUnits="userSpaceOnUse">
<stop stop-color="#C91EFE"/>
<stop offset="1" stop-color="#4A68F2"/>
</linearGradient>
<linearGradient id="paint12_linear_917_79381" x1="111.255" y1="122.063" x2="111.255" y2="156.35" gradientUnits="userSpaceOnUse">
<stop stop-color="#C91EFE"/>
<stop offset="1" stop-color="#4A68F2"/>
</linearGradient>
<linearGradient id="paint13_linear_917_79381" x1="115.864" y1="94.6165" x2="115.864" y2="122.811" gradientUnits="userSpaceOnUse">
<stop stop-color="#C91EFE"/>
<stop offset="1" stop-color="#4A68F2"/>
</linearGradient>
<linearGradient id="paint14_linear_917_79381" x1="63.7684" y1="128.674" x2="63.7684" y2="158.937" gradientUnits="userSpaceOnUse">
<stop stop-color="#C91EFE"/>
<stop offset="1" stop-color="#4A68F2"/>
</linearGradient>
<linearGradient id="paint15_linear_917_79381" x1="64.8614" y1="93.4385" x2="64.8614" y2="129.45" gradientUnits="userSpaceOnUse">
<stop stop-color="#C91EFE"/>
<stop offset="1" stop-color="#4A68F2"/>
</linearGradient>
<linearGradient id="paint16_linear_917_79381" x1="76.7507" y1="124.075" x2="76.7507" y2="158.937" gradientUnits="userSpaceOnUse">
<stop stop-color="#C91EFE"/>
<stop offset="1" stop-color="#4A68F2"/>
</linearGradient>
<linearGradient id="paint17_linear_917_79381" x1="77.8579" y1="93.4958" x2="77.8579" y2="124.823" gradientUnits="userSpaceOnUse">
<stop stop-color="#C91EFE"/>
<stop offset="1" stop-color="#4A68F2"/>
</linearGradient>
<linearGradient id="paint18_linear_917_79381" x1="108.398" y1="64.6406" x2="108.398" y2="87.6615" gradientUnits="userSpaceOnUse">
<stop stop-color="#C91EFE"/>
<stop offset="1" stop-color="#4A68F2"/>
</linearGradient>
<linearGradient id="paint19_linear_917_79381" x1="35.7754" y1="93.1511" x2="35.7754" y2="124.334" gradientUnits="userSpaceOnUse">
<stop stop-color="#C91EFE"/>
<stop offset="1" stop-color="#4A68F2"/>
</linearGradient>
<linearGradient id="paint20_linear_917_79381" x1="92.9118" y1="64.6406" x2="92.9118" y2="65.5603" gradientUnits="userSpaceOnUse">
<stop stop-color="#C91EFE"/>
<stop offset="1" stop-color="#4A68F2"/>
</linearGradient>
<linearGradient id="paint21_linear_917_79381" x1="97.859" y1="64.7554" x2="97.859" y2="87.69" gradientUnits="userSpaceOnUse">
<stop stop-color="#C91EFE"/>
<stop offset="1" stop-color="#4A68F2"/>
</linearGradient>
<linearGradient id="paint22_linear_917_79381" x1="56.2542" y1="93.1797" x2="56.2542" y2="121.977" gradientUnits="userSpaceOnUse">
<stop stop-color="#C91EFE"/>
<stop offset="1" stop-color="#4A68F2"/>
</linearGradient>
<linearGradient id="paint23_linear_917_79381" x1="90.6187" y1="64.7554" x2="90.6187" y2="86.9715" gradientUnits="userSpaceOnUse">
<stop stop-color="#C91EFE"/>
<stop offset="1" stop-color="#4A68F2"/>
</linearGradient>
<linearGradient id="paint24_linear_917_79381" x1="-3.47016" y1="92.26" x2="-3.47016" y2="107.665" gradientUnits="userSpaceOnUse">
<stop stop-color="#C91EFE"/>
<stop offset="1" stop-color="#4A68F2"/>
</linearGradient>
<linearGradient id="paint25_linear_917_79381" x1="100.688" y1="38.2283" x2="100.688" y2="86.9716" gradientUnits="userSpaceOnUse">
<stop stop-color="#C91EFE"/>
<stop offset="1" stop-color="#4A68F2"/>
</linearGradient>
<linearGradient id="paint26_linear_917_79381" x1="21.9099" y1="70.2161" x2="21.9099" y2="93.0645" gradientUnits="userSpaceOnUse">
<stop stop-color="#C91EFE"/>
<stop offset="1" stop-color="#4A68F2"/>
</linearGradient>
<linearGradient id="paint27_linear_917_79381" x1="108.581" y1="38.1709" x2="108.581" y2="39.1481" gradientUnits="userSpaceOnUse">
<stop stop-color="#C91EFE"/>
<stop offset="1" stop-color="#4A68F2"/>
</linearGradient>
<linearGradient id="paint28_linear_917_79381" x1="68.0643" y1="89.7883" x2="68.0643" y2="114.275" gradientUnits="userSpaceOnUse">
<stop stop-color="#C91EFE"/>
<stop offset="1" stop-color="#4A68F2"/>
</linearGradient>
<linearGradient id="paint29_linear_917_79381" x1="114.289" y1="135.198" x2="114.289" y2="146.205" gradientUnits="userSpaceOnUse">
<stop stop-color="#C91EFE"/>
<stop offset="1" stop-color="#4A68F2"/>
</linearGradient>
<linearGradient id="paint30_linear_917_79381" x1="47.2443" y1="37.8547" x2="47.2443" y2="70.9634" gradientUnits="userSpaceOnUse">
<stop stop-color="#C91EFE"/>
<stop offset="1" stop-color="#4A68F2"/>
</linearGradient>
<linearGradient id="paint31_linear_917_79381" x1="102.744" y1="9.83301" x2="102.744" y2="38.9755" gradientUnits="userSpaceOnUse">
<stop stop-color="#C91EFE"/>
<stop offset="1" stop-color="#4A68F2"/>
</linearGradient>
<linearGradient id="paint32_linear_917_79381" x1="9.84121" y1="103.555" x2="9.84121" y2="141.233" gradientUnits="userSpaceOnUse">
<stop stop-color="#C91EFE"/>
<stop offset="1" stop-color="#4A68F2"/>
</linearGradient>
<linearGradient id="paint33_linear_917_79381" x1="127.835" y1="117.609" x2="127.835" y2="136.003" gradientUnits="userSpaceOnUse">
<stop stop-color="#C91EFE"/>
<stop offset="1" stop-color="#4A68F2"/>
</linearGradient>
<linearGradient id="paint34_linear_917_79381" x1="90.7683" y1="60.5884" x2="90.7683" y2="90.5644" gradientUnits="userSpaceOnUse">
<stop stop-color="#C91EFE"/>
<stop offset="1" stop-color="#4A68F2"/>
</linearGradient>
<linearGradient id="paint35_linear_917_79381" x1="54.51" y1="73.0039" x2="54.51" y2="114.246" gradientUnits="userSpaceOnUse">
<stop stop-color="#C91EFE"/>
<stop offset="1" stop-color="#4A68F2"/>
</linearGradient>
<linearGradient id="paint36_linear_917_79381" x1="109.284" y1="133.157" x2="109.284" y2="146.205" gradientUnits="userSpaceOnUse">
<stop stop-color="#C91EFE"/>
<stop offset="1" stop-color="#4A68F2"/>
</linearGradient>
<linearGradient id="paint37_linear_917_79381" x1="108.854" y1="0.665039" x2="108.854" y2="10.6091" gradientUnits="userSpaceOnUse">
<stop stop-color="#C91EFE"/>
<stop offset="1" stop-color="#4A68F2"/>
</linearGradient>
<linearGradient id="paint38_linear_917_79381" x1="122.872" y1="117.58" x2="122.872" y2="133.904" gradientUnits="userSpaceOnUse">
<stop stop-color="#C91EFE"/>
<stop offset="1" stop-color="#4A68F2"/>
</linearGradient>
<linearGradient id="paint39_linear_917_79381" x1="92.3068" y1="51.8225" x2="92.3068" y2="61.3068" gradientUnits="userSpaceOnUse">
<stop stop-color="#C91EFE"/>
<stop offset="1" stop-color="#4A68F2"/>
</linearGradient>
<linearGradient id="paint40_linear_917_79381" x1="10.2713" y1="12.1611" x2="10.2713" y2="32.0493" gradientUnits="userSpaceOnUse">
<stop stop-color="#C91EFE"/>
<stop offset="1" stop-color="#4A68F2"/>
</linearGradient>
<linearGradient id="paint41_linear_917_79381" x1="-15.7208" y1="91.4553" x2="-15.7208" y2="104.331" gradientUnits="userSpaceOnUse">
<stop stop-color="#C91EFE"/>
<stop offset="1" stop-color="#4A68F2"/>
</linearGradient>
<linearGradient id="paint42_linear_917_79381" x1="97.8475" y1="31.0146" x2="97.8475" y2="52.656" gradientUnits="userSpaceOnUse">
<stop stop-color="#C91EFE"/>
<stop offset="1" stop-color="#4A68F2"/>
</linearGradient>
<linearGradient id="paint43_linear_917_79381" x1="74.7094" y1="22.6514" x2="74.7094" y2="52.5986" gradientUnits="userSpaceOnUse">
<stop stop-color="#C91EFE"/>
<stop offset="1" stop-color="#4A68F2"/>
</linearGradient>
<linearGradient id="paint44_linear_917_79381" x1="17.4896" y1="-20.8613" x2="17.4896" y2="12.9658" gradientUnits="userSpaceOnUse">
<stop stop-color="#C91EFE"/>
<stop offset="1" stop-color="#4A68F2"/>
</linearGradient>
<linearGradient id="paint45_linear_917_79381" x1="65.0785" y1="-7.15234" x2="65.0785" y2="23.4559" gradientUnits="userSpaceOnUse">
<stop stop-color="#C91EFE"/>
<stop offset="1" stop-color="#4A68F2"/>
</linearGradient>
<linearGradient id="paint46_linear_917_79381" x1="110.969" y1="-1.46191" x2="110.969" y2="31.7042" gradientUnits="userSpaceOnUse">
<stop stop-color="#C91EFE"/>
<stop offset="1" stop-color="#4A68F2"/>
</linearGradient>
<linearGradient id="paint47_linear_917_79381" x1="87.8587" y1="-1.43311" x2="87.8587" y2="23.4559" gradientUnits="userSpaceOnUse">
<stop stop-color="#C91EFE"/>
<stop offset="1" stop-color="#4A68F2"/>
</linearGradient>
<linearGradient id="paint48_linear_917_79381" x1="59.7471" y1="68.7793" x2="59.7471" y2="124.42" gradientUnits="userSpaceOnUse">
<stop stop-color="#C91EFE"/>
<stop offset="1" stop-color="#4A68F2"/>
</linearGradient>
<linearGradient id="paint49_linear_917_79381" x1="102.151" y1="28.6865" x2="102.151" y2="69.555" gradientUnits="userSpaceOnUse">
<stop stop-color="#C91EFE"/>
<stop offset="1" stop-color="#4A68F2"/>
</linearGradient>
<clipPath id="clip0_917_79381">
<rect width="140" height="140" fill="white"/>
</clipPath>
</defs>
</svg>
