<svg width="137" height="154" viewBox="0 0 137 154" fill="none" xmlns="http://www.w3.org/2000/svg">
<g clip-path="url(#clip0_1011_265)">
<path style="mix-blend-mode:color-dodge" d="M64.8997 94.1292C65.4807 94.1292 65.9561 94.6039 65.9561 95.1841C65.9561 95.7643 65.4807 96.2391 64.8997 96.2391C64.3186 96.2391 63.8433 95.7643 63.8433 95.1841C63.8433 94.6039 64.3186 94.1292 64.8997 94.1292Z" fill="white"/>
<path style="mix-blend-mode:color-dodge" d="M92.4983 71.8167C93.0793 71.8167 93.5547 72.2914 93.5547 72.8716C93.5547 73.4518 93.0793 73.9266 92.4983 73.9266C91.9173 73.9266 91.4419 73.4518 91.4419 72.8716C91.4419 72.2914 91.9173 71.8167 92.4983 71.8167Z" fill="white"/>
<path style="mix-blend-mode:color-dodge" d="M29.9851 95.7908C30.5662 95.7908 31.0415 96.2655 31.0415 96.8457C31.0415 97.426 30.5662 97.9007 29.9851 97.9007C29.4041 97.9007 28.9287 97.426 28.9287 96.8457C28.9287 96.2655 29.4041 95.7908 29.9851 95.7908Z" fill="white"/>
<path style="mix-blend-mode:color-dodge" d="M57.135 59.4473C57.7161 59.4473 58.1915 59.922 58.1915 60.5022C58.1915 61.0825 57.7161 61.5572 57.135 61.5572C56.554 61.5572 56.0786 61.0825 56.0786 60.5022C56.0786 59.922 56.554 59.4473 57.135 59.4473Z" fill="white"/>
<path style="mix-blend-mode:color-dodge" d="M84.5227 57.5747C85.1037 57.5747 85.5791 58.0494 85.5791 58.6297C85.5791 59.2099 85.1037 59.6846 84.5227 59.6846C83.9417 59.6846 83.4663 59.2099 83.4663 58.6297C83.4663 58.0494 83.9417 57.5747 84.5227 57.5747Z" fill="white"/>
<path style="mix-blend-mode:color-dodge" d="M56.6067 75.7991C57.1877 75.7991 57.6631 76.2738 57.6631 76.854C57.6631 77.4343 57.1877 77.909 56.6067 77.909C56.0257 77.909 55.5503 77.4343 55.5503 76.854C55.5503 76.2738 56.0257 75.7991 56.6067 75.7991Z" fill="white"/>
<path style="mix-blend-mode:color-dodge" d="M23.0657 73.8474C23.6467 73.8474 24.1221 74.3221 24.1221 74.9024C24.1221 75.4826 23.6467 75.9573 23.0657 75.9573C22.4847 75.9573 22.0093 75.4826 22.0093 74.9024C22.0093 74.3221 22.4847 73.8474 23.0657 73.8474Z" fill="white"/>
<path style="mix-blend-mode:color-dodge" d="M84.9451 35.8159C85.5262 35.8159 86.028 36.2907 86.028 36.8973C86.028 37.5039 85.5526 37.9786 84.9451 37.9786C84.3377 37.9786 83.8623 37.5039 83.8623 36.8973C83.8623 36.2907 84.3377 35.8159 84.9451 35.8159Z" fill="white"/>
<path style="mix-blend-mode:color-dodge" d="M68.5037 150.212C69.1112 150.212 69.5866 150.687 69.5866 151.293C69.5866 151.9 69.1112 152.375 68.5037 152.375C67.8963 152.375 67.4209 151.9 67.4209 151.293C67.4209 150.687 67.8963 150.212 68.5037 150.212Z" fill="white"/>
<path style="mix-blend-mode:color-dodge" d="M100.158 87.4829C100.765 87.4829 101.24 87.9577 101.24 88.5643C101.24 89.1709 100.765 89.6456 100.158 89.6456C99.5501 89.6456 99.0747 89.1709 99.0747 88.5643C99.0747 87.9577 99.5501 87.4829 100.158 87.4829Z" fill="white"/>
<path style="mix-blend-mode:color-dodge" d="M86.8465 72.3968C87.4591 72.3968 87.9558 71.9009 87.9558 71.2891C87.9558 70.6773 87.4591 70.1814 86.8465 70.1814C86.2339 70.1814 85.7373 70.6773 85.7373 71.2891C85.7373 71.9009 86.2339 72.3968 86.8465 72.3968Z" fill="white"/>
<path style="mix-blend-mode:color-dodge" d="M76.6786 49.3196C77.286 49.3196 77.7878 49.8207 77.7878 50.4273C77.7878 51.0339 77.286 51.535 76.6786 51.535C76.0711 51.535 75.5693 51.0339 75.5693 50.4273C75.5693 49.8207 76.0711 49.3196 76.6786 49.3196Z" fill="white"/>
<path style="mix-blend-mode:color-dodge" d="M71.2382 114.569C71.8654 114.569 72.3738 114.061 72.3738 113.435C72.3738 112.809 71.8654 112.301 71.2382 112.301C70.611 112.301 70.1025 112.809 70.1025 113.435C70.1025 114.061 70.611 114.569 71.2382 114.569Z" fill="white"/>
<path style="mix-blend-mode:color-dodge" d="M48.2084 68.0188C48.8422 68.0188 49.344 68.5199 49.344 69.1529C49.344 69.7859 48.8422 70.287 48.2084 70.287C47.5746 70.287 47.0728 69.7859 47.0728 69.1529C47.0728 68.5199 47.5746 68.0188 48.2084 68.0188Z" fill="white"/>
<path style="mix-blend-mode:color-dodge" d="M60.3305 88.8015C60.9643 88.8015 61.4661 89.3026 61.4661 89.9356C61.4661 90.5686 60.9643 91.0697 60.3305 91.0697C59.6966 91.0697 59.1948 90.5686 59.1948 89.9356C59.1948 89.3026 59.6966 88.8015 60.3305 88.8015Z" fill="white"/>
<path style="mix-blend-mode:color-dodge" d="M37.2744 50.8756C37.9161 50.8756 38.4364 50.3561 38.4364 49.7151C38.4364 49.0742 37.9161 48.5547 37.2744 48.5547C36.6326 48.5547 36.1123 49.0742 36.1123 49.7151C36.1123 50.3561 36.6326 50.8756 37.2744 50.8756Z" fill="white"/>
<path style="mix-blend-mode:color-dodge" d="M73.668 70.7616C74.3536 70.7616 74.9093 70.2067 74.9093 69.5221C74.9093 68.8375 74.3536 68.2825 73.668 68.2825C72.9825 68.2825 72.4268 68.8375 72.4268 69.5221C72.4268 70.2067 72.9825 70.7616 73.668 70.7616Z" fill="white"/>
<path style="mix-blend-mode:color-dodge" d="M98.731 107C99.4166 107 99.9723 106.445 99.9723 105.76C99.9723 105.075 99.4166 104.521 98.731 104.521C98.0455 104.521 97.4897 105.075 97.4897 105.76C97.4897 106.445 98.0455 107 98.731 107Z" fill="white"/>
<path style="mix-blend-mode:color-dodge" d="M91.257 85.2412C91.9436 85.2412 92.5247 85.7951 92.5247 86.5072C92.5247 87.2193 91.97 87.7731 91.257 87.7731C90.5439 87.7731 89.9893 87.2193 89.9893 86.5072C89.9893 85.7951 90.5439 85.2412 91.257 85.2412Z" fill="white"/>
<path style="mix-blend-mode:color-dodge" d="M54.7052 43.5173C55.3919 43.5173 55.9729 44.0712 55.9729 44.7833C55.9729 45.4954 55.4183 46.0492 54.7052 46.0492C53.9921 46.0492 53.4375 45.4954 53.4375 44.7833C53.4375 44.0712 53.9921 43.5173 54.7052 43.5173Z" fill="white"/>
<path style="mix-blend-mode:color-dodge" d="M48.8156 110.824C49.5287 110.824 50.1097 111.404 50.1097 112.116C50.1097 112.828 49.5287 113.409 48.8156 113.409C48.1025 113.409 47.5215 112.828 47.5215 112.116C47.5215 111.404 48.1025 110.824 48.8156 110.824Z" fill="white"/>
<path style="mix-blend-mode:color-dodge" d="M32.4938 88.2478C33.2069 88.2478 33.7879 88.828 33.7879 89.5401C33.7879 90.2522 33.2069 90.8325 32.4938 90.8325C31.7807 90.8325 31.1997 90.2522 31.1997 89.5401C31.1997 88.828 31.7807 88.2478 32.4938 88.2478Z" fill="white"/>
<path style="mix-blend-mode:color-dodge" d="M11.841 81.3462C12.5805 81.3462 13.1615 81.9528 13.1615 82.6649C13.1615 83.377 12.5541 83.9836 11.841 83.9836C11.1279 83.9836 10.5205 83.377 10.5205 82.6649C10.5205 81.9528 11.1279 81.3462 11.841 81.3462Z" fill="white"/>
<path style="mix-blend-mode:color-dodge" d="M94.9808 67.8079C95.7467 67.8079 96.3806 68.4408 96.3806 69.2057C96.3806 69.9705 95.7467 70.6035 94.9808 70.6035C94.2149 70.6035 93.5811 69.9705 93.5811 69.2057C93.5811 68.4408 94.2149 67.8079 94.9808 67.8079Z" fill="white"/>
<path style="mix-blend-mode:color-dodge" d="M74.4071 45.9436C75.173 45.9436 75.8068 46.5766 75.8068 47.3414C75.8068 48.1063 75.173 48.7393 74.4071 48.7393C73.6412 48.7393 73.0073 48.1063 73.0073 47.3414C73.0073 46.5766 73.6412 45.9436 74.4071 45.9436Z" fill="white"/>
<path style="mix-blend-mode:color-dodge" d="M58.9838 105.233C59.7714 105.233 60.4099 104.595 60.4099 103.808C60.4099 103.022 59.7714 102.384 58.9838 102.384C58.1961 102.384 57.5576 103.022 57.5576 103.808C57.5576 104.595 58.1961 105.233 58.9838 105.233Z" fill="white"/>
<path style="mix-blend-mode:color-dodge" d="M48.9741 85.3994C49.7664 85.3994 50.4266 86.0588 50.4266 86.85C50.4266 87.6412 49.7664 88.3006 48.9741 88.3006C48.1817 88.3006 47.5215 87.6412 47.5215 86.85C47.5215 86.0588 48.1817 85.3994 48.9741 85.3994Z" fill="white"/>
<path style="mix-blend-mode:color-dodge" d="M31.6753 62.0847C32.494 62.0847 33.1543 62.7441 33.1543 63.5617C33.1543 64.3793 32.494 65.0386 31.6753 65.0386C30.8566 65.0386 30.1963 64.3793 30.1963 63.5617C30.1963 62.7441 30.8566 62.0847 31.6753 62.0847Z" fill="white"/>
<path style="mix-blend-mode:color-dodge" d="M14.8785 41.5127C15.7236 41.5127 16.4103 42.1984 16.4103 43.0424C16.4103 43.8864 15.7236 44.5721 14.8785 44.5721C14.0333 44.5721 13.3467 43.8864 13.3467 43.0424C13.3467 42.1984 14.0333 41.5127 14.8785 41.5127Z" fill="white"/>
<path style="mix-blend-mode:color-dodge" d="M93.0265 28.2161C93.8871 28.2161 94.5847 27.5195 94.5847 26.6601C94.5847 25.8007 93.8871 25.104 93.0265 25.104C92.1659 25.104 91.4683 25.8007 91.4683 26.6601C91.4683 27.5195 92.1659 28.2161 93.0265 28.2161Z" fill="white"/>
<path style="mix-blend-mode:color-dodge" d="M88.9064 118.868C89.7962 118.868 90.5175 118.148 90.5175 117.259C90.5175 116.371 89.7962 115.65 88.9064 115.65C88.0167 115.65 87.2954 116.371 87.2954 117.259C87.2954 118.148 88.0167 118.868 88.9064 118.868Z" fill="white"/>
<path style="mix-blend-mode:color-dodge" d="M13.637 36.6335C14.5349 36.6335 15.2744 37.372 15.2744 38.2687C15.2744 39.1655 14.5349 39.9039 13.637 39.9039C12.739 39.9039 11.9995 39.1655 11.9995 38.2687C11.9995 37.372 12.739 36.6335 13.637 36.6335Z" fill="white"/>
<path style="mix-blend-mode:color-dodge" d="M51.1662 58.0494C52.0706 58.0494 52.8037 57.3173 52.8037 56.4142C52.8037 55.5112 52.0706 54.7791 51.1662 54.7791C50.2619 54.7791 49.5288 55.5112 49.5288 56.4142C49.5288 57.3173 50.2619 58.0494 51.1662 58.0494Z" fill="white"/>
<path style="mix-blend-mode:color-dodge" d="M85.3147 94.8149C86.2391 94.8149 86.9786 95.5534 86.9786 96.4765C86.9786 97.3996 86.2391 98.1381 85.3147 98.1381C84.3904 98.1381 83.6509 97.3996 83.6509 96.4765C83.6509 95.5534 84.3904 94.8149 85.3147 94.8149Z" fill="white"/>
<path style="mix-blend-mode:color-dodge" d="M80.4027 76.9597C81.327 76.9597 82.0929 77.7246 82.0929 78.6477C82.0929 79.5708 81.327 80.3356 80.4027 80.3356C79.4783 80.3356 78.7124 79.5708 78.7124 78.6477C78.7124 77.7246 79.4783 76.9597 80.4027 76.9597Z" fill="white"/>
<path style="mix-blend-mode:color-dodge" d="M100.773 37.4292C101.698 37.4292 102.464 38.194 102.464 39.1171C102.464 40.0402 101.698 40.8051 100.773 40.8051C99.8489 40.8051 99.083 40.0402 99.083 39.1171C99.083 38.194 99.8489 37.4292 100.773 37.4292Z" fill="white"/>
<path style="mix-blend-mode:color-dodge" d="M128.785 109.623C129.762 109.623 130.554 108.832 130.554 107.856C130.554 106.88 129.762 106.089 128.785 106.089C127.807 106.089 127.015 106.88 127.015 107.856C127.015 108.832 127.807 109.623 128.785 109.623Z" fill="white"/>
<path style="mix-blend-mode:color-dodge" d="M62.6021 119C63.6085 119 64.4244 118.185 64.4244 117.18C64.4244 116.175 63.6085 115.36 62.6021 115.36C61.5957 115.36 60.7798 116.175 60.7798 117.18C60.7798 118.185 61.5957 119 62.6021 119Z" fill="white"/>
<path style="mix-blend-mode:color-dodge" d="M123.325 94.6715C124.353 94.729 125.15 95.6188 125.093 96.6458C125.035 97.6728 124.144 98.4683 123.116 98.4108C122.087 98.3533 121.291 97.4635 121.348 96.4365C121.406 95.4095 122.296 94.614 123.325 94.6715Z" fill="white"/>
<path style="mix-blend-mode:color-dodge" d="M29.0871 104.995C30.1373 104.995 30.9886 104.145 30.9886 103.096C30.9886 102.048 30.1373 101.198 29.0871 101.198C28.0369 101.198 27.1855 102.048 27.1855 103.096C27.1855 104.145 28.0369 104.995 29.0871 104.995Z" fill="white"/>
<path style="mix-blend-mode:color-dodge" d="M112.423 48.3375C113.478 48.3965 114.301 49.2878 114.241 50.3674C114.181 51.4471 113.29 52.2426 112.209 52.1822C111.128 52.1218 110.331 51.2319 110.391 50.1523C110.451 49.0726 111.342 48.2771 112.423 48.3375Z" fill="white"/>
<path style="mix-blend-mode:color-dodge" d="M64.873 99.4832C65.9822 99.4832 66.9066 100.38 66.9066 101.514C66.9066 102.648 66.0086 103.545 64.873 103.545C63.7373 103.545 62.8394 102.648 62.8394 101.514C62.8394 100.38 63.7373 99.4832 64.873 99.4832Z" fill="white"/>
<g style="mix-blend-mode:color-dodge" opacity="0.9">
<path d="M64.8996 95.527C64.7676 95.527 64.6355 95.4478 64.5827 95.316L56.3162 77.0123C56.237 76.8277 56.3162 76.6167 56.5011 76.5376C56.5539 76.5376 56.6068 76.5112 56.6596 76.5112C56.7916 76.5112 56.9237 76.5904 56.9765 76.7222L65.2429 95.0259C65.3222 95.2105 65.2429 95.4215 65.0581 95.5006C65.0053 95.5006 64.9524 95.527 64.8996 95.527Z" fill="url(#paint0_linear_1011_265)"/>
</g>
<g style="mix-blend-mode:color-dodge" opacity="0.9">
<path d="M92.4985 73.241C92.4985 73.241 92.2608 73.1882 92.1816 73.0564L84.2057 58.8143C84.2057 58.8143 84.1529 58.6034 84.1793 58.5506C84.1793 58.4979 84.2321 58.3924 84.3377 58.3396C84.3905 58.3132 84.4434 58.2869 84.5226 58.2869C84.6282 58.2869 84.7603 58.3396 84.8395 58.4715L92.8155 72.7135C92.8155 72.7135 92.8683 72.9245 92.8419 72.9772C92.8419 73.03 92.789 73.1355 92.6834 73.1882C92.6306 73.2146 92.5778 73.241 92.4985 73.241Z" fill="url(#paint1_linear_1011_265)"/>
</g>
<g style="mix-blend-mode:color-dodge" opacity="0.9">
<path d="M57.1349 60.8449C56.95 60.8449 56.7915 60.6867 56.7651 60.5021C56.7651 60.3702 56.818 60.2911 56.8444 60.2383C56.8708 60.1856 56.95 60.1328 57.0821 60.1065L84.4696 58.2339C84.6809 58.2339 84.8394 58.3921 84.8394 58.5767C84.8394 58.7086 84.7865 58.7877 84.7601 58.8405C84.7337 58.8932 84.6545 58.946 84.5224 58.9724L57.1085 60.8449H57.1349Z" fill="url(#paint2_linear_1011_265)"/>
</g>
<g style="mix-blend-mode:color-dodge" opacity="0.9">
<path d="M29.9849 97.1886C29.8265 97.1886 29.6944 97.0831 29.6416 96.9248L22.7221 75.0079C22.6693 74.8233 22.7749 74.6123 22.9598 74.5596H23.0126C23.2239 74.5596 23.3559 74.6387 23.4088 74.7969L30.3283 96.7402C30.3811 96.9248 30.2755 97.1358 30.0906 97.1886H29.9849Z" fill="url(#paint3_linear_1011_265)"/>
</g>
<g style="mix-blend-mode:color-dodge" opacity="0.9">
<path d="M84.5225 58.9988C84.3377 58.9988 84.1792 58.8406 84.1792 58.6296L84.6282 36.8709C84.6282 36.6863 84.7866 36.5281 84.9979 36.5281C85.13 36.5281 85.2092 36.6072 85.262 36.6336C85.2884 36.6599 85.3677 36.7654 85.3677 36.8973L84.9187 58.656C84.9187 58.8406 84.7602 58.9988 84.5489 58.9988H84.5225Z" fill="url(#paint4_linear_1011_265)"/>
</g>
<g style="mix-blend-mode:color-dodge" opacity="0.9">
<path d="M92.4718 73.2408C92.4718 73.2408 92.419 73.2408 92.3662 73.2408L86.7408 71.6584C86.7408 71.6584 86.5559 71.5265 86.5295 71.5001C86.5031 71.4474 86.4502 71.3419 86.5031 71.2364C86.5559 71.0782 86.6879 70.9727 86.8464 70.9727L92.5775 72.5815C92.7623 72.6342 92.868 72.8188 92.8151 73.0298C92.7623 73.1881 92.6303 73.2936 92.4718 73.2936V73.2408Z" fill="url(#paint5_linear_1011_265)"/>
</g>
<g style="mix-blend-mode:color-dodge" opacity="0.9">
<path d="M39.0155 123.569C38.9165 123.445 38.9204 123.239 39.0275 123.12L48.0306 112.632C48.1583 112.496 48.3643 112.5 48.521 112.612C48.6696 112.797 48.6697 112.966 48.5421 113.102L39.5389 123.59C39.4113 123.726 39.2052 123.722 39.0485 123.61L38.999 123.548L39.0155 123.569Z" fill="url(#paint6_linear_1011_265)"/>
</g>
<g style="mix-blend-mode:color-dodge" opacity="0.9">
<path d="M100.158 88.9334C100.158 88.9334 99.9464 88.8807 99.8671 88.8016L86.5563 71.5265C86.4242 71.3683 86.4771 71.1309 86.6355 71.0254C86.7147 70.9727 86.794 70.9463 86.8468 70.9463C86.9524 70.9463 87.0581 70.999 87.1373 71.0782L100.448 88.3532C100.448 88.3532 100.527 88.5642 100.527 88.6169C100.527 88.6697 100.501 88.7752 100.395 88.8543C100.316 88.9071 100.237 88.9334 100.184 88.9334H100.158Z" fill="url(#paint7_linear_1011_265)"/>
</g>
<g style="mix-blend-mode:color-dodge" opacity="0.9">
<path d="M86.8465 71.6321C86.8465 71.6321 86.6088 71.5794 86.5296 71.4475L76.388 50.5856C76.3088 50.401 76.388 50.19 76.5465 50.1108C76.5993 50.1108 76.6521 50.0845 76.7049 50.0845C76.8106 50.0845 76.969 50.1372 77.0219 50.2955L87.1899 71.1574C87.2691 71.3156 87.1899 71.5266 87.0314 71.6057C86.9786 71.6321 86.9258 71.6585 86.8729 71.6585L86.8465 71.6321Z" fill="url(#paint8_linear_1011_265)"/>
</g>
<g style="mix-blend-mode:color-dodge" opacity="0.9">
<path d="M128.504 107.663C128.504 107.663 128.345 107.663 128.24 107.557L122.8 97.3964C122.8 97.3964 122.695 97.1854 122.695 97.1327C122.695 97.0799 122.695 96.9744 122.8 96.8689C122.88 96.7898 122.985 96.7634 123.038 96.7634C123.091 96.7634 123.197 96.7634 123.302 96.8689L128.742 107.03C128.742 107.03 128.847 107.241 128.847 107.293C128.847 107.346 128.847 107.452 128.742 107.557C128.662 107.636 128.557 107.663 128.504 107.663Z" fill="url(#paint9_linear_1011_265)"/>
</g>
<g style="mix-blend-mode:color-dodge" opacity="0.9">
<path d="M71.2117 113.778C71.2117 113.778 70.9476 113.725 70.8948 113.567L59.9873 90.0939C59.9873 90.0939 59.9609 89.8829 59.9873 89.8301C59.9873 89.7774 60.0666 89.6719 60.1722 89.6191C60.225 89.6191 60.2778 89.5928 60.3307 89.5928C60.4627 89.5928 60.5948 89.6719 60.6476 89.8038L71.5551 113.303C71.6343 113.461 71.5551 113.672 71.3702 113.751C71.3174 113.751 71.2646 113.778 71.2117 113.778Z" fill="url(#paint10_linear_1011_265)"/>
</g>
<g style="mix-blend-mode:color-dodge" opacity="0.9">
<path d="M60.3305 90.305C60.3305 90.305 60.0928 90.2258 60.0136 90.1203L47.8912 69.3375C47.8912 69.3375 47.8384 69.1265 47.8648 69.0738C47.8648 69.0211 47.9176 68.9156 48.0233 68.8628C48.0761 68.8364 48.1289 68.8101 48.2082 68.8101C48.3402 68.8101 48.4458 68.8892 48.5251 68.9947L60.6474 89.7775C60.6474 89.7775 60.7003 89.9885 60.6738 90.0412C60.6738 90.094 60.621 90.1995 60.5154 90.2522C60.4626 90.2786 60.4097 90.305 60.3305 90.305Z" fill="url(#paint11_linear_1011_265)"/>
</g>
<g style="mix-blend-mode:color-dodge" opacity="0.9">
<path d="M99.0381 106.502C99.0381 106.502 98.8268 106.423 98.8004 106.37C98.774 106.317 98.6947 106.238 98.7211 106.106C98.7211 105.922 98.8796 105.763 99.0909 105.763L128.327 107.346C128.512 107.346 128.67 107.53 128.67 107.715C128.67 107.9 128.512 108.058 128.327 108.058L99.0909 106.476L99.0381 106.502Z" fill="url(#paint12_linear_1011_265)"/>
</g>
<g style="mix-blend-mode:color-dodge" opacity="0.9">
<path d="M48.1818 69.4958C48.1818 69.4958 47.9442 69.4166 47.8649 69.3111L36.931 49.8998C36.8518 49.7416 36.931 49.5306 37.0631 49.4251C37.1159 49.3987 37.1687 49.3723 37.2479 49.3723C37.38 49.3723 37.4856 49.4514 37.5649 49.5569L48.4988 68.9683C48.578 69.1265 48.4988 69.3375 48.3667 69.443C48.3139 69.4694 48.2611 69.4958 48.1818 69.4958Z" fill="url(#paint13_linear_1011_265)"/>
</g>
<g style="mix-blend-mode:color-dodge" opacity="0.9">
<path d="M100.46 39.6087C100.46 39.6087 100.342 39.5482 100.319 39.4771L92.6912 27.044C92.598 26.8775 92.6703 26.6776 92.8361 26.5852C92.9546 26.5275 93.0725 26.5289 93.1665 26.5773C93.2371 26.6136 93.2841 26.6378 93.3071 26.7089L100.959 39.1541C101.052 39.3206 100.98 39.5204 100.814 39.6129C100.695 39.6705 100.577 39.6691 100.483 39.6208L100.46 39.6087Z" fill="url(#paint14_linear_1011_265)"/>
</g>
<g style="mix-blend-mode:color-dodge" opacity="0.9">
<path d="M91.2309 86.8235C91.2309 86.8235 91.0724 86.8235 90.9932 86.718L73.4303 69.7594C73.4303 69.7594 73.2982 69.4166 73.4303 69.2847C73.5359 69.1792 73.6416 69.1792 73.6944 69.1792C73.7472 69.1792 73.8528 69.1792 73.9321 69.2847L91.495 86.2433C91.495 86.2433 91.627 86.5861 91.495 86.718C91.4157 86.8235 91.2837 86.8235 91.2309 86.8235Z" fill="url(#paint15_linear_1011_265)"/>
</g>
<g style="mix-blend-mode:color-dodge" opacity="0.9">
<path d="M98.705 106.103C98.5466 106.103 98.4145 106.024 98.3617 105.892L90.8876 86.639C90.8083 86.4544 90.8876 86.2434 91.0988 86.1643C91.1517 86.1643 91.1781 86.1643 91.2309 86.1643C91.3629 86.1643 91.495 86.2434 91.5742 86.4017L99.0484 105.681C99.1012 105.839 99.022 106.05 98.8371 106.13C98.7843 106.13 98.7579 106.156 98.705 106.156V106.103Z" fill="url(#paint16_linear_1011_265)"/>
</g>
<g style="mix-blend-mode:color-dodge" opacity="0.9">
<path d="M73.6676 69.8651C73.6676 69.8651 73.4563 69.8123 73.3771 69.7332L54.4145 44.9943C54.3088 44.836 54.3352 44.6251 54.4937 44.4932C54.5729 44.4404 54.6522 44.4141 54.705 44.4141C54.8106 44.4141 54.9163 44.4668 54.9955 44.5459L73.9581 69.2849C74.0638 69.4431 74.0374 69.6541 73.8789 69.786C73.7997 69.8387 73.7204 69.8651 73.6676 69.8651Z" fill="url(#paint17_linear_1011_265)"/>
</g>
<g style="mix-blend-mode:color-dodge" opacity="0.9">
<path d="M48.8158 112.433C48.8158 112.433 48.6045 112.38 48.5253 112.301L32.2037 89.7511C32.098 89.6192 32.1508 89.4083 32.2829 89.2764C32.3621 89.2236 32.4414 89.1973 32.4942 89.1973C32.5998 89.1973 32.7055 89.25 32.7847 89.3291L49.1063 111.879C49.2119 112.037 49.1855 112.248 49.0271 112.354C48.9478 112.406 48.8686 112.433 48.8158 112.433Z" fill="url(#paint18_linear_1011_265)"/>
</g>
<g style="mix-blend-mode:color-dodge" opacity="0.9">
<path d="M32.4674 89.883C32.4674 89.883 32.2562 89.8302 32.1769 89.7511L11.5504 82.9023C11.5504 82.9023 11.4712 82.6913 11.4712 82.6385C11.4712 82.5858 11.4976 82.4803 11.6032 82.4011C11.6825 82.3484 11.7617 82.322 11.8145 82.322C11.9202 82.322 12.0258 82.3748 12.105 82.4539L32.758 89.3027C32.8636 89.461 32.8372 89.672 32.6787 89.7775C32.5995 89.8302 32.5203 89.8566 32.4674 89.8566V89.883Z" fill="url(#paint19_linear_1011_265)"/>
</g>
<g style="mix-blend-mode:color-dodge" opacity="0.9">
<path d="M94.9547 69.5484C94.9547 69.5484 94.7962 69.5484 94.6906 69.4429L74.1169 47.5788C74.1169 47.5788 74.0112 47.3678 74.0112 47.315C74.0112 47.2623 74.0112 47.1568 74.1169 47.0777C74.1961 46.9985 74.3017 46.9722 74.3546 46.9722C74.4074 46.9722 74.513 46.9722 74.6187 47.0777L95.1924 68.9418C95.1924 68.9418 95.298 69.2847 95.1659 69.4165C95.0867 69.4957 94.9811 69.522 94.9018 69.522L94.9547 69.5484Z" fill="url(#paint20_linear_1011_265)"/>
</g>
<g style="mix-blend-mode:color-dodge" opacity="0.9">
<path d="M58.9835 104.151C58.9835 104.151 58.7458 104.099 58.6665 103.967L48.657 87.0082C48.5778 86.85 48.6306 86.639 48.7891 86.5335C48.8419 86.5071 48.9211 86.4807 48.9739 86.4807C49.106 86.4807 49.2116 86.5335 49.2909 86.6653L59.3004 103.624C59.3796 103.782 59.3268 103.993 59.1683 104.099C59.1155 104.125 59.0363 104.151 58.9835 104.151Z" fill="url(#paint21_linear_1011_265)"/>
</g>
<g style="mix-blend-mode:color-dodge" opacity="0.9">
<path d="M48.974 87.1928C48.974 87.1928 48.7627 87.1401 48.6835 87.061L31.3847 63.7726C31.279 63.6144 31.3054 63.377 31.4639 63.2715C31.5431 63.2188 31.6224 63.1924 31.6752 63.1924C31.7808 63.1924 31.8865 63.2451 31.9657 63.3243L49.2645 86.6126C49.3701 86.7708 49.3437 87.0082 49.1853 87.1137C49.106 87.1665 49.0268 87.1928 48.974 87.1928Z" fill="url(#paint22_linear_1011_265)"/>
</g>
<g style="mix-blend-mode:color-dodge" opacity="0.9">
<path d="M31.6491 63.9045C31.6491 63.9045 31.4642 63.9045 31.385 63.7726L14.588 43.2536C14.4559 43.0953 14.4823 42.8843 14.6408 42.7525C14.72 42.6733 14.7993 42.6733 14.8785 42.6733C14.9841 42.6733 15.0898 42.7261 15.169 42.8052L31.966 63.3506C32.0716 63.4825 32.0452 63.6935 31.9132 63.8254C31.8339 63.9045 31.7283 63.9045 31.6755 63.9045H31.6491Z" fill="url(#paint23_linear_1011_265)"/>
</g>
<g style="mix-blend-mode:color-dodge" opacity="0.9">
<path d="M14.8781 43.3855C14.7196 43.3855 14.5612 43.28 14.5347 43.1217L13.2935 38.348C13.2935 38.348 13.2935 38.1106 13.3199 38.0843C13.3463 38.0315 13.4255 37.9524 13.5312 37.926C13.5312 37.926 13.5312 37.926 13.5576 37.926C13.7953 37.926 13.9273 38.0315 13.9537 38.1898L15.195 42.9635C15.195 42.9635 15.195 43.1745 15.1686 43.2272C15.1422 43.28 15.063 43.3591 14.9573 43.3855H14.8781Z" fill="url(#paint24_linear_1011_265)"/>
</g>
<g style="mix-blend-mode:color-dodge" opacity="0.9">
<path d="M88.9068 117.628C88.7219 117.628 88.5899 117.497 88.5635 117.338L84.9717 96.5292C84.9717 96.5292 84.9981 96.3182 85.0245 96.2654C85.0509 96.2127 85.1301 96.1336 85.2622 96.1072C85.4999 96.1072 85.6319 96.239 85.6583 96.3973L89.2502 117.206C89.2502 117.206 89.2237 117.417 89.1973 117.47C89.1709 117.523 89.0917 117.602 88.9596 117.628H88.9068Z" fill="url(#paint25_linear_1011_265)"/>
</g>
<g style="mix-blend-mode:color-dodge" opacity="0.9">
<path d="M13.6637 38.6117C13.6637 38.6117 13.426 38.5589 13.3467 38.427C13.2939 38.3215 13.2939 38.216 13.3467 38.1633C13.3467 38.1105 13.3996 38.0051 13.5316 37.9523L39.5818 -0.272209C39.5818 -0.272209 39.6874 -0.298584 39.7402 -0.298584C39.8459 -0.298584 39.9779 -0.245835 40.0572 -0.0875902C40.1364 0.0970286 40.0572 0.308021 39.8987 0.387143L13.8485 38.6117C13.8485 38.6117 13.7429 38.638 13.6901 38.638L13.6637 38.6117Z" fill="url(#paint26_linear_1011_265)"/>
</g>
<g style="mix-blend-mode:color-dodge" opacity="0.9">
<path d="M51.1661 56.7307C50.9812 56.7307 50.8228 56.5724 50.7964 56.3878L40.3174 0.0179129C40.3174 -0.166706 40.4494 -0.324951 40.6607 -0.324951C40.872 -0.324951 41.0305 -0.166706 41.0305 0.0179129L51.5094 56.3878C51.5094 56.5724 51.3774 56.7307 51.1661 56.7307Z" fill="url(#paint27_linear_1011_265)"/>
</g>
<g style="mix-blend-mode:color-dodge" opacity="0.9">
<path d="M80.3763 78.9904C80.3763 78.9904 80.2442 78.9904 80.165 78.9113L50.9551 56.6779C50.7967 56.546 50.7702 56.335 50.8759 56.1768C50.9551 56.0977 51.0608 56.0449 51.1664 56.0449C51.2192 56.0449 51.2985 56.0449 51.3777 56.124L80.614 78.3838C80.746 78.4893 80.7724 78.7003 80.6668 78.8585C80.5876 78.964 80.4819 79.0168 80.3763 79.0168V78.9904Z" fill="url(#paint28_linear_1011_265)"/>
</g>
<g style="mix-blend-mode:color-dodge" opacity="0.9">
<path d="M85.3147 96.8193C85.1562 96.8193 85.0242 96.7138 84.9713 96.5556L80.059 78.753C80.0062 78.5948 80.1118 78.3838 80.2967 78.3311C80.2967 78.3311 80.3231 78.3311 80.3495 78.3311C80.5872 78.3311 80.6929 78.4366 80.7457 78.5684L85.658 96.371C85.7108 96.5556 85.6052 96.7666 85.3939 96.8193H85.2883H85.3147Z" fill="url(#paint29_linear_1011_265)"/>
</g>
<g style="mix-blend-mode:color-dodge" opacity="0.9">
<path d="M62.5753 117.523C62.5753 117.523 62.4961 117.523 62.4433 117.497L28.9549 103.413C28.9549 103.413 28.7701 103.281 28.7701 103.228C28.7701 103.175 28.7172 103.07 28.7701 102.964C28.8229 102.833 28.9549 102.753 29.1134 102.753C29.1662 102.753 29.219 102.753 29.2454 102.78L62.7602 116.864C62.9187 116.943 62.9979 117.127 62.9451 117.312C62.8923 117.444 62.7602 117.549 62.6017 117.549L62.5753 117.523Z" fill="url(#paint30_linear_1011_265)"/>
</g>
<g style="mix-blend-mode:color-dodge" opacity="0.9">
<path d="M123.201 96.8833C123.043 96.8745 122.917 96.7617 122.873 96.6008L111.944 50.2917C111.902 50.1044 112.019 49.8996 112.206 49.8573C112.206 49.8573 112.233 49.8588 112.259 49.8602C112.497 49.8735 112.622 49.9862 112.641 50.1193L123.57 96.4285C123.613 96.6157 123.497 96.7942 123.31 96.8365L123.204 96.8306L123.201 96.8833Z" fill="url(#paint31_linear_1011_265)"/>
</g>
<g style="mix-blend-mode:color-dodge" opacity="0.9">
<path d="M68.0869 150.413C67.902 150.413 67.77 150.281 67.7435 150.123L62.4351 117.234C62.4351 117.05 62.5407 116.891 62.7256 116.839C62.9633 116.839 63.0953 116.97 63.1217 117.129L68.4302 150.017C68.4302 150.176 68.3246 150.36 68.1397 150.387H68.0605L68.0869 150.413Z" fill="url(#paint32_linear_1011_265)"/>
</g>
<path d="M37.2744 49.7151L48.2083 69.1528L60.3307 89.9356L37.2744 49.7151Z" fill="url(#paint33_linear_1011_265)" fill-opacity="0.02"/>
<path d="M31.6753 63.5615L48.9741 86.8499L58.9836 103.808L31.6753 63.5615Z" fill="url(#paint34_linear_1011_265)" fill-opacity="0.19"/>
<path d="M14.8784 43.0161L31.6754 63.5616L48.9742 86.8499L14.8784 43.0161Z" fill="url(#paint35_linear_1011_265)" fill-opacity="0.07"/>
<path style="mix-blend-mode:color-dodge" d="M114.971 149.982C115.605 149.982 116.133 150.51 116.133 151.143C116.133 151.776 115.605 152.303 114.971 152.303C114.337 152.303 113.809 151.776 113.809 151.143C113.809 150.51 114.337 149.982 114.971 149.982Z" fill="white"/>
<path style="mix-blend-mode:color-dodge" d="M76.1621 116C76.7959 116 77.3241 116.527 77.3241 117.16C77.3241 117.793 76.7959 118.321 76.1621 118.321C75.5282 118.321 75 117.793 75 117.16C75 116.527 75.5282 116 76.1621 116Z" fill="white"/>
<path style="mix-blend-mode:color-dodge" d="M97.6639 125C98.5882 125 99.3277 125.738 99.3277 126.662C99.3277 127.585 98.5882 128.323 97.6639 128.323C96.7395 128.323 96 127.585 96 126.662C96 125.738 96.7395 125 97.6639 125Z" fill="white"/>
<g style="mix-blend-mode:color-dodge" opacity="0.9">
<path d="M114.971 151.486C114.971 151.486 114.759 151.486 114.68 151.327L97.672 126.668C97.672 126.668 97.5927 126.457 97.6192 126.404C97.6192 126.351 97.672 126.246 97.7776 126.167C97.8569 126.114 97.9361 126.114 97.9889 126.114C98.121 126.114 98.2266 126.167 98.2794 126.272L115.288 150.932C115.288 150.932 115.367 151.143 115.341 151.196C115.341 151.248 115.288 151.354 115.182 151.433C115.103 151.486 115.024 151.486 114.971 151.486Z" fill="url(#paint36_linear_1011_265)"/>
</g>
<g style="mix-blend-mode:color-dodge" opacity="0.9">
<path d="M98.0792 126.599C98.0792 126.599 97.9153 126.684 97.784 126.604L76.3142 117.675C76.1595 117.607 76.0852 117.407 76.1412 117.229C76.1748 117.123 76.2685 117.074 76.3153 117.049C76.3621 117.025 76.4791 116.964 76.6104 117.044L98.0802 125.973C98.2349 126.041 98.3092 126.24 98.2532 126.418C98.2196 126.525 98.126 126.574 98.0792 126.599Z" fill="url(#paint37_linear_1011_265)"/>
</g>
</g>
<path d="M120.48 75.9062C117.681 54.3497 100.65 37.3188 79.0739 34.5198L76.8311 34.2222V62.3487L78.2799 62.7658C84.8899 64.6318 90.3685 70.11 92.2343 76.7L92.6512 78.1294H120.778L120.48 75.9062Z" stroke="white" stroke-width="1.5"/>
<path d="M92.6511 86.1089L92.2342 87.5381C89.8124 96.113 82.1108 101.869 73.0596 101.869C71.4716 101.869 69.8438 101.671 68.1966 101.254L66.7278 100.877L52.6543 125.272L54.7386 126.126C60.5743 128.547 66.7276 129.778 73.0596 129.778C97.0179 129.778 117.403 111.953 120.48 88.3519L120.778 86.1089H92.6511Z" stroke="white" stroke-width="1.5"/>
<path d="M32.8759 56.0542C31.3955 58.3549 30.1141 60.7845 29.0391 63.3254L57.2028 69.6928C59.3124 66.9372 62.1519 64.7609 65.5122 63.4311L32.8759 56.0542Z" stroke="white" stroke-width="1.5"/>
<path d="M41.7033 45.8401C39.3794 47.8688 37.2567 50.1106 35.3628 52.5453L68.8913 60.1236V51.9853L41.7033 45.8401Z" stroke="white" stroke-width="1.5"/>
<path d="M66.6482 34.5198C58.8999 35.5291 51.7987 38.4286 45.7251 42.6781L68.8912 47.9143V34.2222L66.6482 34.5198Z" stroke="white" stroke-width="1.5"/>
<path d="M26.1221 91.1584C26.7046 94.1593 27.5677 97.0764 28.7001 99.8793L54.688 105.754L58.8394 98.5538L26.1221 91.1584Z" stroke="white" stroke-width="1.5"/>
<path d="M30.8311 104.432C33.9934 110.354 38.411 115.627 43.9405 119.873L45.7468 121.262L52.6112 109.356L30.8311 104.432Z" stroke="white" stroke-width="1.5"/>
<path d="M53.3841 85.1092L25.3685 78.7776C25.2992 79.8271 25.2222 80.8755 25.2222 81.9404C25.2222 83.6254 25.321 85.2936 25.4917 86.9448L57.319 94.139C55.2498 91.4893 53.9128 88.3977 53.3841 85.1092Z" stroke="white" stroke-width="1.5"/>
<path d="M27.6357 67.0789C26.8179 69.5771 26.202 72.1557 25.8027 74.8051L53.1488 80.9853C53.2732 78.2348 53.9293 75.6288 55.0358 73.2736L27.6357 67.0789Z" stroke="white" stroke-width="1.5"/>
<path style="mix-blend-mode:color-dodge" d="M35.2009 124.222C36.404 124.222 37.4017 125.189 37.4017 126.42C37.4017 127.651 36.4333 128.618 35.2009 128.618C33.9684 128.618 33 127.651 33 126.42C33 125.189 33.9684 124.222 35.2009 124.222Z" fill="white"/>
<defs>
<linearGradient id="paint0_linear_1011_265" x1="60.7796" y1="76.5112" x2="60.7796" y2="95.527" gradientUnits="userSpaceOnUse">
<stop stop-color="#C91EFE"/>
<stop offset="1" stop-color="#4A68F2"/>
</linearGradient>
<linearGradient id="paint1_linear_1011_265" x1="88.5106" y1="58.2869" x2="88.5106" y2="73.241" gradientUnits="userSpaceOnUse">
<stop stop-color="#C91EFE"/>
<stop offset="1" stop-color="#4A68F2"/>
</linearGradient>
<linearGradient id="paint2_linear_1011_265" x1="70.8023" y1="58.2339" x2="70.8023" y2="60.8449" gradientUnits="userSpaceOnUse">
<stop stop-color="#C91EFE"/>
<stop offset="1" stop-color="#4A68F2"/>
</linearGradient>
<linearGradient id="paint3_linear_1011_265" x1="26.5252" y1="74.5596" x2="26.5252" y2="97.1886" gradientUnits="userSpaceOnUse">
<stop stop-color="#C91EFE"/>
<stop offset="1" stop-color="#4A68F2"/>
</linearGradient>
<linearGradient id="paint4_linear_1011_265" x1="84.7734" y1="36.5281" x2="84.7734" y2="58.9988" gradientUnits="userSpaceOnUse">
<stop stop-color="#C91EFE"/>
<stop offset="1" stop-color="#4A68F2"/>
</linearGradient>
<linearGradient id="paint5_linear_1011_265" x1="89.6546" y1="70.9727" x2="89.6546" y2="73.2936" gradientUnits="userSpaceOnUse">
<stop stop-color="#C91EFE"/>
<stop offset="1" stop-color="#4A68F2"/>
</linearGradient>
<linearGradient id="paint6_linear_1011_265" x1="49.3545" y1="113.653" x2="38.2151" y2="122.569" gradientUnits="userSpaceOnUse">
<stop stop-color="#C91EFE"/>
<stop offset="1" stop-color="#4A68F2"/>
</linearGradient>
<linearGradient id="paint7_linear_1011_265" x1="93.5044" y1="70.9463" x2="93.5044" y2="88.9334" gradientUnits="userSpaceOnUse">
<stop stop-color="#C91EFE"/>
<stop offset="1" stop-color="#4A68F2"/>
</linearGradient>
<linearGradient id="paint8_linear_1011_265" x1="81.7889" y1="50.0845" x2="81.7889" y2="71.6585" gradientUnits="userSpaceOnUse">
<stop stop-color="#C91EFE"/>
<stop offset="1" stop-color="#4A68F2"/>
</linearGradient>
<linearGradient id="paint9_linear_1011_265" x1="122.271" y1="93.7634" x2="122.271" y2="107.663" gradientUnits="userSpaceOnUse">
<stop stop-color="#C91EFE"/>
<stop offset="1" stop-color="#4A68F2"/>
</linearGradient>
<linearGradient id="paint10_linear_1011_265" x1="65.7806" y1="89.5928" x2="65.7806" y2="113.778" gradientUnits="userSpaceOnUse">
<stop stop-color="#C91EFE"/>
<stop offset="1" stop-color="#4A68F2"/>
</linearGradient>
<linearGradient id="paint11_linear_1011_265" x1="54.2693" y1="68.8101" x2="54.2693" y2="90.305" gradientUnits="userSpaceOnUse">
<stop stop-color="#C91EFE"/>
<stop offset="1" stop-color="#4A68F2"/>
</linearGradient>
<linearGradient id="paint12_linear_1011_265" x1="113.693" y1="105.763" x2="113.693" y2="108.058" gradientUnits="userSpaceOnUse">
<stop stop-color="#C91EFE"/>
<stop offset="1" stop-color="#4A68F2"/>
</linearGradient>
<linearGradient id="paint13_linear_1011_265" x1="42.7149" y1="49.3723" x2="42.7149" y2="69.4958" gradientUnits="userSpaceOnUse">
<stop stop-color="#C91EFE"/>
<stop offset="1" stop-color="#4A68F2"/>
</linearGradient>
<linearGradient id="paint14_linear_1011_265" x1="98.6996" y1="29.4235" x2="94.9249" y2="36.7616" gradientUnits="userSpaceOnUse">
<stop stop-color="#C91EFE"/>
<stop offset="1" stop-color="#4A68F2"/>
</linearGradient>
<linearGradient id="paint15_linear_1011_265" x1="82.4626" y1="69.1792" x2="82.4626" y2="86.8235" gradientUnits="userSpaceOnUse">
<stop stop-color="#C91EFE"/>
<stop offset="1" stop-color="#4A68F2"/>
</linearGradient>
<linearGradient id="paint16_linear_1011_265" x1="94.9609" y1="86.1643" x2="94.9609" y2="106.156" gradientUnits="userSpaceOnUse">
<stop stop-color="#C91EFE"/>
<stop offset="1" stop-color="#4A68F2"/>
</linearGradient>
<linearGradient id="paint17_linear_1011_265" x1="64.1863" y1="44.4141" x2="64.1863" y2="69.8651" gradientUnits="userSpaceOnUse">
<stop stop-color="#C91EFE"/>
<stop offset="1" stop-color="#4A68F2"/>
</linearGradient>
<linearGradient id="paint18_linear_1011_265" x1="40.6586" y1="89.1973" x2="40.6586" y2="112.433" gradientUnits="userSpaceOnUse">
<stop stop-color="#C91EFE"/>
<stop offset="1" stop-color="#4A68F2"/>
</linearGradient>
<linearGradient id="paint19_linear_1011_265" x1="22.1463" y1="62.322" x2="22.1463" y2="89.883" gradientUnits="userSpaceOnUse">
<stop stop-color="#C91EFE"/>
<stop offset="1" stop-color="#4A68F2"/>
</linearGradient>
<linearGradient id="paint20_linear_1011_265" x1="84.6218" y1="46.9722" x2="84.6218" y2="69.5484" gradientUnits="userSpaceOnUse">
<stop stop-color="#C91EFE"/>
<stop offset="1" stop-color="#4A68F2"/>
</linearGradient>
<linearGradient id="paint21_linear_1011_265" x1="53.9787" y1="86.4807" x2="53.9787" y2="104.151" gradientUnits="userSpaceOnUse">
<stop stop-color="#C91EFE"/>
<stop offset="1" stop-color="#4A68F2"/>
</linearGradient>
<linearGradient id="paint22_linear_1011_265" x1="40.3246" y1="63.1924" x2="40.3246" y2="87.1928" gradientUnits="userSpaceOnUse">
<stop stop-color="#C91EFE"/>
<stop offset="1" stop-color="#4A68F2"/>
</linearGradient>
<linearGradient id="paint23_linear_1011_265" x1="23.2673" y1="42.6733" x2="23.2673" y2="63.9045" gradientUnits="userSpaceOnUse">
<stop stop-color="#C91EFE"/>
<stop offset="1" stop-color="#4A68F2"/>
</linearGradient>
<linearGradient id="paint24_linear_1011_265" x1="14.2442" y1="37.926" x2="14.2442" y2="43.3855" gradientUnits="userSpaceOnUse">
<stop stop-color="#C91EFE"/>
<stop offset="1" stop-color="#4A68F2"/>
</linearGradient>
<linearGradient id="paint25_linear_1011_265" x1="87.1109" y1="96.1072" x2="87.1109" y2="117.628" gradientUnits="userSpaceOnUse">
<stop stop-color="#C91EFE"/>
<stop offset="1" stop-color="#4A68F2"/>
</linearGradient>
<linearGradient id="paint26_linear_1011_265" x1="31.6977" y1="19.7014" x2="31.6977" y2="38.638" gradientUnits="userSpaceOnUse">
<stop stop-color="#C91EFE"/>
<stop offset="1" stop-color="#4A68F2"/>
</linearGradient>
<linearGradient id="paint27_linear_1011_265" x1="50.4134" y1="19.675" x2="50.4134" y2="56.7307" gradientUnits="userSpaceOnUse">
<stop stop-color="#C91EFE"/>
<stop offset="1" stop-color="#4A68F2"/>
</linearGradient>
<linearGradient id="paint28_linear_1011_265" x1="65.7722" y1="56.0449" x2="65.7722" y2="79.0168" gradientUnits="userSpaceOnUse">
<stop stop-color="#C91EFE"/>
<stop offset="1" stop-color="#4A68F2"/>
</linearGradient>
<linearGradient id="paint29_linear_1011_265" x1="82.8584" y1="78.3311" x2="82.8584" y2="96.8193" gradientUnits="userSpaceOnUse">
<stop stop-color="#C91EFE"/>
<stop offset="1" stop-color="#4A68F2"/>
</linearGradient>
<linearGradient id="paint30_linear_1011_265" x1="45.854" y1="102.753" x2="45.854" y2="117.549" gradientUnits="userSpaceOnUse">
<stop stop-color="#C91EFE"/>
<stop offset="1" stop-color="#4A68F2"/>
</linearGradient>
<linearGradient id="paint31_linear_1011_265" x1="119.049" y1="50.2397" x2="116.464" y2="96.5068" gradientUnits="userSpaceOnUse">
<stop stop-color="#C91EFE"/>
<stop offset="1" stop-color="#4A68F2"/>
</linearGradient>
<linearGradient id="paint32_linear_1011_265" x1="65.4326" y1="116.839" x2="65.4326" y2="150.413" gradientUnits="userSpaceOnUse">
<stop stop-color="#C91EFE"/>
<stop offset="1" stop-color="#4A68F2"/>
</linearGradient>
<linearGradient id="paint33_linear_1011_265" x1="37.2744" y1="69.8385" x2="60.3307" y2="69.8385" gradientUnits="userSpaceOnUse">
<stop offset="0.07" stop-color="white"/>
<stop offset="0.56" stop-color="#EBCFCF"/>
</linearGradient>
<linearGradient id="paint34_linear_1011_265" x1="31.6753" y1="83.685" x2="58.9836" y2="83.685" gradientUnits="userSpaceOnUse">
<stop offset="0.07" stop-color="white"/>
<stop offset="0.56" stop-color="#EBCFCF"/>
</linearGradient>
<linearGradient id="paint35_linear_1011_265" x1="14.8784" y1="64.933" x2="48.9742" y2="64.933" gradientUnits="userSpaceOnUse">
<stop offset="0.07" stop-color="white"/>
<stop offset="0.56" stop-color="#EBCFCF"/>
</linearGradient>
<linearGradient id="paint36_linear_1011_265" x1="106.48" y1="126.114" x2="106.48" y2="151.486" gradientUnits="userSpaceOnUse">
<stop stop-color="#C91EFE"/>
<stop offset="1" stop-color="#4A68F2"/>
</linearGradient>
<linearGradient id="paint37_linear_1011_265" x1="82.9049" y1="113.607" x2="91.4896" y2="130.041" gradientUnits="userSpaceOnUse">
<stop stop-color="#C91EFE"/>
<stop offset="1" stop-color="#4A68F2"/>
</linearGradient>
<clipPath id="clip0_1011_265">
<rect width="137" height="154" fill="white"/>
</clipPath>
</defs>
</svg>
