<svg width="293" height="274" viewBox="0 0 293 274" fill="none" xmlns="http://www.w3.org/2000/svg">
<g clip-path="url(#clip0_917_80629)">
<path style="mix-blend-mode:color-dodge" d="M64.122 137.79C63.6852 138.482 62.7447 138.694 62.0529 138.257C61.3611 137.821 61.1485 136.88 61.5854 136.188C62.0222 135.496 62.9627 135.284 63.6545 135.721C64.3463 136.157 64.5588 137.098 64.122 137.79Z" fill="white"/>
<path style="mix-blend-mode:color-dodge" d="M109.349 132.224C109.032 132.727 108.37 132.877 107.868 132.56C107.365 132.243 107.216 131.581 107.534 131.078C107.851 130.575 108.513 130.426 109.015 130.743C109.517 131.06 109.667 131.722 109.349 132.224Z" fill="white"/>
<path style="mix-blend-mode:color-dodge" d="M122.905 175.878C122.576 176.4 121.895 176.538 121.392 176.221C120.89 175.903 120.734 175.21 121.051 174.707C121.368 174.205 122.062 174.048 122.564 174.365C123.066 174.682 123.235 175.356 122.905 175.878Z" fill="white"/>
<path style="mix-blend-mode:color-dodge" d="M100.872 95.3742C100.543 95.8961 99.8613 96.0337 99.3591 95.7167C98.8569 95.3996 98.7005 94.706 99.0178 94.2034C99.3352 93.7008 100.029 93.5438 100.531 93.8609C101.033 94.178 101.189 94.8716 100.872 95.3742Z" fill="white"/>
<path style="mix-blend-mode:color-dodge" d="M49.3032 133.164C48.8619 133.863 47.9329 134.073 47.234 133.631C46.5351 133.19 46.3252 132.261 46.7665 131.562C47.2078 130.863 48.1368 130.653 48.8357 131.095C49.5345 131.536 49.7445 132.465 49.3032 133.164Z" fill="white"/>
<path style="mix-blend-mode:color-dodge" d="M92.839 64.7519C92.5094 65.2738 91.8159 65.4308 91.2944 65.1015C90.7729 64.7722 90.6165 64.0787 90.946 63.5567C91.2755 63.0348 91.969 62.8778 92.4905 63.2071C93.0121 63.5364 93.1685 64.23 92.839 64.7519Z" fill="url(#paint0_radial_917_80629)"/>
<path style="mix-blend-mode:color-dodge" d="M147.054 135.834C146.717 136.368 146.876 137.074 147.409 137.411C147.943 137.747 148.648 137.588 148.985 137.054C149.322 136.52 149.163 135.814 148.63 135.478C148.097 135.141 147.391 135.301 147.054 135.834Z" fill="white"/>
<path style="mix-blend-mode:color-dodge" d="M150.455 166.776C150.113 167.317 149.419 167.474 148.879 167.133C148.338 166.791 148.181 166.098 148.523 165.557C148.865 165.015 149.558 164.858 150.099 165.2C150.64 165.541 150.796 166.235 150.455 166.776Z" fill="white"/>
<path style="mix-blend-mode:color-dodge" d="M152.612 102.086C152.27 102.627 151.577 102.784 151.036 102.443C150.495 102.101 150.339 101.408 150.68 100.867C151.022 100.325 151.716 100.168 152.256 100.51C152.797 100.851 152.954 101.545 152.612 102.086Z" fill="url(#paint1_radial_917_80629)"/>
<path style="mix-blend-mode:color-dodge" d="M140.231 61.662C139.894 62.1958 140.053 62.9016 140.587 63.2383C141.12 63.5751 141.826 63.4154 142.163 62.8816C142.5 62.3478 142.341 61.642 141.807 61.3052C141.274 60.9685 140.568 61.1282 140.231 61.662Z" fill="white"/>
<path style="mix-blend-mode:color-dodge" d="M111.607 156.118C111.263 156.663 111.426 157.383 111.97 157.726C112.514 158.07 113.233 157.907 113.577 157.362C113.921 156.818 113.759 156.098 113.215 155.754C112.671 155.411 111.951 155.574 111.607 156.118Z" fill="white"/>
<path style="mix-blend-mode:color-dodge" d="M166.193 202.48C165.839 203.04 165.115 203.205 164.554 202.851C163.994 202.497 163.831 201.772 164.185 201.211C164.539 200.651 165.264 200.487 165.824 200.84C166.384 201.194 166.547 201.919 166.193 202.48Z" fill="white"/>
<path style="mix-blend-mode:color-dodge" d="M105.973 120.927C105.619 121.488 104.894 121.652 104.334 121.298C103.773 120.944 103.61 120.219 103.964 119.659C104.318 119.098 105.043 118.934 105.603 119.288C106.163 119.641 106.327 120.366 105.973 120.927Z" fill="white"/>
<path style="mix-blend-mode:color-dodge" d="M191.391 149.607C191.037 150.167 190.281 150.338 189.721 149.985C189.16 149.631 188.99 148.874 189.344 148.314C189.698 147.753 190.454 147.582 191.014 147.936C191.575 148.289 191.745 149.046 191.391 149.607Z" fill="url(#paint2_radial_917_80629)"/>
<path style="mix-blend-mode:color-dodge" d="M182.714 162.621C182.357 163.187 182.526 163.935 183.091 164.292C183.657 164.649 184.405 164.48 184.762 163.914C185.119 163.348 184.95 162.6 184.385 162.243C183.82 161.886 183.072 162.056 182.714 162.621Z" fill="white"/>
<path style="mix-blend-mode:color-dodge" d="M97.3082 73.0348C96.9542 73.5954 96.1977 73.7666 95.6376 73.413C95.0774 73.0593 94.9068 72.3026 95.2607 71.742C95.6147 71.1814 96.3712 71.0102 96.9313 71.3639C97.4915 71.7176 97.6622 72.4742 97.3082 73.0348Z" fill="white"/>
<path style="mix-blend-mode:color-dodge" d="M198.477 121.825C198.123 122.385 197.366 122.557 196.806 122.203C196.246 121.849 196.075 121.093 196.429 120.532C196.783 119.971 197.54 119.8 198.1 120.154C198.66 120.508 198.831 121.264 198.477 121.825Z" fill="white"/>
<path style="mix-blend-mode:color-dodge" d="M147.252 186.438C146.895 187.004 147.064 187.752 147.629 188.109C148.195 188.466 148.943 188.297 149.3 187.731C149.657 187.165 149.488 186.417 148.923 186.06C148.358 185.703 147.61 185.872 147.252 186.438Z" fill="white"/>
<path style="mix-blend-mode:color-dodge" d="M147.6 153.753C147.246 154.314 146.49 154.485 145.93 154.131C145.369 153.778 145.199 153.021 145.553 152.46C145.907 151.9 146.663 151.728 147.223 152.082C147.783 152.436 147.954 153.192 147.6 153.753Z" fill="url(#paint3_radial_917_80629)"/>
<path style="mix-blend-mode:color-dodge" d="M189.026 72.139C188.669 72.7048 188.838 73.4529 189.403 73.8099C189.969 74.1669 190.717 73.9976 191.074 73.4318C191.431 72.8659 191.262 72.1178 190.697 71.7608C190.132 71.4039 189.384 71.5732 189.026 72.139Z" fill="white"/>
<path style="mix-blend-mode:color-dodge" d="M151.198 115.793C150.827 116.38 151.002 117.156 151.589 117.527C152.175 117.897 152.952 117.722 153.322 117.134C153.693 116.547 153.518 115.771 152.931 115.401C152.345 115.03 151.568 115.206 151.198 115.793Z" fill="white"/>
<path style="mix-blend-mode:color-dodge" d="M199.597 195.316C199.231 195.896 198.443 196.074 197.863 195.709C197.284 195.343 197.106 194.555 197.472 193.975C197.838 193.395 198.626 193.216 199.206 193.582C199.785 193.948 199.963 194.736 199.597 195.316Z" fill="white"/>
<path style="mix-blend-mode:color-dodge" d="M148.719 66.832C148.348 67.4192 148.523 68.1955 149.11 68.566C149.697 68.9364 150.473 68.7607 150.844 68.1736C151.215 67.5864 151.039 66.81 150.453 66.4396C149.866 66.0691 149.09 66.2448 148.719 66.832Z" fill="white"/>
<path style="mix-blend-mode:color-dodge" d="M177.588 160.899C177.211 161.497 177.389 162.288 177.986 162.665C178.584 163.042 179.374 162.863 179.752 162.265C180.129 161.667 179.951 160.877 179.353 160.5C178.756 160.122 177.966 160.301 177.588 160.899Z" fill="white"/>
<path style="mix-blend-mode:color-dodge" d="M180.937 185.59C180.559 186.189 179.771 186.367 179.172 185.989C178.573 185.611 178.395 184.823 178.774 184.224C179.152 183.625 179.94 183.446 180.539 183.824C181.138 184.202 181.315 184.991 180.937 185.59Z" fill="url(#paint4_radial_917_80629)"/>
<path style="mix-blend-mode:color-dodge" d="M94.9703 79.562C94.5919 80.1613 93.8039 80.3397 93.2051 79.9616C92.6063 79.5835 92.4286 78.7954 92.8069 78.1961C93.1853 77.5968 93.9733 77.4185 94.5721 77.7965C95.1709 78.1746 95.3487 78.9628 94.9703 79.562Z" fill="url(#paint5_radial_917_80629)"/>
<path style="mix-blend-mode:color-dodge" d="M188.103 129.74C187.725 130.338 187.904 131.128 188.501 131.506C189.098 131.883 189.889 131.704 190.266 131.106C190.644 130.508 190.465 129.718 189.868 129.34C189.271 128.963 188.48 129.142 188.103 129.74Z" fill="white"/>
<path style="mix-blend-mode:color-dodge" d="M100.159 138.264C99.7809 138.864 98.9807 139.061 98.3626 138.671C97.7445 138.281 97.5667 137.493 97.9573 136.874C98.3478 136.256 99.1359 136.077 99.754 136.467C100.372 136.858 100.55 137.646 100.159 138.264Z" fill="url(#paint6_radial_917_80629)"/>
<path style="mix-blend-mode:color-dodge" d="M195.014 213.485C194.624 214.104 193.804 214.289 193.186 213.899C192.568 213.509 192.383 212.689 192.774 212.07C193.164 211.452 193.984 211.266 194.602 211.656C195.22 212.047 195.405 212.866 195.014 213.485Z" fill="white"/>
<path style="mix-blend-mode:color-dodge" d="M199.518 80.6826C199.127 81.3018 199.311 82.1204 199.93 82.5111C200.549 82.9018 201.367 82.7165 201.758 82.0973C202.149 81.4781 201.965 80.6594 201.346 80.2687C200.727 79.8781 199.909 80.0633 199.518 80.6826Z" fill="white"/>
<path style="mix-blend-mode:color-dodge" d="M138.896 162.533C138.493 163.171 137.654 163.344 137.036 162.954C136.418 162.564 136.226 161.713 136.616 161.094C137.007 160.475 137.858 160.283 138.476 160.673C139.094 161.063 139.286 161.915 138.896 162.533Z" fill="white"/>
<path style="mix-blend-mode:color-dodge" d="M142.308 118.319C141.904 118.959 142.095 119.806 142.735 120.211C143.375 120.615 144.222 120.423 144.626 119.782C145.031 119.142 144.84 118.295 144.199 117.891C143.559 117.487 142.713 117.678 142.308 118.319Z" fill="white"/>
<path style="mix-blend-mode:color-dodge" d="M151.907 64.2217C151.492 64.8789 150.641 65.0716 149.985 64.6569C149.328 64.2422 149.136 63.391 149.551 62.7338C149.966 62.0765 150.817 61.8839 151.474 62.2985C152.13 62.7132 152.322 63.5644 151.907 64.2217Z" fill="url(#paint7_radial_917_80629)"/>
<path style="mix-blend-mode:color-dodge" d="M92.1451 82.2392C91.7301 82.8965 90.8791 83.0891 90.2223 82.6745C89.5656 82.2598 89.3736 81.4086 89.7886 80.7514C90.2036 80.0941 91.0546 79.9015 91.7114 80.3161C92.3681 80.7308 92.5601 81.582 92.1451 82.2392Z" fill="white"/>
<path style="mix-blend-mode:color-dodge" d="M91.0596 135.818C90.6484 136.469 90.8426 137.33 91.4933 137.741C92.1441 138.152 93.0049 137.957 93.4161 137.306C93.8273 136.654 93.6331 135.793 92.9824 135.383C92.3316 134.972 91.4708 135.167 91.0596 135.818Z" fill="white"/>
<path style="mix-blend-mode:color-dodge" d="M176.438 125.024C176.023 125.682 175.172 125.874 174.515 125.46C173.858 125.045 173.666 124.194 174.081 123.537C174.496 122.879 175.347 122.687 176.004 123.101C176.661 123.516 176.853 124.367 176.438 125.024Z" fill="white"/>
<path style="mix-blend-mode:color-dodge" d="M175.273 168.63C174.858 169.288 173.988 169.468 173.35 169.066C172.713 168.663 172.514 167.78 172.917 167.142C173.319 166.505 174.202 166.305 174.839 166.707C175.477 167.11 175.676 167.992 175.273 168.63Z" fill="white"/>
<path style="mix-blend-mode:color-dodge" d="M187.475 207.968C187.06 208.625 186.178 208.825 185.521 208.41C184.864 207.996 184.665 207.113 185.08 206.456C185.495 205.799 186.378 205.599 187.034 206.013C187.691 206.428 187.89 207.311 187.475 207.968Z" fill="url(#paint8_radial_917_80629)"/>
<path style="mix-blend-mode:color-dodge" d="M201.381 74.1805C200.949 74.8638 201.153 75.7671 201.836 76.1982C202.519 76.6293 203.422 76.4248 203.853 75.7416C204.285 75.0583 204.081 74.1549 203.398 73.7239C202.715 73.2928 201.812 73.4972 201.381 74.1805Z" fill="white"/>
<path style="mix-blend-mode:color-dodge" d="M101.491 144.242C101.051 144.938 100.137 145.145 99.4419 144.706C98.7466 144.267 98.5404 143.353 98.9798 142.657C99.4192 141.961 100.333 141.754 101.029 142.193C101.724 142.632 101.93 143.546 101.491 144.242Z" fill="white"/>
<path style="mix-blend-mode:color-dodge" d="M141.15 163.199C140.712 163.893 140.918 164.811 141.612 165.249C142.305 165.686 143.223 165.479 143.661 164.785C144.099 164.091 143.892 163.173 143.199 162.736C142.505 162.298 141.588 162.505 141.15 163.199Z" fill="white"/>
<path style="mix-blend-mode:color-dodge" d="M145.807 113.633C145.368 114.329 144.422 114.543 143.727 114.104C143.031 113.665 142.818 112.719 143.258 112.023C143.697 111.327 144.643 111.113 145.338 111.552C146.033 111.992 146.247 112.937 145.807 113.633Z" fill="white"/>
<path style="mix-blend-mode:color-dodge" d="M153.519 57.0472C153.068 57.7625 153.281 58.7082 153.996 59.1595C154.71 59.6107 155.656 59.3967 156.108 58.6814C156.559 57.9661 156.346 57.0204 155.631 56.5691C154.916 56.1178 153.971 56.3319 153.519 57.0472Z" fill="white"/>
<path style="mix-blend-mode:color-dodge" d="M102.203 90.6985C101.751 91.4137 100.806 91.6278 100.091 91.1765C99.3761 90.7253 99.1628 89.7795 99.6144 89.0642C100.066 88.349 101.012 88.1349 101.726 88.5862C102.441 89.0374 102.654 89.9832 102.203 90.6985Z" fill="white"/>
<path style="mix-blend-mode:color-dodge" d="M187.185 115.534C186.733 116.249 185.775 116.482 185.041 116.019C184.307 115.555 184.094 114.61 184.558 113.875C185.022 113.141 185.967 112.926 186.701 113.39C187.435 113.853 187.648 114.799 187.185 115.534Z" fill="white"/>
<path style="mix-blend-mode:color-dodge" d="M188.184 172.699C187.72 173.434 186.755 173.636 186.041 173.184C185.326 172.733 185.093 171.775 185.557 171.041C186.021 170.306 186.986 170.104 187.701 170.555C188.415 171.007 188.636 171.984 188.184 172.699Z" fill="white"/>
<path style="mix-blend-mode:color-dodge" d="M105.852 143.968C105.388 144.702 104.411 144.923 103.677 144.46C102.943 143.997 102.722 143.019 103.186 142.285C103.65 141.55 104.627 141.329 105.361 141.792C106.095 142.256 106.315 143.233 105.852 143.968Z" fill="white"/>
<path style="mix-blend-mode:color-dodge" d="M181.906 164.843C181.434 165.59 181.657 166.578 182.404 167.049C183.151 167.521 184.139 167.297 184.61 166.55C185.082 165.803 184.859 164.815 184.113 164.343C183.366 163.872 182.378 164.095 181.906 164.843Z" fill="white"/>
<path style="mix-blend-mode:color-dodge" d="M163.408 115.581C162.932 116.335 161.911 116.582 161.158 116.107C160.404 115.631 160.157 114.61 160.646 113.837C161.134 113.064 162.143 112.835 162.915 113.323C163.688 113.811 163.896 114.808 163.408 115.581Z" fill="url(#paint9_radial_917_80629)"/>
<path style="mix-blend-mode:color-dodge" d="M94.7854 88.0698C94.2866 88.8599 94.5222 89.9044 95.3116 90.4028C96.101 90.9013 97.1453 90.6649 97.6442 89.8748C98.143 89.0848 97.9074 88.0403 97.118 87.5418C96.3286 87.0434 95.2842 87.2798 94.7854 88.0698Z" fill="white"/>
<path style="mix-blend-mode:color-dodge" d="M134.389 186.401C133.889 187.193 132.849 187.429 132.057 186.929C131.265 186.429 131.03 185.388 131.531 184.596C132.031 183.803 133.071 183.568 133.863 184.068C134.655 184.568 134.89 185.608 134.389 186.401Z" fill="white"/>
<path style="mix-blend-mode:color-dodge" d="M227.027 157.263C226.528 158.053 226.764 159.098 227.553 159.596C228.343 160.095 229.387 159.858 229.886 159.068C230.385 158.278 230.149 157.234 229.36 156.735C228.57 156.237 227.526 156.473 227.027 157.263Z" fill="white"/>
<path style="mix-blend-mode:color-dodge" d="M168.676 62.994C168.175 63.7865 167.135 64.022 166.343 63.522C165.551 63.0219 165.317 61.9816 165.817 61.189C166.318 60.3964 167.358 60.161 168.15 60.661C168.942 61.161 169.176 62.2014 168.676 62.994Z" fill="white"/>
<path style="mix-blend-mode:color-dodge" d="M213.078 100.925C212.572 101.725 212.811 102.784 213.611 103.289C214.411 103.794 215.47 103.555 215.975 102.754C216.481 101.953 216.242 100.895 215.442 100.39C214.642 99.8843 213.583 100.124 213.078 100.925Z" fill="white"/>
<path style="mix-blend-mode:color-dodge" d="M214.008 169.754C213.502 170.554 213.741 171.613 214.541 172.118C215.341 172.623 216.399 172.384 216.905 171.583C217.41 170.782 217.172 169.724 216.372 169.219C215.572 168.713 214.513 168.953 214.008 169.754Z" fill="white"/>
<path style="mix-blend-mode:color-dodge" d="M113.761 145.69C113.249 146.501 113.491 147.574 114.301 148.086C115.112 148.598 116.185 148.355 116.697 147.544C117.209 146.732 116.967 145.66 116.156 145.148C115.346 144.636 114.273 144.879 113.761 145.69Z" fill="white"/>
<path style="mix-blend-mode:color-dodge" d="M177.85 116.156C177.324 116.988 177.572 118.089 178.404 118.615C179.236 119.14 180.337 118.891 180.863 118.058C181.389 117.225 181.14 116.124 180.308 115.599C179.476 115.074 178.375 115.323 177.85 116.156Z" fill="white"/>
<path style="mix-blend-mode:color-dodge" d="M89.4062 108.656C88.8669 109.51 89.1216 110.639 89.975 111.178C90.8284 111.717 91.9575 111.461 92.4967 110.607C93.036 109.753 92.7813 108.624 91.9279 108.085C91.0744 107.546 89.9454 107.802 89.4062 108.656Z" fill="white"/>
<path style="mix-blend-mode:color-dodge" d="M175.58 64.0817C175.031 64.9516 173.865 65.2156 172.995 64.6668C172.126 64.118 171.863 62.9515 172.412 62.0816C172.962 61.2117 174.128 60.9477 174.997 61.4965C175.866 62.0453 176.129 63.2118 175.58 64.0817Z" fill="url(#paint10_radial_917_80629)"/>
<path style="mix-blend-mode:color-dodge" d="M186.999 139.02C186.425 139.928 185.227 140.199 184.319 139.626C183.412 139.053 183.141 137.855 183.715 136.946C184.289 136.038 185.486 135.767 186.394 136.34C187.302 136.913 187.572 138.111 186.999 139.02Z" fill="white"/>
<path style="mix-blend-mode:color-dodge" d="M128.078 179.496C127.492 180.423 126.25 180.721 125.304 180.123C124.357 179.526 124.08 178.296 124.678 177.349C125.276 176.402 126.506 176.124 127.452 176.721C128.399 177.319 128.676 178.548 128.078 179.496Z" fill="url(#paint11_radial_917_80629)"/>
<path style="mix-blend-mode:color-dodge" d="M170.261 92.7894C169.651 93.7559 168.358 94.0485 167.392 93.4387C166.427 92.8289 166.135 91.5363 166.745 90.5697C167.356 89.6032 168.648 89.3107 169.614 89.9205C170.58 90.5302 170.871 91.8228 170.261 92.7894Z" fill="white"/>
<path style="mix-blend-mode:color-dodge" d="M87.2736 153.11C86.6633 154.077 85.3709 154.369 84.4052 153.759C83.4394 153.15 83.1478 151.857 83.7581 150.891C84.3684 149.924 85.6607 149.631 86.6265 150.241C87.5923 150.851 87.8839 152.144 87.2736 153.11Z" fill="url(#paint12_radial_917_80629)"/>
<path style="mix-blend-mode:color-dodge" d="M172.242 55.3769C171.62 56.3628 170.296 56.6624 169.311 56.0404C168.326 55.4185 168.027 54.0943 168.65 53.1085C169.272 52.1226 170.596 51.8229 171.581 52.4449C172.566 53.0669 172.865 54.391 172.242 55.3769Z" fill="white"/>
<path style="mix-blend-mode:color-dodge" d="M64.862 115.438C64.2351 116.43 64.5312 117.743 65.5233 118.37C66.5154 118.996 67.8279 118.699 68.4547 117.706C69.0816 116.713 68.7856 115.4 67.7935 114.774C66.8014 114.148 65.4889 114.445 64.862 115.438Z" fill="white"/>
<path style="mix-blend-mode:color-dodge" d="M176.891 188.361C176.244 189.386 176.549 190.741 177.573 191.388C178.597 192.035 179.952 191.728 180.599 190.703C181.246 189.678 180.941 188.323 179.917 187.676C178.893 187.03 177.538 187.336 176.891 188.361Z" fill="white"/>
<path style="mix-blend-mode:color-dodge" d="M153.684 145.401C152.983 146.511 153.314 147.979 154.424 148.68C155.533 149.38 157.001 149.048 157.702 147.938C158.403 146.827 158.072 145.359 156.962 144.659C155.853 143.958 154.385 144.291 153.684 145.401Z" fill="white"/>
<path style="mix-blend-mode:color-dodge" d="M159.555 108.633C158.847 109.754 157.353 110.108 156.214 109.389C155.074 108.669 154.74 107.188 155.46 106.047C156.18 104.907 157.662 104.571 158.801 105.291C159.941 106.01 160.275 107.492 159.555 108.633Z" fill="url(#paint13_radial_917_80629)"/>
<g style="mix-blend-mode:color-dodge" opacity="0.9">
<path d="M63.1538 136.97C63.1538 136.97 63.1927 137.154 63.151 137.225C63.0777 137.388 62.9034 137.447 62.7407 137.374L47.8223 132.452C47.8223 132.452 47.7007 132.359 47.6707 132.297C47.6307 132.215 47.6318 132.112 47.6735 132.041C47.7468 131.879 47.9211 131.819 48.0838 131.893L63.0022 136.815C63.0022 136.815 63.1238 136.908 63.1538 136.97Z" fill="url(#paint14_linear_917_80629)"/>
</g>
<g style="mix-blend-mode:color-dodge" opacity="0.9">
<path d="M91.6221 63.9837C91.6221 63.9837 91.6954 63.8677 91.8093 63.8585C91.916 63.8177 91.9933 63.8665 92.0319 63.8909C92.0705 63.9153 92.1478 63.9641 92.1763 64.0902L100.229 94.7245C100.229 94.7245 100.208 94.9279 100.184 94.9666C100.159 95.0052 100.111 95.0826 99.9967 95.0918C99.839 95.1275 99.653 95.037 99.6296 94.8601L91.5774 64.2257C91.5774 64.2257 91.5977 64.0223 91.6221 63.9837Z" fill="url(#paint15_linear_917_80629)"/>
</g>
<g style="mix-blend-mode:color-dodge" opacity="0.9">
<path d="M108.19 131.493C108.19 131.493 108.276 131.357 108.39 131.348C108.503 131.339 108.593 131.368 108.619 131.412C108.658 131.437 108.735 131.485 108.744 131.599L112.895 156.688C112.895 156.688 112.868 156.86 112.844 156.899C112.819 156.937 112.758 157.034 112.625 157.031C112.448 157.055 112.306 156.938 112.27 156.78L108.131 131.672C108.131 131.672 108.146 131.519 108.183 131.461L108.19 131.493Z" fill="url(#paint16_linear_917_80629)"/>
</g>
<g style="mix-blend-mode:color-dodge" opacity="0.9">
<path d="M121.727 175.134C121.727 175.134 121.788 175.037 121.895 174.997L149.393 165.889C149.563 165.834 149.73 165.913 149.785 166.082C149.806 166.177 149.808 166.259 149.747 166.356C149.723 166.395 149.686 166.453 149.579 166.493L122.081 175.601C121.911 175.656 121.744 175.578 121.69 175.408C121.668 175.313 121.666 175.231 121.715 175.153L121.727 175.134Z" fill="url(#paint17_linear_917_80629)"/>
</g>
<g style="mix-blend-mode:color-dodge" opacity="0.9">
<path d="M147.769 136.285C147.769 136.285 147.854 136.15 148.019 136.146C148.184 136.142 148.345 136.271 148.349 136.436L149.806 166.177C149.806 166.177 149.771 166.317 149.747 166.356C149.698 166.433 149.598 166.506 149.497 166.496C149.383 166.505 149.306 166.456 149.279 166.412C149.241 166.388 149.188 166.3 149.179 166.186L147.722 136.445C147.722 136.445 147.756 136.305 147.781 136.266L147.769 136.285Z" fill="url(#paint18_linear_917_80629)"/>
</g>
<g style="mix-blend-mode:color-dodge" opacity="0.9">
<path d="M151.376 101.306C151.376 101.306 151.524 101.156 151.677 101.171C151.848 101.199 151.966 101.354 151.951 101.507L148.356 136.467C148.356 136.467 148.327 136.557 148.302 136.596C148.254 136.673 148.154 136.745 148.001 136.73C147.9 136.72 147.835 136.652 147.808 136.608C147.77 136.584 147.717 136.496 147.739 136.375L151.334 101.414C151.334 101.414 151.363 101.325 151.388 101.286L151.376 101.306Z" fill="url(#paint19_linear_917_80629)"/>
</g>
<g style="mix-blend-mode:color-dodge" opacity="0.9">
<path d="M140.934 62.1329C140.934 62.1329 141.007 62.0169 141.121 62.0077C141.228 61.967 141.305 62.0157 141.343 62.0401C141.382 62.0645 141.459 62.1133 141.488 62.2394L151.917 101.431C151.917 101.431 151.897 101.635 151.873 101.674C151.848 101.712 151.799 101.79 151.686 101.799C151.528 101.834 151.342 101.744 151.319 101.567L140.889 62.375C140.889 62.375 140.909 62.1715 140.934 62.1329Z" fill="url(#paint20_linear_917_80629)"/>
</g>
<g style="mix-blend-mode:color-dodge" opacity="0.9">
<path d="M99.6744 94.6176C99.6744 94.6176 99.7476 94.5016 99.8737 94.4731C100.031 94.4374 100.205 94.5472 100.241 94.7048L105.264 120.209C105.264 120.209 105.256 120.393 105.232 120.432C105.207 120.471 105.158 120.548 105.032 120.577C104.918 120.586 104.829 120.556 104.79 120.532C104.752 120.508 104.674 120.459 104.665 120.345L99.6296 94.8597C99.6296 94.8597 99.6377 94.6756 99.6622 94.637L99.6744 94.6176Z" fill="url(#paint21_linear_917_80629)"/>
</g>
<g style="mix-blend-mode:color-dodge" opacity="0.9">
<path d="M91.6223 63.9837C91.6223 63.9837 91.6834 63.887 91.7464 63.8727C91.9091 63.7862 92.088 63.8451 92.1551 63.9956L96.5468 72.23C96.5468 72.23 96.5966 72.4507 96.5355 72.5473C96.5111 72.586 96.4745 72.644 96.4115 72.6583C96.2488 72.7448 96.0698 72.6859 96.0028 72.5354L91.6111 64.301C91.5511 64.182 91.5735 64.061 91.6223 63.9837Z" fill="url(#paint22_linear_917_80629)"/>
</g>
<g style="mix-blend-mode:color-dodge" opacity="0.9">
<path d="M140.946 62.1131C140.946 62.1131 141.138 61.9371 141.279 61.9716L190.112 72.4728C190.284 72.5002 190.39 72.6751 190.343 72.8348C190.319 72.8734 190.307 72.8928 190.282 72.9314C190.221 73.0281 190.09 73.1075 189.95 73.073L141.116 62.5718C140.944 62.5444 140.838 62.3695 140.885 62.2098C140.909 62.1711 140.922 62.1518 140.946 62.1131Z" fill="url(#paint23_linear_917_80629)"/>
</g>
<g style="mix-blend-mode:color-dodge" opacity="0.9">
<path d="M112.322 156.569C112.322 156.569 112.458 156.439 112.553 156.418L146.518 152.772C146.682 152.768 146.825 152.885 146.86 153.042C146.862 153.125 146.845 153.195 146.82 153.234C146.772 153.311 146.684 153.364 146.59 153.385L112.625 157.031C112.625 157.031 112.434 156.991 112.395 156.967C112.356 156.943 112.291 156.874 112.282 156.761C112.28 156.678 112.298 156.608 112.322 156.569Z" fill="url(#paint24_linear_917_80629)"/>
</g>
<g style="mix-blend-mode:color-dodge" opacity="0.9">
<path d="M148.03 186.875C148.135 186.752 148.331 186.741 148.474 186.858L165.386 201.619C165.49 201.711 165.513 201.888 165.44 202.004C165.355 202.14 165.241 202.149 165.209 202.156C165.158 202.151 165.076 202.153 164.98 202.092L148.067 187.331C147.944 187.226 147.94 187.061 148.013 186.945L148.037 186.907L148.03 186.875Z" fill="url(#paint25_linear_917_80629)"/>
</g>
<g style="mix-blend-mode:color-dodge" opacity="0.9">
<path d="M140.946 62.1133C141.031 61.978 141.22 61.9352 141.368 62.0012L149.952 67.2321C150.087 67.3175 150.149 67.5188 150.064 67.6541C149.966 67.8088 149.777 67.8516 149.642 67.7662L141.058 62.5354C140.922 62.45 140.86 62.2486 140.946 62.1133Z" fill="url(#paint26_linear_917_80629)"/>
</g>
<g style="mix-blend-mode:color-dodge" opacity="0.9">
<path d="M190.116 148.801C190.202 148.666 190.372 148.611 190.507 148.696C190.642 148.782 190.728 148.945 190.65 149.111L184.021 163.419C183.923 163.574 183.765 163.609 183.618 163.543C183.471 163.477 183.396 163.295 183.463 163.148L190.104 148.821L190.116 148.801Z" fill="url(#paint27_linear_917_80629)"/>
</g>
<g style="mix-blend-mode:color-dodge" opacity="0.9">
<path d="M197.19 121.039C197.19 121.039 197.382 120.863 197.522 120.898C197.682 120.944 197.8 121.1 197.753 121.26L190.68 149.022C190.68 149.022 190.667 149.041 190.655 149.061C190.57 149.196 190.439 149.275 190.298 149.241C190.177 149.218 190.125 149.131 190.105 149.119C190.067 149.094 190.045 149 190.068 148.879L197.141 121.116L197.178 121.058L197.19 121.039Z" fill="url(#paint28_linear_917_80629)"/>
</g>
<g style="mix-blend-mode:color-dodge" opacity="0.9">
<path d="M152.009 116.306C152.07 116.209 152.189 116.149 152.322 116.152C152.494 116.179 152.611 116.335 152.584 116.507L146.881 153.137C146.881 153.137 146.864 153.208 146.839 153.246C146.778 153.343 146.659 153.403 146.539 153.381C146.418 153.358 146.384 153.283 146.345 153.259C146.307 153.234 146.266 153.128 146.296 153.038L151.998 116.407C151.998 116.407 152.016 116.337 152.04 116.299L152.009 116.306Z" fill="url(#paint29_linear_917_80629)"/>
</g>
<g style="mix-blend-mode:color-dodge" opacity="0.9">
<path d="M178.419 161.423C178.492 161.307 178.643 161.24 178.771 161.294L183.839 162.98C183.998 163.027 184.073 163.209 184.026 163.368C184.026 163.368 184.026 163.368 184.014 163.388C183.904 163.562 183.766 163.61 183.637 163.556L178.569 161.87C178.569 161.87 178.415 161.772 178.4 161.709C178.374 161.665 178.353 161.571 178.382 161.481L178.419 161.423Z" fill="url(#paint30_linear_917_80629)"/>
</g>
<g style="mix-blend-mode:color-dodge" opacity="0.9">
<path d="M104.717 120.134C104.79 120.018 104.941 119.951 105.069 120.005C105.228 120.052 105.322 120.246 105.256 120.393L99.3651 137.682L99.3529 137.701C99.243 137.875 99.1047 137.923 98.9766 137.869C98.8678 137.828 98.8221 137.772 98.8079 137.709C98.7814 137.665 98.7601 137.57 98.7896 137.481L104.68 120.192L104.717 120.134Z" fill="url(#paint31_linear_917_80629)"/>
</g>
<g style="mix-blend-mode:color-dodge" opacity="0.9">
<path d="M96.0138 72.2179C96.087 72.1019 96.2568 72.0469 96.3849 72.1008C96.5445 72.1475 96.638 72.3417 96.5719 72.4892L94.1567 78.9673C94.0469 79.1413 93.9086 79.1892 93.7612 79.1231C93.6137 79.0571 93.508 78.8822 93.5742 78.7347L95.97 72.2444L96.0067 72.1864L96.0138 72.2179Z" fill="url(#paint32_linear_917_80629)"/>
</g>
<g style="mix-blend-mode:color-dodge" opacity="0.9">
<path d="M146.306 152.936C146.379 152.82 146.517 152.772 146.658 152.807L178.77 161.294C178.93 161.341 179.016 161.504 178.989 161.676L178.964 161.714C178.867 161.869 178.748 161.929 178.608 161.894L146.495 153.407C146.495 153.407 146.321 153.297 146.302 153.285C146.282 153.273 146.242 153.166 146.264 153.045L146.313 152.968L146.306 152.936Z" fill="url(#paint33_linear_917_80629)"/>
</g>
<g style="mix-blend-mode:color-dodge" opacity="0.9">
<path d="M188.958 130.226L197.226 120.982C197.331 120.858 197.527 120.847 197.65 120.952C197.773 121.057 197.797 121.233 197.724 121.349L189.431 130.633C189.326 130.756 189.13 130.767 189.007 130.662C188.884 130.558 188.861 130.381 188.934 130.265L188.958 130.226Z" fill="url(#paint34_linear_917_80629)"/>
</g>
<g style="mix-blend-mode:color-dodge" opacity="0.9">
<path d="M179.585 184.736C179.67 184.6 179.84 184.545 180.007 184.624L198.705 194.375C198.84 194.46 198.915 194.642 198.829 194.777C198.731 194.932 198.562 194.987 198.414 194.921L179.735 185.182C179.6 185.097 179.526 184.915 179.592 184.767L179.604 184.748L179.585 184.736Z" fill="url(#paint35_linear_917_80629)"/>
</g>
<g style="mix-blend-mode:color-dodge" opacity="0.9">
<path d="M152.009 116.305C152.082 116.189 152.252 116.134 152.38 116.188L189.285 130.135C189.433 130.201 189.519 130.364 189.46 130.543C189.35 130.717 189.212 130.765 189.084 130.711L152.178 116.764C152.031 116.698 151.944 116.535 152.004 116.356L152.04 116.298L152.009 116.305Z" fill="url(#paint36_linear_917_80629)"/>
</g>
<g style="mix-blend-mode:color-dodge" opacity="0.9">
<path d="M189.792 72.5954C189.792 72.5954 189.947 72.4773 189.998 72.4824C190.049 72.4874 190.131 72.4853 190.228 72.5463L200.828 81.1316C200.963 81.217 200.974 81.4133 200.901 81.5293C200.791 81.7033 200.576 81.7023 200.44 81.617L189.84 73.0317C189.705 72.9463 189.694 72.75 189.767 72.634L189.792 72.5954Z" fill="url(#paint37_linear_917_80629)"/>
</g>
<g style="mix-blend-mode:color-dodge" opacity="0.9">
<path d="M178.406 161.443C178.406 161.443 178.543 161.312 178.657 161.303C178.77 161.294 178.848 161.343 178.874 161.386C178.901 161.43 178.978 161.479 178.987 161.593L180.165 184.886C180.165 184.886 180.131 185.026 180.106 185.065C180.045 185.162 179.958 185.215 179.856 185.204C179.742 185.214 179.665 185.165 179.639 185.121C179.6 185.097 179.547 185.009 179.538 184.895L178.372 161.583C178.372 161.583 178.382 161.481 178.419 161.423L178.406 161.443Z" fill="url(#paint38_linear_917_80629)"/>
</g>
<g style="mix-blend-mode:color-dodge" opacity="0.9">
<path d="M188.934 130.264C189.007 130.148 189.157 130.081 189.286 130.135C189.394 130.177 189.459 130.245 189.454 130.296C189.481 130.339 189.502 130.434 189.473 130.524L178.958 161.683C178.958 161.683 178.958 161.683 178.945 161.702C178.836 161.876 178.697 161.924 178.569 161.87C178.41 161.823 178.316 161.629 178.363 161.469L188.878 130.31L188.914 130.252L188.934 130.264Z" fill="url(#paint39_linear_917_80629)"/>
</g>
<g style="mix-blend-mode:color-dodge" opacity="0.9">
<path d="M198.283 194.487C198.283 194.487 198.475 194.311 198.616 194.345C198.737 194.368 198.79 194.455 198.809 194.467C198.848 194.492 198.869 194.586 198.846 194.707L194.187 212.827C194.187 212.827 194.175 212.847 194.162 212.866C194.077 213.001 193.946 213.081 193.805 213.046C193.684 213.024 193.632 212.936 193.612 212.924C193.574 212.9 193.552 212.805 193.575 212.684L198.234 194.564L198.283 194.487Z" fill="url(#paint40_linear_917_80629)"/>
</g>
<g style="mix-blend-mode:color-dodge" opacity="0.9">
<path d="M150.478 63.3192C150.478 63.3192 150.67 63.1432 150.81 63.1777C150.931 63.2 150.965 63.2753 151.003 63.2997C151.042 63.324 151.063 63.4186 151.041 63.5397L150.093 67.5648C150.093 67.5648 150.069 67.6035 150.057 67.6228C149.959 67.7775 149.84 67.8375 149.7 67.803C149.54 67.7563 149.422 67.6007 149.469 67.441L150.417 63.4159L150.465 63.3386L150.478 63.3192Z" fill="url(#paint41_linear_917_80629)"/>
</g>
<g style="mix-blend-mode:color-dodge" opacity="0.9">
<path d="M90.6963 81.3247C90.6963 81.3247 90.7207 81.2861 90.7451 81.2474L93.6475 78.6188C93.7716 78.5079 93.9749 78.5281 94.0857 78.6522C94.1772 78.764 94.1934 78.9094 94.1202 79.0254L91.1619 81.6998C91.0378 81.8107 90.8344 81.7905 90.7236 81.6665C90.6322 81.5546 90.6159 81.4092 90.6891 81.2932L90.6963 81.3247Z" fill="url(#paint42_linear_917_80629)"/>
</g>
<g style="mix-blend-mode:color-dodge" opacity="0.9">
<path d="M91.9676 136.391C92.0286 136.294 92.1476 136.234 92.2808 136.237L99.1203 137.257C99.2921 137.284 99.3907 137.428 99.3826 137.612C99.3582 137.65 99.3531 137.701 99.3287 137.74C99.2676 137.837 99.1487 137.897 99.0277 137.874L92.2074 136.867C92.0356 136.839 91.9177 136.684 91.9452 136.512C91.9696 136.473 91.9747 136.422 91.9869 136.403L91.9676 136.391Z" fill="url(#paint43_linear_917_80629)"/>
</g>
<g style="mix-blend-mode:color-dodge" opacity="0.9">
<path d="M137.505 161.655C137.566 161.558 137.685 161.498 137.818 161.501L174.157 167.574C174.297 167.608 174.427 167.745 174.4 167.917C174.376 167.955 174.37 168.006 174.358 168.025C174.297 168.122 174.178 168.182 174.057 168.16L137.738 162.099C137.566 162.072 137.448 161.916 137.475 161.745C137.5 161.706 137.493 161.674 137.517 161.636L137.505 161.655Z" fill="url(#paint44_linear_917_80629)"/>
</g>
<g style="mix-blend-mode:color-dodge" opacity="0.9">
<path d="M202.366 74.8025C202.439 74.6865 202.577 74.6386 202.718 74.6731C202.877 74.7198 202.983 74.8947 202.936 75.0544L200.969 81.4642L200.957 81.4835C200.847 81.6575 200.709 81.7053 200.581 81.6515C200.472 81.6098 200.426 81.5539 200.4 81.5102C200.373 81.4665 200.34 81.3912 200.382 81.2824L202.348 74.8726L202.385 74.8147L202.366 74.8025Z" fill="url(#paint45_linear_917_80629)"/>
</g>
<g style="mix-blend-mode:color-dodge" opacity="0.9">
<path d="M143.216 118.892C143.277 118.796 143.396 118.735 143.53 118.738L175.31 123.988C175.31 123.988 175.464 124.085 175.503 124.109C175.541 124.134 175.582 124.241 175.552 124.33C175.528 124.369 175.535 124.4 175.511 124.439C175.45 124.536 175.331 124.596 175.198 124.593L143.418 119.344C143.418 119.344 143.263 119.246 143.225 119.222C143.186 119.197 143.165 119.103 143.175 119.001C143.199 118.962 143.192 118.931 143.216 118.892Z" fill="url(#paint46_linear_917_80629)"/>
</g>
<g style="mix-blend-mode:color-dodge" opacity="0.9">
<path d="M174.977 124.129C174.977 124.129 175.125 123.979 175.259 123.982C175.423 123.978 175.573 124.126 175.565 124.311L174.412 167.897C174.412 167.897 174.402 167.999 174.366 168.057C174.305 168.153 174.217 168.206 174.084 168.203C173.97 168.213 173.905 168.145 173.879 168.101C173.84 168.076 173.787 167.989 173.797 167.887L174.95 124.301C174.95 124.301 174.96 124.199 174.996 124.141L174.977 124.129Z" fill="url(#paint47_linear_917_80629)"/>
</g>
<g style="mix-blend-mode:color-dodge" opacity="0.9">
<path d="M173.825 167.716C173.825 167.716 173.898 167.6 173.992 167.578C174.162 167.523 174.317 167.621 174.372 167.791L186.573 207.128C186.573 207.128 186.572 207.344 186.548 207.383C186.524 207.421 186.475 207.499 186.38 207.52C186.273 207.561 186.184 207.531 186.145 207.507C186.107 207.483 186.029 207.434 185.989 207.327L173.787 167.989C173.787 167.989 173.788 167.774 173.812 167.735L173.825 167.716Z" fill="url(#paint48_linear_917_80629)"/>
</g>
<g style="mix-blend-mode:color-dodge" opacity="0.9">
<path d="M137.505 161.655C137.591 161.52 137.76 161.465 137.908 161.531L142.557 163.709C142.692 163.795 142.779 163.957 142.7 164.124C142.603 164.279 142.433 164.334 142.285 164.268L137.636 162.089C137.501 162.004 137.415 161.841 137.493 161.674L137.517 161.636L137.505 161.655Z" fill="url(#paint49_linear_917_80629)"/>
</g>
<g style="mix-blend-mode:color-dodge" opacity="0.9">
<path d="M150.478 63.3191C150.478 63.3191 150.67 63.143 150.81 63.1776L202.698 74.6608C202.87 74.6882 202.976 74.8631 202.929 75.0228C202.905 75.0614 202.893 75.0808 202.868 75.1194C202.807 75.2161 202.676 75.2955 202.536 75.261L150.667 63.7899C150.507 63.7432 150.389 63.5876 150.436 63.4279C150.448 63.4086 150.473 63.3699 150.497 63.3313L150.478 63.3191Z" fill="url(#paint50_linear_917_80629)"/>
</g>
<g style="mix-blend-mode:color-dodge" opacity="0.9">
<path d="M92.0114 136.364C92.1161 136.241 92.3246 136.211 92.4476 136.315L100.445 143.203C100.561 143.277 100.572 143.473 100.499 143.589C100.37 143.751 100.161 143.781 100.019 143.664L92.0215 136.776C91.9056 136.703 91.8944 136.507 91.9677 136.391L91.9921 136.352L92.0114 136.364Z" fill="url(#paint51_linear_917_80629)"/>
</g>
<g style="mix-blend-mode:color-dodge" opacity="0.9">
<path d="M144.262 112.658C144.335 112.542 144.442 112.501 144.575 112.504C144.747 112.532 144.865 112.687 144.837 112.859L143.772 119.081C143.772 119.081 143.755 119.151 143.73 119.19C143.669 119.287 143.55 119.347 143.417 119.344C143.245 119.316 143.128 119.161 143.155 118.989L144.22 112.767C144.22 112.767 144.237 112.697 144.262 112.658Z" fill="url(#paint52_linear_917_80629)"/>
</g>
<g style="mix-blend-mode:color-dodge" opacity="0.9">
<path d="M154.574 57.6864C154.574 57.6864 154.73 57.5683 154.781 57.5734C154.832 57.5784 154.926 57.557 155.011 57.6373C155.146 57.7227 155.188 57.9119 155.091 58.0665L150.994 63.6992C150.994 63.6992 150.839 63.8173 150.788 63.8122C150.737 63.8071 150.642 63.8285 150.558 63.7482C150.423 63.6629 150.38 63.4737 150.478 63.3191L154.574 57.6864Z" fill="url(#paint53_linear_917_80629)"/>
</g>
<g style="mix-blend-mode:color-dodge" opacity="0.9">
<path d="M90.7207 81.2861C90.8254 81.163 91.0339 81.1324 91.1569 81.2371L101.099 89.6233C101.234 89.7087 101.245 89.905 101.172 90.021C101.043 90.1828 100.835 90.2134 100.724 90.0894L90.7816 81.7031C90.6464 81.6177 90.6352 81.4214 90.7085 81.3054L90.7329 81.2668L90.7207 81.2861Z" fill="url(#paint54_linear_917_80629)"/>
</g>
<g style="mix-blend-mode:color-dodge" opacity="0.9">
<path d="M142.135 163.821C142.208 163.705 142.327 163.645 142.468 163.68L186.933 171.558C187.105 171.585 187.223 171.741 187.195 171.913C187.171 171.951 187.159 171.971 187.134 172.009C187.061 172.125 186.954 172.166 186.821 172.163L142.375 164.297C142.203 164.27 142.085 164.114 142.113 163.942C142.137 163.903 142.13 163.872 142.154 163.833L142.135 163.821Z" fill="url(#paint55_linear_917_80629)"/>
</g>
<g style="mix-blend-mode:color-dodge" opacity="0.9">
<path d="M99.9526 143.298C99.9526 143.298 100.089 143.168 100.183 143.147L104.467 142.823C104.632 142.819 104.774 142.936 104.798 143.113C104.8 143.195 104.782 143.265 104.758 143.304C104.709 143.381 104.622 143.434 104.527 143.456L100.243 143.779C100.079 143.783 99.9169 143.654 99.9129 143.489C99.9109 143.407 99.9282 143.337 99.9526 143.298Z" fill="url(#paint56_linear_917_80629)"/>
</g>
<g style="mix-blend-mode:color-dodge" opacity="0.9">
<path d="M144.262 112.658C144.262 112.658 144.43 112.52 144.543 112.511L185.883 114.387C186.067 114.395 186.185 114.551 186.189 114.715C186.184 114.766 186.178 114.817 186.142 114.875C186.093 114.952 185.993 115.025 185.86 115.022L144.521 113.146C144.521 113.146 144.342 113.087 144.316 113.043C144.277 113.019 144.224 112.931 144.234 112.83C144.239 112.779 144.245 112.728 144.281 112.67L144.262 112.658Z" fill="url(#paint57_linear_917_80629)"/>
</g>
<g style="mix-blend-mode:color-dodge" opacity="0.9">
<path d="M90.6371 49.6266C90.6371 49.6266 90.7104 49.5106 90.8242 49.5014C90.931 49.4607 91.0083 49.5095 91.0662 49.546C91.1049 49.5704 91.1821 49.6192 91.2106 49.7453L101.212 89.8296C101.212 89.8296 101.192 90.033 101.167 90.0717C101.143 90.1104 101.094 90.1877 100.98 90.1969C100.822 90.2326 100.636 90.1421 100.613 89.9652L90.6117 49.8809C90.6117 49.8809 90.632 49.6775 90.6564 49.6388L90.6371 49.6266Z" fill="url(#paint58_linear_917_80629)"/>
</g>
<g style="mix-blend-mode:color-dodge" opacity="0.9">
<path d="M144.262 112.658C144.262 112.658 144.41 112.508 144.563 112.523L162.048 114.397C162.22 114.425 162.338 114.58 162.322 114.733C162.298 114.772 162.293 114.823 162.268 114.861C162.22 114.938 162.108 115.03 161.967 114.996L144.482 113.121C144.311 113.094 144.193 112.938 144.208 112.786C144.232 112.747 144.238 112.696 144.262 112.658Z" fill="url(#paint59_linear_917_80629)"/>
</g>
<g style="mix-blend-mode:color-dodge" opacity="0.9">
<path d="M182.995 165.557C182.995 165.557 183.044 165.479 183.088 165.453C183.175 165.4 183.277 165.41 183.328 165.415C183.367 165.44 183.456 165.469 183.521 165.537L187.114 171.699C187.114 171.699 187.152 171.939 187.103 172.016C187.078 172.055 187.054 172.094 187.01 172.12C186.867 172.219 186.669 172.148 186.589 172.017L182.996 165.855C182.996 165.855 182.959 165.615 183.008 165.537L182.995 165.557Z" fill="url(#paint60_linear_917_80629)"/>
</g>
<g style="mix-blend-mode:color-dodge" opacity="0.9">
<path d="M154.562 57.7059C154.635 57.5899 154.786 57.5227 154.914 57.5766L167.347 61.8037C167.507 61.8504 167.581 62.0324 167.534 62.1921C167.534 62.1921 167.534 62.1921 167.522 62.2115C167.412 62.3854 167.274 62.4333 167.146 62.3795L154.713 58.1523C154.553 58.1056 154.479 57.9236 154.526 57.7639L154.562 57.7059Z" fill="url(#paint61_linear_917_80629)"/>
</g>
<g style="mix-blend-mode:color-dodge" opacity="0.9">
<path d="M95.9635 88.8138C96.0367 88.6978 96.1557 88.6378 96.296 88.6723L100.971 89.5691C101.143 89.5965 101.261 89.7521 101.221 89.9433C101.197 89.982 101.184 90.0013 101.16 90.04C101.087 90.1559 100.968 90.216 100.827 90.1815L96.1525 89.2847C95.9807 89.2573 95.8628 89.1017 95.9218 88.9227C95.9462 88.884 95.9584 88.8647 95.9828 88.826L95.9635 88.8138Z" fill="url(#paint62_linear_917_80629)"/>
</g>
<g style="mix-blend-mode:color-dodge" opacity="0.9">
<path d="M185.613 114.514C185.613 114.514 185.674 114.417 185.737 114.403L214.38 101.557C214.518 101.51 214.697 101.568 214.764 101.719C214.805 101.826 214.795 101.927 214.734 102.024C214.697 102.082 214.673 102.121 214.61 102.135L185.979 114.961C185.828 115.029 185.65 114.97 185.563 114.807C185.523 114.7 185.533 114.599 185.582 114.521L185.613 114.514Z" fill="url(#paint63_linear_917_80629)"/>
</g>
<g style="mix-blend-mode:color-dodge" opacity="0.9">
<path d="M183.007 165.538C183.068 165.441 183.187 165.381 183.308 165.403L215.518 170.356C215.69 170.383 215.808 170.539 215.781 170.711C215.756 170.75 215.751 170.8 215.739 170.82C215.678 170.916 215.559 170.977 215.426 170.974L183.216 166.021C183.044 165.993 182.926 165.838 182.953 165.666C182.978 165.627 182.983 165.576 182.995 165.557L183.007 165.538Z" fill="url(#paint64_linear_917_80629)"/>
</g>
<g style="mix-blend-mode:color-dodge" opacity="0.9">
<path d="M104.249 142.956C104.322 142.84 104.472 142.772 104.6 142.826L115.31 146.317C115.47 146.364 115.563 146.558 115.517 146.718C115.517 146.718 115.517 146.718 115.504 146.737C115.395 146.911 115.256 146.959 115.128 146.905L104.418 143.414C104.259 143.368 104.184 143.186 104.231 143.026L104.268 142.968L104.249 142.956Z" fill="url(#paint65_linear_917_80629)"/>
</g>
<g style="mix-blend-mode:color-dodge" opacity="0.9">
<path d="M215.254 170.432L228.254 157.93C228.366 157.838 228.562 157.827 228.673 157.951C228.777 158.044 228.8 158.221 228.727 158.337L215.683 170.866C215.683 170.866 215.521 170.952 215.47 170.947C215.419 170.942 215.337 170.944 215.252 170.864C215.161 170.752 215.144 170.606 215.218 170.49C215.218 170.49 215.242 170.452 215.254 170.432Z" fill="url(#paint66_linear_917_80629)"/>
</g>
<g style="mix-blend-mode:color-dodge" opacity="0.9">
<path d="M161.766 114.544C161.827 114.447 161.946 114.387 162.067 114.41L179.406 116.814C179.559 116.829 179.696 116.997 179.669 117.168C179.644 117.207 179.639 117.258 179.615 117.297C179.554 117.393 179.435 117.453 179.314 117.431L161.974 115.027C161.803 115 161.685 114.844 161.712 114.672C161.737 114.633 161.742 114.583 161.766 114.544Z" fill="url(#paint67_linear_917_80629)"/>
</g>
<g style="mix-blend-mode:color-dodge" opacity="0.9">
<path d="M114.958 146.446C114.958 146.446 115.019 146.349 115.082 146.335C115.189 146.294 115.279 146.324 115.329 146.329C115.368 146.353 115.445 146.402 115.498 146.489L133.261 185.364C133.261 185.364 133.291 185.572 133.242 185.649C133.206 185.707 133.181 185.746 133.118 185.76C133.012 185.801 132.941 185.784 132.871 185.767C132.833 185.742 132.755 185.693 132.703 185.606L114.959 146.744C114.959 146.744 114.929 146.535 114.978 146.458L114.958 146.446Z" fill="url(#paint68_linear_917_80629)"/>
</g>
<g style="mix-blend-mode:color-dodge" opacity="0.9">
<path d="M95.9637 88.8141C95.9637 88.8141 96.1559 88.638 96.2962 88.6725C96.4558 88.7193 96.5615 88.8941 96.5147 89.0538L91.2516 109.713C91.2516 109.713 91.2272 109.751 91.215 109.771C91.1173 109.925 90.9984 109.985 90.858 109.951C90.6984 109.904 90.5927 109.729 90.6395 109.57L95.9027 88.9107L95.9515 88.8334L95.9637 88.8141Z" fill="url(#paint69_linear_917_80629)"/>
</g>
<g style="mix-blend-mode:color-dodge" opacity="0.9">
<path d="M166.996 61.9327C167.057 61.836 167.176 61.776 167.297 61.7983L174.047 62.7887C174.218 62.8161 174.336 62.9717 174.309 63.1436C174.284 63.1822 174.279 63.2331 174.255 63.2717C174.194 63.3684 174.075 63.4285 173.954 63.4061L167.204 62.4157C167.032 62.3883 166.914 62.2328 166.942 62.0609C166.966 62.0222 166.971 61.9714 166.996 61.9327Z" fill="url(#paint70_linear_917_80629)"/>
</g>
<g style="mix-blend-mode:color-dodge" opacity="0.9">
<path d="M179.105 116.948C179.105 116.948 179.179 116.832 179.273 116.811C179.443 116.756 179.617 116.865 179.652 117.023L185.653 137.899C185.653 137.899 185.633 138.103 185.608 138.141C185.584 138.18 185.535 138.257 185.44 138.279C185.334 138.319 185.244 138.29 185.205 138.266C185.167 138.241 185.09 138.192 185.049 138.086L179.068 117.222C179.068 117.222 179.069 117.006 179.093 116.967L179.105 116.948Z" fill="url(#paint71_linear_917_80629)"/>
</g>
<g style="mix-blend-mode:color-dodge" opacity="0.9">
<path d="M29.085 154.601C29.085 154.601 29.1827 154.447 29.3352 154.462L85.4957 151.69C85.6605 151.686 85.8221 151.815 85.8261 151.98C85.8281 152.062 85.7915 152.12 85.7671 152.159C85.7061 152.256 85.6186 152.309 85.5169 152.298L29.3371 155.058C29.1724 155.062 29.0107 154.933 29.0067 154.768C29.0047 154.686 29.0413 154.628 29.0657 154.589L29.085 154.601Z" fill="url(#paint72_linear_917_80629)"/>
</g>
<g style="mix-blend-mode:color-dodge" opacity="0.9">
<path d="M168.233 91.5085C168.233 91.5085 168.294 91.4118 168.388 91.3904C168.495 91.3497 168.584 91.3792 168.623 91.4036C168.662 91.4279 168.739 91.4767 168.78 91.5835L185.634 137.887C185.634 137.887 185.645 138.083 185.596 138.161C185.572 138.199 185.535 138.257 185.44 138.279C185.334 138.32 185.244 138.29 185.206 138.266C185.167 138.241 185.09 138.192 185.049 138.086L168.195 91.7821C168.195 91.7821 168.184 91.5858 168.233 91.5085Z" fill="url(#paint73_linear_917_80629)"/>
</g>
<g style="mix-blend-mode:color-dodge" opacity="0.9">
<path d="M29.1217 154.543L66.4249 116.343C66.4249 116.343 66.5876 116.257 66.6506 116.242C66.7015 116.247 66.7838 116.245 66.8682 116.326C66.9719 116.418 66.9952 116.595 66.922 116.711L29.5823 154.969C29.4582 155.08 29.2619 155.092 29.1511 154.968C29.0474 154.875 29.0241 154.698 29.0973 154.582C29.0973 154.582 29.1217 154.543 29.134 154.524L29.1217 154.543Z" fill="url(#paint74_linear_917_80629)"/>
</g>
<g style="mix-blend-mode:color-dodge" opacity="0.9">
<path d="M126.146 178.276C126.22 178.16 126.339 178.1 126.479 178.135L178.807 189.22C178.967 189.267 179.065 189.41 179.038 189.582C179.014 189.621 179.001 189.64 178.977 189.679C178.916 189.775 178.797 189.835 178.644 189.82L126.297 178.723C126.156 178.688 126.058 178.545 126.085 178.373C126.11 178.334 126.122 178.315 126.146 178.276Z" fill="url(#paint75_linear_917_80629)"/>
</g>
<g style="mix-blend-mode:color-dodge" opacity="0.9">
<path d="M170.175 54.0724C170.175 54.0724 170.324 53.9228 170.457 53.9258C170.641 53.9338 170.759 54.0894 170.763 54.2542L168.82 91.6906C168.82 91.6906 168.81 91.7924 168.785 91.831C168.737 91.9083 168.637 91.9806 168.504 91.9776C168.32 91.9696 168.202 91.814 168.198 91.6492L170.141 54.2128C170.141 54.2128 170.151 54.111 170.175 54.0724Z" fill="url(#paint76_linear_917_80629)"/>
</g>
<g style="mix-blend-mode:color-dodge" opacity="0.9">
<path d="M66.3881 116.401C66.3881 116.401 66.4492 116.305 66.5122 116.29C66.6627 116.223 66.8538 116.263 66.9402 116.425L85.817 151.866C85.817 151.866 85.8474 152.075 85.7986 152.152C85.7742 152.191 85.7376 152.249 85.6745 152.263C85.5118 152.35 85.3329 152.291 85.2658 152.14L66.3962 116.731C66.3362 116.612 66.3586 116.491 66.4074 116.413L66.3881 116.401Z" fill="url(#paint77_linear_917_80629)"/>
</g>
<g style="mix-blend-mode:color-dodge" opacity="0.9">
<path d="M85.2962 151.835C85.2962 151.835 85.4325 151.705 85.527 151.683L155.673 146.359C155.837 146.355 155.98 146.472 156.003 146.649C156.005 146.731 155.988 146.801 155.963 146.84C155.915 146.917 155.827 146.97 155.733 146.992L85.5747 152.335C85.4293 152.352 85.287 152.235 85.2636 152.058C85.2616 151.975 85.2789 151.905 85.3033 151.866L85.2962 151.835Z" fill="url(#paint78_linear_917_80629)"/>
</g>
<g style="mix-blend-mode:color-dodge" opacity="0.9">
<path d="M157.256 107.182C157.256 107.182 157.424 107.044 157.538 107.035C157.64 107.045 157.717 107.094 157.743 107.138C157.782 107.162 157.835 107.249 157.825 107.351L155.991 146.668C155.991 146.668 155.981 146.77 155.944 146.828C155.895 146.905 155.796 146.977 155.663 146.974C155.561 146.964 155.484 146.916 155.457 146.872C155.419 146.847 155.366 146.76 155.376 146.658L157.209 107.341C157.209 107.341 157.22 107.24 157.244 107.201L157.256 107.182Z" fill="url(#paint79_linear_917_80629)"/>
</g>
<path d="M197.453 121.179L190.387 148.972L183.738 163.268L197.453 121.179Z" fill="url(#paint80_linear_917_80629)" fill-opacity="0.12"/>
<path d="M165.189 201.846L179.855 184.907L148.276 187.085L165.189 201.846Z" fill="url(#paint81_linear_917_80629)" fill-opacity="0.02"/>
<path d="M92.238 136.561L100.235 143.449L104.519 143.126L92.238 136.561Z" fill="url(#paint82_linear_917_80629)" fill-opacity="0.11"/>
<path d="M185.872 114.704L144.532 112.828L162.017 114.703L185.872 114.704Z" fill="url(#paint83_linear_917_80629)" fill-opacity="0.12"/>
</g>
<path d="M194.252 167.739L206.423 161.13V154.212L203.751 150.19C203.751 150.19 187.345 161.787 178.14 162.082V172.324C178.14 172.324 190.377 169.844 194.252 167.739Z" stroke="white" stroke-width="2" stroke-miterlimit="10"/>
<path d="M163.278 177.651L161.301 169.728L155.703 167.046L139.578 170.68L136.291 177.611V182.893C136.291 182.893 155.383 185.239 163.278 177.651Z" stroke="white" stroke-width="2" stroke-miterlimit="10"/>
<path d="M107.639 187.53C107.639 187.53 107.305 154.175 114.88 135.688C122.455 117.2 133.584 101.662 146.797 96.3937L159.997 91.125C159.997 91.125 156.376 82.545 146.837 86.835C137.298 91.125 125.461 95.7502 115.574 108.285C105.688 120.82 95.3875 135.701 93.5304 164.082C93.0939 171.011 93.0939 177.96 93.5304 184.889C93.5304 184.889 98.4603 189.514 107.639 187.53Z" stroke="white" stroke-width="2" stroke-miterlimit="10"/>
<path d="M220.87 147.59V143.944L216.26 139.922C216.26 139.922 211.584 102.009 187.376 90.4392C170.435 82.3016 150.168 80.0895 126.347 85.6264C104.236 90.7744 80.7495 123.821 81.9653 149.896C82.9807 171.749 77.6901 176.642 77.6901 176.642L62.8872 190.182C62.8872 190.182 54.3368 197.449 62.8872 202.731C71.4376 208.013 102.74 213.281 102.74 213.281C102.74 213.281 117.543 215.587 129.393 208.991C141.244 202.396 151.437 193.48 161.965 190.491C172.493 187.501 192.907 183.573 204.089 176.642C215.272 169.711 226.133 158.744 227.122 154.481C228.111 150.218 220.87 147.59 220.87 147.59Z" stroke="white" stroke-width="2" stroke-miterlimit="10"/>
<defs>
<radialGradient id="paint0_radial_917_80629" cx="0" cy="0" r="1" gradientUnits="userSpaceOnUse" gradientTransform="translate(91.8925 64.1543) rotate(122.268) scale(1.12022 1.11934)">
<stop stop-color="white"/>
<stop offset="0.11" stop-color="#FAFAFA"/>
<stop offset="0.23" stop-color="#ECECEC"/>
<stop offset="0.36" stop-color="#D4D4D4"/>
<stop offset="0.5" stop-color="#B4B4B4"/>
<stop offset="0.64" stop-color="#8A8A8A"/>
<stop offset="0.79" stop-color="#565656"/>
<stop offset="0.94" stop-color="#1A1A1A"/>
<stop offset="1"/>
</radialGradient>
<radialGradient id="paint1_radial_917_80629" cx="0" cy="0" r="1" gradientUnits="userSpaceOnUse" gradientTransform="translate(151.627 101.464) rotate(122.268) scale(1.14308 1.14219)">
<stop stop-color="white"/>
<stop offset="0.11" stop-color="#FAFAFA"/>
<stop offset="0.23" stop-color="#ECECEC"/>
<stop offset="0.36" stop-color="#D4D4D4"/>
<stop offset="0.5" stop-color="#B4B4B4"/>
<stop offset="0.64" stop-color="#8A8A8A"/>
<stop offset="0.79" stop-color="#565656"/>
<stop offset="0.94" stop-color="#1A1A1A"/>
<stop offset="1"/>
</radialGradient>
<radialGradient id="paint2_radial_917_80629" cx="0" cy="0" r="1" gradientUnits="userSpaceOnUse" gradientTransform="translate(190.387 148.972) rotate(122.268) scale(1.21167 1.21072)">
<stop stop-color="white"/>
<stop offset="0.11" stop-color="#FAFAFA"/>
<stop offset="0.23" stop-color="#ECECEC"/>
<stop offset="0.36" stop-color="#D4D4D4"/>
<stop offset="0.5" stop-color="#B4B4B4"/>
<stop offset="0.64" stop-color="#8A8A8A"/>
<stop offset="0.79" stop-color="#565656"/>
<stop offset="0.94" stop-color="#1A1A1A"/>
<stop offset="1"/>
</radialGradient>
<radialGradient id="paint3_radial_917_80629" cx="0" cy="0" r="1" gradientUnits="userSpaceOnUse" gradientTransform="translate(146.557 153.094) rotate(122.268) scale(1.21166 1.21073)">
<stop stop-color="white"/>
<stop offset="0.11" stop-color="#FAFAFA"/>
<stop offset="0.23" stop-color="#ECECEC"/>
<stop offset="0.36" stop-color="#D4D4D4"/>
<stop offset="0.5" stop-color="#B4B4B4"/>
<stop offset="0.64" stop-color="#8A8A8A"/>
<stop offset="0.79" stop-color="#565656"/>
<stop offset="0.94" stop-color="#1A1A1A"/>
<stop offset="1"/>
</radialGradient>
<radialGradient id="paint4_radial_917_80629" cx="0" cy="0" r="1" gradientUnits="userSpaceOnUse" gradientTransform="translate(179.855 184.907) rotate(122.268) scale(1.28025 1.27926)">
<stop stop-color="white"/>
<stop offset="0.11" stop-color="#FAFAFA"/>
<stop offset="0.23" stop-color="#ECECEC"/>
<stop offset="0.36" stop-color="#D4D4D4"/>
<stop offset="0.5" stop-color="#B4B4B4"/>
<stop offset="0.64" stop-color="#8A8A8A"/>
<stop offset="0.79" stop-color="#565656"/>
<stop offset="0.94" stop-color="#1A1A1A"/>
<stop offset="1"/>
</radialGradient>
<radialGradient id="paint5_radial_917_80629" cx="0" cy="0" r="1" gradientUnits="userSpaceOnUse" gradientTransform="translate(93.8693 78.8669) rotate(122.268) scale(1.28025 1.27925)">
<stop stop-color="white"/>
<stop offset="0.11" stop-color="#FAFAFA"/>
<stop offset="0.23" stop-color="#ECECEC"/>
<stop offset="0.36" stop-color="#D4D4D4"/>
<stop offset="0.5" stop-color="#B4B4B4"/>
<stop offset="0.64" stop-color="#8A8A8A"/>
<stop offset="0.79" stop-color="#565656"/>
<stop offset="0.94" stop-color="#1A1A1A"/>
<stop offset="1"/>
</radialGradient>
<radialGradient id="paint6_radial_917_80629" cx="0" cy="0" r="1" gradientUnits="userSpaceOnUse" gradientTransform="translate(99.0776 137.581) rotate(122.268) scale(1.30311 1.3021)">
<stop stop-color="white"/>
<stop offset="0.11" stop-color="#FAFAFA"/>
<stop offset="0.23" stop-color="#ECECEC"/>
<stop offset="0.36" stop-color="#D4D4D4"/>
<stop offset="0.5" stop-color="#B4B4B4"/>
<stop offset="0.64" stop-color="#8A8A8A"/>
<stop offset="0.79" stop-color="#565656"/>
<stop offset="0.94" stop-color="#1A1A1A"/>
<stop offset="1"/>
</radialGradient>
<radialGradient id="paint7_radial_917_80629" cx="0" cy="0" r="1" gradientUnits="userSpaceOnUse" gradientTransform="translate(150.748 63.4899) rotate(122.268) scale(1.39456 1.39348)">
<stop stop-color="white"/>
<stop offset="0.11" stop-color="#FAFAFA"/>
<stop offset="0.23" stop-color="#ECECEC"/>
<stop offset="0.36" stop-color="#D4D4D4"/>
<stop offset="0.5" stop-color="#B4B4B4"/>
<stop offset="0.64" stop-color="#8A8A8A"/>
<stop offset="0.79" stop-color="#565656"/>
<stop offset="0.94" stop-color="#1A1A1A"/>
<stop offset="1"/>
</radialGradient>
<radialGradient id="paint8_radial_917_80629" cx="0" cy="0" r="1" gradientUnits="userSpaceOnUse" gradientTransform="translate(186.297 207.224) rotate(122.268) scale(1.41742 1.41632)">
<stop stop-color="white"/>
<stop offset="0.11" stop-color="#FAFAFA"/>
<stop offset="0.23" stop-color="#ECECEC"/>
<stop offset="0.36" stop-color="#D4D4D4"/>
<stop offset="0.5" stop-color="#B4B4B4"/>
<stop offset="0.64" stop-color="#8A8A8A"/>
<stop offset="0.79" stop-color="#565656"/>
<stop offset="0.94" stop-color="#1A1A1A"/>
<stop offset="1"/>
</radialGradient>
<radialGradient id="paint9_radial_917_80629" cx="0" cy="0" r="1" gradientUnits="userSpaceOnUse" gradientTransform="translate(162.017 114.703) rotate(122.268) scale(1.62318 1.62191)">
<stop stop-color="white"/>
<stop offset="0.11" stop-color="#FAFAFA"/>
<stop offset="0.23" stop-color="#ECECEC"/>
<stop offset="0.36" stop-color="#D4D4D4"/>
<stop offset="0.5" stop-color="#B4B4B4"/>
<stop offset="0.64" stop-color="#8A8A8A"/>
<stop offset="0.79" stop-color="#565656"/>
<stop offset="0.94" stop-color="#1A1A1A"/>
<stop offset="1"/>
</radialGradient>
<radialGradient id="paint10_radial_917_80629" cx="0" cy="0" r="1" gradientUnits="userSpaceOnUse" gradientTransform="translate(174.016 63.0939) rotate(122.268) scale(1.87466 1.8732)">
<stop stop-color="white"/>
<stop offset="0.11" stop-color="#FAFAFA"/>
<stop offset="0.23" stop-color="#ECECEC"/>
<stop offset="0.36" stop-color="#D4D4D4"/>
<stop offset="0.5" stop-color="#B4B4B4"/>
<stop offset="0.64" stop-color="#8A8A8A"/>
<stop offset="0.79" stop-color="#565656"/>
<stop offset="0.94" stop-color="#1A1A1A"/>
<stop offset="1"/>
</radialGradient>
<radialGradient id="paint11_radial_917_80629" cx="0" cy="0" r="1" gradientUnits="userSpaceOnUse" gradientTransform="translate(126.397 178.435) rotate(122.268) scale(2.01182 2.01026)">
<stop stop-color="white"/>
<stop offset="0.11" stop-color="#FAFAFA"/>
<stop offset="0.23" stop-color="#ECECEC"/>
<stop offset="0.36" stop-color="#D4D4D4"/>
<stop offset="0.5" stop-color="#B4B4B4"/>
<stop offset="0.64" stop-color="#8A8A8A"/>
<stop offset="0.79" stop-color="#565656"/>
<stop offset="0.94" stop-color="#1A1A1A"/>
<stop offset="1"/>
</radialGradient>
<radialGradient id="paint12_radial_917_80629" cx="0" cy="0" r="1" gradientUnits="userSpaceOnUse" gradientTransform="translate(85.5158 152) rotate(122.268) scale(2.08041 2.07879)">
<stop stop-color="white"/>
<stop offset="0.11" stop-color="#FAFAFA"/>
<stop offset="0.23" stop-color="#ECECEC"/>
<stop offset="0.36" stop-color="#D4D4D4"/>
<stop offset="0.5" stop-color="#B4B4B4"/>
<stop offset="0.64" stop-color="#8A8A8A"/>
<stop offset="0.79" stop-color="#565656"/>
<stop offset="0.94" stop-color="#1A1A1A"/>
<stop offset="1"/>
</radialGradient>
<radialGradient id="paint13_radial_917_80629" cx="0" cy="0" r="1" gradientUnits="userSpaceOnUse" gradientTransform="translate(157.527 107.352) rotate(122.268) scale(2.42334 2.42145)">
<stop stop-color="white"/>
<stop offset="0.11" stop-color="#FAFAFA"/>
<stop offset="0.23" stop-color="#ECECEC"/>
<stop offset="0.36" stop-color="#D4D4D4"/>
<stop offset="0.5" stop-color="#B4B4B4"/>
<stop offset="0.64" stop-color="#8A8A8A"/>
<stop offset="0.79" stop-color="#565656"/>
<stop offset="0.94" stop-color="#1A1A1A"/>
<stop offset="1"/>
</radialGradient>
<linearGradient id="paint14_linear_917_80629" x1="41.6178" y1="136.256" x2="57.9921" y2="128.296" gradientUnits="userSpaceOnUse">
<stop stop-color="#C91EFE"/>
<stop offset="1" stop-color="#4A68F2"/>
</linearGradient>
<linearGradient id="paint15_linear_917_80629" x1="105.956" y1="85.8243" x2="85.8482" y2="73.1285" gradientUnits="userSpaceOnUse">
<stop stop-color="#C91EFE"/>
<stop offset="1" stop-color="#4A68F2"/>
</linearGradient>
<linearGradient id="paint16_linear_917_80629" x1="117.915" y1="148.866" x2="103.1" y2="139.512" gradientUnits="userSpaceOnUse">
<stop stop-color="#C91EFE"/>
<stop offset="1" stop-color="#4A68F2"/>
</linearGradient>
<linearGradient id="paint17_linear_917_80629" x1="143.773" y1="175.819" x2="127.702" y2="165.672" gradientUnits="userSpaceOnUse">
<stop stop-color="#C91EFE"/>
<stop offset="1" stop-color="#4A68F2"/>
</linearGradient>
<linearGradient id="paint18_linear_917_80629" x1="156.251" y1="156.055" x2="141.262" y2="146.591" gradientUnits="userSpaceOnUse">
<stop stop-color="#C91EFE"/>
<stop offset="1" stop-color="#4A68F2"/>
</linearGradient>
<linearGradient id="paint19_linear_917_80629" x1="156.706" y1="123.286" x2="142.972" y2="114.615" gradientUnits="userSpaceOnUse">
<stop stop-color="#C91EFE"/>
<stop offset="1" stop-color="#4A68F2"/>
</linearGradient>
<linearGradient id="paint20_linear_917_80629" x1="159.238" y1="90.0087" x2="133.567" y2="73.8004" gradientUnits="userSpaceOnUse">
<stop stop-color="#C91EFE"/>
<stop offset="1" stop-color="#4A68F2"/>
</linearGradient>
<linearGradient id="paint21_linear_917_80629" x1="110.265" y1="112.46" x2="94.6381" y2="102.594" gradientUnits="userSpaceOnUse">
<stop stop-color="#C91EFE"/>
<stop offset="1" stop-color="#4A68F2"/>
</linearGradient>
<linearGradient id="paint22_linear_917_80629" x1="97.7683" y1="70.5949" x2="90.3896" y2="65.9361" gradientUnits="userSpaceOnUse">
<stop stop-color="#C91EFE"/>
<stop offset="1" stop-color="#4A68F2"/>
</linearGradient>
<linearGradient id="paint23_linear_917_80629" x1="185.693" y1="80.1999" x2="145.535" y2="54.8447" gradientUnits="userSpaceOnUse">
<stop stop-color="#C91EFE"/>
<stop offset="1" stop-color="#4A68F2"/>
</linearGradient>
<linearGradient id="paint24_linear_917_80629" x1="141.148" y1="162.218" x2="117.988" y2="147.595" gradientUnits="userSpaceOnUse">
<stop stop-color="#C91EFE"/>
<stop offset="1" stop-color="#4A68F2"/>
</linearGradient>
<linearGradient id="paint25_linear_917_80629" x1="166.356" y1="200.553" x2="147.079" y2="188.382" gradientUnits="userSpaceOnUse">
<stop stop-color="#C91EFE"/>
<stop offset="1" stop-color="#4A68F2"/>
</linearGradient>
<linearGradient id="paint26_linear_917_80629" x1="150.015" y1="67.7315" x2="140.995" y2="62.036" gradientUnits="userSpaceOnUse">
<stop stop-color="#C91EFE"/>
<stop offset="1" stop-color="#4A68F2"/>
</linearGradient>
<linearGradient id="paint27_linear_917_80629" x1="188.182" y1="156.829" x2="185.941" y2="155.414" gradientUnits="userSpaceOnUse">
<stop stop-color="#C91EFE"/>
<stop offset="1" stop-color="#4A68F2"/>
</linearGradient>
<linearGradient id="paint28_linear_917_80629" x1="197.897" y1="137.59" x2="189.92" y2="132.553" gradientUnits="userSpaceOnUse">
<stop stop-color="#C91EFE"/>
<stop offset="1" stop-color="#4A68F2"/>
</linearGradient>
<linearGradient id="paint29_linear_917_80629" x1="155.922" y1="138.862" x2="142.942" y2="130.666" gradientUnits="userSpaceOnUse">
<stop stop-color="#C91EFE"/>
<stop offset="1" stop-color="#4A68F2"/>
</linearGradient>
<linearGradient id="paint30_linear_917_80629" x1="183.65" y1="163.963" x2="178.763" y2="160.878" gradientUnits="userSpaceOnUse">
<stop stop-color="#C91EFE"/>
<stop offset="1" stop-color="#4A68F2"/>
</linearGradient>
<linearGradient id="paint31_linear_917_80629" x1="104.071" y1="130.229" x2="99.9756" y2="127.644" gradientUnits="userSpaceOnUse">
<stop stop-color="#C91EFE"/>
<stop offset="1" stop-color="#4A68F2"/>
</linearGradient>
<linearGradient id="paint32_linear_917_80629" x1="95.9344" y1="76.1518" x2="94.1959" y2="75.0542" gradientUnits="userSpaceOnUse">
<stop stop-color="#C91EFE"/>
<stop offset="1" stop-color="#4A68F2"/>
</linearGradient>
<linearGradient id="paint33_linear_917_80629" x1="176.282" y1="165.962" x2="148.97" y2="148.717" gradientUnits="userSpaceOnUse">
<stop stop-color="#C91EFE"/>
<stop offset="1" stop-color="#4A68F2"/>
</linearGradient>
<linearGradient id="paint34_linear_917_80629" x1="194.459" y1="126.52" x2="192.199" y2="125.094" gradientUnits="userSpaceOnUse">
<stop stop-color="#C91EFE"/>
<stop offset="1" stop-color="#4A68F2"/>
</linearGradient>
<linearGradient id="paint35_linear_917_80629" x1="198.347" y1="195.541" x2="180.055" y2="183.991" gradientUnits="userSpaceOnUse">
<stop stop-color="#C91EFE"/>
<stop offset="1" stop-color="#4A68F2"/>
</linearGradient>
<linearGradient id="paint36_linear_917_80629" x1="187.324" y1="133.926" x2="154.12" y2="112.961" gradientUnits="userSpaceOnUse">
<stop stop-color="#C91EFE"/>
<stop offset="1" stop-color="#4A68F2"/>
</linearGradient>
<linearGradient id="paint37_linear_917_80629" x1="201.322" y1="80.8624" x2="189.346" y2="73.3009" gradientUnits="userSpaceOnUse">
<stop stop-color="#C91EFE"/>
<stop offset="1" stop-color="#4A68F2"/>
</linearGradient>
<linearGradient id="paint38_linear_917_80629" x1="185.196" y1="177.004" x2="173.317" y2="169.504" gradientUnits="userSpaceOnUse">
<stop stop-color="#C91EFE"/>
<stop offset="1" stop-color="#4A68F2"/>
</linearGradient>
<linearGradient id="paint39_linear_917_80629" x1="187.452" y1="148.229" x2="180.383" y2="143.765" gradientUnits="userSpaceOnUse">
<stop stop-color="#C91EFE"/>
<stop offset="1" stop-color="#4A68F2"/>
</linearGradient>
<linearGradient id="paint40_linear_917_80629" x1="198.886" y1="205.385" x2="193.535" y2="202.007" gradientUnits="userSpaceOnUse">
<stop stop-color="#C91EFE"/>
<stop offset="1" stop-color="#4A68F2"/>
</linearGradient>
<linearGradient id="paint41_linear_917_80629" x1="151.078" y1="66.006" x2="149.436" y2="64.9693" gradientUnits="userSpaceOnUse">
<stop stop-color="#C91EFE"/>
<stop offset="1" stop-color="#4A68F2"/>
</linearGradient>
<linearGradient id="paint42_linear_917_80629" x1="93.1194" y1="80.6106" x2="91.69" y2="79.7081" gradientUnits="userSpaceOnUse">
<stop stop-color="#C91EFE"/>
<stop offset="1" stop-color="#4A68F2"/>
</linearGradient>
<linearGradient id="paint43_linear_917_80629" x1="98.5902" y1="138.91" x2="92.7182" y2="135.202" gradientUnits="userSpaceOnUse">
<stop stop-color="#C91EFE"/>
<stop offset="1" stop-color="#4A68F2"/>
</linearGradient>
<linearGradient id="paint44_linear_917_80629" x1="170.548" y1="174.061" x2="141.323" y2="155.609" gradientUnits="userSpaceOnUse">
<stop stop-color="#C91EFE"/>
<stop offset="1" stop-color="#4A68F2"/>
</linearGradient>
<linearGradient id="paint45_linear_917_80629" x1="202.654" y1="78.7955" x2="200.645" y2="77.5271" gradientUnits="userSpaceOnUse">
<stop stop-color="#C91EFE"/>
<stop offset="1" stop-color="#4A68F2"/>
</linearGradient>
<linearGradient id="paint46_linear_917_80629" x1="172.16" y1="129.745" x2="146.567" y2="113.586" gradientUnits="userSpaceOnUse">
<stop stop-color="#C91EFE"/>
<stop offset="1" stop-color="#4A68F2"/>
</linearGradient>
<linearGradient id="paint47_linear_917_80629" x1="184.368" y1="152.215" x2="164.975" y2="139.97" gradientUnits="userSpaceOnUse">
<stop stop-color="#C91EFE"/>
<stop offset="1" stop-color="#4A68F2"/>
</linearGradient>
<linearGradient id="paint48_linear_917_80629" x1="193.686" y1="196.078" x2="166.682" y2="179.028" gradientUnits="userSpaceOnUse">
<stop stop-color="#C91EFE"/>
<stop offset="1" stop-color="#4A68F2"/>
</linearGradient>
<linearGradient id="paint49_linear_917_80629" x1="142.511" y1="164.424" x2="137.682" y2="161.375" gradientUnits="userSpaceOnUse">
<stop stop-color="#C91EFE"/>
<stop offset="1" stop-color="#4A68F2"/>
</linearGradient>
<linearGradient id="paint50_linear_917_80629" x1="198.068" y1="82.7223" x2="155.283" y2="55.7085" gradientUnits="userSpaceOnUse">
<stop stop-color="#C91EFE"/>
<stop offset="1" stop-color="#4A68F2"/>
</linearGradient>
<linearGradient id="paint51_linear_917_80629" x1="100.908" y1="142.941" x2="91.5588" y2="137.039" gradientUnits="userSpaceOnUse">
<stop stop-color="#C91EFE"/>
<stop offset="1" stop-color="#4A68F2"/>
</linearGradient>
<linearGradient id="paint52_linear_917_80629" x1="145.281" y1="116.735" x2="142.712" y2="115.113" gradientUnits="userSpaceOnUse">
<stop stop-color="#C91EFE"/>
<stop offset="1" stop-color="#4A68F2"/>
</linearGradient>
<linearGradient id="paint53_linear_917_80629" x1="153.248" y1="60.9855" x2="152.321" y2="60.4001" gradientUnits="userSpaceOnUse">
<stop stop-color="#C91EFE"/>
<stop offset="1" stop-color="#4A68F2"/>
</linearGradient>
<linearGradient id="paint54_linear_917_80629" x1="101.646" y1="89.2698" x2="90.2308" y2="82.062" gradientUnits="userSpaceOnUse">
<stop stop-color="#C91EFE"/>
<stop offset="1" stop-color="#4A68F2"/>
</linearGradient>
<linearGradient id="paint55_linear_917_80629" x1="182.57" y1="179.239" x2="146.7" y2="156.591" gradientUnits="userSpaceOnUse">
<stop stop-color="#C91EFE"/>
<stop offset="1" stop-color="#4A68F2"/>
</linearGradient>
<linearGradient id="paint56_linear_917_80629" x1="104.074" y1="144.386" x2="100.636" y2="142.216" gradientUnits="userSpaceOnUse">
<stop stop-color="#C91EFE"/>
<stop offset="1" stop-color="#4A68F2"/>
</linearGradient>
<linearGradient id="paint57_linear_917_80629" x1="180.677" y1="123.53" x2="149.733" y2="103.992" gradientUnits="userSpaceOnUse">
<stop stop-color="#C91EFE"/>
<stop offset="1" stop-color="#4A68F2"/>
</linearGradient>
<linearGradient id="paint58_linear_917_80629" x1="108.795" y1="77.9912" x2="83.008" y2="61.7097" gradientUnits="userSpaceOnUse">
<stop stop-color="#C91EFE"/>
<stop offset="1" stop-color="#4A68F2"/>
</linearGradient>
<linearGradient id="paint59_linear_917_80629" x1="160.2" y1="118.138" x2="146.331" y2="109.381" gradientUnits="userSpaceOnUse">
<stop stop-color="#C91EFE"/>
<stop offset="1" stop-color="#4A68F2"/>
</linearGradient>
<linearGradient id="paint60_linear_917_80629" x1="187.976" y1="170.633" x2="182.123" y2="166.938" gradientUnits="userSpaceOnUse">
<stop stop-color="#C91EFE"/>
<stop offset="1" stop-color="#4A68F2"/>
</linearGradient>
<linearGradient id="paint61_linear_917_80629" x1="166.68" y1="63.5453" x2="155.38" y2="56.4107" gradientUnits="userSpaceOnUse">
<stop stop-color="#C91EFE"/>
<stop offset="1" stop-color="#4A68F2"/>
</linearGradient>
<linearGradient id="paint62_linear_917_80629" x1="100.696" y1="90.7745" x2="96.4273" y2="88.0793" gradientUnits="userSpaceOnUse">
<stop stop-color="#C91EFE"/>
<stop offset="1" stop-color="#4A68F2"/>
</linearGradient>
<linearGradient id="paint63_linear_917_80629" x1="207.765" y1="113.062" x2="192.563" y2="103.463" gradientUnits="userSpaceOnUse">
<stop stop-color="#C91EFE"/>
<stop offset="1" stop-color="#4A68F2"/>
</linearGradient>
<linearGradient id="paint64_linear_917_80629" x1="212.26" y1="176.329" x2="186.474" y2="160.048" gradientUnits="userSpaceOnUse">
<stop stop-color="#C91EFE"/>
<stop offset="1" stop-color="#4A68F2"/>
</linearGradient>
<linearGradient id="paint65_linear_917_80629" x1="114.742" y1="147.945" x2="104.987" y2="141.786" gradientUnits="userSpaceOnUse">
<stop stop-color="#C91EFE"/>
<stop offset="1" stop-color="#4A68F2"/>
</linearGradient>
<linearGradient id="paint66_linear_917_80629" x1="224.06" y1="165.729" x2="219.887" y2="163.095" gradientUnits="userSpaceOnUse">
<stop stop-color="#C91EFE"/>
<stop offset="1" stop-color="#4A68F2"/>
</linearGradient>
<linearGradient id="paint67_linear_917_80629" x1="177.692" y1="120.341" x2="163.688" y2="111.499" gradientUnits="userSpaceOnUse">
<stop stop-color="#C91EFE"/>
<stop offset="1" stop-color="#4A68F2"/>
</linearGradient>
<linearGradient id="paint68_linear_917_80629" x1="139.486" y1="175.762" x2="108.715" y2="156.334" gradientUnits="userSpaceOnUse">
<stop stop-color="#C91EFE"/>
<stop offset="1" stop-color="#4A68F2"/>
</linearGradient>
<linearGradient id="paint69_linear_917_80629" x1="96.6097" y1="101.227" x2="90.5445" y2="97.397" gradientUnits="userSpaceOnUse">
<stop stop-color="#C91EFE"/>
<stop offset="1" stop-color="#4A68F2"/>
</linearGradient>
<linearGradient id="paint70_linear_917_80629" x1="173.523" y1="64.4316" x2="167.728" y2="60.7728" gradientUnits="userSpaceOnUse">
<stop stop-color="#C91EFE"/>
<stop offset="1" stop-color="#4A68F2"/>
</linearGradient>
<linearGradient id="paint71_linear_917_80629" x1="189.463" y1="132.036" x2="175.246" y2="123.06" gradientUnits="userSpaceOnUse">
<stop stop-color="#C91EFE"/>
<stop offset="1" stop-color="#4A68F2"/>
</linearGradient>
<linearGradient id="paint72_linear_917_80629" x1="77.1379" y1="165.826" x2="37.6949" y2="140.922" gradientUnits="userSpaceOnUse">
<stop stop-color="#C91EFE"/>
<stop offset="1" stop-color="#4A68F2"/>
</linearGradient>
<linearGradient id="paint73_linear_917_80629" x1="193.652" y1="125.402" x2="160.177" y2="104.267" gradientUnits="userSpaceOnUse">
<stop stop-color="#C91EFE"/>
<stop offset="1" stop-color="#4A68F2"/>
</linearGradient>
<linearGradient id="paint74_linear_917_80629" x1="52.9825" y1="138.789" x2="43.0348" y2="132.508" gradientUnits="userSpaceOnUse">
<stop stop-color="#C91EFE"/>
<stop offset="1" stop-color="#4A68F2"/>
</linearGradient>
<linearGradient id="paint75_linear_917_80629" x1="174.022" y1="197.527" x2="131.102" y2="170.428" gradientUnits="userSpaceOnUse">
<stop stop-color="#C91EFE"/>
<stop offset="1" stop-color="#4A68F2"/>
</linearGradient>
<linearGradient id="paint76_linear_917_80629" x1="177.506" y1="78.0191" x2="161.455" y2="67.8843" gradientUnits="userSpaceOnUse">
<stop stop-color="#C91EFE"/>
<stop offset="1" stop-color="#4A68F2"/>
</linearGradient>
<linearGradient id="paint77_linear_917_80629" x1="91.1005" y1="143.755" x2="61.0836" y2="124.803" gradientUnits="userSpaceOnUse">
<stop stop-color="#C91EFE"/>
<stop offset="1" stop-color="#4A68F2"/>
</linearGradient>
<linearGradient id="paint78_linear_917_80629" x1="144.759" y1="164.586" x2="96.4885" y2="134.108" gradientUnits="userSpaceOnUse">
<stop stop-color="#C91EFE"/>
<stop offset="1" stop-color="#4A68F2"/>
</linearGradient>
<linearGradient id="paint79_linear_917_80629" x1="165.08" y1="132.359" x2="148.121" y2="121.651" gradientUnits="userSpaceOnUse">
<stop stop-color="#C91EFE"/>
<stop offset="1" stop-color="#4A68F2"/>
</linearGradient>
<linearGradient id="paint80_linear_917_80629" x1="202.05" y1="124.081" x2="179.141" y2="160.365" gradientUnits="userSpaceOnUse">
<stop offset="0.07" stop-color="white"/>
<stop offset="0.56" stop-color="#EBCFCF"/>
</linearGradient>
<linearGradient id="paint81_linear_917_80629" x1="169.058" y1="178.089" x2="157.231" y2="196.821" gradientUnits="userSpaceOnUse">
<stop offset="0.07" stop-color="white"/>
<stop offset="0.56" stop-color="#EBCFCF"/>
</linearGradient>
<linearGradient id="paint82_linear_917_80629" x1="98.647" y1="139.418" x2="97.28" y2="141.584" gradientUnits="userSpaceOnUse">
<stop offset="0.07" stop-color="white"/>
<stop offset="0.56" stop-color="#EBCFCF"/>
</linearGradient>
<linearGradient id="paint83_linear_917_80629" x1="170.67" y1="105.106" x2="159.734" y2="122.426" gradientUnits="userSpaceOnUse">
<stop offset="0.07" stop-color="white"/>
<stop offset="0.56" stop-color="#EBCFCF"/>
</linearGradient>
<clipPath id="clip0_917_80629">
<rect width="174" height="236" fill="white" transform="translate(292.447 126.434) rotate(122.268)"/>
</clipPath>
</defs>
</svg>
