<svg width="190" height="183" viewBox="0 0 190 183" fill="none" xmlns="http://www.w3.org/2000/svg">
<g clip-path="url(#clip0_917_80881)">
<path style="mix-blend-mode:color-dodge" d="M98.1031 138.588C98.0729 137.753 98.7131 137.067 99.5506 137.037C100.388 137.007 101.076 137.645 101.106 138.479C101.137 139.314 100.496 140 99.6589 140.031C98.8214 140.061 98.1333 139.423 98.1031 138.588Z" fill="white"/>
<path style="mix-blend-mode:color-dodge" d="M89.7996 108.076C89.7668 107.169 89.0033 106.461 88.0942 106.494C87.1851 106.527 86.4748 107.288 86.5075 108.195C86.5403 109.101 87.3038 109.809 88.2129 109.776C89.122 109.743 89.8323 108.982 89.7996 108.076Z" fill="white"/>
<path style="mix-blend-mode:color-dodge" d="M98.2431 40.149C98.2091 39.211 97.4188 38.4782 96.4779 38.5123C95.5369 38.5463 94.8016 39.3343 94.8355 40.2723C94.8695 41.2103 95.6598 41.9431 96.6007 41.9091C97.5417 41.875 98.277 41.087 98.2431 40.149Z" fill="white"/>
<path style="mix-blend-mode:color-dodge" d="M49.2724 142.776C49.2379 141.822 48.4342 141.077 47.4773 141.111C46.5204 141.146 45.7726 141.947 45.8071 142.901C45.8417 143.855 46.6454 144.6 47.6023 144.566C48.5592 144.531 49.3069 143.73 49.2724 142.776Z" fill="white"/>
<path style="mix-blend-mode:color-dodge" d="M85.0332 67.433C84.9978 66.4543 85.7493 65.6488 86.7312 65.6133C87.713 65.5778 88.5208 66.3268 88.5562 67.3055C88.5916 68.2843 87.84 69.0897 86.8582 69.1252C85.8764 69.1608 85.0686 68.4117 85.0332 67.433Z" fill="white"/>
<path style="mix-blend-mode:color-dodge" d="M68.4423 63.6234C68.4069 62.6447 69.1585 61.8392 70.1403 61.8037C71.1222 61.7682 71.93 62.5172 71.9654 63.496C72.0008 64.4747 71.2492 65.2802 70.2674 65.3157C69.2856 65.3512 68.4777 64.6022 68.4423 63.6234Z" fill="white"/>
<path style="mix-blend-mode:color-dodge" d="M85.9653 52.4398C85.9299 51.4611 86.6815 50.6557 87.6633 50.6201C88.6451 50.5846 89.4529 51.3336 89.4883 52.3124C89.5237 53.2911 88.7722 54.0966 87.7903 54.1321C86.8085 54.1676 86.0007 53.4186 85.9653 52.4398Z" fill="white"/>
<path style="mix-blend-mode:color-dodge" d="M157.185 64.4638C157.15 63.485 157.901 62.6796 158.883 62.6441C159.865 62.6085 160.673 63.3576 160.708 64.3363C160.743 65.315 159.992 66.1205 159.01 66.156C158.028 66.1915 157.22 65.4425 157.185 64.4638Z" fill="white"/>
<path style="mix-blend-mode:color-dodge" d="M79.6523 148.105C79.6169 147.126 80.3685 146.321 81.3503 146.285C82.3321 146.25 83.1399 146.999 83.1753 147.977C83.2107 148.956 82.4592 149.762 81.4773 149.797C80.4955 149.833 79.6877 149.084 79.6523 148.105Z" fill="white"/>
<path style="mix-blend-mode:color-dodge" d="M106.056 90.6542C106.02 89.6754 106.772 88.87 107.754 88.8345C108.735 88.799 109.543 89.548 109.579 90.5267C109.614 91.5055 108.862 92.3109 107.881 92.3464C106.899 92.382 106.091 91.6329 106.056 90.6542Z" fill="white"/>
<path style="mix-blend-mode:color-dodge" d="M104.473 75.6654C104.437 74.6867 105.217 73.8514 106.198 73.8159C107.18 73.7804 108.018 74.5572 108.053 75.5359C108.089 76.5146 107.309 77.3499 106.328 77.3854C105.346 77.4209 104.508 76.6442 104.473 75.6654Z" fill="white"/>
<path style="mix-blend-mode:color-dodge" d="M44.4974 104.295C44.462 103.317 45.2415 102.481 46.2233 102.446C47.2051 102.41 48.0428 103.187 48.0782 104.166C48.1136 105.145 47.3342 105.98 46.3524 106.015C45.3706 106.051 44.5329 105.274 44.4974 104.295Z" fill="white"/>
<path style="mix-blend-mode:color-dodge" d="M40.9485 78.1363C40.9117 77.1188 40.0544 76.3239 39.0337 76.3608C38.013 76.3977 37.2154 77.2525 37.2522 78.27C37.289 79.2875 38.1463 80.0824 39.167 80.0454C40.1877 80.0085 40.9853 79.1538 40.9485 78.1363Z" fill="white"/>
<path style="mix-blend-mode:color-dodge" d="M72.325 97.4086C72.2885 96.4011 73.0958 95.536 74.1065 95.4995C75.1172 95.4629 75.9848 96.2674 76.0213 97.2749C76.0577 98.2825 75.2505 99.1476 74.2398 99.1841C73.229 99.2207 72.3614 98.4162 72.325 97.4086Z" fill="white"/>
<path style="mix-blend-mode:color-dodge" d="M64.8455 118.461C64.809 117.454 65.6163 116.589 66.627 116.552C67.6377 116.516 68.5053 117.32 68.5418 118.328C68.5782 119.335 67.771 120.2 66.7603 120.237C65.7496 120.273 64.8819 119.469 64.8455 118.461Z" fill="white"/>
<path style="mix-blend-mode:color-dodge" d="M6.27182 76.3354C6.23444 75.302 5.36376 74.4947 4.3271 74.5322C3.29045 74.5697 2.48038 75.4378 2.51776 76.4712C2.55514 77.5046 3.42582 78.3119 4.46248 78.2744C5.49913 78.2369 6.3092 77.3688 6.27182 76.3354Z" fill="white"/>
<path style="mix-blend-mode:color-dodge" d="M173.65 83.766C173.613 82.7326 172.742 81.9253 171.706 81.9628C170.669 82.0003 169.859 82.8684 169.896 83.9018C169.934 84.9352 170.804 85.7425 171.841 85.705C172.878 85.6675 173.688 84.7994 173.65 83.766Z" fill="white"/>
<path style="mix-blend-mode:color-dodge" d="M21.5265 70.3848C21.489 69.3485 22.2952 68.4546 23.3637 68.4159C24.4321 68.3773 25.2998 69.1818 25.3383 70.2469C25.3768 71.312 24.5696 72.1771 23.5011 72.2157C22.4327 72.2544 21.565 71.4499 21.5265 70.3848Z" fill="white"/>
<path style="mix-blend-mode:color-dodge" d="M36.6095 104.465C36.571 103.4 37.4071 102.534 38.4467 102.496C39.4863 102.459 40.3838 103.291 40.4213 104.327C40.4588 105.364 39.6237 106.259 38.5841 106.296C37.5445 106.334 36.647 105.502 36.6095 104.465Z" fill="white"/>
<path style="mix-blend-mode:color-dodge" d="M21.4507 157.258C21.4122 156.193 22.2473 155.298 23.3158 155.26C24.3842 155.221 25.2818 156.053 25.3203 157.118C25.3588 158.183 24.5238 159.078 23.4553 159.117C22.3868 159.156 21.4893 158.323 21.4507 157.258Z" fill="white"/>
<path style="mix-blend-mode:color-dodge" d="M24.0209 112.963C23.9814 111.869 24.8443 110.944 25.9416 110.905C27.0389 110.865 27.9664 111.725 28.006 112.819C28.0456 113.913 27.1827 114.837 26.0853 114.877C24.988 114.917 24.0605 114.057 24.0209 112.963Z" fill="white"/>
<path style="mix-blend-mode:color-dodge" d="M83.4198 46.8248C83.3803 45.7309 84.2432 44.8061 85.3405 44.7664C86.4379 44.7267 87.3654 45.5867 87.4049 46.6806C87.4445 47.7745 86.5816 48.6993 85.4842 48.739C84.3869 48.7787 83.4594 47.9187 83.4198 46.8248Z" fill="white"/>
<path style="mix-blend-mode:color-dodge" d="M105.001 117.441C104.959 116.29 105.85 115.335 107.005 115.293C108.16 115.251 109.117 116.139 109.159 117.291C109.201 118.442 108.31 119.397 107.155 119.438C106 119.48 105.042 118.593 105.001 117.441Z" fill="white"/>
<path style="mix-blend-mode:color-dodge" d="M57.7462 164.778C57.7046 163.627 58.6232 162.643 59.7783 162.601C60.9334 162.559 61.9207 163.475 61.9623 164.626C62.004 165.777 61.0854 166.762 59.9303 166.804C58.7752 166.845 57.7879 165.93 57.7462 164.778Z" fill="white"/>
<path style="mix-blend-mode:color-dodge" d="M32.9005 70.6737C32.8537 69.3783 33.8558 68.3044 35.1552 68.2574C36.4547 68.2104 37.5318 69.2091 37.5786 70.5044C37.6255 71.7998 36.6234 72.8737 35.3239 72.9208C34.0244 72.9678 32.9474 71.9691 32.9005 70.6737Z" fill="white"/>
<path style="mix-blend-mode:color-dodge" d="M110.161 136.192C110.112 134.839 111.17 133.705 112.527 133.656C113.884 133.607 115.021 134.661 115.07 136.014C115.119 137.367 114.061 138.501 112.704 138.55C111.347 138.599 110.21 137.545 110.161 136.192Z" fill="white"/>
<g style="mix-blend-mode:color-dodge" opacity="0.9">
<path d="M99.9804 138.52C99.9804 138.52 99.932 138.782 99.8196 138.872L61.2621 164.076C61.092 164.168 60.8589 164.119 60.7371 163.951C60.7062 163.894 60.6742 163.809 60.6721 163.751C60.6669 163.607 60.7205 163.49 60.8329 163.399L99.3903 138.196C99.5605 138.103 99.7936 138.153 99.9153 138.321C99.9463 138.378 99.9783 138.463 99.9804 138.52Z" fill="url(#paint0_linear_917_80881)"/>
</g>
<g style="mix-blend-mode:color-dodge" opacity="0.9">
<path d="M113.286 136.288C113.286 136.288 113.237 136.521 113.153 136.61C112.985 136.76 112.753 136.74 112.603 136.573L87.8452 108.406C87.8452 108.406 87.7523 108.236 87.7503 108.178C87.7461 108.063 87.7997 107.946 87.8832 107.857C88.0513 107.706 88.2844 107.756 88.4339 107.894L113.191 136.061C113.191 136.061 113.255 136.232 113.257 136.289L113.286 136.288Z" fill="url(#paint1_linear_917_80881)"/>
</g>
<g style="mix-blend-mode:color-dodge" opacity="0.9">
<path d="M61.4226 163.724C61.4226 163.724 61.3742 163.985 61.2329 164.077C61.1205 164.167 61.004 164.142 60.9462 164.145C60.8885 164.147 60.7709 164.093 60.709 163.98L47.2292 143.051C47.2292 143.051 47.1972 142.966 47.1941 142.88C47.1889 142.736 47.2425 142.619 47.3549 142.528C47.524 142.407 47.7859 142.455 47.9077 142.623L61.3864 163.523C61.3864 163.523 61.4483 163.636 61.4515 163.723L61.4226 163.724Z" fill="url(#paint2_linear_917_80881)"/>
</g>
<g style="mix-blend-mode:color-dodge" opacity="0.9">
<path d="M125.401 38.7339C125.409 38.9354 125.242 39.1144 125.04 39.1505L96.5552 40.6421C96.3241 40.6505 96.1446 40.484 96.1373 40.2825C96.129 40.0522 96.296 39.8732 96.4982 39.8659L124.983 38.3743C124.983 38.3743 125.217 38.4235 125.276 38.479C125.335 38.5057 125.397 38.6187 125.402 38.7627L125.401 38.7339Z" fill="url(#paint3_linear_917_80881)"/>
</g>
<g style="mix-blend-mode:color-dodge" opacity="0.9">
<path d="M116.848 110.037C116.856 110.239 116.66 110.419 116.428 110.398L88.1094 108.511C87.9073 108.519 87.7556 108.322 87.7493 108.15C87.7431 107.977 87.8266 107.888 87.8823 107.828C87.939 107.797 88.0235 107.736 88.1679 107.731L116.515 109.617C116.688 109.611 116.84 109.807 116.846 109.98L116.847 110.008L116.848 110.037Z" fill="url(#paint4_linear_917_80881)"/>
</g>
<g style="mix-blend-mode:color-dodge" opacity="0.9">
<path d="M88.5298 108.15C88.5298 108.15 88.4803 108.383 88.3968 108.472L47.8109 143.146C47.8109 143.146 47.583 143.24 47.5252 143.242C47.4675 143.244 47.3509 143.22 47.2601 143.108C47.1993 143.024 47.1673 142.938 47.1652 142.881C47.161 142.766 47.2146 142.648 47.2981 142.559L87.9129 107.884C88.0531 107.764 88.3141 107.783 88.4348 107.923C88.5245 108.006 88.5277 108.093 88.5308 108.179L88.5298 108.15Z" fill="url(#paint5_linear_917_80881)"/>
</g>
<g style="mix-blend-mode:color-dodge" opacity="0.9">
<path d="M116.876 110.008C116.883 110.18 116.8 110.299 116.659 110.39C116.516 110.453 116.428 110.398 116.37 110.401C116.312 110.403 116.223 110.319 116.161 110.206L107.506 90.7749C107.506 90.7749 107.503 90.6886 107.501 90.631C107.495 90.4583 107.576 90.3112 107.718 90.2484C107.917 90.1547 108.151 90.2327 108.245 90.4311L116.9 109.863C116.9 109.863 116.903 109.949 116.905 110.006L116.876 110.008Z" fill="url(#paint6_linear_917_80881)"/>
</g>
<g style="mix-blend-mode:color-dodge" opacity="0.9">
<path d="M96.9151 40.1969C96.9151 40.1969 96.9203 40.3408 96.8368 40.4303L88.0529 52.5947C87.9147 52.7727 87.6848 52.8098 87.5063 52.6722C87.4165 52.5889 87.3546 52.4759 87.3504 52.3607C87.3484 52.3032 87.3452 52.2168 87.4287 52.1273L96.2126 39.9629C96.3508 39.7849 96.5808 39.7478 96.7592 39.8854C96.849 39.9687 96.9109 40.0817 96.9151 40.1969Z" fill="url(#paint7_linear_917_80881)"/>
</g>
<g style="mix-blend-mode:color-dodge" opacity="0.9">
<path d="M81.7637 148.115C81.7421 148.317 81.5452 148.469 81.3131 148.448L47.4666 143.216C47.2923 143.193 47.1416 143.026 47.1354 142.853C47.157 142.651 47.2405 142.561 47.2972 142.53C47.3539 142.499 47.4385 142.439 47.5839 142.462L81.4593 147.693C81.6336 147.716 81.7553 147.884 81.7616 148.057L81.7637 148.115Z" fill="url(#paint8_linear_917_80881)"/>
</g>
<g style="mix-blend-mode:color-dodge" opacity="0.9">
<path d="M87.1699 67.3557C87.1699 67.3557 87.172 67.4133 87.1741 67.4708C87.1504 67.6158 87.037 67.6776 87.0091 67.7074C86.9524 67.7383 86.839 67.8 86.7214 67.7466L70.1597 63.9357C70.0133 63.8833 69.8926 63.7436 69.8863 63.5708C69.9357 63.3385 70.0192 63.249 70.076 63.2181C70.1327 63.1872 70.2461 63.1255 70.3637 63.1789L86.9254 66.9898C87.1007 67.0411 87.2214 67.1809 87.2277 67.3536L87.1699 67.3557Z" fill="url(#paint9_linear_917_80881)"/>
</g>
<g style="mix-blend-mode:color-dodge" opacity="0.9">
<path d="M87.171 67.3847C87.1783 67.5862 86.9814 67.7374 86.7503 67.7458C86.5482 67.7531 86.3965 67.5568 86.3903 67.3841L87.3504 52.3608C87.3431 52.1593 87.54 52.0081 87.7711 51.9997C87.9732 51.9924 88.1249 52.1887 88.1311 52.3614L87.171 67.3847Z" fill="url(#paint10_linear_917_80881)"/>
</g>
<g style="mix-blend-mode:color-dodge" opacity="0.9">
<path d="M108.22 90.5473C108.228 90.7488 108.089 90.9267 107.887 90.934C107.685 90.9413 107.478 90.8047 107.442 90.6043L105.86 75.6441C105.851 75.4139 106.018 75.2349 106.22 75.2276C106.365 75.2223 106.453 75.2768 106.512 75.3035C106.571 75.3302 106.632 75.4144 106.666 75.5573L108.249 90.5462L108.22 90.5473Z" fill="url(#paint11_linear_917_80881)"/>
</g>
<g style="mix-blend-mode:color-dodge" opacity="0.9">
<path d="M81.7886 147.999C81.7938 148.143 81.7123 148.29 81.57 148.352C81.4566 148.414 81.3401 148.39 81.2813 148.363C81.2235 148.365 81.1049 148.283 81.0429 148.17L66.3525 118.551C66.3525 118.551 66.3493 118.465 66.3483 118.436C66.3431 118.292 66.4245 118.145 66.5668 118.082C66.7658 117.989 67 118.067 67.0929 118.236L81.7833 147.855C81.7833 147.855 81.7865 147.941 81.7886 147.999Z" fill="url(#paint12_linear_917_80881)"/>
</g>
<g style="mix-blend-mode:color-dodge" opacity="0.9">
<path d="M172.274 84.3097C172.279 84.4536 172.198 84.6007 172.055 84.6635C171.942 84.7252 171.825 84.7006 171.766 84.6739C171.709 84.676 171.59 84.5938 171.528 84.4808L159.234 65.7827C159.234 65.7827 159.231 65.6964 159.23 65.6676C159.225 65.5237 159.306 65.3766 159.448 65.3138C159.647 65.2201 159.882 65.2981 159.974 65.4677L172.269 84.1658C172.269 84.1658 172.272 84.2521 172.274 84.3097Z" fill="url(#paint13_linear_917_80881)"/>
</g>
<g style="mix-blend-mode:color-dodge" opacity="0.9">
<path d="M108.221 90.5758C108.229 90.7773 108.09 90.9265 107.917 90.9616L74.273 97.7128C74.0997 97.7191 73.8934 97.6113 73.8284 97.4119C73.819 97.1528 73.9582 97.0036 74.1304 96.9686L107.746 90.2183C107.746 90.2183 107.978 90.2388 108.037 90.2655C108.096 90.2922 108.185 90.3754 108.19 90.5193L108.193 90.5769L108.221 90.5758Z" fill="url(#paint14_linear_917_80881)"/>
</g>
<g style="mix-blend-mode:color-dodge" opacity="0.9">
<path d="M46.6917 104.216C46.698 104.389 46.5887 104.566 46.4165 104.601C46.2731 104.635 46.1855 104.609 46.1256 104.554C46.0668 104.527 45.9771 104.444 45.944 104.33C45.944 104.33 38.728 78.3031 38.7269 78.2743C38.7186 78.044 38.8289 77.8959 39.0001 77.8321C39.2001 77.7672 39.4353 77.874 39.5014 78.1022L46.7175 104.129L46.7206 104.215L46.6917 104.216Z" fill="url(#paint15_linear_917_80881)"/>
</g>
<g style="mix-blend-mode:color-dodge" opacity="0.9">
<path d="M74.5782 97.3562C74.5782 97.3562 74.5814 97.4426 74.5835 97.5002L67.1042 118.553C67.0238 118.729 66.8248 118.822 66.6206 118.772C66.4452 118.721 66.3524 118.551 66.3471 118.407C66.3451 118.35 66.344 118.321 66.3419 118.263L73.8222 97.2395C73.8222 97.2395 73.9593 97.0327 74.016 97.0019C74.0738 96.9998 74.1872 96.938 74.3048 96.9914C74.4513 97.0438 74.572 97.1835 74.5782 97.3562Z" fill="url(#paint16_linear_917_80881)"/>
</g>
<g style="mix-blend-mode:color-dodge" opacity="0.9">
<path d="M39.4768 78.2185C39.4841 78.42 39.2882 78.6 39.0562 78.5796L4.37959 76.7787C4.17745 76.786 4.02681 76.6185 4.01952 76.417C4.01015 76.1579 4.20708 76.0066 4.4381 75.9983L39.1436 77.7982C39.3457 77.7909 39.4963 77.9584 39.5036 78.1599L39.5047 78.1887L39.4768 78.2185Z" fill="url(#paint17_linear_917_80881)"/>
</g>
<g style="mix-blend-mode:color-dodge" opacity="0.9">
<path d="M46.6629 104.217C46.6702 104.419 46.5031 104.598 46.302 104.634L38.5299 104.8C38.3566 104.806 38.1771 104.639 38.1698 104.438C38.1615 104.208 38.3285 104.029 38.5306 104.021L46.3028 103.855C46.4761 103.849 46.6556 104.016 46.6629 104.217Z" fill="url(#paint18_linear_917_80881)"/>
</g>
<g style="mix-blend-mode:color-dodge" opacity="0.9">
<path d="M39.478 78.2474C39.478 78.2474 39.3708 78.4819 39.343 78.5117C39.2862 78.5426 39.2017 78.6033 39.0563 78.5797L24.4236 71.6557C24.2493 71.6332 24.0986 71.4657 24.0924 71.293C24.1119 71.0329 24.3078 70.8529 24.5409 70.9021L39.1736 77.826C39.3479 77.8486 39.4985 78.0161 39.5048 78.1888L39.5069 78.2464L39.478 78.2474Z" fill="url(#paint19_linear_917_80881)"/>
</g>
<g style="mix-blend-mode:color-dodge" opacity="0.9">
<path d="M67.0689 118.381C67.0689 118.381 67.0731 118.496 67.0174 118.556C66.9381 118.761 66.6802 118.828 66.5039 118.748L38.3257 104.75C38.1782 104.668 38.1152 104.527 38.111 104.411C38.109 104.354 38.1069 104.296 38.1625 104.237C38.2161 104.119 38.3296 104.058 38.3863 104.027C38.444 104.025 38.5585 103.992 38.6761 104.045L66.8543 118.043C66.8543 118.043 67.0647 118.266 67.0689 118.381Z" fill="url(#paint20_linear_917_80881)"/>
</g>
<g style="mix-blend-mode:color-dodge" opacity="0.9">
<path d="M23.8078 70.3024C23.8161 70.5326 23.6192 70.6839 23.417 70.6912L4.40861 76.7774C4.20647 76.7847 4.02696 76.6183 4.01862 76.388C4.01029 76.1577 4.20619 75.9777 4.40833 75.9704L23.4167 69.8841C23.6189 69.8768 23.7984 70.0433 23.8067 70.2736L23.8078 70.3024Z" fill="url(#paint21_linear_917_80881)"/>
</g>
<g style="mix-blend-mode:color-dodge" opacity="0.9">
<path d="M118.5 49.3893C118.507 49.5908 118.311 49.7708 118.079 49.7504L85.3969 47.1279C85.1948 47.1352 85.0431 46.9389 85.0369 46.7662C85.0275 46.5071 85.2533 46.3548 85.4555 46.3475L118.167 48.969C118.34 48.9627 118.492 49.159 118.498 49.3317L118.499 49.3605L118.5 49.3893Z" fill="url(#paint22_linear_917_80881)"/>
</g>
<g style="mix-blend-mode:color-dodge" opacity="0.9">
<path d="M38.8917 104.412C38.8917 104.412 38.8434 104.673 38.7299 104.735L26.2267 113.2C26.0576 113.321 25.8245 113.272 25.7028 113.104C25.6718 113.047 25.6398 112.962 25.6377 112.904C25.6325 112.76 25.6861 112.643 25.7996 112.581L38.3027 104.116C38.4729 104.023 38.7049 104.044 38.8277 104.241C38.8587 104.298 38.8907 104.383 38.8928 104.44L38.8917 104.412Z" fill="url(#paint23_linear_917_80881)"/>
</g>
<g style="mix-blend-mode:color-dodge" opacity="0.9">
<path d="M172.698 84.064C172.698 84.064 172.651 84.3539 172.48 84.4178L107.237 117.706C107.237 117.706 107.007 117.743 106.948 117.717C106.89 117.719 106.772 117.636 106.71 117.523C106.708 117.466 106.677 117.409 106.674 117.352C106.669 117.208 106.751 117.061 106.893 116.998L172.136 83.7096C172.306 83.617 172.54 83.695 172.634 83.8933C172.636 83.9509 172.667 84.0074 172.669 84.065L172.698 84.064Z" fill="url(#paint24_linear_917_80881)"/>
</g>
<g style="mix-blend-mode:color-dodge" opacity="0.9">
<path d="M116.476 57.3891C116.483 57.5906 116.345 57.7685 116.143 57.7758L35.2808 70.9335C35.0787 70.9409 34.8724 70.833 34.8352 70.6038C34.8268 70.3735 34.965 70.1955 35.1661 70.1594L116 57.0028C116 57.0028 116.232 57.0232 116.291 57.0787C116.35 57.1054 116.44 57.1886 116.445 57.3325L116.447 57.3901L116.476 57.3891Z" fill="url(#paint25_linear_917_80881)"/>
</g>
<g style="mix-blend-mode:color-dodge" opacity="0.9">
<path d="M172.914 84.364C172.914 84.364 172.839 84.6838 172.668 84.7476L112.773 136.472C112.573 136.537 112.367 136.429 112.302 136.23L112.3 136.172C112.291 135.942 112.373 135.795 112.544 135.731L172.439 84.0065C172.61 83.9426 172.845 84.0494 172.91 84.2488L172.914 84.364Z" fill="url(#paint26_linear_917_80881)"/>
</g>
<g style="mix-blend-mode:color-dodge" opacity="0.9">
<path d="M113.019 136.089C113.026 136.261 112.888 136.439 112.715 136.474L24.3906 156.762C24.1895 156.798 23.9543 156.691 23.9171 156.462C23.9077 156.203 24.0469 156.054 24.2191 156.019L112.545 135.76C112.545 135.76 112.805 135.751 112.836 135.807C112.895 135.834 112.984 135.917 113.018 136.06L113.022 136.146L113.019 136.089Z" fill="url(#paint27_linear_917_80881)"/>
</g>
<path d="M88.1536 108.135L116.501 110.021L107.817 90.5905L88.1536 108.135Z" fill="url(#paint28_linear_917_80881)" fill-opacity="0.04"/>
</g>
<g clip-path="url(#clip1_917_80881)">
<path d="M114.228 54.8443L118.823 50.2496L140.386 71.8105L135.791 76.407L114.228 54.8443Z" stroke="white" stroke-width="1.5"/>
<path d="M154.462 57.7344L154.462 57.7347L144.273 67.9233L122.711 46.3605L132.901 36.1719L132.901 36.1715C134.428 34.6425 136.457 33.8018 138.618 33.8018C140.781 33.8018 142.81 34.6428 144.337 36.1716L144.337 36.1718L154.462 46.2987L154.462 46.2991C155.991 47.8262 156.832 49.855 156.832 52.0178C156.832 54.1766 155.991 56.2073 154.462 57.7344Z" stroke="white" stroke-width="1.5"/>
<path d="M42.4042 128.12L61.6544 148.382L39.8558 152.23C39.8552 152.23 39.8546 152.231 39.854 152.231C39.7794 152.243 39.7065 152.249 39.6347 152.249C39.3057 152.249 38.989 152.121 38.7512 151.883C38.4644 151.596 38.3341 151.185 38.4054 150.782L38.4055 150.782L42.4042 128.12Z" stroke="white" stroke-width="1.5"/>
<path d="M45.5858 123.487L110.339 58.7335L119.176 67.5707L54.1964 132.551L45.5858 123.487Z" stroke="white" stroke-width="1.5"/>
<path d="M57.9842 136.539L123.065 71.4583L131.902 80.2954L66.5961 145.604L57.9842 136.539Z" stroke="white" stroke-width="1.5"/>
<path d="M68.72 85.6617L78.0862 76.2934C78.0863 76.2934 78.0863 76.2933 78.0863 76.2933C79.1604 75.2194 79.1617 73.4791 78.087 72.4057C77.0136 71.3295 75.2725 71.3305 74.198 72.405L74.1979 72.4051L64.8313 81.7737L63.0626 80.0064L69.6033 73.4658C69.6033 73.4657 69.6033 73.4657 69.6033 73.4657C70.6777 72.3916 70.6788 70.6508 69.6034 69.5775C68.5287 68.5024 66.79 68.5025 65.7151 69.5773C65.7151 69.5773 65.7151 69.5774 65.715 69.5774L59.1742 76.1162L57.4072 74.3492L66.775 64.9813L68.72 85.6617ZM68.72 85.6617L71.4351 88.375L71.4367 88.3766C71.6788 88.62 71.9963 88.7414 72.3187 88.7414C72.6384 88.7414 72.9571 88.6203 73.2022 88.3752L92.9979 68.5795L92.998 68.5794C93.487 68.0906 93.487 67.3015 92.998 66.8126L92.9979 66.8125L61.4738 35.2863C61.4737 35.2863 61.4736 35.2862 61.4735 35.2861C59.4243 33.2389 56.094 33.2397 54.0494 35.2859L54.0491 35.2861L39.9067 49.4265C37.8599 51.4733 37.8599 54.804 39.9067 56.8509L42.2041 59.1482L51.5747 49.7796C51.5747 49.7796 51.5747 49.7796 51.5747 49.7796C52.6479 48.7065 54.3882 48.7074 55.4624 49.779L55.4637 49.7803C56.5352 50.8547 56.5362 52.5947 55.463 53.6679L46.0943 63.0367L47.8616 64.8054L54.4023 58.2647C55.4755 57.1915 57.2158 57.1924 58.29 58.264L58.2913 58.2653C59.3629 59.3395 59.3638 61.0798 58.2906 62.153L51.7499 68.6937L53.5186 70.4611L62.8874 61.0923C63.9605 60.0192 65.7009 60.0201 66.7751 61.0917L66.7757 61.0923C67.85 62.1666 67.8512 63.9072 66.7757 64.9806L68.72 85.6617Z" stroke="white" stroke-width="1.5"/>
<path d="M134.65 130.027L134.649 130.027C133.393 131.281 133.393 133.328 134.649 134.585C135.907 135.839 137.954 135.838 139.206 134.585C140.463 133.329 140.463 131.284 139.206 130.027C139.206 130.027 139.206 130.027 139.206 130.027M134.65 130.027L134.119 129.496C134.893 128.722 135.911 128.336 136.929 128.336C137.947 128.336 138.963 128.722 139.737 129.496L139.206 130.027M134.65 130.027C135.276 129.4 136.1 129.086 136.929 129.086C137.757 129.086 138.579 129.4 139.206 130.027M134.65 130.027L139.206 130.027" stroke="white" stroke-width="1.5"/>
<path d="M155.713 129.524L155.713 129.524L122.822 96.6379L122.822 96.6378C122.333 96.1487 121.544 96.1488 121.055 96.6378L121.055 96.6378L101.26 116.433C101.26 116.433 101.26 116.433 101.26 116.433C100.771 116.923 100.771 117.712 101.26 118.2L101.26 118.201L104.425 121.367L110.964 114.827L110.964 114.827C112.039 113.752 113.777 113.752 114.852 114.827C115.927 115.902 115.927 117.64 114.852 118.715C114.852 118.715 114.852 118.715 114.852 118.715L108.313 125.256L110.08 127.023L119.449 117.654C120.524 116.58 122.263 116.58 123.337 117.654L123.337 117.655C124.411 118.729 124.413 120.469 123.337 121.543L155.713 129.524ZM155.713 129.524C157.257 131.067 157.257 133.582 155.713 135.124L155.713 135.124L139.747 151.091C138.976 151.861 137.964 152.247 136.947 152.247C135.931 152.247 134.917 151.861 134.146 151.091C134.146 151.091 134.146 151.091 134.146 151.091L113.969 130.911L123.337 121.543L155.713 129.524ZM130.759 138.473L130.76 138.474C132.463 140.174 134.697 141.023 136.929 141.023C139.159 141.023 141.396 140.174 143.095 138.473C146.496 135.072 146.495 129.54 143.095 126.138C139.696 122.737 134.162 122.742 130.76 126.137L130.759 126.138C127.361 129.54 127.361 135.072 130.759 138.473Z" stroke="white" stroke-width="1.5"/>
</g>
<defs>
<linearGradient id="paint0_linear_917_80881" x1="60.242" y1="151.862" x2="100.41" y2="150.409" gradientUnits="userSpaceOnUse">
<stop stop-color="#C91EFE"/>
<stop offset="1" stop-color="#4A68F2"/>
</linearGradient>
<linearGradient id="paint1_linear_917_80881" x1="88.4195" y1="126.678" x2="117.903" y2="125.612" gradientUnits="userSpaceOnUse">
<stop stop-color="#C91EFE"/>
<stop offset="1" stop-color="#4A68F2"/>
</linearGradient>
<linearGradient id="paint2_linear_917_80881" x1="47.5799" y1="153.546" x2="61.0657" y2="153.058" gradientUnits="userSpaceOnUse">
<stop stop-color="#C91EFE"/>
<stop offset="1" stop-color="#4A68F2"/>
</linearGradient>
<linearGradient id="paint3_linear_917_80881" x1="96.1285" y1="40.0378" x2="125.41" y2="38.9786" gradientUnits="userSpaceOnUse">
<stop stop-color="#C91EFE"/>
<stop offset="1" stop-color="#4A68F2"/>
</linearGradient>
<linearGradient id="paint4_linear_917_80881" x1="87.8015" y1="109.591" x2="116.794" y2="108.542" gradientUnits="userSpaceOnUse">
<stop stop-color="#C91EFE"/>
<stop offset="1" stop-color="#4A68F2"/>
</linearGradient>
<linearGradient id="paint5_linear_917_80881" x1="46.5651" y1="126.293" x2="89.1304" y2="124.753" gradientUnits="userSpaceOnUse">
<stop stop-color="#C91EFE"/>
<stop offset="1" stop-color="#4A68F2"/>
</linearGradient>
<linearGradient id="paint6_linear_917_80881" x1="107.857" y1="100.472" x2="116.549" y2="100.158" gradientUnits="userSpaceOnUse">
<stop stop-color="#C91EFE"/>
<stop offset="1" stop-color="#4A68F2"/>
</linearGradient>
<linearGradient id="paint7_linear_917_80881" x1="87.137" y1="46.4595" x2="97.1285" y2="46.0981" gradientUnits="userSpaceOnUse">
<stop stop-color="#C91EFE"/>
<stop offset="1" stop-color="#4A68F2"/>
</linearGradient>
<linearGradient id="paint8_linear_917_80881" x1="47.2519" y1="146.075" x2="81.6449" y2="144.831" gradientUnits="userSpaceOnUse">
<stop stop-color="#C91EFE"/>
<stop offset="1" stop-color="#4A68F2"/>
</linearGradient>
<linearGradient id="paint9_linear_917_80881" x1="69.966" y1="65.773" x2="87.148" y2="65.1515" gradientUnits="userSpaceOnUse">
<stop stop-color="#C91EFE"/>
<stop offset="1" stop-color="#4A68F2"/>
</linearGradient>
<linearGradient id="paint10_linear_917_80881" x1="86.12" y1="59.914" x2="88.4014" y2="59.8315" gradientUnits="userSpaceOnUse">
<stop stop-color="#C91EFE"/>
<stop offset="1" stop-color="#4A68F2"/>
</linearGradient>
<linearGradient id="paint11_linear_917_80881" x1="106.13" y1="83.1142" x2="107.978" y2="83.0474" gradientUnits="userSpaceOnUse">
<stop stop-color="#C91EFE"/>
<stop offset="1" stop-color="#4A68F2"/>
</linearGradient>
<linearGradient id="paint12_linear_917_80881" x1="66.8924" y1="133.477" x2="81.2444" y2="132.957" gradientUnits="userSpaceOnUse">
<stop stop-color="#C91EFE"/>
<stop offset="1" stop-color="#4A68F2"/>
</linearGradient>
<linearGradient id="paint13_linear_917_80881" x1="157.378" y1="69.7877" x2="171.73" y2="69.2685" gradientUnits="userSpaceOnUse">
<stop stop-color="#C91EFE"/>
<stop offset="1" stop-color="#4A68F2"/>
</linearGradient>
<linearGradient id="paint14_linear_917_80881" x1="73.7263" y1="94.5908" x2="108.321" y2="93.3393" gradientUnits="userSpaceOnUse">
<stop stop-color="#C91EFE"/>
<stop offset="1" stop-color="#4A68F2"/>
</linearGradient>
<linearGradient id="paint15_linear_917_80881" x1="39.1996" y1="91.3417" x2="46.2457" y2="91.0868" gradientUnits="userSpaceOnUse">
<stop stop-color="#C91EFE"/>
<stop offset="1" stop-color="#4A68F2"/>
</linearGradient>
<linearGradient id="paint16_linear_917_80881" x1="65.9721" y1="108.04" x2="74.953" y2="107.715" gradientUnits="userSpaceOnUse">
<stop stop-color="#C91EFE"/>
<stop offset="1" stop-color="#4A68F2"/>
</linearGradient>
<linearGradient id="paint17_linear_917_80881" x1="4.07425" y1="77.9298" x2="39.449" y2="76.6502" gradientUnits="userSpaceOnUse">
<stop stop-color="#C91EFE"/>
<stop offset="1" stop-color="#4A68F2"/>
</linearGradient>
<linearGradient id="paint18_linear_917_80881" x1="38.1714" y1="104.481" x2="46.6613" y2="104.174" gradientUnits="userSpaceOnUse">
<stop stop-color="#C91EFE"/>
<stop offset="1" stop-color="#4A68F2"/>
</linearGradient>
<linearGradient id="paint19_linear_917_80881" x1="23.318" y1="77.5477" x2="39.4605" y2="76.9637" gradientUnits="userSpaceOnUse">
<stop stop-color="#C91EFE"/>
<stop offset="1" stop-color="#4A68F2"/>
</linearGradient>
<linearGradient id="paint20_linear_917_80881" x1="38.3824" y1="111.912" x2="66.7977" y2="110.884" gradientUnits="userSpaceOnUse">
<stop stop-color="#C91EFE"/>
<stop offset="1" stop-color="#4A68F2"/>
</linearGradient>
<linearGradient id="paint21_linear_917_80881" x1="4.02956" y1="76.6902" x2="24.0127" y2="75.9673" gradientUnits="userSpaceOnUse">
<stop stop-color="#C91EFE"/>
<stop offset="1" stop-color="#4A68F2"/>
</linearGradient>
<linearGradient id="paint22_linear_917_80881" x1="85.1051" y1="48.6533" x2="118.43" y2="47.4478" gradientUnits="userSpaceOnUse">
<stop stop-color="#C91EFE"/>
<stop offset="1" stop-color="#4A68F2"/>
</linearGradient>
<linearGradient id="paint23_linear_917_80881" x1="25.4933" y1="108.91" x2="39.0367" y2="108.42" gradientUnits="userSpaceOnUse">
<stop stop-color="#C91EFE"/>
<stop offset="1" stop-color="#4A68F2"/>
</linearGradient>
<linearGradient id="paint24_linear_917_80881" x1="106.116" y1="101.912" x2="173.256" y2="99.4832" gradientUnits="userSpaceOnUse">
<stop stop-color="#C91EFE"/>
<stop offset="1" stop-color="#4A68F2"/>
</linearGradient>
<linearGradient id="paint25_linear_917_80881" x1="34.6488" y1="65.451" x2="116.66" y2="62.4843" gradientUnits="userSpaceOnUse">
<stop stop-color="#C91EFE"/>
<stop offset="1" stop-color="#4A68F2"/>
</linearGradient>
<linearGradient id="paint26_linear_917_80881" x1="111.89" y1="124.859" x2="187.289" y2="122.132" gradientUnits="userSpaceOnUse">
<stop stop-color="#C91EFE"/>
<stop offset="1" stop-color="#4A68F2"/>
</linearGradient>
<linearGradient id="paint27_linear_917_80881" x1="23.6069" y1="147.886" x2="113.329" y2="144.64" gradientUnits="userSpaceOnUse">
<stop stop-color="#C91EFE"/>
<stop offset="1" stop-color="#4A68F2"/>
</linearGradient>
<linearGradient id="paint28_linear_917_80881" x1="102.38" y1="110.532" x2="101.667" y2="90.813" gradientUnits="userSpaceOnUse">
<stop offset="0.07" stop-color="white"/>
<stop offset="0.56" stop-color="#EBCFCF"/>
</linearGradient>
<clipPath id="clip0_917_80881">
<rect width="176" height="183" fill="white" transform="translate(6.36279 182.75) rotate(-92.0717)"/>
</clipPath>
<clipPath id="clip1_917_80881">
<rect width="120" height="120" fill="white" transform="translate(37.6216 33)"/>
</clipPath>
</defs>
</svg>
