<svg width="236" height="242" viewBox="0 0 236 242" fill="none" xmlns="http://www.w3.org/2000/svg">
<g clip-path="url(#clip0_917_80779)">
<path style="mix-blend-mode:color-dodge" d="M56.0025 85.405C56.6178 85.1626 56.9259 84.4543 56.6836 83.8393C56.4413 83.2242 55.7329 82.9164 55.1176 83.1589C54.5023 83.4013 54.1942 84.1096 54.4365 84.7246C54.6787 85.3396 55.3872 85.6474 56.0025 85.405Z" fill="white"/>
<path style="mix-blend-mode:color-dodge" d="M51.0381 119.085C51.6882 118.829 52.4228 119.148 52.6788 119.798C52.9348 120.448 52.6153 121.182 51.9652 121.438C51.3151 121.694 50.5806 121.375 50.3246 120.725C50.0686 120.076 50.388 119.341 51.0381 119.085Z" fill="white"/>
<path style="mix-blend-mode:color-dodge" d="M34.4564 98.8048C35.1252 98.5413 35.4228 97.8063 35.17 97.1645C34.9171 96.5228 34.1714 96.1987 33.5293 96.4517C32.8873 96.7046 32.5629 97.4502 32.8158 98.092C33.0686 98.7338 33.8143 99.0578 34.4564 98.8048Z" fill="white"/>
<path style="mix-blend-mode:color-dodge" d="M89.5926 67.1977C90.2575 66.9358 91.0087 67.2622 91.2706 67.9268C91.5324 68.5913 91.2056 69.3424 90.5408 69.6043C89.8759 69.8663 89.1247 69.5399 88.8629 68.8753C88.601 68.2108 88.9278 67.4597 89.5926 67.1977Z" fill="white"/>
<path style="mix-blend-mode:color-dodge" d="M87.7466 105.735C88.441 105.461 89.2256 105.802 89.4991 106.496C89.7725 107.19 89.4313 107.975 88.7368 108.248C88.0424 108.522 87.2578 108.181 86.9844 107.487C86.7109 106.793 87.0522 106.008 87.7466 105.735Z" fill="white"/>
<path style="mix-blend-mode:color-dodge" d="M68.0845 83.5178C68.7801 83.2438 69.1206 82.4609 68.8467 81.7657C68.5728 81.0705 67.7898 80.7302 67.0942 81.0043C66.3987 81.2783 66.0581 82.0612 66.332 82.7564C66.6059 83.4516 67.3889 83.7919 68.0845 83.5178Z" fill="url(#paint0_radial_917_80779)"/>
<path style="mix-blend-mode:color-dodge" d="M70.8064 146.357C71.5287 146.072 71.9122 145.242 71.6172 144.493C71.3223 143.744 70.502 143.388 69.7529 143.683C69.0038 143.978 68.647 144.798 68.942 145.547C69.237 146.296 70.0573 146.652 70.8064 146.357Z" fill="white"/>
<path style="mix-blend-mode:color-dodge" d="M122.003 62.8622C122.752 62.5671 123.109 61.7469 122.814 60.9982C122.519 60.2495 121.698 59.8931 120.949 60.1882C120.2 60.4833 119.843 61.3035 120.138 62.0522C120.433 62.8009 121.254 63.1573 122.003 62.8622Z" fill="white"/>
<path style="mix-blend-mode:color-dodge" d="M53.4226 129.297C54.1716 129.002 54.5179 128.155 54.2335 127.433C53.949 126.711 53.0914 126.338 52.3691 126.623C51.6468 126.907 51.2738 127.765 51.5582 128.487C51.8427 129.209 52.7003 129.581 53.4226 129.297Z" fill="white"/>
<path style="mix-blend-mode:color-dodge" d="M113.442 98.9469C114.192 98.6517 114.565 97.7943 114.27 97.0456C113.975 96.2969 113.117 95.9243 112.368 96.2194C111.619 96.5145 111.246 97.3719 111.541 98.1206C111.836 98.8694 112.693 99.242 113.442 98.9469Z" fill="white"/>
<path style="mix-blend-mode:color-dodge" d="M83.7506 77.3146C84.5189 77.0119 85.387 77.389 85.6895 78.157C85.9921 78.9249 85.6145 79.7928 84.8462 80.0955C84.0779 80.3982 83.2098 80.021 82.9073 79.2531C82.6047 78.4852 82.9823 77.6172 83.7506 77.3146Z" fill="white"/>
<path style="mix-blend-mode:color-dodge" d="M89.2621 135.781C90.0452 135.472 90.93 135.857 91.2383 136.639C91.5467 137.422 91.1619 138.307 90.3788 138.615C89.5957 138.924 88.711 138.539 88.4026 137.757C88.0942 136.974 88.4791 136.089 89.2621 135.781Z" fill="white"/>
<path style="mix-blend-mode:color-dodge" d="M66.0627 121.846C66.8606 121.531 67.7621 121.923 68.0762 122.721C68.3904 123.518 67.9983 124.419 67.2005 124.734C66.4026 125.048 65.5012 124.656 65.187 123.859C64.8728 123.061 65.2649 122.16 66.0627 121.846Z" fill="white"/>
<path style="mix-blend-mode:color-dodge" d="M169.043 62.4001C169.846 62.0839 170.235 61.1892 169.919 60.387C169.603 59.5848 168.708 59.196 167.906 59.5122C167.103 59.8284 166.714 60.7231 167.03 61.5253C167.346 62.3275 168.241 62.7163 169.043 62.4001Z" fill="white"/>
<path style="mix-blend-mode:color-dodge" d="M146.049 87.183C146.851 86.8668 147.257 85.9348 146.94 85.1326C146.624 84.3305 145.692 83.9254 144.89 84.2416C144.087 84.5578 143.682 85.4898 143.998 86.292C144.314 87.0942 145.246 87.4992 146.049 87.183Z" fill="url(#paint1_radial_917_80779)"/>
<path style="mix-blend-mode:color-dodge" d="M70.027 175.052C70.8296 174.735 71.2351 173.803 70.919 173.001C70.603 172.199 69.6708 171.794 68.8682 172.11C68.0656 172.426 67.6602 173.358 67.9763 174.161C68.2923 174.963 69.2245 175.368 70.027 175.052Z" fill="url(#paint2_radial_917_80779)"/>
<path style="mix-blend-mode:color-dodge" d="M121.374 41.7338C122.187 41.4137 123.105 41.8126 123.425 42.6248C123.745 43.4371 123.346 44.3551 122.533 44.6752C121.72 44.9954 120.802 44.5964 120.482 43.7842C120.162 42.9719 120.561 42.054 121.374 41.7338Z" fill="white"/>
<path style="mix-blend-mode:color-dodge" d="M28.3104 83.9896C29.1378 83.6637 30.0727 84.0698 30.3985 84.8968C30.7243 85.7239 30.3177 86.6585 29.4903 86.9845C28.6629 87.3105 27.7281 86.9043 27.4022 86.0773C27.0764 85.2503 27.483 84.3156 28.3104 83.9896Z" fill="white"/>
<path style="mix-blend-mode:color-dodge" d="M81.4552 170.797C82.2845 170.47 82.6899 169.538 82.3634 168.709C82.0368 167.88 81.1046 167.475 80.2753 167.802C79.446 168.129 79.0405 169.061 79.3671 169.89C79.6937 170.719 80.6258 171.124 81.4552 170.797Z" fill="white"/>
<path style="mix-blend-mode:color-dodge" d="M135.353 115.182C136.182 114.855 136.587 113.923 136.261 113.094C135.934 112.265 135.002 111.86 134.173 112.187C133.343 112.514 132.938 113.446 133.265 114.275C133.591 115.103 134.523 115.508 135.353 115.182Z" fill="url(#paint3_radial_917_80779)"/>
<path style="mix-blend-mode:color-dodge" d="M96.6143 83.9235C97.4437 83.5967 97.8491 82.6647 97.5225 81.8358C97.196 81.0069 96.2638 80.6019 95.4345 80.9286C94.6051 81.2553 94.1997 82.1873 94.5263 83.0162C94.8528 83.8452 95.785 84.2502 96.6143 83.9235Z" fill="white"/>
<path style="mix-blend-mode:color-dodge" d="M82.6118 111.372C83.4688 111.034 84.437 111.455 84.7745 112.311C85.1119 113.168 84.6908 114.136 83.8339 114.474C82.9769 114.811 82.0087 114.391 81.6712 113.534C81.3338 112.678 81.7549 111.709 82.6118 111.372Z" fill="white"/>
<path style="mix-blend-mode:color-dodge" d="M118.805 156.484C119.661 156.147 120.082 155.177 119.745 154.322C119.408 153.466 118.439 153.045 117.583 153.382C116.726 153.719 116.305 154.689 116.642 155.544C116.979 156.4 117.948 156.821 118.805 156.484Z" fill="white"/>
<path style="mix-blend-mode:color-dodge" d="M90.2132 194.283C91.0849 193.939 92.0699 194.367 92.4131 195.239C92.7564 196.11 92.328 197.095 91.4563 197.438C90.5846 197.782 89.5997 197.354 89.2564 196.482C88.9131 195.611 89.3415 194.626 90.2132 194.283Z" fill="white"/>
<path style="mix-blend-mode:color-dodge" d="M73.8522 149.852C74.735 149.504 75.1729 148.498 74.8253 147.615C74.4776 146.733 73.4814 146.322 72.5986 146.67C71.7158 147.018 71.2779 148.024 71.615 148.88C71.9521 149.736 72.9694 150.2 73.8522 149.852Z" fill="url(#paint4_radial_917_80779)"/>
<path style="mix-blend-mode:color-dodge" d="M151.361 73.1352C152.244 72.7874 152.682 71.7808 152.334 70.8984C151.986 70.016 150.98 69.5786 150.097 69.9264C149.214 70.2742 148.776 71.2808 149.124 72.1632C149.471 73.0456 150.478 73.483 151.361 73.1352Z" fill="white"/>
<path style="mix-blend-mode:color-dodge" d="M181.853 138.842C182.762 138.484 183.2 137.477 182.842 136.568C182.484 135.659 181.477 135.221 180.567 135.58C179.658 135.938 179.22 136.945 179.578 137.854C179.936 138.763 180.943 139.2 181.853 138.842Z" fill="white"/>
<path style="mix-blend-mode:color-dodge" d="M83.8428 210.354C84.7524 209.995 85.1903 208.989 84.8321 208.08C84.4739 207.17 83.4672 206.733 82.5576 207.091C81.648 207.45 81.2101 208.456 81.5683 209.365C81.9265 210.275 82.9333 210.712 83.8428 210.354Z" fill="white"/>
<path style="mix-blend-mode:color-dodge" d="M115.299 120.21C116.208 119.852 116.646 118.845 116.288 117.936C115.93 117.027 114.923 116.59 114.014 116.948C113.104 117.306 112.666 118.313 113.024 119.222C113.383 120.131 114.389 120.568 115.299 120.21Z" fill="white"/>
<path style="mix-blend-mode:color-dodge" d="M38.2996 82.1241C39.2157 81.7632 40.2507 82.2129 40.6114 83.1285C40.9721 84.0441 40.522 85.0789 39.6059 85.4398C38.6899 85.8007 37.6548 85.351 37.2941 84.4354C36.9334 83.5198 37.3836 82.485 38.2996 82.1241Z" fill="white"/>
<path style="mix-blend-mode:color-dodge" d="M94.8495 151.063C95.7858 150.694 96.2399 149.65 95.8712 148.714C95.5025 147.779 94.4584 147.325 93.5221 147.694C92.5858 148.063 92.1317 149.107 92.5004 150.042C92.8691 150.978 93.9131 151.432 94.8495 151.063Z" fill="white"/>
<path style="mix-blend-mode:color-dodge" d="M164.872 166.105C165.808 165.736 166.262 164.692 165.894 163.756C165.525 162.821 164.481 162.367 163.545 162.736C162.608 163.105 162.154 164.149 162.523 165.084C162.892 166.02 163.936 166.474 164.872 166.105Z" fill="url(#paint5_radial_917_80779)"/>
<path style="mix-blend-mode:color-dodge" d="M74.5364 181.554C75.4994 181.175 75.9698 180.093 75.5905 179.131C75.2113 178.168 74.1299 177.698 73.1669 178.078C72.2038 178.457 71.7602 179.528 72.1395 180.49C72.5187 181.453 73.6 181.923 74.5364 181.554Z" fill="white"/>
<path style="mix-blend-mode:color-dodge" d="M134.369 198.973C135.332 198.594 135.802 197.513 135.423 196.55C135.044 195.587 133.962 195.118 132.999 195.497C132.036 195.876 131.566 196.957 131.945 197.92C132.324 198.883 133.406 199.353 134.369 198.973Z" fill="white"/>
<path style="mix-blend-mode:color-dodge" d="M96.6751 236.651C97.6354 236.273 98.7205 236.744 99.0987 237.704C99.4769 238.664 99.0049 239.749 98.0446 240.127C97.0842 240.506 95.9991 240.034 95.6209 239.074C95.2427 238.114 95.7147 237.03 96.6751 236.651Z" fill="white"/>
<path style="mix-blend-mode:color-dodge" d="M78.5319 66.8911C79.495 66.5117 79.9653 65.4306 79.586 64.4679C79.2068 63.5053 78.1254 63.0355 77.1624 63.4149C76.1993 63.7944 75.729 64.8755 76.1082 65.8381C76.4875 66.8007 77.5688 67.2705 78.5319 66.8911Z" fill="url(#paint6_radial_917_80779)"/>
<path style="mix-blend-mode:color-dodge" d="M188.23 71.7998C189.193 71.4204 189.663 70.3393 189.284 69.3766C188.905 68.414 187.824 67.9442 186.861 68.3236C185.898 68.703 185.427 69.7841 185.806 70.7468C186.186 71.7094 187.267 72.1792 188.23 71.7998Z" fill="white"/>
<path style="mix-blend-mode:color-dodge" d="M148.869 130.585C149.832 130.205 150.329 129.114 149.94 128.124C149.55 127.135 148.468 126.665 147.479 127.055C146.489 127.445 146.018 128.526 146.408 129.515C146.798 130.505 147.879 130.975 148.869 130.585Z" fill="white"/>
<path style="mix-blend-mode:color-dodge" d="M49.0176 113.487C50.0074 113.097 50.4672 111.989 50.088 111.026C49.7087 110.063 48.5901 109.577 47.627 109.957C46.6639 110.336 46.1774 111.455 46.5567 112.417C46.9359 113.38 48.0545 113.866 49.0176 113.487Z" fill="url(#paint7_radial_917_80779)"/>
<path style="mix-blend-mode:color-dodge" d="M187.644 192.842C188.634 192.452 189.12 191.334 188.731 190.344C188.341 189.355 187.222 188.869 186.232 189.259C185.242 189.649 184.756 190.767 185.146 191.757C185.536 192.746 186.654 193.232 187.644 192.842Z" fill="url(#paint8_radial_917_80779)"/>
<path style="mix-blend-mode:color-dodge" d="M120.646 172.377C121.636 171.987 122.122 170.869 121.732 169.88C121.343 168.89 120.224 168.404 119.234 168.794C118.244 169.184 117.758 170.303 118.148 171.292C118.537 172.281 119.656 172.767 120.646 172.377Z" fill="white"/>
<path style="mix-blend-mode:color-dodge" d="M90.0197 210.422C91.0363 210.021 91.5391 208.866 91.1388 207.849C90.7384 206.833 89.5825 206.331 88.5659 206.732C87.5494 207.132 87.0466 208.288 87.4469 209.304C87.8473 210.32 89.0032 210.822 90.0197 210.422Z" fill="white"/>
<path style="mix-blend-mode:color-dodge" d="M156.17 236.503C157.219 236.09 158.404 236.605 158.817 237.653C159.231 238.702 158.715 239.887 157.666 240.3C156.617 240.713 155.432 240.198 155.019 239.15C154.606 238.101 155.121 236.916 156.17 236.503Z" fill="white"/>
<path style="mix-blend-mode:color-dodge" d="M20.2305 106.596C21.2943 106.177 22.4962 106.699 22.9151 107.762C23.334 108.825 22.8113 110.027 21.7475 110.446C20.6837 110.865 19.4817 110.343 19.0628 109.28C18.6439 108.217 19.1667 107.015 20.2305 106.596Z" fill="white"/>
<path style="mix-blend-mode:color-dodge" d="M160.392 170.032C161.462 169.61 161.998 168.38 161.576 167.31C161.155 166.241 159.924 165.706 158.854 166.128C157.784 166.549 157.249 167.78 157.67 168.849C158.092 169.919 159.322 170.453 160.392 170.032Z" fill="white"/>
<path style="mix-blend-mode:color-dodge" d="M112.219 67.3656C113.316 66.9334 113.851 65.7032 113.419 64.6069C112.987 63.5106 111.757 62.9759 110.66 63.4081C109.563 63.8402 109.028 65.0704 109.46 66.1668C109.892 67.2631 111.122 67.7977 112.219 67.3656Z" fill="url(#paint9_radial_917_80779)"/>
<path style="mix-blend-mode:color-dodge" d="M137.455 225.867C138.552 225.435 139.103 224.168 138.671 223.071C138.239 221.975 136.971 221.424 135.874 221.856C134.778 222.288 134.226 223.556 134.658 224.652C135.09 225.749 136.358 226.299 137.455 225.867Z" fill="white"/>
<path style="mix-blend-mode:color-dodge" d="M68.1113 186.896C69.2349 186.454 69.7863 185.186 69.3438 184.063C68.9014 182.94 67.6336 182.389 66.51 182.832C65.3864 183.274 64.835 184.542 65.2775 185.665C65.7199 186.788 66.9877 187.339 68.1113 186.896Z" fill="url(#paint10_radial_917_80779)"/>
<path style="mix-blend-mode:color-dodge" d="M86.5383 131.85C87.6612 131.407 88.93 131.959 89.3722 133.081C89.8143 134.203 89.2625 135.472 88.1396 135.914C87.0167 136.357 85.748 135.805 85.3058 134.683C84.8636 133.561 85.4155 132.292 86.5383 131.85Z" fill="white"/>
<g style="mix-blend-mode:color-dodge" opacity="0.9">
<path d="M37.4737 59.8683C37.4737 59.8683 37.3286 60.049 37.3229 60.113C37.3172 60.177 37.3059 60.3051 37.3748 60.4015L55.2169 84.5095C55.3336 84.6489 55.5095 84.7031 55.67 84.6399C55.8629 84.5021 55.9116 84.3903 55.9173 84.3262C55.923 84.2622 55.9343 84.1342 55.8387 84.0483L37.9593 59.9241C37.9593 59.9241 37.6772 59.7572 37.5167 59.8204C37.4899 59.831 37.4632 59.8415 37.4364 59.8521L37.4737 59.8683Z" fill="url(#paint11_linear_917_80779)"/>
</g>
<g style="mix-blend-mode:color-dodge" opacity="0.9">
<path d="M55.412 83.9074C55.412 83.9074 55.1923 84.0557 55.1647 84.2211L51.1059 120.201C51.0889 120.393 51.2534 120.575 51.4561 120.619C51.5201 120.625 51.5842 120.63 51.6644 120.599C51.7714 120.556 51.8841 120.45 51.9117 120.285L55.9542 84.3425C55.9542 84.3425 55.9234 84.1075 55.8489 84.0751C55.8278 84.0216 55.7322 83.9357 55.5773 83.9349C55.5133 83.9293 55.4492 83.9236 55.3957 83.9447L55.412 83.9074Z" fill="url(#paint12_linear_917_80779)"/>
</g>
<g style="mix-blend-mode:color-dodge" opacity="0.9">
<path d="M37.5331 59.7831C37.5331 59.7831 37.3134 59.9315 37.2858 60.0968L33.5981 97.5676C33.5811 97.7596 33.7456 97.9419 33.9483 97.9856C34.0123 97.9913 34.0764 97.9969 34.1299 97.9759C34.2369 97.9337 34.3496 97.8275 34.3771 97.6622L38.0648 60.1915C38.0713 59.9727 37.9068 59.7904 37.7147 59.7734C37.6612 59.7945 37.5971 59.7888 37.5436 59.8099L37.5331 59.7831Z" fill="url(#paint13_linear_917_80779)"/>
</g>
<g style="mix-blend-mode:color-dodge" opacity="0.9">
<path d="M33.8556 97.2811C33.8556 97.2811 33.8021 97.3021 33.7486 97.3232C33.5824 97.4505 33.5224 97.6903 33.6601 97.8832L51.1579 120.49C51.2641 120.602 51.44 120.657 51.6005 120.593C51.7935 120.456 51.8421 120.344 51.8478 120.28C51.8535 120.216 51.8649 120.088 51.7692 120.002L34.2714 97.3952C34.1652 97.2826 33.9893 97.2284 33.8288 97.2916L33.8556 97.2811Z" fill="url(#paint14_linear_917_80779)"/>
</g>
<g style="mix-blend-mode:color-dodge" opacity="0.9">
<path d="M66.467 45.6038C66.467 45.6038 66.36 45.646 66.317 45.6938C66.2043 45.8 66.2197 45.9175 66.214 45.9815C66.2351 46.035 66.2237 46.163 66.3194 46.2489L89.7818 68.6987C89.7818 68.6987 90.0534 68.8388 90.1871 68.7861C90.2406 68.7651 90.2941 68.744 90.3371 68.6962C90.423 68.6005 90.4344 68.4725 90.4401 68.4085C90.419 68.355 90.4304 68.2269 90.3347 68.1411L66.8723 45.6913C66.8723 45.6913 66.6007 45.5511 66.467 45.6038Z" fill="url(#paint15_linear_917_80779)"/>
</g>
<g style="mix-blend-mode:color-dodge" opacity="0.9">
<path d="M89.9297 68.0534C89.7959 68.1061 89.6937 68.239 89.6929 68.3938L87.8679 106.984C87.8614 107.203 88.0154 107.358 88.2448 107.392C88.2983 107.371 88.3624 107.376 88.4159 107.355C88.5496 107.302 88.6518 107.17 88.6526 107.015L90.4776 68.4244C90.4841 68.2056 90.3196 68.0233 90.1007 68.0169C90.0472 68.038 89.9832 68.0323 89.9297 68.0534Z" fill="url(#paint16_linear_917_80779)"/>
</g>
<g style="mix-blend-mode:color-dodge" opacity="0.9">
<path d="M66.4672 45.6037C66.4672 45.6037 66.2313 45.7893 66.2143 45.9814L67.1887 82.2641C67.209 82.4724 67.363 82.6279 67.5819 82.6344C67.6354 82.6133 67.6621 82.6028 67.7156 82.5817C67.8494 82.529 67.9515 82.396 67.9686 82.204L66.9941 45.9213C66.9739 45.713 66.8199 45.5574 66.601 45.551C66.5475 45.5721 66.5208 45.5826 66.4672 45.6037Z" fill="url(#paint17_linear_917_80779)"/>
</g>
<g style="mix-blend-mode:color-dodge" opacity="0.9">
<path d="M67.4421 81.8867C67.4421 81.8867 67.3618 81.9183 67.335 81.9289C67.2223 82.035 67.2004 82.1363 67.1948 82.2004C67.2158 82.2538 67.2045 82.3819 67.3001 82.4678L87.9631 107.225C87.9631 107.225 88.2347 107.365 88.3952 107.302C88.6149 107.154 88.6368 107.052 88.6425 106.988C88.6214 106.935 88.6328 106.807 88.5371 106.721L67.9114 81.9798C67.7947 81.8405 67.6026 81.8235 67.4688 81.8762L67.4421 81.8867Z" fill="url(#paint18_linear_917_80779)"/>
</g>
<g style="mix-blend-mode:color-dodge" opacity="0.9">
<path d="M52.7858 127.601C52.7858 127.601 52.6788 127.644 52.6626 127.681C52.5069 127.835 52.5109 128.08 52.6649 128.236L70.0216 145.307C70.0216 145.307 70.2931 145.447 70.4269 145.394C70.4804 145.373 70.5339 145.352 70.5501 145.315C70.6628 145.209 70.6579 145.118 70.6636 145.054C70.6426 145 70.6539 144.872 70.5583 144.787L53.2016 127.716C53.2016 127.716 52.9301 127.575 52.7963 127.628L52.7858 127.601Z" fill="url(#paint19_linear_917_80779)"/>
</g>
<g style="mix-blend-mode:color-dodge" opacity="0.9">
<path d="M121.339 61.1772C121.339 61.1772 121.119 61.3256 121.108 61.4536L112.564 97.5015C112.52 97.7041 112.658 97.8969 112.861 97.9407C112.962 97.9625 113.053 97.9576 113.106 97.9366C113.213 97.8944 113.299 97.7988 113.337 97.6602L121.892 61.639C121.892 61.639 121.888 61.3935 121.84 61.3506C121.819 61.2971 121.723 61.2112 121.585 61.1731C121.483 61.1513 121.403 61.1829 121.35 61.204L121.339 61.1772Z" fill="url(#paint20_linear_917_80779)"/>
</g>
<g style="mix-blend-mode:color-dodge" opacity="0.9">
<path d="M70.1315 144.645C69.9443 144.719 69.8202 144.953 69.9312 145.157C70.005 145.344 70.2392 145.468 70.4533 145.384L89.9938 137.562C90.1811 137.488 90.2784 137.264 90.1941 137.05C90.1414 136.917 90.0563 136.857 89.9817 136.825C89.9339 136.782 89.8059 136.771 89.6721 136.824L70.1315 144.645Z" fill="url(#paint21_linear_917_80779)"/>
</g>
<g style="mix-blend-mode:color-dodge" opacity="0.9">
<path d="M52.7754 127.575C52.7754 127.575 52.5825 127.713 52.5444 127.851C52.5063 127.99 52.5484 128.097 52.5962 128.14C52.6173 128.193 52.7129 128.279 52.8248 128.328L89.7488 137.566C89.7488 137.566 89.9409 137.583 89.9944 137.562C90.1014 137.52 90.1873 137.424 90.2254 137.286C90.2692 137.083 90.1477 136.853 89.945 136.809L53.0211 127.571C53.0211 127.571 52.8395 127.581 52.786 127.602L52.7754 127.575Z" fill="url(#paint22_linear_917_80779)"/>
</g>
<g style="mix-blend-mode:color-dodge" opacity="0.9">
<path d="M84.1886 78.347C84.1886 78.347 84.0549 78.3997 83.9957 78.4848C83.9203 78.6072 83.9357 78.7247 83.93 78.7887C83.9243 78.8527 83.9932 78.9492 84.0888 79.035L112.669 97.924C112.669 97.924 112.882 97.9944 113.016 97.9417C113.07 97.9207 113.15 97.889 113.209 97.8039C113.328 97.6337 113.286 97.372 113.116 97.2537L84.5356 78.3648C84.5356 78.3648 84.3224 78.2943 84.1886 78.347Z" fill="url(#paint23_linear_917_80779)"/>
</g>
<g style="mix-blend-mode:color-dodge" opacity="0.9">
<path d="M66.4955 122.942C66.4955 122.942 66.3617 122.995 66.313 123.107C66.2376 123.229 66.253 123.347 66.2741 123.4C66.2952 123.454 66.3373 123.56 66.4597 123.636L89.6477 137.544C89.6477 137.544 89.8876 137.604 89.9946 137.562C90.0481 137.541 90.1284 137.51 90.177 137.398C90.2849 137.201 90.2273 136.976 90.0571 136.858L66.8692 122.949C66.8692 122.949 66.6292 122.889 66.5222 122.932L66.4955 122.942Z" fill="url(#paint24_linear_917_80779)"/>
</g>
<g style="mix-blend-mode:color-dodge" opacity="0.9">
<path d="M168.328 60.582C168.328 60.582 168.22 60.6241 168.178 60.672L145.182 85.4545C145.182 85.4545 145.085 85.6782 145.079 85.7422C145.1 85.7957 145.089 85.9237 145.185 86.0096C145.328 86.1384 145.483 86.1392 145.59 86.0971C145.643 86.076 145.697 86.0549 145.74 86.0071L168.735 61.2245C168.891 61.0705 168.887 60.825 168.706 60.68C168.563 60.5511 168.408 60.5504 168.301 60.5925L168.328 60.582Z" fill="url(#paint25_linear_917_80779)"/>
</g>
<g style="mix-blend-mode:color-dodge" opacity="0.9">
<path d="M66.4947 122.942C66.3074 123.016 66.1996 123.213 66.2733 123.4L80.4687 169.394C80.5425 169.581 80.7394 169.689 80.9372 169.642C81.1513 169.557 81.2591 169.36 81.2121 169.163L67.0167 123.169C66.9429 122.981 66.746 122.874 66.5482 122.921L66.5214 122.931L66.4947 122.942Z" fill="url(#paint26_linear_917_80779)"/>
</g>
<g style="mix-blend-mode:color-dodge" opacity="0.9">
<path d="M145.305 85.3754C145.305 85.3754 145.145 85.4387 145.08 85.5878L134.353 113.507C134.283 113.72 134.367 113.934 134.553 114.015C134.665 114.063 134.783 114.048 134.836 114.027C134.89 114.006 135.023 113.953 135.062 113.814L145.778 85.8689C145.859 85.6825 145.737 85.4523 145.551 85.3713C145.439 85.3227 145.321 85.3382 145.268 85.3592L145.305 85.3754Z" fill="url(#paint27_linear_917_80779)"/>
</g>
<g style="mix-blend-mode:color-dodge" opacity="0.9">
<path d="M69.3382 173.223C69.151 173.297 69.0537 173.52 69.1274 173.708C69.2117 173.921 69.4354 174.019 69.6227 173.945L81.0126 169.674C81.1732 169.611 81.2705 169.387 81.2235 169.189C81.1497 169.002 80.9155 168.878 80.7282 168.952L69.365 173.212L69.3382 173.223Z" fill="url(#paint28_linear_917_80779)"/>
</g>
<g style="mix-blend-mode:color-dodge" opacity="0.9">
<path d="M95.8771 82.0515C95.8771 82.0515 95.7166 82.1147 95.6517 82.2638L82.8607 112.788C82.8607 112.788 82.8907 113.177 83.0503 113.269C83.1622 113.317 83.3065 113.291 83.36 113.27C83.4135 113.249 83.5205 113.207 83.5854 113.058L96.3869 82.5611C96.3869 82.5611 96.4096 82.305 96.3885 82.2516C96.3675 82.1981 96.3253 82.0911 96.1762 82.0263C96.0643 81.9777 95.9468 81.9931 95.8933 82.0142L95.8771 82.0515Z" fill="url(#paint29_linear_917_80779)"/>
</g>
<g style="mix-blend-mode:color-dodge" opacity="0.9">
<path d="M35.9017 71.3303C35.9017 71.3303 35.7412 71.3935 35.6926 71.5053L28.5548 85.3143C28.5548 85.3143 28.5215 85.5437 28.5158 85.6077C28.5369 85.6612 28.579 85.7681 28.7014 85.8435C28.8506 85.9083 28.9681 85.8929 29.0216 85.8718C29.0751 85.8507 29.1821 85.8085 29.2308 85.6967L36.3686 71.8877C36.3686 71.8877 36.4019 71.6584 36.4076 71.5943C36.3865 71.5409 36.3443 71.4339 36.2219 71.3586C36.0728 71.2938 35.9553 71.3092 35.9017 71.3303Z" fill="url(#paint30_linear_917_80779)"/>
</g>
<g style="mix-blend-mode:color-dodge" opacity="0.9">
<path d="M134.615 113.31C134.615 113.31 134.455 113.374 134.39 113.523L117.831 154.798C117.75 154.984 117.871 155.215 118.031 155.306C118.143 155.355 118.26 155.339 118.314 155.318C118.367 155.297 118.474 155.255 118.539 155.106L135.109 113.857C135.19 113.671 135.095 113.43 134.909 113.349C134.797 113.301 134.68 113.316 134.626 113.337L134.615 113.31Z" fill="url(#paint31_linear_917_80779)"/>
</g>
<g style="mix-blend-mode:color-dodge" opacity="0.9">
<path d="M80.7171 168.925C80.5298 168.999 80.4325 169.223 80.4795 169.42L90.4492 195.981C90.5335 196.195 90.7572 196.292 90.9445 196.218C91.1585 196.134 91.2558 195.91 91.182 195.723L81.2123 169.162C81.2123 169.162 81.0745 168.97 81 168.937C80.9521 168.894 80.8241 168.883 80.6903 168.936L80.7171 168.925Z" fill="url(#paint32_linear_917_80779)"/>
</g>
<g style="mix-blend-mode:color-dodge" opacity="0.9">
<path d="M121.807 42.8303C121.807 42.8303 121.7 42.8725 121.683 42.9098C121.528 43.0638 121.532 43.3093 121.686 43.4649L150.461 71.7912C150.461 71.7912 150.733 71.9313 150.893 71.8681C150.947 71.847 151 71.8259 151.016 71.7886C151.172 71.6346 151.168 71.3891 151.014 71.2335L122.239 42.9072C122.239 42.9072 121.967 42.7671 121.833 42.8198L121.807 42.8303Z" fill="url(#paint33_linear_917_80779)"/>
</g>
<g style="mix-blend-mode:color-dodge" opacity="0.9">
<path d="M28.7637 85.1391C28.7637 85.1391 28.5765 85.2129 28.5383 85.3515L20.6034 107.413C20.6034 107.413 20.6074 107.659 20.6285 107.712C20.6495 107.766 20.6917 107.873 20.857 107.9C20.9689 107.949 21.0759 107.907 21.1294 107.886C21.1829 107.865 21.3167 107.812 21.3443 107.647L29.306 85.5742C29.3603 85.3983 29.276 85.1844 29.0628 85.114C28.951 85.0654 28.8334 85.0808 28.7799 85.1018L28.7637 85.1391Z" fill="url(#paint34_linear_917_80779)"/>
</g>
<g style="mix-blend-mode:color-dodge" opacity="0.9">
<path d="M83.0856 112.575C83.0856 112.575 82.8927 112.713 82.844 112.825L72.841 148.15C72.7972 148.353 72.9083 148.556 73.1109 148.6C73.2122 148.622 73.303 148.617 73.3565 148.596C73.4635 148.553 73.5495 148.458 73.5981 148.346L83.6011 113.021C83.6449 112.818 83.5339 112.615 83.3207 112.544C83.2194 112.522 83.1286 112.527 83.0751 112.548L83.0856 112.575Z" fill="url(#paint35_linear_917_80779)"/>
</g>
<g style="mix-blend-mode:color-dodge" opacity="0.9">
<path d="M95.8502 82.062C95.8502 82.062 95.6678 82.2265 95.6621 82.2905C95.6564 82.3545 95.6345 82.4558 95.6872 82.5895L114.292 118.753C114.366 118.94 114.606 119 114.766 118.937C114.927 118.874 114.976 118.762 115.008 118.687C115.014 118.623 115.036 118.522 114.983 118.388L96.3779 82.2247C96.3042 82.0376 96.091 81.9671 95.9037 82.0409L95.877 82.0514L95.8502 82.062Z" fill="url(#paint36_linear_917_80779)"/>
</g>
<g style="mix-blend-mode:color-dodge" opacity="0.9">
<path d="M35.9016 71.33C35.7143 71.4038 35.6065 71.6007 35.6802 71.7879L38.584 83.8649C38.6472 84.0253 38.8279 84.1704 39.0257 84.1233C39.2665 84.0285 39.3476 83.8421 39.3111 83.6711L36.4074 71.5941C36.3604 71.3964 36.1529 71.2619 35.9284 71.3195L35.8748 71.3405L35.9016 71.33Z" fill="url(#paint37_linear_917_80779)"/>
</g>
<g style="mix-blend-mode:color-dodge" opacity="0.9">
<path d="M90.6868 195.486C90.6868 195.486 90.553 195.539 90.5043 195.651L82.8697 208.512C82.7619 208.709 82.8194 208.934 83.0164 209.042C83.1282 209.09 83.2563 209.101 83.3633 209.059C83.4168 209.038 83.4971 209.007 83.5457 208.895L91.1804 196.033C91.2882 195.836 91.2307 195.612 91.0337 195.504C90.9218 195.455 90.7938 195.444 90.6868 195.486Z" fill="url(#paint38_linear_917_80779)"/>
</g>
<g style="mix-blend-mode:color-dodge" opacity="0.9">
<path d="M38.8051 83.4071C38.8051 83.4071 38.6713 83.4598 38.6389 83.5344L20.6356 107.339C20.5173 107.509 20.548 107.744 20.7183 107.862C20.8139 107.948 20.9793 107.976 21.113 107.923C21.1665 107.902 21.2468 107.87 21.2792 107.796L39.293 84.018C39.4114 83.8478 39.3806 83.6128 39.1999 83.4678C39.1042 83.3819 38.9389 83.3544 38.8051 83.4071Z" fill="url(#paint39_linear_917_80779)"/>
</g>
<g style="mix-blend-mode:color-dodge" opacity="0.9">
<path d="M73.1206 147.917C72.9868 147.969 72.8847 148.102 72.8838 148.257C72.8725 148.385 72.9414 148.481 72.9892 148.524C73.0102 148.578 73.1059 148.664 73.2607 148.665L94.2163 149.768C94.2163 149.768 94.3338 149.753 94.3873 149.732C94.5211 149.679 94.6232 149.546 94.6241 149.391C94.6249 149.237 94.556 149.14 94.5187 149.124C94.4977 149.071 94.3753 148.995 94.2472 148.984L73.2649 147.891C73.2649 147.891 73.1846 147.922 73.1311 147.943L73.1206 147.917Z" fill="url(#paint40_linear_917_80779)"/>
</g>
<g style="mix-blend-mode:color-dodge" opacity="0.9">
<path d="M181.073 136.863C181.073 136.863 180.939 136.916 180.891 137.028L163.889 164.237C163.797 164.397 163.828 164.632 164.025 164.74C164.147 164.815 164.275 164.826 164.382 164.784C164.436 164.763 164.516 164.732 164.565 164.62L181.54 137.421C181.54 137.421 181.6 137.181 181.579 137.128C181.558 137.074 181.516 136.967 181.393 136.892C181.281 136.843 181.143 136.805 181.036 136.847L181.073 136.863Z" fill="url(#paint41_linear_917_80779)"/>
</g>
<g style="mix-blend-mode:color-dodge" opacity="0.9">
<path d="M150.582 71.1564C150.582 71.1564 150.319 71.3526 150.329 71.5341C150.328 71.6889 150.413 71.748 150.434 71.8015C150.455 71.855 150.567 71.9036 150.722 71.9043L187.538 70.4356C187.538 70.4356 187.591 70.4145 187.618 70.404C187.832 70.3196 187.907 70.1973 187.908 70.0425C187.909 69.8877 187.813 69.8018 187.803 69.7751C187.782 69.7216 187.67 69.673 187.515 69.6722L150.699 71.141L150.592 71.1831L150.582 71.1564Z" fill="url(#paint42_linear_917_80779)"/>
</g>
<g style="mix-blend-mode:color-dodge" opacity="0.9">
<path d="M94.0384 149.004C94.0384 149.004 93.9047 149.057 93.8455 149.142L73.5108 179.58C73.3924 179.75 73.4499 179.974 73.6201 180.093C73.7425 180.168 73.8706 180.179 73.9776 180.137C74.0579 180.105 74.1114 180.084 74.1438 180.01L94.4785 149.572C94.4785 149.572 94.5386 149.332 94.5442 149.268C94.5232 149.215 94.481 149.108 94.3854 149.022C94.2257 148.931 94.0814 148.956 94.0279 148.978L94.0384 149.004Z" fill="url(#paint43_linear_917_80779)"/>
</g>
<g style="mix-blend-mode:color-dodge" opacity="0.9">
<path d="M94.0492 149.031C94.0492 149.031 93.9422 149.073 93.9097 149.147C93.8238 149.243 93.8124 149.371 93.8067 149.435C93.8278 149.489 93.8432 149.606 93.9388 149.692L119.693 170.899C119.826 171.001 119.981 171.002 120.088 170.96C120.141 170.939 120.195 170.918 120.227 170.843C120.313 170.747 120.325 170.619 120.33 170.555C120.309 170.502 120.294 170.384 120.198 170.298L94.4439 149.091C94.311 148.989 94.1562 148.989 94.0492 149.031Z" fill="url(#paint44_linear_917_80779)"/>
</g>
<g style="mix-blend-mode:color-dodge" opacity="0.9">
<path d="M164.071 164.073C164.071 164.073 163.991 164.105 163.964 164.115C163.852 164.221 163.83 164.323 163.824 164.387C163.845 164.44 163.834 164.568 163.929 164.654L186.622 191.268C186.622 191.268 186.893 191.408 187.027 191.356C187.247 191.207 187.269 191.106 187.274 191.042C187.253 190.989 187.265 190.861 187.169 190.775L164.477 164.16C164.36 164.021 164.168 164.004 164.034 164.057L164.071 164.073Z" fill="url(#paint45_linear_917_80779)"/>
</g>
<g style="mix-blend-mode:color-dodge" opacity="0.9">
<path d="M119.766 170.222C119.578 170.295 119.492 170.546 119.603 170.749L133.347 197.398C133.42 197.586 133.66 197.646 133.848 197.572C134.088 197.477 134.148 197.237 134.064 197.023L120.32 170.374C120.246 170.187 120.006 170.127 119.819 170.201L119.792 170.211L119.766 170.222Z" fill="url(#paint46_linear_917_80779)"/>
</g>
<g style="mix-blend-mode:color-dodge" opacity="0.9">
<path d="M73.6982 179.506C73.5109 179.58 73.4241 179.83 73.5351 180.033L88.9391 208.778C89.0128 208.965 89.2527 209.025 89.4133 208.962C89.654 208.867 89.7035 208.6 89.6298 208.413L74.2153 179.642C74.1521 179.481 73.9122 179.422 73.7517 179.485L73.7249 179.495L73.6982 179.506Z" fill="url(#paint47_linear_917_80779)"/>
</g>
<g style="mix-blend-mode:color-dodge" opacity="0.9">
<path d="M119.793 170.211C119.793 170.211 119.659 170.264 119.626 170.338L88.9518 208.34C88.8497 208.473 88.8537 208.719 89.0344 208.864C89.1674 208.966 89.3222 208.966 89.4292 208.924C89.4827 208.903 89.5362 208.882 89.5687 208.808L120.216 170.816C120.216 170.816 120.314 170.593 120.293 170.539C120.272 170.486 120.256 170.368 120.161 170.282C120.065 170.196 119.9 170.169 119.766 170.222L119.793 170.211Z" fill="url(#paint48_linear_917_80779)"/>
</g>
<g style="mix-blend-mode:color-dodge" opacity="0.9">
<path d="M111.302 65.039C111.302 65.039 111.115 65.1128 111.087 65.2781L86.9499 133.757C86.8794 133.97 86.9904 134.173 87.1768 134.254C87.2887 134.303 87.3957 134.261 87.4492 134.24C87.5027 134.219 87.6365 134.166 87.6641 134.001L111.802 65.5219C111.802 65.5219 111.798 65.2764 111.777 65.2229C111.755 65.1694 111.713 65.0624 111.548 65.0349C111.436 64.9863 111.329 65.0285 111.276 65.0496L111.302 65.039Z" fill="url(#paint49_linear_917_80779)"/>
</g>
<g style="mix-blend-mode:color-dodge" opacity="0.9">
<path d="M87.1917 133.507C87.1917 133.507 87.0312 133.571 86.9663 133.72L66.9645 184.692C66.8834 184.878 66.9782 185.119 67.1646 185.2C67.2765 185.248 67.394 185.233 67.4475 185.212C67.501 185.191 67.6081 185.149 67.6729 184.999L87.6747 134.028C87.6747 134.028 87.6975 133.771 87.6764 133.718C87.6553 133.664 87.6132 133.558 87.4746 133.519C87.3627 133.471 87.2452 133.486 87.1917 133.507Z" fill="url(#paint50_linear_917_80779)"/>
</g>
</g>
<g clip-path="url(#clip1_917_80779)">
<mask id="path-90-outside-1_917_80779" maskUnits="userSpaceOnUse" x="90.7881" y="48" width="40" height="144" fill="black">
<rect fill="white" x="90.7881" y="48" width="40" height="144"/>
<path d="M125.861 114.439C125.861 110.654 124.106 107.276 121.376 105.073V95.5252C121.376 94.2298 121.159 92.983 120.771 91.8261V88.0139C120.771 86.005 120.153 84.1462 119.102 82.6015V81.283C119.102 78.8954 117.936 76.785 116.149 75.4734V73.5916C116.149 71.5296 114.844 69.7701 113.015 69.0912L112.233 63.5957C112.073 62.455 111.66 61.4621 111.196 60.9726V50.6396C111.196 50.2863 110.912 50 110.556 50C110.205 50 109.917 50.2863 109.917 50.6396V61.0396C109.476 61.5545 109.088 62.4989 108.928 63.5911L108.118 69.082C107.46 69.3244 106.864 69.7054 106.375 70.188C105.506 71.0608 104.968 72.2569 104.968 73.5893V75.4711C103.179 76.7827 102.015 78.8931 102.015 81.2807V82.5992C100.962 84.1416 100.346 86.0027 100.346 88.0116V91.8238C99.9577 92.9807 99.7429 94.2298 99.7429 95.5229C99.7429 99.5545 99.7429 103.085 99.7429 105.069C97.0067 107.274 95.2565 110.647 95.2565 114.436V136.788H92.7881V189.998H128.331V136.788H125.865L125.861 114.439ZM96.6881 180.477H94.4183V176.217H96.6881V180.477ZM96.6881 173.151H94.4183V168.888H96.6881V173.151ZM96.6881 165.824H94.4183V161.566H96.6881V165.824ZM96.6881 158.5H94.4183V154.237H96.6881V158.5ZM96.6881 151.171H94.4183V146.918H96.6881V151.171ZM96.6881 143.851H94.4183V139.591H96.6881V143.851ZM99.8769 180.477H97.6117V176.217H99.8769V180.477ZM99.8769 173.151H97.6117V168.888H99.8769V173.151ZM99.8769 165.824H97.6117V161.566H99.8769V165.824ZM99.8769 158.5H97.6117V154.237H99.8769V158.5ZM99.8769 151.171H97.6117V146.918H99.8769V151.171ZM99.8769 143.851H97.6117V139.591H99.8769V143.851ZM105.624 180.477H103.357V176.217H105.624V180.477ZM105.624 173.151H103.357V168.888H105.624V173.151ZM105.624 165.824H103.357V161.566H105.624V165.824ZM105.624 158.5H103.357V154.237H105.624V158.5ZM105.624 151.171H103.357V146.918H105.624V151.171ZM105.624 143.851H103.357V139.591H105.624V143.851ZM105.624 136.132H103.357V131.874H105.624V136.132ZM105.624 128.418H103.357V124.16H105.624V128.418ZM105.624 120.708H103.357V118.576C103.357 117.403 103.865 116.448 104.493 116.448H105.629V120.71L105.624 120.708ZM108.818 180.477H106.55V176.217H108.818V180.477ZM108.818 173.151H106.55V168.888H108.818V173.151ZM108.818 165.824H106.55V161.566H108.818V165.824ZM108.818 158.5H106.55V154.237H108.818V158.5ZM108.818 151.171H106.55V146.918H108.818V151.171ZM108.818 143.851H106.55V139.591H108.818V143.851ZM108.818 136.132H106.55V131.874H108.818V136.132ZM108.818 128.418H106.55V124.16H108.818V128.418ZM108.818 120.708H106.55V116.445H108.818V120.708ZM114.565 180.477H112.295V176.217H114.565V180.477ZM114.565 173.151H112.295V168.888H114.565V173.151ZM114.565 165.824H112.295V161.566H114.565V165.824ZM114.565 158.5H112.295V154.237H114.565V158.5ZM114.565 151.171H112.295V146.918H114.565V151.171ZM114.565 143.851H112.295V139.591H114.565V143.851ZM114.565 136.132H112.295V131.874H114.565V136.132ZM114.565 128.418H112.295V124.16H114.565V128.418ZM114.565 120.708H112.295V116.445H114.565V120.708ZM117.754 180.477H115.491V176.217H117.754V180.477ZM117.754 173.151H115.491V168.888H117.754V173.151ZM117.754 165.824H115.491V161.566H117.754V165.824ZM117.754 158.5H115.491V154.237H117.754V158.5ZM117.754 151.171H115.491V146.918H117.754V151.171ZM117.754 143.851H115.491V139.591H117.754V143.851ZM117.754 136.132H115.491V131.874H117.754V136.132ZM117.754 128.418H115.491V124.16H117.754V128.418ZM117.754 120.708H115.491V116.445C115.491 116.445 115.999 116.445 116.622 116.445C117.248 116.445 117.756 117.401 117.756 118.574L117.754 120.708ZM121.113 136.788H118.788V118.835C118.788 114.134 115.098 110.322 110.552 110.322C106.007 110.322 102.322 114.134 102.322 118.835V136.788H100.117V119.084C100.117 113.12 104.825 108.269 110.614 108.269C116.396 108.269 121.109 113.12 121.109 119.084V136.788H121.113ZM123.498 180.477H121.236V176.217H123.498V180.477ZM123.498 173.151H121.236V168.888H123.498V173.151ZM123.498 165.824H121.236V161.566H123.498V165.824ZM123.498 158.5H121.236V154.237H123.498V158.5ZM123.498 151.171H121.236V146.918H123.498V151.171ZM123.498 143.851H121.236V139.591H123.498V143.851ZM126.699 180.477H124.427V176.217H126.699V180.477ZM126.699 173.151H124.427V168.888H126.699V173.151ZM126.699 165.824H124.427V161.566H126.699V165.824ZM126.699 158.5H124.427V154.237H126.699V158.5ZM126.699 151.171H124.427V146.918H126.699V151.171ZM126.699 139.591V143.851H124.427V139.591H126.699Z"/>
</mask>
<path d="M125.861 114.439C125.861 110.654 124.106 107.276 121.376 105.073V95.5252C121.376 94.2298 121.159 92.983 120.771 91.8261V88.0139C120.771 86.005 120.153 84.1462 119.102 82.6015V81.283C119.102 78.8954 117.936 76.785 116.149 75.4734V73.5916C116.149 71.5296 114.844 69.7701 113.015 69.0912L112.233 63.5957C112.073 62.455 111.66 61.4621 111.196 60.9726V50.6396C111.196 50.2863 110.912 50 110.556 50C110.205 50 109.917 50.2863 109.917 50.6396V61.0396C109.476 61.5545 109.088 62.4989 108.928 63.5911L108.118 69.082C107.46 69.3244 106.864 69.7054 106.375 70.188C105.506 71.0608 104.968 72.2569 104.968 73.5893V75.4711C103.179 76.7827 102.015 78.8931 102.015 81.2807V82.5992C100.962 84.1416 100.346 86.0027 100.346 88.0116V91.8238C99.9577 92.9807 99.7429 94.2298 99.7429 95.5229C99.7429 99.5545 99.7429 103.085 99.7429 105.069C97.0067 107.274 95.2565 110.647 95.2565 114.436V136.788H92.7881V189.998H128.331V136.788H125.865L125.861 114.439ZM96.6881 180.477H94.4183V176.217H96.6881V180.477ZM96.6881 173.151H94.4183V168.888H96.6881V173.151ZM96.6881 165.824H94.4183V161.566H96.6881V165.824ZM96.6881 158.5H94.4183V154.237H96.6881V158.5ZM96.6881 151.171H94.4183V146.918H96.6881V151.171ZM96.6881 143.851H94.4183V139.591H96.6881V143.851ZM99.8769 180.477H97.6117V176.217H99.8769V180.477ZM99.8769 173.151H97.6117V168.888H99.8769V173.151ZM99.8769 165.824H97.6117V161.566H99.8769V165.824ZM99.8769 158.5H97.6117V154.237H99.8769V158.5ZM99.8769 151.171H97.6117V146.918H99.8769V151.171ZM99.8769 143.851H97.6117V139.591H99.8769V143.851ZM105.624 180.477H103.357V176.217H105.624V180.477ZM105.624 173.151H103.357V168.888H105.624V173.151ZM105.624 165.824H103.357V161.566H105.624V165.824ZM105.624 158.5H103.357V154.237H105.624V158.5ZM105.624 151.171H103.357V146.918H105.624V151.171ZM105.624 143.851H103.357V139.591H105.624V143.851ZM105.624 136.132H103.357V131.874H105.624V136.132ZM105.624 128.418H103.357V124.16H105.624V128.418ZM105.624 120.708H103.357V118.576C103.357 117.403 103.865 116.448 104.493 116.448H105.629V120.71L105.624 120.708ZM108.818 180.477H106.55V176.217H108.818V180.477ZM108.818 173.151H106.55V168.888H108.818V173.151ZM108.818 165.824H106.55V161.566H108.818V165.824ZM108.818 158.5H106.55V154.237H108.818V158.5ZM108.818 151.171H106.55V146.918H108.818V151.171ZM108.818 143.851H106.55V139.591H108.818V143.851ZM108.818 136.132H106.55V131.874H108.818V136.132ZM108.818 128.418H106.55V124.16H108.818V128.418ZM108.818 120.708H106.55V116.445H108.818V120.708ZM114.565 180.477H112.295V176.217H114.565V180.477ZM114.565 173.151H112.295V168.888H114.565V173.151ZM114.565 165.824H112.295V161.566H114.565V165.824ZM114.565 158.5H112.295V154.237H114.565V158.5ZM114.565 151.171H112.295V146.918H114.565V151.171ZM114.565 143.851H112.295V139.591H114.565V143.851ZM114.565 136.132H112.295V131.874H114.565V136.132ZM114.565 128.418H112.295V124.16H114.565V128.418ZM114.565 120.708H112.295V116.445H114.565V120.708ZM117.754 180.477H115.491V176.217H117.754V180.477ZM117.754 173.151H115.491V168.888H117.754V173.151ZM117.754 165.824H115.491V161.566H117.754V165.824ZM117.754 158.5H115.491V154.237H117.754V158.5ZM117.754 151.171H115.491V146.918H117.754V151.171ZM117.754 143.851H115.491V139.591H117.754V143.851ZM117.754 136.132H115.491V131.874H117.754V136.132ZM117.754 128.418H115.491V124.16H117.754V128.418ZM117.754 120.708H115.491V116.445C115.491 116.445 115.999 116.445 116.622 116.445C117.248 116.445 117.756 117.401 117.756 118.574L117.754 120.708ZM121.113 136.788H118.788V118.835C118.788 114.134 115.098 110.322 110.552 110.322C106.007 110.322 102.322 114.134 102.322 118.835V136.788H100.117V119.084C100.117 113.12 104.825 108.269 110.614 108.269C116.396 108.269 121.109 113.12 121.109 119.084V136.788H121.113ZM123.498 180.477H121.236V176.217H123.498V180.477ZM123.498 173.151H121.236V168.888H123.498V173.151ZM123.498 165.824H121.236V161.566H123.498V165.824ZM123.498 158.5H121.236V154.237H123.498V158.5ZM123.498 151.171H121.236V146.918H123.498V151.171ZM123.498 143.851H121.236V139.591H123.498V143.851ZM126.699 180.477H124.427V176.217H126.699V180.477ZM126.699 173.151H124.427V168.888H126.699V173.151ZM126.699 165.824H124.427V161.566H126.699V165.824ZM126.699 158.5H124.427V154.237H126.699V158.5ZM126.699 151.171H124.427V146.918H126.699V151.171ZM126.699 139.591V143.851H124.427V139.591H126.699Z" stroke="white" stroke-width="3" mask="url(#path-90-outside-1_917_80779)"/>
<path d="M66.6035 189.998V190.748H67.3535H88.0726H88.8226V189.998V95.2162C88.8226 95.2161 88.8226 95.216 88.8226 95.216C88.8238 90.5068 87.6968 86.2075 85.8353 83.0601C83.9837 79.9293 81.318 77.8154 78.2268 77.8154H77.2016C74.1103 77.8154 71.4447 79.9299 69.5929 83.0609C67.7311 86.2086 66.6035 90.5079 66.6035 95.216V189.998ZM79.0539 184.574V95.2579C79.1565 95.7338 79.2168 96.2772 79.2168 96.8623V184.574H79.0539ZM75.2048 184.574V96.8623C75.2048 96.2737 75.2659 95.7276 75.3699 95.25V184.574H75.2048Z" stroke="white" stroke-width="1.5"/>
<path d="M132.383 110.638H131.633V111.388V190V190.75H132.383H153.102H153.852V190V111.388V110.638H153.102H132.383ZM150.639 149.345H148.139V145.292H150.639V149.345ZM137.205 168.976H134.708V164.93H137.205V168.976ZM137.23 159.158H134.731V155.112H137.23V159.158ZM137.255 149.345H134.756V145.292H137.255V149.345ZM137.278 139.524H134.777V135.473H137.278V139.524ZM137.304 129.706H134.8V125.655H137.304V129.706ZM137.327 119.886H134.828V115.837H137.327V119.886ZM143.875 168.976H141.378V164.93H143.875V168.976ZM143.898 159.158H141.397V155.112H143.896L143.898 159.158ZM143.922 149.345H141.422V145.292H143.922V149.345ZM143.945 139.524H141.445V135.473H143.945V139.524ZM143.972 129.706H141.473V125.655H143.972V129.706ZM143.998 119.886H141.496V115.837H143.998V119.886ZM150.59 168.976H148.091V164.93H150.59V168.976ZM150.613 159.158H148.116V155.112H150.613V159.158ZM150.662 139.524H148.165V135.473H150.662V139.524ZM150.687 129.706H148.19V125.655H150.687V129.706ZM150.71 119.886H148.213V115.837H150.71V119.886Z" stroke="white" stroke-width="1.5"/>
</g>
<defs>
<radialGradient id="paint0_radial_917_80779" cx="0" cy="0" r="1" gradientUnits="userSpaceOnUse" gradientTransform="translate(67.5788 82.2343) rotate(-21.503) scale(1.35142 1.35079)">
<stop stop-color="white"/>
<stop offset="0.11" stop-color="#FAFAFA"/>
<stop offset="0.23" stop-color="#ECECEC"/>
<stop offset="0.36" stop-color="#D4D4D4"/>
<stop offset="0.5" stop-color="#B4B4B4"/>
<stop offset="0.64" stop-color="#8A8A8A"/>
<stop offset="0.79" stop-color="#565656"/>
<stop offset="0.94" stop-color="#1A1A1A"/>
<stop offset="1"/>
</radialGradient>
<radialGradient id="paint1_radial_917_80779" cx="0" cy="0" r="1" gradientUnits="userSpaceOnUse" gradientTransform="translate(145.48 85.7391) rotate(-21.503) scale(1.58145 1.58071)">
<stop stop-color="white"/>
<stop offset="0.11" stop-color="#FAFAFA"/>
<stop offset="0.23" stop-color="#ECECEC"/>
<stop offset="0.36" stop-color="#D4D4D4"/>
<stop offset="0.5" stop-color="#B4B4B4"/>
<stop offset="0.64" stop-color="#8A8A8A"/>
<stop offset="0.79" stop-color="#565656"/>
<stop offset="0.94" stop-color="#1A1A1A"/>
<stop offset="1"/>
</radialGradient>
<radialGradient id="paint2_radial_917_80779" cx="0" cy="0" r="1" gradientUnits="userSpaceOnUse" gradientTransform="translate(69.4476 173.581) rotate(-21.503) scale(1.58145 1.58071)">
<stop stop-color="white"/>
<stop offset="0.11" stop-color="#FAFAFA"/>
<stop offset="0.23" stop-color="#ECECEC"/>
<stop offset="0.36" stop-color="#D4D4D4"/>
<stop offset="0.5" stop-color="#B4B4B4"/>
<stop offset="0.64" stop-color="#8A8A8A"/>
<stop offset="0.79" stop-color="#565656"/>
<stop offset="0.94" stop-color="#1A1A1A"/>
<stop offset="1"/>
</radialGradient>
<radialGradient id="paint3_radial_917_80779" cx="0" cy="0" r="1" gradientUnits="userSpaceOnUse" gradientTransform="translate(134.752 113.658) rotate(-21.503) scale(1.61021 1.60945)">
<stop stop-color="white"/>
<stop offset="0.11" stop-color="#FAFAFA"/>
<stop offset="0.23" stop-color="#ECECEC"/>
<stop offset="0.36" stop-color="#D4D4D4"/>
<stop offset="0.5" stop-color="#B4B4B4"/>
<stop offset="0.64" stop-color="#8A8A8A"/>
<stop offset="0.79" stop-color="#565656"/>
<stop offset="0.94" stop-color="#1A1A1A"/>
<stop offset="1"/>
</radialGradient>
<radialGradient id="paint4_radial_917_80779" cx="0" cy="0" r="1" gradientUnits="userSpaceOnUse" gradientTransform="translate(73.2307 148.274) rotate(-21.503) scale(1.72522 1.72441)">
<stop stop-color="white"/>
<stop offset="0.11" stop-color="#FAFAFA"/>
<stop offset="0.23" stop-color="#ECECEC"/>
<stop offset="0.36" stop-color="#D4D4D4"/>
<stop offset="0.5" stop-color="#B4B4B4"/>
<stop offset="0.64" stop-color="#8A8A8A"/>
<stop offset="0.79" stop-color="#565656"/>
<stop offset="0.94" stop-color="#1A1A1A"/>
<stop offset="1"/>
</radialGradient>
<radialGradient id="paint5_radial_917_80779" cx="0" cy="0" r="1" gradientUnits="userSpaceOnUse" gradientTransform="translate(164.219 164.447) rotate(-21.503) scale(1.81147 1.81063)">
<stop stop-color="white"/>
<stop offset="0.11" stop-color="#FAFAFA"/>
<stop offset="0.23" stop-color="#ECECEC"/>
<stop offset="0.36" stop-color="#D4D4D4"/>
<stop offset="0.5" stop-color="#B4B4B4"/>
<stop offset="0.64" stop-color="#8A8A8A"/>
<stop offset="0.79" stop-color="#565656"/>
<stop offset="0.94" stop-color="#1A1A1A"/>
<stop offset="1"/>
</radialGradient>
<radialGradient id="paint6_radial_917_80779" cx="0" cy="0" r="1" gradientUnits="userSpaceOnUse" gradientTransform="translate(77.8471 65.153) rotate(-21.503) scale(1.86899 1.8681)">
<stop stop-color="white"/>
<stop offset="0.11" stop-color="#FAFAFA"/>
<stop offset="0.23" stop-color="#ECECEC"/>
<stop offset="0.36" stop-color="#D4D4D4"/>
<stop offset="0.5" stop-color="#B4B4B4"/>
<stop offset="0.64" stop-color="#8A8A8A"/>
<stop offset="0.79" stop-color="#565656"/>
<stop offset="0.94" stop-color="#1A1A1A"/>
<stop offset="1"/>
</radialGradient>
<radialGradient id="paint7_radial_917_80779" cx="0" cy="0" r="1" gradientUnits="userSpaceOnUse" gradientTransform="translate(48.3118 111.695) rotate(-21.503) scale(1.89774 1.89685)">
<stop stop-color="white"/>
<stop offset="0.11" stop-color="#FAFAFA"/>
<stop offset="0.23" stop-color="#ECECEC"/>
<stop offset="0.36" stop-color="#D4D4D4"/>
<stop offset="0.5" stop-color="#B4B4B4"/>
<stop offset="0.64" stop-color="#8A8A8A"/>
<stop offset="0.79" stop-color="#565656"/>
<stop offset="0.94" stop-color="#1A1A1A"/>
<stop offset="1"/>
</radialGradient>
<radialGradient id="paint8_radial_917_80779" cx="0" cy="0" r="1" gradientUnits="userSpaceOnUse" gradientTransform="translate(186.938 191.051) rotate(-21.503) scale(1.92649 1.92559)">
<stop stop-color="white"/>
<stop offset="0.11" stop-color="#FAFAFA"/>
<stop offset="0.23" stop-color="#ECECEC"/>
<stop offset="0.36" stop-color="#D4D4D4"/>
<stop offset="0.5" stop-color="#B4B4B4"/>
<stop offset="0.64" stop-color="#8A8A8A"/>
<stop offset="0.79" stop-color="#565656"/>
<stop offset="0.94" stop-color="#1A1A1A"/>
<stop offset="1"/>
</radialGradient>
<radialGradient id="paint9_radial_917_80779" cx="0" cy="0" r="1" gradientUnits="userSpaceOnUse" gradientTransform="translate(111.45 65.4136) rotate(-21.503) scale(2.12777 2.12678)">
<stop stop-color="white"/>
<stop offset="0.11" stop-color="#FAFAFA"/>
<stop offset="0.23" stop-color="#ECECEC"/>
<stop offset="0.36" stop-color="#D4D4D4"/>
<stop offset="0.5" stop-color="#B4B4B4"/>
<stop offset="0.64" stop-color="#8A8A8A"/>
<stop offset="0.79" stop-color="#565656"/>
<stop offset="0.94" stop-color="#1A1A1A"/>
<stop offset="1"/>
</radialGradient>
<radialGradient id="paint10_radial_917_80779" cx="0" cy="0" r="1" gradientUnits="userSpaceOnUse" gradientTransform="translate(67.3212 184.891) rotate(-21.503) scale(2.18527 2.18425)">
<stop stop-color="white"/>
<stop offset="0.11" stop-color="#FAFAFA"/>
<stop offset="0.23" stop-color="#ECECEC"/>
<stop offset="0.36" stop-color="#D4D4D4"/>
<stop offset="0.5" stop-color="#B4B4B4"/>
<stop offset="0.64" stop-color="#8A8A8A"/>
<stop offset="0.79" stop-color="#565656"/>
<stop offset="0.94" stop-color="#1A1A1A"/>
<stop offset="1"/>
</radialGradient>
<linearGradient id="paint11_linear_917_80779" x1="52.0662" y1="86.0597" x2="41.1628" y2="58.384" gradientUnits="userSpaceOnUse">
<stop stop-color="#C91EFE"/>
<stop offset="1" stop-color="#4A68F2"/>
</linearGradient>
<linearGradient id="paint12_linear_917_80779" x1="59.5257" y1="117.501" x2="47.5162" y2="87.0181" gradientUnits="userSpaceOnUse">
<stop stop-color="#C91EFE"/>
<stop offset="1" stop-color="#4A68F2"/>
</linearGradient>
<linearGradient id="paint13_linear_917_80779" x1="42.1154" y1="94.8298" x2="29.5475" y2="62.9292" gradientUnits="userSpaceOnUse">
<stop stop-color="#C91EFE"/>
<stop offset="1" stop-color="#4A68F2"/>
</linearGradient>
<linearGradient id="paint14_linear_917_80779" x1="47.8875" y1="122.056" x2="37.5529" y2="95.8244" gradientUnits="userSpaceOnUse">
<stop stop-color="#C91EFE"/>
<stop offset="1" stop-color="#4A68F2"/>
</linearGradient>
<linearGradient id="paint15_linear_917_80779" x1="83.8736" y1="71.2735" x2="72.7805" y2="43.1165" gradientUnits="userSpaceOnUse">
<stop stop-color="#C91EFE"/>
<stop offset="1" stop-color="#4A68F2"/>
</linearGradient>
<linearGradient id="paint16_linear_917_80779" x1="95.7728" y1="104.457" x2="82.5728" y2="70.9518" gradientUnits="userSpaceOnUse">
<stop stop-color="#C91EFE"/>
<stop offset="1" stop-color="#4A68F2"/>
</linearGradient>
<linearGradient id="paint17_linear_917_80779" x1="73.4807" y1="80.3104" x2="60.7021" y2="47.875" gradientUnits="userSpaceOnUse">
<stop stop-color="#C91EFE"/>
<stop offset="1" stop-color="#4A68F2"/>
</linearGradient>
<linearGradient id="paint18_linear_917_80779" x1="83.66" y1="109.168" x2="72.1772" y2="80.0212" gradientUnits="userSpaceOnUse">
<stop stop-color="#C91EFE"/>
<stop offset="1" stop-color="#4A68F2"/>
</linearGradient>
<linearGradient id="paint19_linear_917_80779" x1="65.8219" y1="147.209" x2="57.3836" y2="125.79" gradientUnits="userSpaceOnUse">
<stop stop-color="#C91EFE"/>
<stop offset="1" stop-color="#4A68F2"/>
</linearGradient>
<linearGradient id="paint20_linear_917_80779" x1="122.939" y1="94.0626" x2="111.509" y2="65.0499" gradientUnits="userSpaceOnUse">
<stop stop-color="#C91EFE"/>
<stop offset="1" stop-color="#4A68F2"/>
</linearGradient>
<linearGradient id="paint21_linear_917_80779" x1="80.23" y1="141.532" x2="79.8928" y2="140.676" gradientUnits="userSpaceOnUse">
<stop stop-color="#C91EFE"/>
<stop offset="1" stop-color="#4A68F2"/>
</linearGradient>
<linearGradient id="paint22_linear_917_80779" x1="75.5856" y1="143.239" x2="67.1789" y2="121.9" gradientUnits="userSpaceOnUse">
<stop stop-color="#C91EFE"/>
<stop offset="1" stop-color="#4A68F2"/>
</linearGradient>
<linearGradient id="paint23_linear_917_80779" x1="103.876" y1="101.543" x2="93.3204" y2="74.7494" gradientUnits="userSpaceOnUse">
<stop stop-color="#C91EFE"/>
<stop offset="1" stop-color="#4A68F2"/>
</linearGradient>
<linearGradient id="paint24_linear_917_80779" x1="82.3221" y1="140.585" x2="74.1787" y2="119.915" gradientUnits="userSpaceOnUse">
<stop stop-color="#C91EFE"/>
<stop offset="1" stop-color="#4A68F2"/>
</linearGradient>
<linearGradient id="paint25_linear_917_80779" x1="159.781" y1="80.5063" x2="154.134" y2="66.1738" gradientUnits="userSpaceOnUse">
<stop stop-color="#C91EFE"/>
<stop offset="1" stop-color="#4A68F2"/>
</linearGradient>
<linearGradient id="paint26_linear_917_80779" x1="82.6761" y1="168.957" x2="64.8093" y2="123.606" gradientUnits="userSpaceOnUse">
<stop stop-color="#C91EFE"/>
<stop offset="1" stop-color="#4A68F2"/>
</linearGradient>
<linearGradient id="paint27_linear_917_80779" x1="144.247" y1="110.319" x2="135.872" y2="89.0611" gradientUnits="userSpaceOnUse">
<stop stop-color="#C91EFE"/>
<stop offset="1" stop-color="#4A68F2"/>
</linearGradient>
<linearGradient id="paint28_linear_917_80779" x1="75.3545" y1="171.903" x2="74.9963" y2="170.994" gradientUnits="userSpaceOnUse">
<stop stop-color="#C91EFE"/>
<stop offset="1" stop-color="#4A68F2"/>
</linearGradient>
<linearGradient id="paint29_linear_917_80779" x1="94.1308" y1="109.027" x2="85.1552" y2="86.2447" gradientUnits="userSpaceOnUse">
<stop stop-color="#C91EFE"/>
<stop offset="1" stop-color="#4A68F2"/>
</linearGradient>
<linearGradient id="paint30_linear_917_80779" x1="34.4791" y1="83.7217" x2="30.4443" y2="73.4803" gradientUnits="userSpaceOnUse">
<stop stop-color="#C91EFE"/>
<stop offset="1" stop-color="#4A68F2"/>
</linearGradient>
<linearGradient id="paint31_linear_917_80779" x1="132.537" y1="149.714" x2="120.402" y2="118.91" gradientUnits="userSpaceOnUse">
<stop stop-color="#C91EFE"/>
<stop offset="1" stop-color="#4A68F2"/>
</linearGradient>
<linearGradient id="paint32_linear_917_80779" x1="91.1719" y1="196.129" x2="80.4897" y2="169.015" gradientUnits="userSpaceOnUse">
<stop stop-color="#C91EFE"/>
<stop offset="1" stop-color="#4A68F2"/>
</linearGradient>
<linearGradient id="paint33_linear_917_80779" x1="143.255" y1="74.8772" x2="129.444" y2="39.8213" gradientUnits="userSpaceOnUse">
<stop stop-color="#C91EFE"/>
<stop offset="1" stop-color="#4A68F2"/>
</linearGradient>
<linearGradient id="paint34_linear_917_80779" x1="28.3229" y1="105.052" x2="21.5807" y2="87.9381" gradientUnits="userSpaceOnUse">
<stop stop-color="#C91EFE"/>
<stop offset="1" stop-color="#4A68F2"/>
</linearGradient>
<linearGradient id="paint35_linear_917_80779" x1="83.7097" y1="144.517" x2="72.722" y2="116.627" gradientUnits="userSpaceOnUse">
<stop stop-color="#C91EFE"/>
<stop offset="1" stop-color="#4A68F2"/>
</linearGradient>
<linearGradient id="paint36_linear_917_80779" x1="112.894" y1="119.675" x2="97.7764" y2="81.3031" gradientUnits="userSpaceOnUse">
<stop stop-color="#C91EFE"/>
<stop offset="1" stop-color="#4A68F2"/>
</linearGradient>
<linearGradient id="paint37_linear_917_80779" x1="39.8835" y1="83.7854" x2="35.1007" y2="71.6455" gradientUnits="userSpaceOnUse">
<stop stop-color="#C91EFE"/>
<stop offset="1" stop-color="#4A68F2"/>
</linearGradient>
<linearGradient id="paint38_linear_917_80779" x1="88.8475" y1="206.899" x2="85.2025" y2="197.647" gradientUnits="userSpaceOnUse">
<stop stop-color="#C91EFE"/>
<stop offset="1" stop-color="#4A68F2"/>
</linearGradient>
<linearGradient id="paint39_linear_917_80779" x1="32.9509" y1="103.259" x2="26.9672" y2="88.0709" gradientUnits="userSpaceOnUse">
<stop stop-color="#C91EFE"/>
<stop offset="1" stop-color="#4A68F2"/>
</linearGradient>
<linearGradient id="paint40_linear_917_80779" x1="85.4922" y1="153.236" x2="82.0157" y2="144.412" gradientUnits="userSpaceOnUse">
<stop stop-color="#C91EFE"/>
<stop offset="1" stop-color="#4A68F2"/>
</linearGradient>
<linearGradient id="paint41_linear_917_80779" x1="176.356" y1="160.067" x2="169.066" y2="141.563" gradientUnits="userSpaceOnUse">
<stop stop-color="#C91EFE"/>
<stop offset="1" stop-color="#4A68F2"/>
</linearGradient>
<linearGradient id="paint42_linear_917_80779" x1="171.473" y1="76.7646" x2="166.753" y2="64.7852" gradientUnits="userSpaceOnUse">
<stop stop-color="#C91EFE"/>
<stop offset="1" stop-color="#4A68F2"/>
</linearGradient>
<linearGradient id="paint43_linear_917_80779" x1="87.9637" y1="174.627" x2="80.0311" y2="154.492" gradientUnits="userSpaceOnUse">
<stop stop-color="#C91EFE"/>
<stop offset="1" stop-color="#4A68F2"/>
</linearGradient>
<linearGradient id="paint44_linear_917_80779" x1="112.557" y1="173.927" x2="101.58" y2="146.064" gradientUnits="userSpaceOnUse">
<stop stop-color="#C91EFE"/>
<stop offset="1" stop-color="#4A68F2"/>
</linearGradient>
<linearGradient id="paint45_linear_917_80779" x1="181.744" y1="193.437" x2="169.344" y2="161.965" gradientUnits="userSpaceOnUse">
<stop stop-color="#C91EFE"/>
<stop offset="1" stop-color="#4A68F2"/>
</linearGradient>
<linearGradient id="paint46_linear_917_80779" x1="132.442" y1="198.126" x2="121.222" y2="169.648" gradientUnits="userSpaceOnUse">
<stop stop-color="#C91EFE"/>
<stop offset="1" stop-color="#4A68F2"/>
</linearGradient>
<linearGradient id="paint47_linear_917_80779" x1="87.6595" y1="209.653" x2="75.5025" y2="178.795" gradientUnits="userSpaceOnUse">
<stop stop-color="#C91EFE"/>
<stop offset="1" stop-color="#4A68F2"/>
</linearGradient>
<linearGradient id="paint48_linear_917_80779" x1="109.151" y1="201.155" x2="100.028" y2="177.998" gradientUnits="userSpaceOnUse">
<stop stop-color="#C91EFE"/>
<stop offset="1" stop-color="#4A68F2"/>
</linearGradient>
<linearGradient id="paint49_linear_917_80779" x1="109.57" y1="125.525" x2="89.1743" y2="73.7568" gradientUnits="userSpaceOnUse">
<stop stop-color="#C91EFE"/>
<stop offset="1" stop-color="#4A68F2"/>
</linearGradient>
<linearGradient id="paint50_linear_917_80779" x1="84.8131" y1="178.37" x2="69.8328" y2="140.346" gradientUnits="userSpaceOnUse">
<stop stop-color="#C91EFE"/>
<stop offset="1" stop-color="#4A68F2"/>
</linearGradient>
<clipPath id="clip0_917_80779">
<rect width="179" height="188" fill="white" transform="matrix(0.930398 -0.36655 -0.36655 -0.930398 68.9111 241.264)"/>
</clipPath>
<clipPath id="clip1_917_80779">
<rect width="140" height="140" fill="white" transform="translate(40.2266 50)"/>
</clipPath>
</defs>
</svg>
