<svg width="219" height="219" viewBox="0 0 219 219" fill="none" xmlns="http://www.w3.org/2000/svg">
<g clip-path="url(#clip0_1045_277)">
<path style="mix-blend-mode:color-dodge" d="M36.0028 110.164C35.6539 110.716 34.9025 110.886 34.3498 110.537C33.7972 110.188 33.6274 109.437 33.9763 108.884C34.3253 108.331 35.0767 108.162 35.6293 108.511C36.182 108.86 36.3518 109.611 36.0028 110.164Z" fill="white"/>
<path style="mix-blend-mode:color-dodge" d="M72.1325 105.718C71.879 106.12 71.3502 106.239 70.949 105.986C70.5478 105.733 70.4285 105.204 70.682 104.802C70.9355 104.401 71.4644 104.281 71.8656 104.534C72.2668 104.788 72.3861 105.316 72.1325 105.718Z" fill="white"/>
<path style="mix-blend-mode:color-dodge" d="M82.9626 140.591C82.6994 141.008 82.1551 141.118 81.7539 140.864C81.3527 140.611 81.2278 140.057 81.4813 139.656C81.7348 139.254 82.2888 139.129 82.69 139.382C83.0912 139.635 83.2259 140.174 82.9626 140.591Z" fill="white"/>
<path style="mix-blend-mode:color-dodge" d="M65.3611 76.2784C65.0978 76.6953 64.5536 76.8053 64.1524 76.552C63.7512 76.2987 63.6262 75.7446 63.8797 75.3431C64.1332 74.9415 64.6872 74.8161 65.0884 75.0694C65.4896 75.3228 65.6146 75.8769 65.3611 76.2784Z" fill="white"/>
<path style="mix-blend-mode:color-dodge" d="M24.164 106.468C23.8114 107.027 23.0693 107.194 22.511 106.842C21.9526 106.489 21.785 105.747 22.1375 105.189C22.49 104.631 23.2321 104.463 23.7905 104.815C24.3488 105.168 24.5165 105.91 24.164 106.468Z" fill="white"/>
<path style="mix-blend-mode:color-dodge" d="M58.9431 51.8153C58.6799 52.2323 58.1259 52.3577 57.7092 52.0946C57.2926 51.8315 57.1676 51.2775 57.4309 50.8605C57.6942 50.4435 58.2482 50.3181 58.6648 50.5812C59.0814 50.8443 59.2064 51.3983 58.9431 51.8153Z" fill="url(#paint0_radial_1045_277)"/>
<path style="mix-blend-mode:color-dodge" d="M102.255 108.601C101.985 109.027 102.112 109.591 102.539 109.86C102.965 110.129 103.528 110.001 103.798 109.575C104.067 109.148 103.94 108.585 103.514 108.316C103.087 108.047 102.524 108.174 102.255 108.601Z" fill="white"/>
<path style="mix-blend-mode:color-dodge" d="M104.97 133.319C104.697 133.751 104.143 133.877 103.711 133.604C103.279 133.331 103.154 132.777 103.427 132.345C103.7 131.912 104.254 131.787 104.686 132.06C105.119 132.333 105.243 132.887 104.97 133.319Z" fill="white"/>
<path style="mix-blend-mode:color-dodge" d="M106.694 81.6413C106.421 82.0737 105.867 82.1991 105.435 81.9263C105.003 81.6535 104.878 81.0994 105.151 80.667C105.424 80.2346 105.978 80.1092 106.41 80.382C106.842 80.6548 106.967 81.2089 106.694 81.6413Z" fill="url(#paint1_radial_1045_277)"/>
<path style="mix-blend-mode:color-dodge" d="M96.8034 49.3467C96.5341 49.7731 96.6613 50.3369 97.0874 50.606C97.5135 50.875 98.0772 50.7474 98.3465 50.321C98.6157 49.8945 98.4886 49.3307 98.0624 49.0617C97.6363 48.7926 97.0726 48.9202 96.8034 49.3467Z" fill="white"/>
<path style="mix-blend-mode:color-dodge" d="M73.9366 124.806C73.6619 125.241 73.7916 125.816 74.2263 126.09C74.6609 126.364 75.2359 126.234 75.5105 125.799C75.7852 125.364 75.6555 124.789 75.2208 124.515C74.7862 124.24 74.2112 124.371 73.9366 124.806Z" fill="white"/>
<path style="mix-blend-mode:color-dodge" d="M117.545 161.842C117.262 162.29 116.683 162.421 116.235 162.138C115.788 161.856 115.657 161.277 115.94 160.829C116.223 160.381 116.802 160.25 117.249 160.532C117.697 160.815 117.827 161.394 117.545 161.842Z" fill="white"/>
<path style="mix-blend-mode:color-dodge" d="M69.4354 96.6917C69.1526 97.1395 68.5734 97.2706 68.1259 96.9881C67.6784 96.7056 67.5478 96.1263 67.8305 95.6784C68.1133 95.2306 68.6925 95.0995 69.14 95.382C69.5875 95.6646 69.7181 96.2439 69.4354 96.6917Z" fill="white"/>
<path style="mix-blend-mode:color-dodge" d="M137.674 119.604C137.391 120.051 136.787 120.188 136.339 119.906C135.892 119.623 135.755 119.019 136.038 118.571C136.321 118.123 136.925 117.986 137.373 118.269C137.82 118.551 137.956 119.156 137.674 119.604Z" fill="url(#paint2_radial_1045_277)"/>
<path style="mix-blend-mode:color-dodge" d="M130.742 130.001C130.457 130.453 130.591 131.05 131.043 131.335C131.495 131.621 132.092 131.485 132.378 131.033C132.663 130.581 132.528 129.984 132.077 129.698C131.625 129.413 131.027 129.549 130.742 130.001Z" fill="white"/>
<path style="mix-blend-mode:color-dodge" d="M62.5135 58.4318C62.2307 58.8796 61.6264 59.0164 61.1789 58.7339C60.7314 58.4513 60.5951 57.8469 60.8778 57.399C61.1606 56.9512 61.7649 56.8144 62.2124 57.0969C62.6599 57.3795 62.7963 57.9839 62.5135 58.4318Z" fill="white"/>
<path style="mix-blend-mode:color-dodge" d="M143.335 97.4103C143.052 97.8581 142.448 97.9949 142 97.7124C141.553 97.4298 141.416 96.8254 141.699 96.3775C141.982 95.9297 142.586 95.7929 143.034 96.0754C143.481 96.358 143.618 96.9624 143.335 97.4103Z" fill="white"/>
<path style="mix-blend-mode:color-dodge" d="M102.413 149.026C102.128 149.478 102.262 150.076 102.714 150.361C103.166 150.646 103.763 150.511 104.049 150.059C104.334 149.607 104.199 149.009 103.748 148.724C103.296 148.439 102.698 148.574 102.413 149.026Z" fill="white"/>
<path style="mix-blend-mode:color-dodge" d="M102.69 122.916C102.407 123.364 101.803 123.501 101.356 123.218C100.908 122.936 100.772 122.331 101.055 121.883C101.337 121.436 101.942 121.299 102.389 121.581C102.837 121.864 102.973 122.468 102.69 122.916Z" fill="url(#paint3_radial_1045_277)"/>
<path style="mix-blend-mode:color-dodge" d="M135.785 57.7174C135.5 58.1694 135.634 58.767 136.086 59.0522C136.538 59.3374 137.135 59.2021 137.421 58.7501C137.706 58.2981 137.571 57.7005 137.12 57.4153C136.668 57.1301 136.07 57.2653 135.785 57.7174Z" fill="white"/>
<path style="mix-blend-mode:color-dodge" d="M105.564 92.5901C105.268 93.0592 105.408 93.6794 105.877 93.9754C106.345 94.2713 106.965 94.1309 107.262 93.6619C107.558 93.1928 107.418 92.5726 106.949 92.2766C106.48 91.9807 105.86 92.121 105.564 92.5901Z" fill="white"/>
<path style="mix-blend-mode:color-dodge" d="M144.229 156.119C143.937 156.582 143.307 156.725 142.844 156.432C142.381 156.14 142.239 155.51 142.532 155.047C142.824 154.584 143.454 154.441 143.917 154.734C144.38 155.026 144.522 155.656 144.229 156.119Z" fill="white"/>
<path style="mix-blend-mode:color-dodge" d="M103.585 53.4769C103.289 53.946 103.428 54.5661 103.897 54.8621C104.366 55.158 104.986 55.0177 105.282 54.5486C105.578 54.0795 105.438 53.4593 104.97 53.1634C104.501 52.8674 103.881 53.0078 103.585 53.4769Z" fill="white"/>
<path style="mix-blend-mode:color-dodge" d="M126.648 128.625C126.346 129.103 126.488 129.734 126.966 130.036C127.443 130.337 128.074 130.194 128.376 129.716C128.677 129.239 128.535 128.607 128.058 128.306C127.58 128.005 126.949 128.148 126.648 128.625Z" fill="white"/>
<path style="mix-blend-mode:color-dodge" d="M129.322 148.349C129.02 148.828 128.39 148.97 127.912 148.668C127.434 148.366 127.292 147.737 127.594 147.258C127.896 146.779 128.526 146.637 129.004 146.939C129.482 147.241 129.624 147.87 129.322 148.349Z" fill="url(#paint4_radial_1045_277)"/>
<path style="mix-blend-mode:color-dodge" d="M60.6464 63.6461C60.3441 64.1248 59.7146 64.2673 59.2362 63.9653C58.7578 63.6632 58.6158 63.0336 58.9181 62.5549C59.2204 62.0761 59.8499 61.9336 60.3283 62.2356C60.8066 62.5377 60.9486 63.1673 60.6464 63.6461Z" fill="url(#paint5_radial_1045_277)"/>
<path style="mix-blend-mode:color-dodge" d="M135.047 103.733C134.745 104.21 134.888 104.842 135.365 105.143C135.842 105.444 136.474 105.301 136.775 104.824C137.077 104.346 136.934 103.715 136.457 103.413C135.98 103.112 135.349 103.255 135.047 103.733Z" fill="white"/>
<path style="mix-blend-mode:color-dodge" d="M64.7919 110.542C64.4896 111.021 63.8503 111.179 63.3565 110.867C62.8628 110.555 62.7207 109.926 63.0328 109.432C63.3448 108.937 63.9743 108.795 64.4681 109.107C64.9619 109.419 65.1039 110.048 64.7919 110.542Z" fill="url(#paint6_radial_1045_277)"/>
<path style="mix-blend-mode:color-dodge" d="M140.568 170.634C140.256 171.128 139.602 171.276 139.108 170.965C138.614 170.653 138.466 169.998 138.778 169.504C139.09 169.01 139.745 168.861 140.239 169.173C140.733 169.485 140.88 170.14 140.568 170.634Z" fill="white"/>
<path style="mix-blend-mode:color-dodge" d="M144.166 64.5429C143.854 65.0375 144.001 65.6915 144.495 66.0036C144.99 66.3157 145.644 66.1677 145.956 65.673C146.268 65.1784 146.121 64.5243 145.626 64.2123C145.132 63.9002 144.478 64.0482 144.166 64.5429Z" fill="white"/>
<path style="mix-blend-mode:color-dodge" d="M95.7372 129.931C95.4155 130.44 94.7453 130.579 94.2515 130.267C93.7577 129.955 93.6044 129.275 93.9164 128.781C94.2284 128.287 94.9083 128.133 95.4021 128.445C95.8959 128.756 96.0492 129.436 95.7372 129.931Z" fill="white"/>
<path style="mix-blend-mode:color-dodge" d="M98.4636 94.609C98.1405 95.1207 98.2931 95.7973 98.8045 96.1201C99.3158 96.443 99.9923 96.2899 100.315 95.7781C100.638 95.2664 100.486 94.5898 99.9745 94.267C99.4632 93.9441 98.7868 94.0973 98.4636 94.609Z" fill="white"/>
<path style="mix-blend-mode:color-dodge" d="M106.132 51.3912C105.8 51.9163 105.12 52.0702 104.596 51.7389C104.071 51.4077 103.918 50.7277 104.249 50.2026C104.581 49.6775 105.261 49.5236 105.785 49.8549C106.31 50.1862 106.463 50.8662 106.132 51.3912Z" fill="url(#paint7_radial_1045_277)"/>
<path style="mix-blend-mode:color-dodge" d="M58.3886 65.7858C58.0571 66.3108 57.3772 66.4647 56.8526 66.1335C56.3279 65.8022 56.1745 65.1222 56.506 64.5971C56.8376 64.0721 57.5175 63.9182 58.0421 64.2494C58.5668 64.5807 58.7201 65.2607 58.3886 65.7858Z" fill="white"/>
<path style="mix-blend-mode:color-dodge" d="M57.5217 108.587C57.1932 109.108 57.3483 109.795 57.8682 110.124C58.388 110.452 59.0758 110.296 59.4042 109.776C59.7327 109.256 59.5776 108.568 59.0577 108.24C58.5379 107.911 57.8502 108.067 57.5217 108.587Z" fill="white"/>
<path style="mix-blend-mode:color-dodge" d="M125.728 99.9655C125.397 100.491 124.717 100.644 124.192 100.313C123.668 99.9819 123.514 99.3019 123.846 98.7768C124.177 98.2518 124.857 98.0979 125.382 98.4291C125.907 98.7604 126.06 99.4404 125.728 99.9655Z" fill="white"/>
<path style="mix-blend-mode:color-dodge" d="M124.798 134.801C124.466 135.326 123.771 135.471 123.262 135.149C122.753 134.828 122.593 134.122 122.915 133.613C123.237 133.103 123.942 132.944 124.451 133.265C124.961 133.587 125.12 134.292 124.798 134.801Z" fill="white"/>
<path style="mix-blend-mode:color-dodge" d="M134.546 166.227C134.214 166.752 133.509 166.912 132.985 166.58C132.46 166.249 132.301 165.544 132.632 165.019C132.964 164.494 133.669 164.334 134.194 164.665C134.718 164.997 134.877 165.702 134.546 166.227Z" fill="url(#paint8_radial_1045_277)"/>
<path style="mix-blend-mode:color-dodge" d="M145.655 59.3467C145.31 59.8926 145.473 60.6142 146.018 60.9586C146.564 61.303 147.285 61.1397 147.63 60.5938C147.975 60.048 147.812 59.3263 147.266 58.9819C146.721 58.6375 145.999 58.8009 145.655 59.3467Z" fill="white"/>
<path style="mix-blend-mode:color-dodge" d="M65.8555 115.318C65.5045 115.874 64.7742 116.039 64.2187 115.689C63.6632 115.338 63.4984 114.608 63.8495 114.052C64.2005 113.496 64.9307 113.33 65.4862 113.681C66.0418 114.032 66.2065 114.762 65.8555 115.318Z" fill="white"/>
<path style="mix-blend-mode:color-dodge" d="M97.5379 130.462C97.1879 131.016 97.3532 131.749 97.9072 132.099C98.4611 132.449 99.1939 132.283 99.544 131.728C99.894 131.174 99.7287 130.441 99.1747 130.091C98.6208 129.742 97.888 129.907 97.5379 130.462Z" fill="white"/>
<path style="mix-blend-mode:color-dodge" d="M101.258 90.8649C100.907 91.4209 100.151 91.5919 99.5959 91.2411C99.0403 90.8904 98.8699 90.1348 99.221 89.5789C99.572 89.0229 100.327 88.8519 100.883 89.2027C101.438 89.5534 101.609 90.309 101.258 90.8649Z" fill="white"/>
<path style="mix-blend-mode:color-dodge" d="M107.42 45.6608C107.059 46.2322 107.229 46.9877 107.8 47.3482C108.371 47.7087 109.127 47.5378 109.487 46.9663C109.848 46.3949 109.678 45.6394 109.107 45.2789C108.536 44.9184 107.78 45.0893 107.42 45.6608Z" fill="white"/>
<path style="mix-blend-mode:color-dodge" d="M66.4239 72.5425C66.0631 73.1139 65.3076 73.2849 64.7367 72.9244C64.1658 72.5639 63.9954 71.8083 64.3561 71.2369C64.7169 70.6655 65.4723 70.4945 66.0433 70.855C66.6142 71.2155 66.7846 71.9711 66.4239 72.5425Z" fill="white"/>
<path style="mix-blend-mode:color-dodge" d="M134.314 92.3841C133.953 92.9555 133.188 93.1419 132.601 92.7717C132.015 92.4015 131.844 91.6459 132.215 91.0591C132.585 90.4722 133.341 90.3012 133.927 90.6715C134.514 91.0417 134.684 91.7973 134.314 92.3841Z" fill="white"/>
<path style="mix-blend-mode:color-dodge" d="M135.112 138.052C134.742 138.639 133.971 138.8 133.4 138.44C132.829 138.079 132.643 137.314 133.014 136.727C133.384 136.14 134.155 135.979 134.726 136.339C135.297 136.7 135.473 137.481 135.112 138.052Z" fill="white"/>
<path style="mix-blend-mode:color-dodge" d="M69.3389 115.099C68.9684 115.686 68.1878 115.862 67.6014 115.492C67.015 115.122 66.839 114.341 67.2095 113.754C67.58 113.167 68.3606 112.991 68.947 113.361C69.5334 113.731 69.7095 114.512 69.3389 115.099Z" fill="white"/>
<path style="mix-blend-mode:color-dodge" d="M130.097 131.776C129.72 132.373 129.898 133.162 130.494 133.539C131.091 133.915 131.88 133.737 132.257 133.14C132.634 132.543 132.456 131.753 131.859 131.377C131.263 131 130.474 131.179 130.097 131.776Z" fill="white"/>
<path style="mix-blend-mode:color-dodge" d="M115.318 92.4205C114.938 93.0228 114.123 93.2206 113.521 92.8406C112.919 92.4607 112.722 91.645 113.112 91.0273C113.502 90.4095 114.308 90.2271 114.925 90.6168C115.542 91.0066 115.708 91.8028 115.318 92.4205Z" fill="url(#paint9_radial_1045_277)"/>
<path style="mix-blend-mode:color-dodge" d="M60.4986 70.443C60.1001 71.0742 60.2883 71.9086 60.919 72.3068C61.5496 72.705 62.3839 72.5161 62.7824 71.885C63.1809 71.2538 62.9927 70.4194 62.362 70.0212C61.7314 69.623 60.8971 69.8119 60.4986 70.443Z" fill="white"/>
<path style="mix-blend-mode:color-dodge" d="M92.1369 148.996C91.7371 149.629 90.9061 149.818 90.2734 149.418C89.6408 149.019 89.4533 148.188 89.8531 147.554C90.2529 146.921 91.0838 146.733 91.7165 147.133C92.3492 147.532 92.5366 148.363 92.1369 148.996Z" fill="white"/>
<path style="mix-blend-mode:color-dodge" d="M166.142 125.72C165.744 126.351 165.932 127.186 166.563 127.584C167.193 127.982 168.027 127.793 168.426 127.162C168.824 126.531 168.636 125.697 168.006 125.299C167.375 124.9 166.541 125.089 166.142 125.72Z" fill="white"/>
<path style="mix-blend-mode:color-dodge" d="M119.527 50.4104C119.128 51.0435 118.297 51.2316 117.664 50.8322C117.031 50.4327 116.844 49.6016 117.244 48.9684C117.643 48.3352 118.474 48.1471 119.107 48.5466C119.74 48.9461 119.927 49.7772 119.527 50.4104Z" fill="white"/>
<path style="mix-blend-mode:color-dodge" d="M154.999 80.7124C154.595 81.3521 154.786 82.1978 155.425 82.6013C156.064 83.0049 156.91 82.8135 157.314 82.1738C157.718 81.5342 157.527 80.6885 156.888 80.2849C156.248 79.8813 155.403 80.0727 154.999 80.7124Z" fill="white"/>
<path style="mix-blend-mode:color-dodge" d="M155.742 135.699C155.338 136.338 155.529 137.184 156.168 137.588C156.807 137.991 157.653 137.8 158.057 137.16C158.461 136.521 158.27 135.675 157.631 135.271C156.992 134.868 156.146 135.059 155.742 135.699Z" fill="white"/>
<path style="mix-blend-mode:color-dodge" d="M75.6576 116.474C75.2483 117.122 75.4416 117.979 76.0893 118.388C76.737 118.797 77.5938 118.603 78.0031 117.955C78.4124 117.307 78.2191 116.45 77.5714 116.041C76.9237 115.632 76.0669 115.826 75.6576 116.474Z" fill="white"/>
<path style="mix-blend-mode:color-dodge" d="M126.857 92.88C126.437 93.5452 126.635 94.4248 127.3 94.8445C127.964 95.2642 128.844 95.0651 129.264 94.3999C129.684 93.7346 129.486 92.8551 128.821 92.4354C128.156 92.0157 127.277 92.2147 126.857 92.88Z" fill="white"/>
<path style="mix-blend-mode:color-dodge" d="M56.2012 86.8895C55.7704 87.5718 55.9739 88.4739 56.6556 88.9043C57.3374 89.3348 58.2394 89.1306 58.6702 88.4483C59.101 87.766 58.8975 86.8639 58.2157 86.4335C57.5339 86.003 56.632 86.2071 56.2012 86.8895Z" fill="white"/>
<path style="mix-blend-mode:color-dodge" d="M125.043 51.28C124.604 51.9749 123.673 52.1858 122.978 51.7474C122.284 51.309 122.074 50.3771 122.513 49.6822C122.951 48.9872 123.883 48.7763 124.577 49.2148C125.272 49.6532 125.482 50.5851 125.043 51.28Z" fill="url(#paint10_radial_1045_277)"/>
<path style="mix-blend-mode:color-dodge" d="M134.165 111.147C133.707 111.872 132.75 112.089 132.025 111.631C131.3 111.173 131.084 110.216 131.542 109.49C132 108.765 132.957 108.548 133.683 109.006C134.408 109.464 134.624 110.421 134.165 111.147Z" fill="white"/>
<path style="mix-blend-mode:color-dodge" d="M87.0951 143.48C86.6271 144.221 85.6352 144.459 84.8791 143.982C84.123 143.504 83.9015 142.522 84.3792 141.765C84.857 141.009 85.8391 140.786 86.5952 141.264C87.3513 141.741 87.5729 142.723 87.0951 143.48Z" fill="url(#paint11_radial_1045_277)"/>
<path style="mix-blend-mode:color-dodge" d="M120.793 74.2139C120.306 74.986 119.273 75.2197 118.502 74.7326C117.73 74.2455 117.497 73.2128 117.985 72.4407C118.472 71.6685 119.505 71.4348 120.276 71.922C121.048 72.4091 121.281 73.4418 120.793 74.2139Z" fill="white"/>
<path style="mix-blend-mode:color-dodge" d="M54.4975 122.401C54.0099 123.174 52.9775 123.407 52.206 122.92C51.4344 122.433 51.2015 121.4 51.689 120.628C52.1766 119.856 53.209 119.622 53.9805 120.109C54.7521 120.597 54.985 121.629 54.4975 122.401Z" fill="url(#paint12_radial_1045_277)"/>
<path style="mix-blend-mode:color-dodge" d="M122.376 44.3268C121.879 45.1144 120.822 45.3538 120.035 44.8569C119.248 44.36 119.009 43.3022 119.506 42.5146C120.004 41.727 121.061 41.4876 121.848 41.9845C122.635 42.4814 122.874 43.5392 122.376 44.3268Z" fill="white"/>
<path style="mix-blend-mode:color-dodge" d="M36.5932 92.3076C36.0924 93.1008 36.3289 94.1495 37.1215 94.6499C37.914 95.1503 38.9625 94.913 39.4633 94.1198C39.9641 93.3266 39.7276 92.2779 38.935 91.7775C38.1425 91.2771 37.094 91.5144 36.5932 92.3076Z" fill="white"/>
<path style="mix-blend-mode:color-dodge" d="M126.09 150.563C125.574 151.382 125.818 152.464 126.636 152.981C127.454 153.497 128.536 153.252 129.053 152.434C129.57 151.615 129.326 150.532 128.508 150.016C127.69 149.499 126.607 149.744 126.09 150.563Z" fill="white"/>
<path style="mix-blend-mode:color-dodge" d="M107.551 116.244C106.991 117.131 107.255 118.303 108.141 118.863C109.028 119.423 110.2 119.157 110.76 118.27C111.32 117.383 111.056 116.21 110.17 115.651C109.283 115.091 108.111 115.357 107.551 116.244Z" fill="white"/>
<path style="mix-blend-mode:color-dodge" d="M112.241 86.8713C111.675 87.767 110.482 88.0504 109.572 87.4755C108.661 86.9007 108.394 85.717 108.97 84.8058C109.545 83.8947 110.728 83.6268 111.639 84.2016C112.549 84.7765 112.816 85.9602 112.241 86.8713Z" fill="url(#paint13_radial_1045_277)"/>
<g style="mix-blend-mode:color-dodge" opacity="0.9">
<path d="M35.2293 109.508C35.2293 109.508 35.2603 109.656 35.2271 109.712C35.1685 109.842 35.0292 109.89 34.8993 109.831L22.9814 105.899C22.9814 105.899 22.8843 105.824 22.8603 105.775C22.8284 105.709 22.8292 105.628 22.8625 105.571C22.9211 105.441 23.0604 105.394 23.1903 105.452L35.1082 109.384C35.1082 109.384 35.2053 109.459 35.2293 109.508Z" fill="url(#paint14_linear_1045_277)"/>
</g>
<g style="mix-blend-mode:color-dodge" opacity="0.9">
<path d="M57.9718 51.201C57.9718 51.201 58.0303 51.1083 58.1212 51.101C58.2065 51.0684 58.2683 51.1074 58.2991 51.1269C58.33 51.1464 58.3917 51.1853 58.4144 51.2861L64.8472 75.7589C64.8472 75.7589 64.8309 75.9215 64.8114 75.9523C64.7919 75.9832 64.7529 76.045 64.6619 76.0524C64.536 76.0809 64.3874 76.0086 64.3687 75.8672L57.936 51.3944C57.936 51.3944 57.9523 51.2319 57.9718 51.201Z" fill="url(#paint15_linear_1045_277)"/>
</g>
<g style="mix-blend-mode:color-dodge" opacity="0.9">
<path d="M71.2067 105.132C71.2067 105.132 71.275 105.024 71.366 105.017C71.4569 105.009 71.5284 105.033 71.5495 105.068C71.5804 105.087 71.6421 105.126 71.6494 105.217L74.9656 125.26C74.9656 125.26 74.9437 125.397 74.9242 125.428C74.9047 125.459 74.8559 125.536 74.7495 125.534C74.6082 125.553 74.4945 125.459 74.4661 125.333L71.1596 105.275C71.1596 105.275 71.1718 105.153 71.2011 105.107L71.2067 105.132Z" fill="url(#paint16_linear_1045_277)"/>
</g>
<g style="mix-blend-mode:color-dodge" opacity="0.9">
<path d="M82.0212 139.997C82.0212 139.997 82.07 139.92 82.1553 139.888L104.123 132.612C104.259 132.568 104.392 132.631 104.436 132.766C104.453 132.842 104.454 132.908 104.405 132.985C104.386 133.016 104.357 133.062 104.271 133.095L82.3038 140.37C82.1682 140.414 82.035 140.352 81.9911 140.216C81.9741 140.141 81.9725 140.075 82.0115 140.013L82.0212 139.997Z" fill="url(#paint17_linear_1045_277)"/>
</g>
<g style="mix-blend-mode:color-dodge" opacity="0.9">
<path d="M102.826 108.961C102.826 108.961 102.894 108.853 103.025 108.849C103.157 108.846 103.286 108.949 103.289 109.081L104.453 132.841C104.453 132.841 104.425 132.953 104.406 132.984C104.367 133.045 104.287 133.103 104.206 133.095C104.115 133.102 104.053 133.063 104.032 133.028C104.001 133.009 103.959 132.939 103.952 132.848L102.788 109.088C102.788 109.088 102.816 108.976 102.835 108.945L102.826 108.961Z" fill="url(#paint18_linear_1045_277)"/>
</g>
<g style="mix-blend-mode:color-dodge" opacity="0.9">
<path d="M105.707 81.0165C105.707 81.0165 105.825 80.897 105.947 80.9091C106.084 80.931 106.179 81.0553 106.166 81.1772L103.295 109.106C103.295 109.106 103.271 109.178 103.252 109.209C103.213 109.27 103.133 109.328 103.011 109.316C102.93 109.308 102.878 109.254 102.857 109.219C102.826 109.199 102.784 109.129 102.802 109.033L105.673 81.1035C105.673 81.1035 105.697 81.032 105.717 81.0011L105.707 81.0165Z" fill="url(#paint19_linear_1045_277)"/>
</g>
<g style="mix-blend-mode:color-dodge" opacity="0.9">
<path d="M97.3646 49.7231C97.3646 49.7231 97.4231 49.6305 97.5141 49.6231C97.5993 49.5906 97.6611 49.6296 97.6919 49.649C97.7228 49.6685 97.7845 49.7075 97.8072 49.8082L106.139 81.1177C106.139 81.1177 106.123 81.2802 106.103 81.3111C106.084 81.342 106.045 81.4037 105.954 81.4111C105.828 81.4396 105.679 81.3673 105.661 81.226L97.3288 49.9165C97.3288 49.9165 97.3451 49.754 97.3646 49.7231Z" fill="url(#paint20_linear_1045_277)"/>
</g>
<g style="mix-blend-mode:color-dodge" opacity="0.9">
<path d="M64.4038 75.6741C64.4038 75.6741 64.4623 75.5814 64.563 75.5586C64.6889 75.5301 64.8278 75.6178 64.8562 75.7437L68.8693 96.1185C68.8693 96.1185 68.8628 96.2656 68.8433 96.2965C68.8238 96.3274 68.7848 96.3892 68.684 96.412C68.5931 96.4193 68.5216 96.3958 68.4907 96.3763C68.4599 96.3568 68.3981 96.3178 68.3908 96.2268L64.368 75.8675C64.368 75.8675 64.3745 75.7204 64.394 75.6895L64.4038 75.6741Z" fill="url(#paint21_linear_1045_277)"/>
</g>
<g style="mix-blend-mode:color-dodge" opacity="0.9">
<path d="M57.9714 51.202C57.9714 51.202 58.0202 51.1248 58.0705 51.1134C58.2005 51.0443 58.3435 51.0914 58.3971 51.2116L61.9054 57.7898C61.9054 57.7898 61.9452 57.9661 61.8964 58.0433C61.8769 58.0742 61.8477 58.1205 61.7973 58.1319C61.6674 58.201 61.5244 58.154 61.4708 58.0338L57.9624 51.4556C57.9145 51.3605 57.9324 51.2638 57.9714 51.202Z" fill="url(#paint22_linear_1045_277)"/>
</g>
<g style="mix-blend-mode:color-dodge" opacity="0.9">
<path d="M97.375 49.7067C97.375 49.7067 97.5285 49.5661 97.6406 49.5936L136.653 57.9827C136.79 58.0046 136.874 58.1443 136.837 58.2719C136.817 58.3028 136.808 58.3182 136.788 58.3491C136.739 58.4263 136.635 58.4898 136.523 58.4622L97.5105 50.0731C97.3733 50.0512 97.2888 49.9115 97.3262 49.7839C97.3457 49.753 97.3555 49.7376 97.375 49.7067Z" fill="url(#paint23_linear_1045_277)"/>
</g>
<g style="mix-blend-mode:color-dodge" opacity="0.9">
<path d="M74.508 125.166C74.508 125.166 74.6169 125.062 74.6924 125.045L101.826 122.132C101.957 122.129 102.071 122.222 102.1 122.348C102.101 122.414 102.087 122.47 102.068 122.501C102.029 122.563 101.959 122.605 101.883 122.622L74.75 125.535C74.75 125.535 74.5973 125.503 74.5664 125.484C74.5356 125.464 74.4836 125.41 74.4763 125.319C74.4747 125.253 74.4885 125.197 74.508 125.166Z" fill="url(#paint24_linear_1045_277)"/>
</g>
<g style="mix-blend-mode:color-dodge" opacity="0.9">
<path d="M103.034 149.376C103.118 149.278 103.275 149.269 103.389 149.362L116.9 161.154C116.983 161.228 117.001 161.37 116.943 161.462C116.874 161.57 116.783 161.578 116.758 161.584C116.718 161.579 116.652 161.581 116.575 161.532L103.064 149.74C102.965 149.657 102.962 149.525 103.021 149.432L103.04 149.401L103.034 149.376Z" fill="url(#paint25_linear_1045_277)"/>
</g>
<g style="mix-blend-mode:color-dodge" opacity="0.9">
<path d="M97.3751 49.708C97.4434 49.5999 97.5945 49.5657 97.7122 49.6184L104.57 53.7972C104.678 53.8654 104.728 54.0263 104.659 54.1344C104.581 54.2579 104.43 54.2921 104.322 54.2239L97.4644 50.0451C97.3564 49.9769 97.3069 49.8161 97.3751 49.708Z" fill="url(#paint26_linear_1045_277)"/>
</g>
<g style="mix-blend-mode:color-dodge" opacity="0.9">
<path d="M136.656 118.961C136.724 118.853 136.859 118.809 136.967 118.877C137.075 118.946 137.144 119.076 137.082 119.209L131.786 130.639C131.708 130.762 131.582 130.791 131.464 130.738C131.346 130.685 131.287 130.54 131.34 130.422L136.646 118.977L136.656 118.961Z" fill="url(#paint27_linear_1045_277)"/>
</g>
<g style="mix-blend-mode:color-dodge" opacity="0.9">
<path d="M142.306 96.782C142.306 96.782 142.459 96.6414 142.572 96.669C142.699 96.7063 142.793 96.8306 142.756 96.9581L137.105 119.137C137.105 119.137 137.095 119.152 137.086 119.167C137.017 119.276 136.912 119.339 136.8 119.311C136.704 119.294 136.661 119.224 136.646 119.214C136.615 119.195 136.598 119.119 136.616 119.022L142.267 96.8438L142.296 96.7975L142.306 96.782Z" fill="url(#paint28_linear_1045_277)"/>
</g>
<g style="mix-blend-mode:color-dodge" opacity="0.9">
<path d="M106.212 92.9995C106.261 92.9223 106.356 92.8743 106.462 92.8767C106.6 92.8986 106.694 93.0229 106.672 93.1602L102.116 122.423C102.116 122.423 102.102 122.48 102.083 122.51C102.034 122.588 101.939 122.636 101.842 122.618C101.746 122.6 101.719 122.54 101.688 122.52C101.657 122.501 101.625 122.416 101.648 122.344L106.204 93.0808C106.204 93.0808 106.218 93.0247 106.237 92.9938L106.212 92.9995Z" fill="url(#paint29_linear_1045_277)"/>
</g>
<g style="mix-blend-mode:color-dodge" opacity="0.9">
<path d="M127.31 129.043C127.369 128.95 127.489 128.897 127.592 128.94L131.64 130.287C131.768 130.324 131.827 130.469 131.79 130.597C131.79 130.597 131.79 130.597 131.78 130.612C131.692 130.751 131.582 130.79 131.479 130.746L127.431 129.4C127.431 129.4 127.307 129.322 127.296 129.271C127.275 129.236 127.258 129.161 127.281 129.089L127.31 129.043Z" fill="url(#paint30_linear_1045_277)"/>
</g>
<g style="mix-blend-mode:color-dodge" opacity="0.9">
<path d="M68.4325 96.0581C68.491 95.9655 68.6112 95.9118 68.7136 95.9548C68.8411 95.9921 68.9158 96.1473 68.863 96.2651L64.157 110.076L64.1472 110.092C64.0595 110.231 63.949 110.269 63.8467 110.226C63.7598 110.193 63.7232 110.148 63.7119 110.098C63.6908 110.063 63.6737 109.987 63.6973 109.916L68.4033 96.1045L68.4325 96.0581Z" fill="url(#paint31_linear_1045_277)"/>
</g>
<g style="mix-blend-mode:color-dodge" opacity="0.9">
<path d="M61.4799 57.78C61.5384 57.6873 61.6741 57.6434 61.7764 57.6864C61.9039 57.7237 61.9786 57.8788 61.9258 57.9967L59.9964 63.1719C59.9086 63.3108 59.7982 63.3491 59.6804 63.2963C59.5626 63.2436 59.4782 63.1038 59.531 62.986L61.445 57.8011L61.4743 57.7548L61.4799 57.78Z" fill="url(#paint32_linear_1045_277)"/>
</g>
<g style="mix-blend-mode:color-dodge" opacity="0.9">
<path d="M101.657 122.263C101.716 122.17 101.826 122.132 101.938 122.16L127.592 128.94C127.72 128.977 127.789 129.107 127.767 129.245L127.747 129.275C127.669 129.399 127.574 129.447 127.462 129.419L101.808 122.639C101.808 122.639 101.669 122.551 101.654 122.542C101.638 122.532 101.606 122.447 101.624 122.35L101.663 122.288L101.657 122.263Z" fill="url(#paint33_linear_1045_277)"/>
</g>
<g style="mix-blend-mode:color-dodge" opacity="0.9">
<path d="M135.73 104.12L142.335 96.735C142.419 96.6366 142.576 96.6276 142.674 96.7112C142.772 96.7949 142.791 96.9362 142.732 97.0289L136.108 104.445C136.024 104.543 135.867 104.552 135.769 104.469C135.671 104.385 135.652 104.244 135.71 104.151L135.73 104.12Z" fill="url(#paint34_linear_1045_277)"/>
</g>
<g style="mix-blend-mode:color-dodge" opacity="0.9">
<path d="M128.243 147.667C128.311 147.559 128.447 147.515 128.58 147.578L143.517 155.368C143.625 155.436 143.685 155.581 143.616 155.689C143.538 155.813 143.403 155.857 143.285 155.804L128.363 148.024C128.255 147.956 128.196 147.81 128.248 147.692L128.258 147.677L128.243 147.667Z" fill="url(#paint35_linear_1045_277)"/>
</g>
<g style="mix-blend-mode:color-dodge" opacity="0.9">
<path d="M106.213 92.9995C106.271 92.9068 106.407 92.8629 106.509 92.9059L135.992 104.048C136.11 104.1 136.179 104.23 136.132 104.373C136.044 104.512 135.933 104.551 135.831 104.508L106.348 93.3659C106.23 93.3131 106.161 93.1831 106.209 93.0401L106.238 92.9938L106.213 92.9995Z" fill="url(#paint36_linear_1045_277)"/>
</g>
<g style="mix-blend-mode:color-dodge" opacity="0.9">
<path d="M136.397 58.0803C136.397 58.0803 136.521 57.9859 136.562 57.99C136.602 57.994 136.668 57.9924 136.745 58.0411L145.213 64.8996C145.321 64.9678 145.33 65.1247 145.272 65.2173C145.184 65.3563 145.012 65.3556 144.904 65.2874L136.436 58.4288C136.328 58.3606 136.319 58.2038 136.377 58.1111L136.397 58.0803Z" fill="url(#paint37_linear_1045_277)"/>
</g>
<g style="mix-blend-mode:color-dodge" opacity="0.9">
<path d="M127.301 129.058C127.301 129.058 127.41 128.954 127.501 128.947C127.592 128.939 127.654 128.978 127.675 129.013C127.696 129.048 127.758 129.087 127.765 129.178L128.706 147.786C128.706 147.786 128.679 147.898 128.659 147.929C128.611 148.006 128.541 148.049 128.459 148.041C128.369 148.048 128.307 148.009 128.286 147.974C128.255 147.955 128.213 147.885 128.205 147.794L127.274 129.17C127.274 129.17 127.282 129.089 127.311 129.043L127.301 129.058Z" fill="url(#paint38_linear_1045_277)"/>
</g>
<g style="mix-blend-mode:color-dodge" opacity="0.9">
<path d="M135.711 104.151C135.769 104.058 135.889 104.004 135.992 104.047C136.079 104.081 136.131 104.135 136.127 104.176C136.148 104.211 136.165 104.286 136.141 104.358L127.741 129.25C127.741 129.25 127.741 129.25 127.731 129.265C127.644 129.404 127.533 129.442 127.431 129.399C127.303 129.362 127.229 129.207 127.266 129.079L135.666 104.187L135.695 104.141L135.711 104.151Z" fill="url(#paint39_linear_1045_277)"/>
</g>
<g style="mix-blend-mode:color-dodge" opacity="0.9">
<path d="M143.18 155.457C143.18 155.457 143.334 155.316 143.446 155.344C143.542 155.362 143.585 155.432 143.6 155.441C143.631 155.461 143.648 155.537 143.63 155.633L139.908 170.109C139.908 170.109 139.898 170.124 139.888 170.14C139.82 170.248 139.715 170.311 139.603 170.284C139.506 170.266 139.464 170.196 139.449 170.186C139.418 170.167 139.401 170.091 139.419 169.994L143.141 155.519L143.18 155.457Z" fill="url(#paint40_linear_1045_277)"/>
</g>
<g style="mix-blend-mode:color-dodge" opacity="0.9">
<path d="M104.989 50.6715C104.989 50.6715 105.143 50.5308 105.255 50.5584C105.352 50.5762 105.379 50.6364 105.409 50.6558C105.44 50.6753 105.457 50.7509 105.439 50.8476L104.683 54.0632C104.683 54.0632 104.663 54.0941 104.653 54.1095C104.575 54.233 104.48 54.281 104.368 54.2534C104.241 54.2161 104.146 54.0919 104.184 53.9643L104.941 50.7487L104.98 50.6869L104.989 50.6715Z" fill="url(#paint41_linear_1045_277)"/>
</g>
<g style="mix-blend-mode:color-dodge" opacity="0.9">
<path d="M57.2316 65.0553C57.2316 65.0553 57.2511 65.0244 57.2706 64.9936L59.5892 62.8936C59.6883 62.805 59.8508 62.8212 59.9393 62.9203C60.0124 63.0096 60.0254 63.1258 59.9669 63.2185L57.6035 65.355C57.5044 65.4436 57.342 65.4274 57.2534 65.3283C57.1804 65.239 57.1674 65.1228 57.2259 65.0301L57.2316 65.0553Z" fill="url(#paint42_linear_1045_277)"/>
</g>
<g style="mix-blend-mode:color-dodge" opacity="0.9">
<path d="M58.247 109.045C58.2958 108.968 58.3908 108.92 58.4972 108.922L63.9611 109.737C64.0984 109.759 64.1772 109.873 64.1706 110.021C64.1511 110.051 64.1471 110.092 64.1276 110.123C64.0788 110.2 63.9838 110.248 63.8871 110.23L58.4386 109.425C58.3014 109.403 58.2072 109.279 58.2291 109.142C58.2486 109.111 58.2527 109.07 58.2624 109.055L58.247 109.045Z" fill="url(#paint43_linear_1045_277)"/>
</g>
<g style="mix-blend-mode:color-dodge" opacity="0.9">
<path d="M94.6262 129.229C94.675 129.151 94.77 129.103 94.8764 129.106L123.906 133.957C124.019 133.985 124.123 134.093 124.101 134.231C124.081 134.262 124.077 134.302 124.067 134.318C124.018 134.395 123.923 134.443 123.827 134.425L94.8121 129.584C94.6749 129.562 94.5807 129.437 94.6026 129.3C94.6221 129.269 94.6165 129.244 94.636 129.213L94.6262 129.229Z" fill="url(#paint44_linear_1045_277)"/>
</g>
<g style="mix-blend-mode:color-dodge" opacity="0.9">
<path d="M146.441 59.8439C146.5 59.7512 146.61 59.713 146.722 59.7406C146.85 59.7779 146.934 59.9176 146.897 60.0452L145.326 65.1657L145.316 65.1812C145.228 65.3202 145.118 65.3584 145.015 65.3154C144.928 65.2821 144.892 65.2374 144.871 65.2025C144.85 65.1676 144.823 65.1075 144.856 65.0205L146.427 59.9L146.457 59.8536L146.441 59.8439Z" fill="url(#paint45_linear_1045_277)"/>
</g>
<g style="mix-blend-mode:color-dodge" opacity="0.9">
<path d="M99.1885 95.0666C99.2373 94.9894 99.3323 94.9414 99.4387 94.9438L124.827 99.1371C124.827 99.1371 124.95 99.2151 124.981 99.2346C125.012 99.254 125.044 99.3393 125.021 99.4109C125.001 99.4417 125.007 99.4669 124.987 99.4978C124.939 99.575 124.844 99.623 124.737 99.6206L99.3493 95.4273C99.3493 95.4273 99.2258 95.3494 99.1949 95.3299C99.1641 95.3104 99.147 95.2348 99.1552 95.1536C99.1747 95.1227 99.169 95.0975 99.1885 95.0666Z" fill="url(#paint46_linear_1045_277)"/>
</g>
<g style="mix-blend-mode:color-dodge" opacity="0.9">
<path d="M124.561 99.2494C124.561 99.2494 124.68 99.1299 124.786 99.1323C124.918 99.1289 125.037 99.2475 125.03 99.3946L124.11 134.215C124.11 134.215 124.102 134.296 124.072 134.342C124.024 134.419 123.954 134.462 123.847 134.459C123.757 134.467 123.705 134.412 123.683 134.377C123.653 134.358 123.61 134.288 123.618 134.207L124.539 99.3867C124.539 99.3867 124.547 99.3055 124.576 99.2591L124.561 99.2494Z" fill="url(#paint47_linear_1045_277)"/>
</g>
<g style="mix-blend-mode:color-dodge" opacity="0.9">
<path d="M123.64 134.07C123.64 134.07 123.699 133.978 123.774 133.961C123.91 133.917 124.033 133.995 124.077 134.13L133.825 165.556C133.825 165.556 133.824 165.728 133.805 165.759C133.785 165.79 133.746 165.852 133.671 165.869C133.585 165.902 133.514 165.878 133.483 165.859C133.452 165.839 133.39 165.8 133.358 165.715L123.61 134.289C123.61 134.289 123.611 134.117 123.631 134.086L123.64 134.07Z" fill="url(#paint48_linear_1045_277)"/>
</g>
<g style="mix-blend-mode:color-dodge" opacity="0.9">
<path d="M94.6263 129.228C94.6946 129.12 94.8302 129.076 94.948 129.129L98.6621 130.869C98.7701 130.938 98.8391 131.068 98.7765 131.201C98.6985 131.324 98.5629 131.368 98.4451 131.316L94.731 129.575C94.623 129.507 94.554 129.377 94.6166 129.244L94.6361 129.213L94.6263 129.228Z" fill="url(#paint49_linear_1045_277)"/>
</g>
<g style="mix-blend-mode:color-dodge" opacity="0.9">
<path d="M104.99 50.6702C104.99 50.6702 105.143 50.5296 105.255 50.5572L146.707 59.7308C146.845 59.7527 146.929 59.8924 146.892 60.02C146.872 60.0509 146.862 60.0663 146.843 60.0972C146.794 60.1744 146.689 60.2378 146.577 60.2103L105.141 51.0464C105.013 51.009 104.919 50.8848 104.956 50.7572C104.966 50.7417 104.986 50.7109 105.005 50.68L104.99 50.6702Z" fill="url(#paint50_linear_1045_277)"/>
</g>
<g style="mix-blend-mode:color-dodge" opacity="0.9">
<path d="M58.2823 109.024C58.366 108.926 58.5325 108.901 58.6308 108.985L65.0197 114.488C65.1123 114.546 65.1212 114.703 65.0627 114.796C64.9595 114.925 64.793 114.949 64.6793 114.856L58.2904 109.353C58.1978 109.295 58.1889 109.138 58.2474 109.045L58.2669 109.014L58.2823 109.024Z" fill="url(#paint51_linear_1045_277)"/>
</g>
<g style="mix-blend-mode:color-dodge" opacity="0.9">
<path d="M100.024 90.0869C100.082 89.9942 100.167 89.9617 100.274 89.9641C100.411 89.986 100.505 90.1102 100.483 90.2476L99.6325 95.2183C99.6325 95.2183 99.6187 95.2743 99.5992 95.3052C99.5504 95.3824 99.4554 95.4304 99.349 95.428C99.2117 95.4062 99.1175 95.2819 99.1395 95.1446L99.9902 90.1739C99.9902 90.1739 100.004 90.1178 100.024 90.0869Z" fill="url(#paint52_linear_1045_277)"/>
</g>
<g style="mix-blend-mode:color-dodge" opacity="0.9">
<path d="M108.262 46.1715C108.262 46.1715 108.387 46.0772 108.427 46.0812C108.468 46.0852 108.544 46.0682 108.611 46.1323C108.719 46.2005 108.753 46.3516 108.675 46.4752L105.402 50.975C105.402 50.975 105.278 51.0693 105.237 51.0652C105.197 51.0612 105.121 51.0783 105.054 51.0141C104.946 50.9459 104.912 50.7948 104.99 50.6713L108.262 46.1715Z" fill="url(#paint53_linear_1045_277)"/>
</g>
<g style="mix-blend-mode:color-dodge" opacity="0.9">
<path d="M57.2515 65.0246C57.3352 64.9263 57.5017 64.9018 57.6 64.9855L65.5425 71.685C65.6505 71.7532 65.6594 71.91 65.6009 72.0027C65.4977 72.1319 65.3312 72.1564 65.2427 72.0573L57.3002 65.3578C57.1922 65.2896 57.1833 65.1327 57.2418 65.0401L57.2613 65.0092L57.2515 65.0246Z" fill="url(#paint54_linear_1045_277)"/>
</g>
<g style="mix-blend-mode:color-dodge" opacity="0.9">
<path d="M98.3245 130.959C98.383 130.866 98.478 130.818 98.5901 130.846L134.112 137.139C134.25 137.161 134.344 137.286 134.322 137.423C134.302 137.454 134.293 137.469 134.273 137.5C134.215 137.593 134.129 137.625 134.023 137.623L98.5161 131.339C98.3788 131.317 98.2846 131.193 98.3066 131.056C98.3261 131.025 98.3204 130.999 98.3399 130.969L98.3245 130.959Z" fill="url(#paint55_linear_1045_277)"/>
</g>
<g style="mix-blend-mode:color-dodge" opacity="0.9">
<path d="M64.6263 114.564C64.6263 114.564 64.7351 114.46 64.8107 114.442L68.2328 114.184C68.3644 114.181 68.4781 114.274 68.4968 114.415C68.4984 114.481 68.4845 114.537 68.465 114.568C68.426 114.63 68.3562 114.672 68.2806 114.689L64.8585 114.948C64.7269 114.951 64.5978 114.848 64.5946 114.716C64.593 114.651 64.6068 114.595 64.6263 114.564Z" fill="url(#paint56_linear_1045_277)"/>
</g>
<g style="mix-blend-mode:color-dodge" opacity="0.9">
<path d="M100.024 90.0867C100.024 90.0867 100.158 89.9769 100.249 89.9696L133.273 91.4681C133.42 91.4745 133.515 91.5988 133.518 91.7304C133.514 91.771 133.51 91.8116 133.48 91.858C133.441 91.9197 133.362 91.9775 133.255 91.9751L100.231 90.4766C100.231 90.4766 100.088 90.4296 100.067 90.3946C100.036 90.3751 99.9936 90.3053 100.002 90.224C100.006 90.1834 100.01 90.1428 100.039 90.0964L100.024 90.0867Z" fill="url(#paint57_linear_1045_277)"/>
</g>
<g style="mix-blend-mode:color-dodge" opacity="0.9">
<path d="M57.1841 39.733C57.1841 39.733 57.2426 39.6404 57.3336 39.633C57.4189 39.6005 57.4806 39.6395 57.5269 39.6687C57.5578 39.6882 57.6195 39.7271 57.6422 39.8279L65.6321 71.8501C65.6321 71.8501 65.6158 72.0126 65.5963 72.0435C65.5768 72.0744 65.5378 72.1361 65.4468 72.1435C65.3209 72.172 65.1723 72.0998 65.1536 71.9584L57.1638 39.9362C57.1638 39.9362 57.18 39.7737 57.1995 39.7428L57.1841 39.733Z" fill="url(#paint58_linear_1045_277)"/>
</g>
<g style="mix-blend-mode:color-dodge" opacity="0.9">
<path d="M100.024 90.0858C100.024 90.0858 100.142 89.9663 100.264 89.9784L114.232 91.4756C114.37 91.4975 114.464 91.6218 114.452 91.7437C114.432 91.7746 114.428 91.8152 114.409 91.8461C114.37 91.9078 114.28 91.981 114.168 91.9534L100.2 90.4562C100.063 90.4344 99.9685 90.3101 99.9807 90.1882C100 90.1573 100.004 90.1167 100.024 90.0858Z" fill="url(#paint59_linear_1045_277)"/>
</g>
<g style="mix-blend-mode:color-dodge" opacity="0.9">
<path d="M130.967 132.345C130.967 132.345 131.006 132.284 131.041 132.262C131.111 132.22 131.192 132.228 131.232 132.232C131.263 132.252 131.335 132.275 131.387 132.33L134.257 137.252C134.257 137.252 134.287 137.444 134.248 137.506C134.229 137.537 134.209 137.568 134.174 137.589C134.06 137.668 133.901 137.611 133.838 137.506L130.968 132.583C130.968 132.583 130.938 132.392 130.977 132.33L130.967 132.345Z" fill="url(#paint60_linear_1045_277)"/>
</g>
<g style="mix-blend-mode:color-dodge" opacity="0.9">
<path d="M108.252 46.1868C108.311 46.0941 108.431 46.0404 108.533 46.0834L118.466 49.4604C118.593 49.4977 118.652 49.6431 118.615 49.7707C118.615 49.7707 118.615 49.7707 118.605 49.7861C118.517 49.9251 118.407 49.9633 118.305 49.9203L108.372 46.5434C108.245 46.5061 108.185 46.3607 108.223 46.2331L108.252 46.1868Z" fill="url(#paint61_linear_1045_277)"/>
</g>
<g style="mix-blend-mode:color-dodge" opacity="0.9">
<path d="M61.4394 71.0377C61.4979 70.945 61.5929 70.897 61.705 70.9246L65.4396 71.6411C65.5769 71.6629 65.6711 71.7872 65.6394 71.94C65.6199 71.9709 65.6101 71.9863 65.5906 72.0172C65.5321 72.1099 65.4371 72.1578 65.325 72.1303L61.5904 71.4138C61.4531 71.3919 61.3589 71.2677 61.406 71.1246C61.4255 71.0938 61.4353 71.0783 61.4548 71.0474L61.4394 71.0377Z" fill="url(#paint62_linear_1045_277)"/>
</g>
<g style="mix-blend-mode:color-dodge" opacity="0.9">
<path d="M133.058 91.5691C133.058 91.5691 133.107 91.4919 133.158 91.4805L156.04 81.2184C156.15 81.1802 156.293 81.2272 156.347 81.3475C156.379 81.4328 156.371 81.514 156.322 81.5912C156.293 81.6376 156.273 81.6684 156.223 81.6798L133.351 91.9265C133.231 91.9802 133.088 91.9331 133.019 91.8032C132.986 91.7179 132.994 91.6366 133.033 91.5748L133.058 91.5691Z" fill="url(#paint63_linear_1045_277)"/>
</g>
<g style="mix-blend-mode:color-dodge" opacity="0.9">
<path d="M130.976 132.329C131.025 132.252 131.12 132.204 131.217 132.222L156.948 136.178C157.086 136.2 157.18 136.325 157.158 136.462C157.138 136.493 157.134 136.533 157.125 136.549C157.076 136.626 156.981 136.674 156.874 136.672L131.143 132.715C131.005 132.693 130.911 132.569 130.933 132.432C130.953 132.401 130.957 132.36 130.967 132.345L130.976 132.329Z" fill="url(#paint64_linear_1045_277)"/>
</g>
<g style="mix-blend-mode:color-dodge" opacity="0.9">
<path d="M68.0586 114.291C68.1171 114.198 68.2373 114.144 68.3397 114.187L76.8955 116.976C77.023 117.013 77.0977 117.168 77.0603 117.296C77.0603 117.296 77.0603 117.296 77.0505 117.312C76.9628 117.45 76.8523 117.489 76.75 117.446L68.1942 114.657C68.0667 114.62 68.0074 114.474 68.0448 114.347L68.074 114.301L68.0586 114.291Z" fill="url(#paint65_linear_1045_277)"/>
</g>
<g style="mix-blend-mode:color-dodge" opacity="0.9">
<path d="M156.738 136.24L167.123 126.252C167.212 126.179 167.369 126.17 167.458 126.269C167.541 126.343 167.559 126.484 167.501 126.577L157.08 136.586C157.08 136.586 156.95 136.655 156.91 136.651C156.869 136.647 156.803 136.649 156.736 136.584C156.663 136.495 156.65 136.379 156.709 136.286C156.709 136.286 156.728 136.255 156.738 136.24Z" fill="url(#paint66_linear_1045_277)"/>
</g>
<g style="mix-blend-mode:color-dodge" opacity="0.9">
<path d="M114.007 91.5938C114.056 91.5166 114.151 91.4686 114.248 91.4864L128.1 93.407C128.222 93.4191 128.331 93.5531 128.309 93.6905C128.29 93.7214 128.286 93.762 128.266 93.7929C128.217 93.8701 128.122 93.9181 128.026 93.9002L114.174 91.9797C114.037 91.9578 113.942 91.8335 113.964 91.6962C113.984 91.6653 113.988 91.6247 114.007 91.5938Z" fill="url(#paint67_linear_1045_277)"/>
</g>
<g style="mix-blend-mode:color-dodge" opacity="0.9">
<path d="M76.6141 117.079C76.6141 117.079 76.6628 117.002 76.7132 116.99C76.7985 116.958 76.8699 116.981 76.9106 116.985C76.9414 117.005 77.0031 117.044 77.0454 117.113L91.2354 148.169C91.2354 148.169 91.2598 148.336 91.2208 148.397C91.1915 148.444 91.172 148.475 91.1216 148.486C91.0364 148.518 90.9803 148.505 90.9243 148.491C90.8934 148.471 90.8317 148.432 90.7895 148.363L76.6148 117.317C76.6148 117.317 76.5905 117.15 76.6295 117.088L76.6141 117.079Z" fill="url(#paint68_linear_1045_277)"/>
</g>
<g style="mix-blend-mode:color-dodge" opacity="0.9">
<path d="M61.4399 71.0381C61.4399 71.0381 61.5935 70.8975 61.7055 70.925C61.8331 70.9623 61.9175 71.1021 61.8801 71.2296L57.6755 87.7335C57.6755 87.7335 57.656 87.7644 57.6463 87.7798C57.5683 87.9034 57.4732 87.9513 57.3611 87.9238C57.2336 87.8865 57.1492 87.7467 57.1866 87.6192L61.3912 71.1153L61.4302 71.0536L61.4399 71.0381Z" fill="url(#paint69_linear_1045_277)"/>
</g>
<g style="mix-blend-mode:color-dodge" opacity="0.9">
<path d="M118.185 49.563C118.233 49.4858 118.328 49.4378 118.425 49.4556L123.818 50.2468C123.955 50.2687 124.049 50.393 124.027 50.5303C124.008 50.5612 124.004 50.6018 123.984 50.6327C123.935 50.7099 123.84 50.7579 123.744 50.7401L118.351 49.9489C118.214 49.927 118.12 49.8027 118.142 49.6654C118.161 49.6345 118.165 49.5939 118.185 49.563Z" fill="url(#paint70_linear_1045_277)"/>
</g>
<g style="mix-blend-mode:color-dodge" opacity="0.9">
<path d="M127.86 93.5144C127.86 93.5144 127.918 93.4217 127.994 93.4046C128.129 93.3607 128.268 93.4484 128.297 93.5743L133.09 110.252C133.09 110.252 133.074 110.414 133.054 110.445C133.035 110.476 132.996 110.538 132.92 110.555C132.835 110.587 132.764 110.564 132.733 110.544C132.702 110.525 132.64 110.486 132.608 110.401L127.829 93.733C127.829 93.733 127.83 93.5607 127.85 93.5298L127.86 93.5144Z" fill="url(#paint71_linear_1045_277)"/>
</g>
<g style="mix-blend-mode:color-dodge" opacity="0.9">
<path d="M8.01245 123.594C8.01245 123.594 8.09046 123.47 8.2123 123.482L53.0774 121.268C53.2089 121.265 53.3381 121.368 53.3413 121.499C53.3429 121.565 53.3136 121.612 53.2941 121.642C53.2454 121.72 53.1755 121.762 53.0943 121.754L8.21382 123.958C8.08223 123.962 7.9531 123.858 7.94988 123.727C7.94827 123.661 7.97752 123.615 7.99702 123.584L8.01245 123.594Z" fill="url(#paint72_linear_1045_277)"/>
</g>
<g style="mix-blend-mode:color-dodge" opacity="0.9">
<path d="M119.173 73.1913C119.173 73.1913 119.222 73.1141 119.298 73.097C119.383 73.0645 119.455 73.088 119.485 73.1075C119.516 73.127 119.578 73.1659 119.61 73.2512L133.075 110.242C133.075 110.242 133.084 110.399 133.045 110.46C133.025 110.491 132.996 110.538 132.92 110.555C132.835 110.587 132.764 110.564 132.733 110.544C132.702 110.525 132.64 110.486 132.608 110.401L119.143 73.4099C119.143 73.4099 119.134 73.2531 119.173 73.1913Z" fill="url(#paint73_linear_1045_277)"/>
</g>
<g style="mix-blend-mode:color-dodge" opacity="0.9">
<path d="M8.04122 123.547L37.8416 93.0302C37.8416 93.0302 37.9716 92.961 38.022 92.9496C38.0626 92.9537 38.1284 92.952 38.1958 93.0162C38.2786 93.0901 38.2973 93.2315 38.2387 93.3241L8.4091 123.888C8.30999 123.976 8.15321 123.985 8.0647 123.886C7.98186 123.812 7.96321 123.671 8.02171 123.578C8.02171 123.578 8.04122 123.547 8.05097 123.532L8.04122 123.547Z" fill="url(#paint74_linear_1045_277)"/>
</g>
<g style="mix-blend-mode:color-dodge" opacity="0.9">
<path d="M85.5521 142.507C85.6106 142.415 85.7056 142.367 85.8177 142.394L127.621 151.25C127.749 151.287 127.828 151.402 127.806 151.539C127.786 151.57 127.776 151.586 127.757 151.616C127.708 151.694 127.613 151.742 127.491 151.729L85.6722 142.864C85.5601 142.836 85.4814 142.722 85.5033 142.585C85.5228 142.554 85.5326 142.538 85.5521 142.507Z" fill="url(#paint75_linear_1045_277)"/>
</g>
<g style="mix-blend-mode:color-dodge" opacity="0.9">
<path d="M120.726 43.2831C120.726 43.2831 120.844 43.1636 120.951 43.166C121.098 43.1724 121.192 43.2967 121.195 43.4283L119.643 73.3353C119.643 73.3353 119.635 73.4165 119.615 73.4474C119.576 73.5092 119.497 73.5669 119.39 73.5645C119.243 73.5581 119.149 73.4338 119.146 73.3022L120.698 43.3952C120.698 43.3952 120.706 43.314 120.726 43.2831Z" fill="url(#paint76_linear_1045_277)"/>
</g>
<g style="mix-blend-mode:color-dodge" opacity="0.9">
<path d="M37.8124 93.0769C37.8124 93.0769 37.8611 92.9997 37.9115 92.9883C38.0317 92.9346 38.1844 92.9662 38.2534 93.0962L53.3335 121.409C53.3335 121.409 53.3578 121.575 53.3188 121.637C53.2993 121.668 53.2701 121.714 53.2197 121.726C53.0897 121.795 52.9468 121.748 52.8932 121.628L37.8188 93.3401C37.7709 93.2451 37.7888 93.1484 37.8278 93.0866L37.8124 93.0769Z" fill="url(#paint77_linear_1045_277)"/>
</g>
<g style="mix-blend-mode:color-dodge" opacity="0.9">
<path d="M52.9183 121.383C52.9183 121.383 53.0271 121.279 53.1027 121.262L109.14 117.008C109.272 117.005 109.385 117.098 109.404 117.24C109.406 117.306 109.392 117.362 109.372 117.392C109.333 117.454 109.263 117.497 109.188 117.514L53.1407 121.782C53.0246 121.795 52.9109 121.702 52.8922 121.561C52.8906 121.495 52.9044 121.439 52.9239 121.408L52.9183 121.383Z" fill="url(#paint78_linear_1045_277)"/>
</g>
<g style="mix-blend-mode:color-dodge" opacity="0.9">
<path d="M110.404 85.7113C110.404 85.7113 110.538 85.6016 110.629 85.5942C110.711 85.6023 110.772 85.6413 110.794 85.6762C110.824 85.6957 110.867 85.7655 110.858 85.8468L109.394 117.256C109.394 117.256 109.386 117.337 109.356 117.384C109.317 117.445 109.238 117.503 109.131 117.501C109.05 117.493 108.988 117.454 108.967 117.419C108.936 117.399 108.894 117.329 108.902 117.248L110.367 85.8389C110.367 85.8389 110.375 85.7576 110.395 85.7268L110.404 85.7113Z" fill="url(#paint79_linear_1045_277)"/>
</g>
<path d="M142.516 96.8936L136.871 119.097L131.56 130.518L142.516 96.8936Z" fill="url(#paint80_linear_1045_277)" fill-opacity="0.12"/>
<path d="M116.741 161.335L128.458 147.803L103.23 149.542L116.741 161.335Z" fill="url(#paint81_linear_1045_277)" fill-opacity="0.02"/>
<path d="M58.4634 109.182L64.8523 114.684L68.2744 114.426L58.4634 109.182Z" fill="url(#paint82_linear_1045_277)" fill-opacity="0.11"/>
<path d="M133.265 91.7207L100.24 90.2222L114.208 91.7194L133.265 91.7207Z" fill="url(#paint83_linear_1045_277)" fill-opacity="0.12"/>
</g>
<path d="M139.959 134.092L149.682 128.812V123.285L147.547 120.072C147.547 120.072 134.441 129.336 127.087 129.572V137.754C127.087 137.754 136.863 135.773 139.959 134.092Z" stroke="white" stroke-width="2" stroke-miterlimit="10"/>
<path d="M115.215 142.009L113.635 135.679L109.163 133.537L96.281 136.44L93.6555 141.977V146.196C93.6555 146.196 108.907 148.07 115.215 142.009Z" stroke="white" stroke-width="2" stroke-miterlimit="10"/>
<path d="M70.7665 149.9C70.7665 149.9 70.4996 123.254 76.5512 108.485C82.6028 93.7157 91.4933 81.3028 102.049 77.0938L112.594 72.8848C112.594 72.8848 109.701 66.0305 102.081 69.4577C94.4604 72.8848 85.0042 76.5798 77.1062 86.5935C69.2082 96.6073 60.9794 108.495 59.4958 131.168C59.1471 136.703 59.1471 142.255 59.4958 147.79C59.4958 147.79 63.4341 151.485 70.7665 149.9Z" stroke="white" stroke-width="2" stroke-miterlimit="10"/>
<path d="M161.223 117.993V115.08L157.541 111.867C157.541 111.867 153.805 81.5797 134.466 72.337C120.933 65.8361 104.742 64.069 85.7118 68.4922C68.0481 72.6048 49.2851 99.0048 50.2563 119.836C51.0674 137.293 46.8409 141.202 46.8409 141.202L35.0153 152.019C35.0153 152.019 28.1846 157.824 35.0153 162.043C41.846 166.263 66.8527 170.472 66.8527 170.472C66.8527 170.472 78.6784 172.314 88.1453 167.045C97.6122 161.776 105.756 154.654 114.166 152.265C122.576 149.877 138.884 146.739 147.818 141.202C156.751 135.665 165.428 126.904 166.218 123.498C167.008 120.093 161.223 117.993 161.223 117.993Z" stroke="white" stroke-width="2" stroke-miterlimit="10"/>
<defs>
<radialGradient id="paint0_radial_1045_277" cx="0" cy="0" r="1" gradientUnits="userSpaceOnUse" gradientTransform="translate(58.187 51.3379) rotate(122.268) scale(0.894914 0.894212)">
<stop stop-color="white"/>
<stop offset="0.11" stop-color="#FAFAFA"/>
<stop offset="0.23" stop-color="#ECECEC"/>
<stop offset="0.36" stop-color="#D4D4D4"/>
<stop offset="0.5" stop-color="#B4B4B4"/>
<stop offset="0.64" stop-color="#8A8A8A"/>
<stop offset="0.79" stop-color="#565656"/>
<stop offset="0.94" stop-color="#1A1A1A"/>
<stop offset="1"/>
</radialGradient>
<radialGradient id="paint1_radial_1045_277" cx="0" cy="0" r="1" gradientUnits="userSpaceOnUse" gradientTransform="translate(105.907 81.1444) rotate(122.268) scale(0.913176 0.912466)">
<stop stop-color="white"/>
<stop offset="0.11" stop-color="#FAFAFA"/>
<stop offset="0.23" stop-color="#ECECEC"/>
<stop offset="0.36" stop-color="#D4D4D4"/>
<stop offset="0.5" stop-color="#B4B4B4"/>
<stop offset="0.64" stop-color="#8A8A8A"/>
<stop offset="0.79" stop-color="#565656"/>
<stop offset="0.94" stop-color="#1A1A1A"/>
<stop offset="1"/>
</radialGradient>
<radialGradient id="paint2_radial_1045_277" cx="0" cy="0" r="1" gradientUnits="userSpaceOnUse" gradientTransform="translate(136.871 119.097) rotate(122.268) scale(0.967968 0.967213)">
<stop stop-color="white"/>
<stop offset="0.11" stop-color="#FAFAFA"/>
<stop offset="0.23" stop-color="#ECECEC"/>
<stop offset="0.36" stop-color="#D4D4D4"/>
<stop offset="0.5" stop-color="#B4B4B4"/>
<stop offset="0.64" stop-color="#8A8A8A"/>
<stop offset="0.79" stop-color="#565656"/>
<stop offset="0.94" stop-color="#1A1A1A"/>
<stop offset="1"/>
</radialGradient>
<radialGradient id="paint3_radial_1045_277" cx="0" cy="0" r="1" gradientUnits="userSpaceOnUse" gradientTransform="translate(101.857 122.39) rotate(122.268) scale(0.967964 0.967215)">
<stop stop-color="white"/>
<stop offset="0.11" stop-color="#FAFAFA"/>
<stop offset="0.23" stop-color="#ECECEC"/>
<stop offset="0.36" stop-color="#D4D4D4"/>
<stop offset="0.5" stop-color="#B4B4B4"/>
<stop offset="0.64" stop-color="#8A8A8A"/>
<stop offset="0.79" stop-color="#565656"/>
<stop offset="0.94" stop-color="#1A1A1A"/>
<stop offset="1"/>
</radialGradient>
<radialGradient id="paint4_radial_1045_277" cx="0" cy="0" r="1" gradientUnits="userSpaceOnUse" gradientTransform="translate(128.458 147.804) rotate(122.268) scale(1.02276 1.02196)">
<stop stop-color="white"/>
<stop offset="0.11" stop-color="#FAFAFA"/>
<stop offset="0.23" stop-color="#ECECEC"/>
<stop offset="0.36" stop-color="#D4D4D4"/>
<stop offset="0.5" stop-color="#B4B4B4"/>
<stop offset="0.64" stop-color="#8A8A8A"/>
<stop offset="0.79" stop-color="#565656"/>
<stop offset="0.94" stop-color="#1A1A1A"/>
<stop offset="1"/>
</radialGradient>
<radialGradient id="paint5_radial_1045_277" cx="0" cy="0" r="1" gradientUnits="userSpaceOnUse" gradientTransform="translate(59.7668 63.0907) rotate(122.268) scale(1.02276 1.02196)">
<stop stop-color="white"/>
<stop offset="0.11" stop-color="#FAFAFA"/>
<stop offset="0.23" stop-color="#ECECEC"/>
<stop offset="0.36" stop-color="#D4D4D4"/>
<stop offset="0.5" stop-color="#B4B4B4"/>
<stop offset="0.64" stop-color="#8A8A8A"/>
<stop offset="0.79" stop-color="#565656"/>
<stop offset="0.94" stop-color="#1A1A1A"/>
<stop offset="1"/>
</radialGradient>
<radialGradient id="paint6_radial_1045_277" cx="0" cy="0" r="1" gradientUnits="userSpaceOnUse" gradientTransform="translate(63.9277 109.997) rotate(122.268) scale(1.04102 1.04021)">
<stop stop-color="white"/>
<stop offset="0.11" stop-color="#FAFAFA"/>
<stop offset="0.23" stop-color="#ECECEC"/>
<stop offset="0.36" stop-color="#D4D4D4"/>
<stop offset="0.5" stop-color="#B4B4B4"/>
<stop offset="0.64" stop-color="#8A8A8A"/>
<stop offset="0.79" stop-color="#565656"/>
<stop offset="0.94" stop-color="#1A1A1A"/>
<stop offset="1"/>
</radialGradient>
<radialGradient id="paint7_radial_1045_277" cx="0" cy="0" r="1" gradientUnits="userSpaceOnUse" gradientTransform="translate(105.206 50.8067) rotate(122.268) scale(1.11407 1.11321)">
<stop stop-color="white"/>
<stop offset="0.11" stop-color="#FAFAFA"/>
<stop offset="0.23" stop-color="#ECECEC"/>
<stop offset="0.36" stop-color="#D4D4D4"/>
<stop offset="0.5" stop-color="#B4B4B4"/>
<stop offset="0.64" stop-color="#8A8A8A"/>
<stop offset="0.79" stop-color="#565656"/>
<stop offset="0.94" stop-color="#1A1A1A"/>
<stop offset="1"/>
</radialGradient>
<radialGradient id="paint8_radial_1045_277" cx="0" cy="0" r="1" gradientUnits="userSpaceOnUse" gradientTransform="translate(133.605 165.633) rotate(122.268) scale(1.13234 1.13146)">
<stop stop-color="white"/>
<stop offset="0.11" stop-color="#FAFAFA"/>
<stop offset="0.23" stop-color="#ECECEC"/>
<stop offset="0.36" stop-color="#D4D4D4"/>
<stop offset="0.5" stop-color="#B4B4B4"/>
<stop offset="0.64" stop-color="#8A8A8A"/>
<stop offset="0.79" stop-color="#565656"/>
<stop offset="0.94" stop-color="#1A1A1A"/>
<stop offset="1"/>
</radialGradient>
<radialGradient id="paint9_radial_1045_277" cx="0" cy="0" r="1" gradientUnits="userSpaceOnUse" gradientTransform="translate(114.207 91.719) rotate(122.268) scale(1.29671 1.2957)">
<stop stop-color="white"/>
<stop offset="0.11" stop-color="#FAFAFA"/>
<stop offset="0.23" stop-color="#ECECEC"/>
<stop offset="0.36" stop-color="#D4D4D4"/>
<stop offset="0.5" stop-color="#B4B4B4"/>
<stop offset="0.64" stop-color="#8A8A8A"/>
<stop offset="0.79" stop-color="#565656"/>
<stop offset="0.94" stop-color="#1A1A1A"/>
<stop offset="1"/>
</radialGradient>
<radialGradient id="paint10_radial_1045_277" cx="0" cy="0" r="1" gradientUnits="userSpaceOnUse" gradientTransform="translate(123.793 50.4908) rotate(122.268) scale(1.49761 1.49644)">
<stop stop-color="white"/>
<stop offset="0.11" stop-color="#FAFAFA"/>
<stop offset="0.23" stop-color="#ECECEC"/>
<stop offset="0.36" stop-color="#D4D4D4"/>
<stop offset="0.5" stop-color="#B4B4B4"/>
<stop offset="0.64" stop-color="#8A8A8A"/>
<stop offset="0.79" stop-color="#565656"/>
<stop offset="0.94" stop-color="#1A1A1A"/>
<stop offset="1"/>
</radialGradient>
<radialGradient id="paint11_radial_1045_277" cx="0" cy="0" r="1" gradientUnits="userSpaceOnUse" gradientTransform="translate(85.7526 142.632) rotate(122.268) scale(1.60719 1.60594)">
<stop stop-color="white"/>
<stop offset="0.11" stop-color="#FAFAFA"/>
<stop offset="0.23" stop-color="#ECECEC"/>
<stop offset="0.36" stop-color="#D4D4D4"/>
<stop offset="0.5" stop-color="#B4B4B4"/>
<stop offset="0.64" stop-color="#8A8A8A"/>
<stop offset="0.79" stop-color="#565656"/>
<stop offset="0.94" stop-color="#1A1A1A"/>
<stop offset="1"/>
</radialGradient>
<radialGradient id="paint12_radial_1045_277" cx="0" cy="0" r="1" gradientUnits="userSpaceOnUse" gradientTransform="translate(53.0933 121.515) rotate(122.268) scale(1.66198 1.66069)">
<stop stop-color="white"/>
<stop offset="0.11" stop-color="#FAFAFA"/>
<stop offset="0.23" stop-color="#ECECEC"/>
<stop offset="0.36" stop-color="#D4D4D4"/>
<stop offset="0.5" stop-color="#B4B4B4"/>
<stop offset="0.64" stop-color="#8A8A8A"/>
<stop offset="0.79" stop-color="#565656"/>
<stop offset="0.94" stop-color="#1A1A1A"/>
<stop offset="1"/>
</radialGradient>
<radialGradient id="paint13_radial_1045_277" cx="0" cy="0" r="1" gradientUnits="userSpaceOnUse" gradientTransform="translate(110.621 85.8483) rotate(122.268) scale(1.93593 1.93443)">
<stop stop-color="white"/>
<stop offset="0.11" stop-color="#FAFAFA"/>
<stop offset="0.23" stop-color="#ECECEC"/>
<stop offset="0.36" stop-color="#D4D4D4"/>
<stop offset="0.5" stop-color="#B4B4B4"/>
<stop offset="0.64" stop-color="#8A8A8A"/>
<stop offset="0.79" stop-color="#565656"/>
<stop offset="0.94" stop-color="#1A1A1A"/>
<stop offset="1"/>
</radialGradient>
<linearGradient id="paint14_linear_1045_277" x1="18.0248" y1="108.938" x2="31.1058" y2="102.579" gradientUnits="userSpaceOnUse">
<stop stop-color="#C91EFE"/>
<stop offset="1" stop-color="#4A68F2"/>
</linearGradient>
<linearGradient id="paint15_linear_1045_277" x1="69.4227" y1="68.6489" x2="53.3591" y2="58.5065" gradientUnits="userSpaceOnUse">
<stop stop-color="#C91EFE"/>
<stop offset="1" stop-color="#4A68F2"/>
</linearGradient>
<linearGradient id="paint16_linear_1045_277" x1="78.9759" y1="119.011" x2="67.1404" y2="111.538" gradientUnits="userSpaceOnUse">
<stop stop-color="#C91EFE"/>
<stop offset="1" stop-color="#4A68F2"/>
</linearGradient>
<linearGradient id="paint17_linear_1045_277" x1="99.6326" y1="140.544" x2="86.7941" y2="132.438" gradientUnits="userSpaceOnUse">
<stop stop-color="#C91EFE"/>
<stop offset="1" stop-color="#4A68F2"/>
</linearGradient>
<linearGradient id="paint18_linear_1045_277" x1="109.602" y1="124.754" x2="97.6276" y2="117.194" gradientUnits="userSpaceOnUse">
<stop stop-color="#C91EFE"/>
<stop offset="1" stop-color="#4A68F2"/>
</linearGradient>
<linearGradient id="paint19_linear_1045_277" x1="109.965" y1="98.576" x2="98.9937" y2="91.6488" gradientUnits="userSpaceOnUse">
<stop stop-color="#C91EFE"/>
<stop offset="1" stop-color="#4A68F2"/>
</linearGradient>
<linearGradient id="paint20_linear_1045_277" x1="111.987" y1="71.9923" x2="91.4795" y2="59.044" gradientUnits="userSpaceOnUse">
<stop stop-color="#C91EFE"/>
<stop offset="1" stop-color="#4A68F2"/>
</linearGradient>
<linearGradient id="paint21_linear_1045_277" x1="72.8641" y1="89.9282" x2="60.3805" y2="82.0462" gradientUnits="userSpaceOnUse">
<stop stop-color="#C91EFE"/>
<stop offset="1" stop-color="#4A68F2"/>
</linearGradient>
<linearGradient id="paint22_linear_1045_277" x1="62.8812" y1="56.4836" x2="56.9866" y2="52.7618" gradientUnits="userSpaceOnUse">
<stop stop-color="#C91EFE"/>
<stop offset="1" stop-color="#4A68F2"/>
</linearGradient>
<linearGradient id="paint23_linear_1045_277" x1="133.122" y1="64.1557" x2="101.041" y2="43.9002" gradientUnits="userSpaceOnUse">
<stop stop-color="#C91EFE"/>
<stop offset="1" stop-color="#4A68F2"/>
</linearGradient>
<linearGradient id="paint24_linear_1045_277" x1="97.5362" y1="129.678" x2="79.0345" y2="117.997" gradientUnits="userSpaceOnUse">
<stop stop-color="#C91EFE"/>
<stop offset="1" stop-color="#4A68F2"/>
</linearGradient>
<linearGradient id="paint25_linear_1045_277" x1="117.675" y1="160.303" x2="102.274" y2="150.58" gradientUnits="userSpaceOnUse">
<stop stop-color="#C91EFE"/>
<stop offset="1" stop-color="#4A68F2"/>
</linearGradient>
<linearGradient id="paint26_linear_1045_277" x1="104.62" y1="54.1961" x2="97.4141" y2="49.6462" gradientUnits="userSpaceOnUse">
<stop stop-color="#C91EFE"/>
<stop offset="1" stop-color="#4A68F2"/>
</linearGradient>
<linearGradient id="paint27_linear_1045_277" x1="135.11" y1="125.374" x2="133.32" y2="124.244" gradientUnits="userSpaceOnUse">
<stop stop-color="#C91EFE"/>
<stop offset="1" stop-color="#4A68F2"/>
</linearGradient>
<linearGradient id="paint28_linear_1045_277" x1="142.871" y1="110.004" x2="136.498" y2="105.98" gradientUnits="userSpaceOnUse">
<stop stop-color="#C91EFE"/>
<stop offset="1" stop-color="#4A68F2"/>
</linearGradient>
<linearGradient id="paint29_linear_1045_277" x1="109.338" y1="111.019" x2="98.9688" y2="104.472" gradientUnits="userSpaceOnUse">
<stop stop-color="#C91EFE"/>
<stop offset="1" stop-color="#4A68F2"/>
</linearGradient>
<linearGradient id="paint30_linear_1045_277" x1="131.49" y1="131.072" x2="127.586" y2="128.607" gradientUnits="userSpaceOnUse">
<stop stop-color="#C91EFE"/>
<stop offset="1" stop-color="#4A68F2"/>
</linearGradient>
<linearGradient id="paint31_linear_1045_277" x1="67.9161" y1="104.123" x2="64.6447" y2="102.057" gradientUnits="userSpaceOnUse">
<stop stop-color="#C91EFE"/>
<stop offset="1" stop-color="#4A68F2"/>
</linearGradient>
<linearGradient id="paint32_linear_1045_277" x1="61.4165" y1="60.9226" x2="60.0277" y2="60.0458" gradientUnits="userSpaceOnUse">
<stop stop-color="#C91EFE"/>
<stop offset="1" stop-color="#4A68F2"/>
</linearGradient>
<linearGradient id="paint33_linear_1045_277" x1="125.605" y1="132.669" x2="103.785" y2="118.892" gradientUnits="userSpaceOnUse">
<stop stop-color="#C91EFE"/>
<stop offset="1" stop-color="#4A68F2"/>
</linearGradient>
<linearGradient id="paint34_linear_1045_277" x1="140.124" y1="101.16" x2="138.319" y2="100.02" gradientUnits="userSpaceOnUse">
<stop stop-color="#C91EFE"/>
<stop offset="1" stop-color="#4A68F2"/>
</linearGradient>
<linearGradient id="paint35_linear_1045_277" x1="143.231" y1="156.299" x2="128.618" y2="147.073" gradientUnits="userSpaceOnUse">
<stop stop-color="#C91EFE"/>
<stop offset="1" stop-color="#4A68F2"/>
</linearGradient>
<linearGradient id="paint36_linear_1045_277" x1="134.425" y1="107.076" x2="107.899" y2="90.3278" gradientUnits="userSpaceOnUse">
<stop stop-color="#C91EFE"/>
<stop offset="1" stop-color="#4A68F2"/>
</linearGradient>
<linearGradient id="paint37_linear_1045_277" x1="145.608" y1="64.6845" x2="136.041" y2="58.6439" gradientUnits="userSpaceOnUse">
<stop stop-color="#C91EFE"/>
<stop offset="1" stop-color="#4A68F2"/>
</linearGradient>
<linearGradient id="paint38_linear_1045_277" x1="132.725" y1="141.49" x2="123.235" y2="135.498" gradientUnits="userSpaceOnUse">
<stop stop-color="#C91EFE"/>
<stop offset="1" stop-color="#4A68F2"/>
</linearGradient>
<linearGradient id="paint39_linear_1045_277" x1="134.527" y1="118.502" x2="128.879" y2="114.936" gradientUnits="userSpaceOnUse">
<stop stop-color="#C91EFE"/>
<stop offset="1" stop-color="#4A68F2"/>
</linearGradient>
<linearGradient id="paint40_linear_1045_277" x1="143.661" y1="164.163" x2="139.387" y2="161.464" gradientUnits="userSpaceOnUse">
<stop stop-color="#C91EFE"/>
<stop offset="1" stop-color="#4A68F2"/>
</linearGradient>
<linearGradient id="paint41_linear_1045_277" x1="105.469" y1="52.8178" x2="104.157" y2="51.9897" gradientUnits="userSpaceOnUse">
<stop stop-color="#C91EFE"/>
<stop offset="1" stop-color="#4A68F2"/>
</linearGradient>
<linearGradient id="paint42_linear_1045_277" x1="59.1673" y1="64.4848" x2="58.0254" y2="63.7638" gradientUnits="userSpaceOnUse">
<stop stop-color="#C91EFE"/>
<stop offset="1" stop-color="#4A68F2"/>
</linearGradient>
<linearGradient id="paint43_linear_1045_277" x1="63.5377" y1="111.057" x2="58.8467" y2="108.095" gradientUnits="userSpaceOnUse">
<stop stop-color="#C91EFE"/>
<stop offset="1" stop-color="#4A68F2"/>
</linearGradient>
<linearGradient id="paint44_linear_1045_277" x1="121.023" y1="139.139" x2="97.676" y2="124.398" gradientUnits="userSpaceOnUse">
<stop stop-color="#C91EFE"/>
<stop offset="1" stop-color="#4A68F2"/>
</linearGradient>
<linearGradient id="paint45_linear_1045_277" x1="146.672" y1="63.0338" x2="145.067" y2="62.0206" gradientUnits="userSpaceOnUse">
<stop stop-color="#C91EFE"/>
<stop offset="1" stop-color="#4A68F2"/>
</linearGradient>
<linearGradient id="paint46_linear_1045_277" x1="122.311" y1="103.737" x2="101.865" y2="90.8276" gradientUnits="userSpaceOnUse">
<stop stop-color="#C91EFE"/>
<stop offset="1" stop-color="#4A68F2"/>
</linearGradient>
<linearGradient id="paint47_linear_1045_277" x1="132.063" y1="121.686" x2="116.571" y2="111.905" gradientUnits="userSpaceOnUse">
<stop stop-color="#C91EFE"/>
<stop offset="1" stop-color="#4A68F2"/>
</linearGradient>
<linearGradient id="paint48_linear_1045_277" x1="139.507" y1="156.728" x2="117.935" y2="143.107" gradientUnits="userSpaceOnUse">
<stop stop-color="#C91EFE"/>
<stop offset="1" stop-color="#4A68F2"/>
</linearGradient>
<linearGradient id="paint49_linear_1045_277" x1="98.6254" y1="131.44" x2="94.7677" y2="129.005" gradientUnits="userSpaceOnUse">
<stop stop-color="#C91EFE"/>
<stop offset="1" stop-color="#4A68F2"/>
</linearGradient>
<linearGradient id="paint50_linear_1045_277" x1="143.008" y1="66.1709" x2="108.829" y2="44.5904" gradientUnits="userSpaceOnUse">
<stop stop-color="#C91EFE"/>
<stop offset="1" stop-color="#4A68F2"/>
</linearGradient>
<linearGradient id="paint51_linear_1045_277" x1="65.3893" y1="114.278" x2="57.9207" y2="109.563" gradientUnits="userSpaceOnUse">
<stop stop-color="#C91EFE"/>
<stop offset="1" stop-color="#4A68F2"/>
</linearGradient>
<linearGradient id="paint52_linear_1045_277" x1="100.838" y1="93.344" x2="98.7852" y2="92.0482" gradientUnits="userSpaceOnUse">
<stop stop-color="#C91EFE"/>
<stop offset="1" stop-color="#4A68F2"/>
</linearGradient>
<linearGradient id="paint53_linear_1045_277" x1="107.203" y1="48.8071" x2="106.462" y2="48.3394" gradientUnits="userSpaceOnUse">
<stop stop-color="#C91EFE"/>
<stop offset="1" stop-color="#4A68F2"/>
</linearGradient>
<linearGradient id="paint54_linear_1045_277" x1="65.9798" y1="71.4026" x2="56.8601" y2="65.6445" gradientUnits="userSpaceOnUse">
<stop stop-color="#C91EFE"/>
<stop offset="1" stop-color="#4A68F2"/>
</linearGradient>
<linearGradient id="paint55_linear_1045_277" x1="130.626" y1="143.276" x2="101.971" y2="125.183" gradientUnits="userSpaceOnUse">
<stop stop-color="#C91EFE"/>
<stop offset="1" stop-color="#4A68F2"/>
</linearGradient>
<linearGradient id="paint56_linear_1045_277" x1="67.919" y1="115.433" x2="65.1723" y2="113.699" gradientUnits="userSpaceOnUse">
<stop stop-color="#C91EFE"/>
<stop offset="1" stop-color="#4A68F2"/>
</linearGradient>
<linearGradient id="paint57_linear_1045_277" x1="129.115" y1="98.7722" x2="104.395" y2="83.1641" gradientUnits="userSpaceOnUse">
<stop stop-color="#C91EFE"/>
<stop offset="1" stop-color="#4A68F2"/>
</linearGradient>
<linearGradient id="paint58_linear_1045_277" x1="71.6897" y1="62.3927" x2="51.0894" y2="49.3859" gradientUnits="userSpaceOnUse">
<stop stop-color="#C91EFE"/>
<stop offset="1" stop-color="#4A68F2"/>
</linearGradient>
<linearGradient id="paint59_linear_1045_277" x1="112.756" y1="94.4636" x2="101.677" y2="87.4682" gradientUnits="userSpaceOnUse">
<stop stop-color="#C91EFE"/>
<stop offset="1" stop-color="#4A68F2"/>
</linearGradient>
<linearGradient id="paint60_linear_1045_277" x1="134.946" y1="136.401" x2="130.27" y2="133.449" gradientUnits="userSpaceOnUse">
<stop stop-color="#C91EFE"/>
<stop offset="1" stop-color="#4A68F2"/>
</linearGradient>
<linearGradient id="paint61_linear_1045_277" x1="117.932" y1="50.8517" x2="108.905" y2="45.1521" gradientUnits="userSpaceOnUse">
<stop stop-color="#C91EFE"/>
<stop offset="1" stop-color="#4A68F2"/>
</linearGradient>
<linearGradient id="paint62_linear_1045_277" x1="65.2201" y1="72.604" x2="61.8099" y2="70.4509" gradientUnits="userSpaceOnUse">
<stop stop-color="#C91EFE"/>
<stop offset="1" stop-color="#4A68F2"/>
</linearGradient>
<linearGradient id="paint63_linear_1045_277" x1="150.755" y1="90.4088" x2="138.611" y2="82.7411" gradientUnits="userSpaceOnUse">
<stop stop-color="#C91EFE"/>
<stop offset="1" stop-color="#4A68F2"/>
</linearGradient>
<linearGradient id="paint64_linear_1045_277" x1="154.346" y1="140.95" x2="133.745" y2="127.943" gradientUnits="userSpaceOnUse">
<stop stop-color="#C91EFE"/>
<stop offset="1" stop-color="#4A68F2"/>
</linearGradient>
<linearGradient id="paint65_linear_1045_277" x1="76.4411" y1="118.277" x2="68.6485" y2="113.357" gradientUnits="userSpaceOnUse">
<stop stop-color="#C91EFE"/>
<stop offset="1" stop-color="#4A68F2"/>
</linearGradient>
<linearGradient id="paint66_linear_1045_277" x1="163.772" y1="132.482" x2="160.439" y2="130.378" gradientUnits="userSpaceOnUse">
<stop stop-color="#C91EFE"/>
<stop offset="1" stop-color="#4A68F2"/>
</linearGradient>
<linearGradient id="paint67_linear_1045_277" x1="126.731" y1="96.2251" x2="115.543" y2="89.1615" gradientUnits="userSpaceOnUse">
<stop stop-color="#C91EFE"/>
<stop offset="1" stop-color="#4A68F2"/>
</linearGradient>
<linearGradient id="paint68_linear_1045_277" x1="96.2081" y1="140.498" x2="71.6267" y2="124.978" gradientUnits="userSpaceOnUse">
<stop stop-color="#C91EFE"/>
<stop offset="1" stop-color="#4A68F2"/>
</linearGradient>
<linearGradient id="paint69_linear_1045_277" x1="61.956" y1="80.954" x2="57.1107" y2="77.8948" gradientUnits="userSpaceOnUse">
<stop stop-color="#C91EFE"/>
<stop offset="1" stop-color="#4A68F2"/>
</linearGradient>
<linearGradient id="paint70_linear_1045_277" x1="123.399" y1="51.5593" x2="118.77" y2="48.6364" gradientUnits="userSpaceOnUse">
<stop stop-color="#C91EFE"/>
<stop offset="1" stop-color="#4A68F2"/>
</linearGradient>
<linearGradient id="paint71_linear_1045_277" x1="136.134" y1="105.568" x2="124.777" y2="98.3972" gradientUnits="userSpaceOnUse">
<stop stop-color="#C91EFE"/>
<stop offset="1" stop-color="#4A68F2"/>
</linearGradient>
<linearGradient id="paint72_linear_1045_277" x1="46.4006" y1="132.561" x2="14.8906" y2="112.666" gradientUnits="userSpaceOnUse">
<stop stop-color="#C91EFE"/>
<stop offset="1" stop-color="#4A68F2"/>
</linearGradient>
<linearGradient id="paint73_linear_1045_277" x1="139.48" y1="100.268" x2="112.738" y2="83.3836" gradientUnits="userSpaceOnUse">
<stop stop-color="#C91EFE"/>
<stop offset="1" stop-color="#4A68F2"/>
</linearGradient>
<linearGradient id="paint74_linear_1045_277" x1="27.1029" y1="110.961" x2="19.1559" y2="105.944" gradientUnits="userSpaceOnUse">
<stop stop-color="#C91EFE"/>
<stop offset="1" stop-color="#4A68F2"/>
</linearGradient>
<linearGradient id="paint75_linear_1045_277" x1="123.798" y1="157.886" x2="89.5108" y2="136.238" gradientUnits="userSpaceOnUse">
<stop stop-color="#C91EFE"/>
<stop offset="1" stop-color="#4A68F2"/>
</linearGradient>
<linearGradient id="paint76_linear_1045_277" x1="126.582" y1="62.4134" x2="113.759" y2="54.3171" gradientUnits="userSpaceOnUse">
<stop stop-color="#C91EFE"/>
<stop offset="1" stop-color="#4A68F2"/>
</linearGradient>
<linearGradient id="paint77_linear_1045_277" x1="57.5543" y1="114.929" x2="33.5747" y2="99.7885" gradientUnits="userSpaceOnUse">
<stop stop-color="#C91EFE"/>
<stop offset="1" stop-color="#4A68F2"/>
</linearGradient>
<linearGradient id="paint78_linear_1045_277" x1="100.421" y1="131.569" x2="61.8595" y2="107.222" gradientUnits="userSpaceOnUse">
<stop stop-color="#C91EFE"/>
<stop offset="1" stop-color="#4A68F2"/>
</linearGradient>
<linearGradient id="paint79_linear_1045_277" x1="116.655" y1="105.825" x2="103.106" y2="97.2704" gradientUnits="userSpaceOnUse">
<stop stop-color="#C91EFE"/>
<stop offset="1" stop-color="#4A68F2"/>
</linearGradient>
<linearGradient id="paint80_linear_1045_277" x1="146.189" y1="99.2124" x2="127.887" y2="128.199" gradientUnits="userSpaceOnUse">
<stop offset="0.07" stop-color="white"/>
<stop offset="0.56" stop-color="#EBCFCF"/>
</linearGradient>
<linearGradient id="paint81_linear_1045_277" x1="119.832" y1="142.356" x2="110.384" y2="157.321" gradientUnits="userSpaceOnUse">
<stop offset="0.07" stop-color="white"/>
<stop offset="0.56" stop-color="#EBCFCF"/>
</linearGradient>
<linearGradient id="paint82_linear_1045_277" x1="63.5834" y1="111.464" x2="62.4914" y2="113.194" gradientUnits="userSpaceOnUse">
<stop offset="0.07" stop-color="white"/>
<stop offset="0.56" stop-color="#EBCFCF"/>
</linearGradient>
<linearGradient id="paint83_linear_1045_277" x1="121.121" y1="84.053" x2="112.384" y2="97.8899" gradientUnits="userSpaceOnUse">
<stop offset="0.07" stop-color="white"/>
<stop offset="0.56" stop-color="#EBCFCF"/>
</linearGradient>
<clipPath id="clip0_1045_277">
<rect width="139.004" height="188.534" fill="white" transform="translate(218.404 101.092) rotate(122.268)"/>
</clipPath>
</defs>
</svg>
