<svg width="189" height="193" viewBox="0 0 189 193" fill="none" xmlns="http://www.w3.org/2000/svg">
<g clip-path="url(#clip0_1045_276)">
<path style="mix-blend-mode:color-dodge" d="M44.7394 67.6405C45.231 67.4469 45.4771 66.881 45.2836 66.3897C45.09 65.8984 44.524 65.6525 44.0325 65.8461C43.5409 66.0398 43.2948 66.6056 43.4883 67.097C43.6819 67.5883 44.2479 67.8342 44.7394 67.6405Z" fill="white"/>
<path style="mix-blend-mode:color-dodge" d="M40.773 94.5466C41.2923 94.342 41.8791 94.5969 42.0836 95.116C42.2882 95.6351 42.0329 96.2218 41.5136 96.4264C40.9943 96.631 40.4075 96.3761 40.2029 95.857C39.9984 95.3379 40.2537 94.7512 40.773 94.5466Z" fill="white"/>
<path style="mix-blend-mode:color-dodge" d="M27.5273 78.3444C28.0616 78.1339 28.2993 77.5467 28.0973 77.034C27.8953 76.5213 27.2996 76.2625 26.7867 76.4645C26.2737 76.6666 26.0146 77.2622 26.2166 77.7749C26.4186 78.2876 27.0143 78.5464 27.5273 78.3444Z" fill="white"/>
<path style="mix-blend-mode:color-dodge" d="M71.5734 53.095C72.1046 52.8858 72.7047 53.1465 72.9139 53.6774C73.123 54.2083 72.862 54.8083 72.3309 55.0176C71.7997 55.2268 71.1996 54.9661 70.9904 54.4352C70.7813 53.9043 71.0423 53.3043 71.5734 53.095Z" fill="white"/>
<path style="mix-blend-mode:color-dodge" d="M70.0991 83.8814C70.6539 83.6629 71.2807 83.9352 71.4991 84.4897C71.7176 85.0442 71.445 85.6709 70.8902 85.8894C70.3355 86.108 69.7087 85.8357 69.4902 85.2812C69.2717 84.7267 69.5444 84.1 70.0991 83.8814Z" fill="white"/>
<path style="mix-blend-mode:color-dodge" d="M54.3912 66.1316C54.9468 65.9127 55.2189 65.2873 55.0001 64.7319C54.7813 64.1765 54.1558 63.9047 53.6001 64.1236C53.0444 64.3425 52.7724 64.9679 52.9912 65.5233C53.21 66.0787 53.8355 66.3505 54.3912 66.1316Z" fill="url(#paint0_radial_1045_276)"/>
<path style="mix-blend-mode:color-dodge" d="M56.5657 116.333C57.1427 116.106 57.4491 115.442 57.2134 114.844C56.9778 114.246 56.3225 113.961 55.7241 114.197C55.1257 114.433 54.8406 115.088 55.0763 115.686C55.3119 116.284 55.9672 116.569 56.5657 116.333Z" fill="white"/>
<path style="mix-blend-mode:color-dodge" d="M97.4651 49.6317C98.0635 49.396 98.3485 48.7408 98.1129 48.1427C97.8772 47.5445 97.2219 47.2598 96.6235 47.4956C96.0251 47.7313 95.74 48.3865 95.9757 48.9847C96.2113 49.5828 96.8667 49.8675 97.4651 49.6317Z" fill="white"/>
<path style="mix-blend-mode:color-dodge" d="M42.6789 102.704C43.2773 102.468 43.554 101.792 43.3267 101.215C43.0995 100.638 42.4144 100.341 41.8373 100.568C41.2603 100.795 40.9623 101.48 41.1896 102.057C41.4168 102.634 42.1019 102.931 42.6789 102.704Z" fill="white"/>
<path style="mix-blend-mode:color-dodge" d="M90.6271 78.4593C91.2255 78.2235 91.5235 77.5385 91.2878 76.9404C91.0522 76.3423 90.367 76.0446 89.7686 76.2804C89.1702 76.5161 88.8723 77.2011 89.1079 77.7992C89.3435 78.3974 90.0287 78.695 90.6271 78.4593Z" fill="white"/>
<path style="mix-blend-mode:color-dodge" d="M66.907 61.1765C67.5207 60.9347 68.2142 61.236 68.4559 61.8495C68.6976 62.463 68.396 63.1563 67.7822 63.3981C67.1685 63.6399 66.475 63.3386 66.2333 62.7251C65.9916 62.1117 66.2932 61.4183 66.907 61.1765Z" fill="white"/>
<path style="mix-blend-mode:color-dodge" d="M71.309 107.883C71.9345 107.637 72.6414 107.944 72.8877 108.569C73.1341 109.194 72.8266 109.901 72.2011 110.147C71.5755 110.394 70.8687 110.087 70.6223 109.462C70.376 108.836 70.6834 108.13 71.309 107.883Z" fill="white"/>
<path style="mix-blend-mode:color-dodge" d="M52.7764 96.7519C53.4138 96.5008 54.1339 96.8137 54.3849 97.4508C54.6359 98.0879 54.3227 98.8079 53.6853 99.059C53.0479 99.3101 52.3278 98.9972 52.0768 98.3601C51.8258 97.7231 52.139 97.0031 52.7764 96.7519Z" fill="white"/>
<path style="mix-blend-mode:color-dodge" d="M135.045 49.2621C135.686 49.0095 135.997 48.2948 135.744 47.6539C135.492 47.0131 134.777 46.7025 134.136 46.9551C133.495 47.2077 133.184 47.9224 133.436 48.5633C133.689 49.2041 134.404 49.5147 135.045 49.2621Z" fill="white"/>
<path style="mix-blend-mode:color-dodge" d="M116.674 69.0603C117.316 68.8078 117.64 68.0632 117.387 67.4224C117.135 66.7815 116.39 66.458 115.749 66.7106C115.108 66.9632 114.784 67.7077 115.036 68.3485C115.289 68.9894 116.033 69.3129 116.674 69.0603Z" fill="url(#paint1_radial_1045_276)"/>
<path style="mix-blend-mode:color-dodge" d="M55.944 139.256C56.5851 139.003 56.909 138.259 56.6566 137.618C56.4041 136.977 55.6594 136.653 55.0182 136.906C54.3771 137.158 54.0532 137.903 54.3057 138.544C54.5582 139.185 55.3028 139.508 55.944 139.256Z" fill="url(#paint2_radial_1045_276)"/>
<path style="mix-blend-mode:color-dodge" d="M96.9636 32.7516C97.6127 32.4958 98.3462 32.8145 98.6019 33.4634C98.8575 34.1123 98.5385 34.8456 97.8893 35.1014C97.2401 35.3571 96.5066 35.0384 96.251 34.3896C95.9954 33.7407 96.3144 33.0073 96.9636 32.7516Z" fill="white"/>
<path style="mix-blend-mode:color-dodge" d="M22.6175 66.509C23.2785 66.2486 24.0253 66.5731 24.2856 67.2338C24.5459 67.8945 24.2211 68.6411 23.5601 68.9015C22.8991 69.1619 22.1523 68.8375 21.892 68.1768C21.6317 67.5161 21.9565 66.7694 22.6175 66.509Z" fill="white"/>
<path style="mix-blend-mode:color-dodge" d="M65.0728 135.857C65.7353 135.596 66.0592 134.851 65.7983 134.189C65.5374 133.527 64.7927 133.203 64.1302 133.464C63.4677 133.725 63.1438 134.47 63.4047 135.132C63.6656 135.794 64.4103 136.118 65.0728 135.857Z" fill="white"/>
<path style="mix-blend-mode:color-dodge" d="M108.13 91.4289C108.793 91.1679 109.117 90.4233 108.856 89.7611C108.595 89.0989 107.85 88.7754 107.188 89.0364C106.525 89.2974 106.201 90.0419 106.462 90.7041C106.723 91.3663 107.468 91.6899 108.13 91.4289Z" fill="url(#paint3_radial_1045_276)"/>
<path style="mix-blend-mode:color-dodge" d="M77.1831 66.4562C77.8457 66.1952 78.1696 65.4507 77.9087 64.7885C77.6478 64.1262 76.9031 63.8027 76.2406 64.0637C75.578 64.3247 75.2541 65.0693 75.515 65.7315C75.7759 66.3937 76.5206 66.7172 77.1831 66.4562Z" fill="white"/>
<path style="mix-blend-mode:color-dodge" d="M65.9967 88.3833C66.6813 88.1136 67.4548 88.4497 67.7244 89.1339C67.994 89.8182 67.6575 90.5916 66.973 90.8613C66.2884 91.131 65.5149 90.7949 65.2453 90.1106C64.9757 89.4264 65.3121 88.653 65.9967 88.3833Z" fill="white"/>
<path style="mix-blend-mode:color-dodge" d="M94.9105 124.424C95.5944 124.154 95.9312 123.38 95.6619 122.696C95.3926 122.013 94.6181 121.676 93.9342 121.946C93.2503 122.215 92.9135 122.99 93.1828 123.673C93.4521 124.357 94.2266 124.693 94.9105 124.424Z" fill="white"/>
<path style="mix-blend-mode:color-dodge" d="M72.0696 154.619C72.766 154.345 73.5528 154.687 73.8271 155.383C74.1013 156.079 73.7591 156.866 73.0627 157.14C72.3663 157.414 71.5795 157.072 71.3052 156.376C71.031 155.68 71.3732 154.894 72.0696 154.619Z" fill="white"/>
<path style="mix-blend-mode:color-dodge" d="M58.9991 119.126C59.7044 118.848 60.0542 118.044 59.7764 117.339C59.4987 116.634 58.7029 116.306 57.9976 116.584C57.2923 116.861 56.9425 117.666 57.2118 118.349C57.4812 119.033 58.2938 119.404 58.9991 119.126Z" fill="url(#paint4_radial_1045_276)"/>
<path style="mix-blend-mode:color-dodge" d="M120.919 57.8386C121.624 57.5607 121.974 56.7566 121.696 56.0517C121.419 55.3467 120.614 54.9973 119.909 55.2752C119.204 55.553 118.854 56.3571 119.132 57.062C119.409 57.767 120.214 58.1164 120.919 57.8386Z" fill="white"/>
<path style="mix-blend-mode:color-dodge" d="M145.277 110.33C146.004 110.044 146.354 109.24 146.068 108.513C145.781 107.787 144.977 107.438 144.251 107.724C143.524 108.01 143.174 108.814 143.46 109.541C143.746 110.267 144.551 110.616 145.277 110.33Z" fill="white"/>
<path style="mix-blend-mode:color-dodge" d="M66.9804 167.457C67.7071 167.171 68.0569 166.367 67.7707 165.64C67.4846 164.914 66.6803 164.565 65.9537 164.851C65.2271 165.137 64.8773 165.941 65.1634 166.668C65.4495 167.394 66.2538 167.743 66.9804 167.457Z" fill="white"/>
<path style="mix-blend-mode:color-dodge" d="M92.1103 95.4454C92.8369 95.1591 93.1867 94.355 92.9006 93.6287C92.6145 92.9024 91.8102 92.553 91.0836 92.8393C90.3569 93.1255 90.0071 93.9296 90.2933 94.6559C90.5794 95.3822 91.3837 95.7317 92.1103 95.4454Z" fill="white"/>
<path style="mix-blend-mode:color-dodge" d="M30.5969 65.0186C31.3287 64.7303 32.1556 65.0895 32.4437 65.821C32.7319 66.5524 32.3723 67.3791 31.6405 67.6674C30.9087 67.9557 30.0818 67.5965 29.7936 66.865C29.5055 66.1336 29.8651 65.3069 30.5969 65.0186Z" fill="white"/>
<path style="mix-blend-mode:color-dodge" d="M75.7732 120.093C76.5212 119.798 76.8839 118.964 76.5894 118.216C76.2948 117.469 75.4608 117.106 74.7128 117.401C73.9648 117.696 73.602 118.53 73.8966 119.277C74.1911 120.025 75.0252 120.387 75.7732 120.093Z" fill="white"/>
<path style="mix-blend-mode:color-dodge" d="M131.713 132.108C132.461 131.814 132.823 130.98 132.529 130.232C132.234 129.484 131.4 129.122 130.652 129.417C129.904 129.711 129.541 130.545 129.836 131.293C130.131 132.041 130.965 132.403 131.713 132.108Z" fill="url(#paint5_radial_1045_276)"/>
<path style="mix-blend-mode:color-dodge" d="M59.5455 144.451C60.3149 144.148 60.6906 143.285 60.3876 142.516C60.0847 141.747 59.2208 141.371 58.4515 141.674C57.6821 141.977 57.3277 142.833 57.6307 143.602C57.9337 144.371 58.7975 144.746 59.5455 144.451Z" fill="white"/>
<path style="mix-blend-mode:color-dodge" d="M107.344 158.367C108.114 158.064 108.489 157.2 108.186 156.431C107.883 155.662 107.02 155.287 106.25 155.59C105.481 155.893 105.105 156.757 105.408 157.526C105.711 158.295 106.575 158.67 107.344 158.367Z" fill="white"/>
<path style="mix-blend-mode:color-dodge" d="M77.2316 188.467C77.9988 188.164 78.8657 188.541 79.1678 189.308C79.4699 190.075 79.0929 190.941 78.3257 191.244C77.5585 191.546 76.6916 191.169 76.3895 190.403C76.0874 189.636 76.4644 188.769 77.2316 188.467Z" fill="white"/>
<path style="mix-blend-mode:color-dodge" d="M62.7378 52.8492C63.5072 52.5461 63.8829 51.6824 63.5799 50.9134C63.277 50.1444 62.4131 49.7691 61.6437 50.0722C60.8744 50.3753 60.4986 51.239 60.8016 52.008C61.1046 52.777 61.9684 53.1523 62.7378 52.8492Z" fill="url(#paint6_radial_1045_276)"/>
<path style="mix-blend-mode:color-dodge" d="M150.373 56.7711C151.142 56.468 151.518 55.6043 151.215 54.8353C150.912 54.0663 150.048 53.6909 149.278 53.9941C148.509 54.2972 148.133 55.1608 148.436 55.9299C148.739 56.6989 149.603 57.0742 150.373 56.7711Z" fill="white"/>
<path style="mix-blend-mode:color-dodge" d="M118.928 103.733C119.697 103.43 120.095 102.558 119.783 101.768C119.472 100.977 118.608 100.602 117.817 100.914C117.026 101.225 116.651 102.089 116.962 102.879C117.274 103.67 118.137 104.045 118.928 103.733Z" fill="white"/>
<path style="mix-blend-mode:color-dodge" d="M39.1596 90.0732C39.9503 89.7617 40.3176 88.8766 40.0146 88.1076C39.7117 87.3386 38.818 86.9503 38.0487 87.2535C37.2793 87.5566 36.8906 88.45 37.1936 89.219C37.4965 89.9881 38.3902 90.3763 39.1596 90.0732Z" fill="url(#paint7_radial_1045_276)"/>
<path style="mix-blend-mode:color-dodge" d="M149.905 153.469C150.695 153.158 151.084 152.264 150.773 151.474C150.461 150.683 149.568 150.295 148.777 150.607C147.986 150.918 147.597 151.812 147.909 152.602C148.22 153.392 149.114 153.781 149.905 153.469Z" fill="url(#paint8_radial_1045_276)"/>
<path style="mix-blend-mode:color-dodge" d="M96.3811 137.119C97.1719 136.808 97.5605 135.914 97.2492 135.124C96.9378 134.334 96.0441 133.945 95.2534 134.257C94.4626 134.569 94.074 135.462 94.3854 136.252C94.6967 137.043 95.5904 137.431 96.3811 137.119Z" fill="white"/>
<path style="mix-blend-mode:color-dodge" d="M71.9151 167.513C72.7272 167.193 73.1288 166.27 72.809 165.458C72.4892 164.646 71.5658 164.245 70.7537 164.565C69.9416 164.885 69.5399 165.808 69.8597 166.62C70.1795 167.432 71.103 167.833 71.9151 167.513Z" fill="white"/>
<path style="mix-blend-mode:color-dodge" d="M124.761 188.347C125.599 188.017 126.546 188.429 126.876 189.266C127.206 190.104 126.794 191.051 125.956 191.381C125.118 191.711 124.171 191.299 123.841 190.462C123.511 189.624 123.923 188.678 124.761 188.347Z" fill="white"/>
<path style="mix-blend-mode:color-dodge" d="M16.1618 84.5696C17.0117 84.2348 17.9719 84.652 18.3065 85.5015C18.6412 86.3509 18.2236 87.3109 17.3737 87.6457C16.5239 87.9805 15.5637 87.5634 15.229 86.7139C14.8944 85.8645 15.312 84.9045 16.1618 84.5696Z" fill="white"/>
<path style="mix-blend-mode:color-dodge" d="M128.134 135.247C128.989 134.91 129.417 133.927 129.08 133.073C128.743 132.218 127.76 131.791 126.906 132.128C126.051 132.465 125.623 133.447 125.96 134.302C126.296 135.156 127.279 135.583 128.134 135.247Z" fill="white"/>
<path style="mix-blend-mode:color-dodge" d="M89.6489 53.2285C90.5251 52.8833 90.9527 51.9005 90.6076 51.0247C90.2626 50.1488 89.2796 49.7217 88.4033 50.067C87.5271 50.4122 87.0996 51.395 87.4446 52.2708C87.7897 53.1466 88.7727 53.5737 89.6489 53.2285Z" fill="url(#paint9_radial_1045_276)"/>
<path style="mix-blend-mode:color-dodge" d="M109.81 179.851C110.686 179.506 111.127 178.493 110.782 177.617C110.437 176.741 109.424 176.301 108.548 176.647C107.671 176.992 107.231 178.004 107.576 178.88C107.921 179.756 108.934 180.196 109.81 179.851Z" fill="white"/>
<path style="mix-blend-mode:color-dodge" d="M54.4133 148.719C55.3109 148.366 55.7514 147.353 55.3979 146.456C55.0445 145.559 54.0317 145.119 53.1341 145.472C52.2365 145.826 51.796 146.839 52.1495 147.736C52.5029 148.633 53.5157 149.073 54.4133 148.719Z" fill="url(#paint10_radial_1045_276)"/>
<path style="mix-blend-mode:color-dodge" d="M69.1341 104.744C70.0311 104.391 71.0447 104.831 71.3979 105.728C71.7512 106.624 71.3104 107.638 70.4133 107.991C69.5163 108.344 68.5027 107.904 68.1495 107.007C67.7962 106.111 68.237 105.097 69.1341 104.744Z" fill="white"/>
<g style="mix-blend-mode:color-dodge" opacity="0.9">
<path d="M29.9374 47.2396C29.9374 47.2396 29.8215 47.384 29.817 47.4351C29.8124 47.4863 29.8033 47.5886 29.8584 47.6656L44.1119 66.9248C44.2052 67.0361 44.3457 67.0795 44.4739 67.029C44.6281 66.9189 44.6669 66.8295 44.6715 66.7784C44.676 66.7272 44.6851 66.625 44.6087 66.5564L30.3253 47.2842C30.3253 47.2842 30.1 47.1509 29.9718 47.2014C29.9504 47.2098 29.929 47.2183 29.9077 47.2267L29.9374 47.2396Z" fill="url(#paint11_linear_1045_276)"/>
</g>
<g style="mix-blend-mode:color-dodge" opacity="0.9">
<path d="M44.2685 66.4441C44.2685 66.4441 44.0929 66.5626 44.0709 66.6946L40.8285 95.4379C40.8149 95.5913 40.9463 95.7369 41.1082 95.7718C41.1594 95.7764 41.2105 95.7809 41.2747 95.7556C41.3601 95.722 41.4502 95.6371 41.4722 95.5051L44.7017 66.7916C44.7017 66.7916 44.6771 66.6039 44.6175 66.578C44.6007 66.5353 44.5243 66.4667 44.4006 66.4661C44.3494 66.4615 44.2982 66.457 44.2555 66.4738L44.2685 66.4441Z" fill="url(#paint12_linear_1045_276)"/>
</g>
<g style="mix-blend-mode:color-dodge" opacity="0.9">
<path d="M29.9847 47.1709C29.9847 47.1709 29.8092 47.2894 29.7872 47.4215L26.8412 77.3558C26.8276 77.5093 26.959 77.6549 27.1209 77.6898C27.1721 77.6943 27.2232 77.6989 27.266 77.682C27.3515 77.6483 27.4415 77.5635 27.4635 77.4315L30.4095 47.4971C30.4147 47.3223 30.2833 47.1767 30.1298 47.1631C30.087 47.18 30.0359 47.1755 29.9931 47.1923L29.9847 47.1709Z" fill="url(#paint13_linear_1045_276)"/>
</g>
<g style="mix-blend-mode:color-dodge" opacity="0.9">
<path d="M27.0469 77.1277C27.0469 77.1277 27.0041 77.1445 26.9614 77.1614C26.8286 77.263 26.7807 77.4546 26.8907 77.6087L40.8692 95.6684C40.954 95.7583 41.0946 95.8017 41.2228 95.7512C41.3769 95.6411 41.4158 95.5517 41.4203 95.5006C41.4249 95.4495 41.434 95.3472 41.3575 95.2786L27.3791 77.2189C27.2942 77.1289 27.1537 77.0856 27.0255 77.1361L27.0469 77.1277Z" fill="url(#paint14_linear_1045_276)"/>
</g>
<g style="mix-blend-mode:color-dodge" opacity="0.9">
<path d="M53.0999 35.8443C53.0999 35.8443 53.0145 35.878 52.9801 35.9162C52.8901 36.001 52.9024 36.0949 52.8979 36.146C52.9147 36.1887 52.9056 36.291 52.982 36.3596L71.7255 54.2941C71.7255 54.2941 71.9424 54.4061 72.0493 54.364C72.092 54.3471 72.1348 54.3303 72.1691 54.2921C72.2378 54.2157 72.2468 54.1134 72.2514 54.0623C72.2345 54.0195 72.2436 53.9173 72.1672 53.8487L53.4237 35.9142C53.4237 35.9142 53.2068 35.8022 53.0999 35.8443Z" fill="url(#paint15_linear_1045_276)"/>
</g>
<g style="mix-blend-mode:color-dodge" opacity="0.9">
<path d="M71.843 53.7786C71.7361 53.8207 71.6545 53.9269 71.6538 54.0506L70.1959 84.8793C70.1907 85.0541 70.3137 85.1784 70.497 85.2049C70.5397 85.188 70.5909 85.1925 70.6336 85.1757C70.7405 85.1336 70.8221 85.0274 70.8228 84.9038L72.2807 54.0751C72.2859 53.9003 72.1544 53.7546 71.9796 53.7495C71.9369 53.7663 71.8857 53.7618 71.843 53.7786Z" fill="url(#paint16_linear_1045_276)"/>
</g>
<g style="mix-blend-mode:color-dodge" opacity="0.9">
<path d="M53.0992 35.8448C53.0992 35.8448 52.9107 35.9931 52.8971 36.1465L53.6756 65.1317C53.6918 65.2981 53.8148 65.4224 53.9896 65.4275C54.0324 65.4107 54.0537 65.4023 54.0965 65.3854C54.2034 65.3433 54.285 65.2371 54.2986 65.0837L53.5201 36.0985C53.5039 35.9321 53.3809 35.8078 53.2061 35.8027C53.1633 35.8195 53.142 35.8279 53.0992 35.8448Z" fill="url(#paint17_linear_1045_276)"/>
</g>
<g style="mix-blend-mode:color-dodge" opacity="0.9">
<path d="M53.8775 64.8299C53.8775 64.8299 53.8134 64.8552 53.7921 64.8636C53.702 64.9484 53.6845 65.0293 53.68 65.0805C53.6968 65.1232 53.6877 65.2255 53.7641 65.2941L70.2713 85.0721C70.2713 85.0721 70.4882 85.184 70.6164 85.1335C70.7919 85.015 70.8094 84.9341 70.814 84.883C70.7971 84.8402 70.8062 84.7379 70.7298 84.6693L54.2525 64.9043C54.1592 64.793 54.0058 64.7794 53.8989 64.8215L53.8775 64.8299Z" fill="url(#paint18_linear_1045_276)"/>
</g>
<g style="mix-blend-mode:color-dodge" opacity="0.9">
<path d="M42.17 101.349C42.17 101.349 42.0845 101.383 42.0715 101.412C41.9472 101.535 41.9504 101.731 42.0734 101.856L55.9392 115.493C55.9392 115.493 56.1561 115.605 56.2629 115.563C56.3057 115.546 56.3484 115.529 56.3614 115.5C56.4514 115.415 56.4475 115.342 56.4521 115.291C56.4352 115.248 56.4443 115.146 56.3679 115.078L42.5022 101.44C42.5022 101.44 42.2853 101.328 42.1784 101.37L42.17 101.349Z" fill="url(#paint19_linear_1045_276)"/>
</g>
<g style="mix-blend-mode:color-dodge" opacity="0.9">
<path d="M96.9355 48.285C96.9355 48.285 96.76 48.4035 96.7509 48.5058L89.9254 77.3034C89.8904 77.4653 90.0004 77.6193 90.1623 77.6542C90.2433 77.6717 90.3158 77.6678 90.3585 77.651C90.444 77.6173 90.5127 77.5409 90.5431 77.4302L97.3771 48.6539C97.3771 48.6539 97.3739 48.4578 97.3357 48.4235C97.3188 48.3807 97.2424 48.3121 97.1317 48.2817C97.0508 48.2643 96.9866 48.2895 96.9439 48.3064L96.9355 48.285Z" fill="url(#paint20_linear_1045_276)"/>
</g>
<g style="mix-blend-mode:color-dodge" opacity="0.9">
<path d="M56.0276 114.965C55.878 115.024 55.7789 115.211 55.8676 115.374C55.9265 115.523 56.1137 115.623 56.2846 115.555L71.895 109.306C72.0446 109.247 72.1224 109.069 72.055 108.898C72.013 108.791 71.945 108.744 71.8854 108.718C71.8472 108.684 71.7449 108.675 71.638 108.717L56.0276 114.965Z" fill="url(#paint21_linear_1045_276)"/>
</g>
<g style="mix-blend-mode:color-dodge" opacity="0.9">
<path d="M42.1617 101.329C42.1617 101.329 42.0075 101.439 41.9771 101.55C41.9466 101.661 41.9803 101.746 42.0185 101.78C42.0353 101.823 42.1117 101.892 42.2011 101.931L71.6986 109.311C71.6986 109.311 71.8521 109.324 71.8948 109.308C71.9803 109.274 72.0489 109.198 72.0794 109.087C72.1144 108.925 72.0173 108.741 71.8554 108.706L42.3579 101.326C42.3579 101.326 42.2128 101.334 42.1701 101.35L42.1617 101.329Z" fill="url(#paint22_linear_1045_276)"/>
</g>
<g style="mix-blend-mode:color-dodge" opacity="0.9">
<path d="M67.2567 62.0018C67.2567 62.0018 67.1499 62.0439 67.1026 62.1119C67.0423 62.2096 67.0546 62.3035 67.0501 62.3546C67.0455 62.4058 67.1006 62.4828 67.177 62.5514L90.0091 77.6412C90.0091 77.6412 90.1794 77.6975 90.2863 77.6554C90.329 77.6386 90.3931 77.6133 90.4404 77.5453C90.535 77.4094 90.502 77.2003 90.366 77.1058L67.5339 62.016C67.5339 62.016 67.3636 61.9597 67.2567 62.0018Z" fill="url(#paint23_linear_1045_276)"/>
</g>
<g style="mix-blend-mode:color-dodge" opacity="0.9">
<path d="M53.122 97.628C53.122 97.628 53.0151 97.6701 52.9762 97.7594C52.916 97.8572 52.9283 97.951 52.9451 97.9938C52.962 98.0365 52.9956 98.1219 53.0934 98.1821L71.6176 109.293C71.6176 109.293 71.8093 109.341 71.8948 109.308C71.9375 109.291 72.0016 109.265 72.0405 109.176C72.1266 109.019 72.0807 108.839 71.9447 108.745L53.4205 97.6337C53.4205 97.6337 53.2288 97.5859 53.1433 97.6196L53.122 97.628Z" fill="url(#paint24_linear_1045_276)"/>
</g>
<g style="mix-blend-mode:color-dodge" opacity="0.9">
<path d="M134.472 47.809C134.472 47.809 134.387 47.8427 134.352 47.8809L115.982 67.679C115.982 67.679 115.904 67.8576 115.9 67.9088C115.917 67.9515 115.907 68.0538 115.984 68.1224C116.099 68.2253 116.222 68.2259 116.308 68.1923C116.35 68.1754 116.393 68.1586 116.427 68.1204L134.798 48.3223C134.922 48.1993 134.919 48.0031 134.775 47.8873C134.66 47.7843 134.536 47.7837 134.451 47.8174L134.472 47.809Z" fill="url(#paint25_linear_1045_276)"/>
</g>
<g style="mix-blend-mode:color-dodge" opacity="0.9">
<path d="M53.122 97.627C52.9724 97.6859 52.8863 97.8433 52.9452 97.9928L64.2855 134.736C64.3444 134.886 64.5018 134.972 64.6598 134.934C64.8308 134.867 64.9169 134.709 64.8794 134.551L53.539 97.8082C53.4801 97.6587 53.3228 97.5726 53.1648 97.6102L53.1434 97.6186L53.122 97.627Z" fill="url(#paint26_linear_1045_276)"/>
</g>
<g style="mix-blend-mode:color-dodge" opacity="0.9">
<path d="M116.081 67.6172C116.081 67.6172 115.953 67.6677 115.901 67.7869L107.332 90.0904C107.276 90.2607 107.343 90.4315 107.492 90.4963C107.581 90.5351 107.675 90.5228 107.718 90.5059C107.761 90.4891 107.867 90.447 107.898 90.3363L116.459 68.0114C116.524 67.8625 116.426 67.6787 116.277 67.6139C116.188 67.5751 116.094 67.5874 116.051 67.6043L116.081 67.6172Z" fill="url(#paint27_linear_1045_276)"/>
</g>
<g style="mix-blend-mode:color-dodge" opacity="0.9">
<path d="M55.3931 137.795C55.2435 137.854 55.1657 138.033 55.2246 138.182C55.292 138.353 55.4707 138.431 55.6203 138.372L64.7194 134.96C64.8476 134.909 64.9254 134.731 64.8878 134.573C64.8289 134.423 64.6418 134.324 64.4922 134.383L55.4144 137.787L55.3931 137.795Z" fill="url(#paint28_linear_1045_276)"/>
</g>
<g style="mix-blend-mode:color-dodge" opacity="0.9">
<path d="M76.594 64.9609C76.594 64.9609 76.4658 65.0115 76.414 65.1306L66.1956 89.5151C66.1956 89.5151 66.2195 89.8265 66.3471 89.8996C66.4365 89.9384 66.5517 89.9177 66.5945 89.9008C66.6372 89.884 66.7227 89.8503 66.7745 89.7312L77.0013 65.3681C77.0013 65.3681 77.0194 65.1635 77.0026 65.1208C76.9858 65.078 76.9521 64.9926 76.833 64.9408C76.7436 64.902 76.6497 64.9143 76.607 64.9312L76.594 64.9609Z" fill="url(#paint29_linear_1045_276)"/>
</g>
<g style="mix-blend-mode:color-dodge" opacity="0.9">
<path d="M28.6814 56.3968C28.6814 56.3968 28.5532 56.4473 28.5143 56.5367L22.8121 67.5683C22.8121 67.5683 22.7855 67.7515 22.781 67.8026C22.7978 67.8453 22.8315 67.9308 22.9293 67.991C23.0484 68.0428 23.1423 68.0304 23.1851 68.0136C23.2278 67.9967 23.3133 67.9631 23.3522 67.8737L29.0544 56.8421C29.0544 56.8421 29.0809 56.6589 29.0855 56.6078C29.0686 56.565 29.035 56.4796 28.9372 56.4194C28.8181 56.3676 28.7241 56.3799 28.6814 56.3968Z" fill="url(#paint30_linear_1045_276)"/>
</g>
<g style="mix-blend-mode:color-dodge" opacity="0.9">
<path d="M107.542 89.9325C107.542 89.9325 107.413 89.983 107.362 90.1022L94.1327 123.076C94.0679 123.225 94.165 123.409 94.2926 123.482C94.382 123.521 94.4759 123.508 94.5186 123.491C94.5613 123.475 94.6468 123.441 94.6987 123.322L107.936 90.3694C108.001 90.2205 107.925 90.0283 107.776 89.9635C107.687 89.9247 107.593 89.937 107.55 89.9539L107.542 89.9325Z" fill="url(#paint31_linear_1045_276)"/>
</g>
<g style="mix-blend-mode:color-dodge" opacity="0.9">
<path d="M64.4834 134.362C64.3338 134.421 64.2561 134.6 64.2936 134.758L72.2582 155.976C72.3255 156.147 72.5042 156.225 72.6538 156.166C72.8248 156.099 72.9025 155.92 72.8436 155.77L64.8791 134.552C64.8791 134.552 64.769 134.398 64.7094 134.372C64.6712 134.337 64.5689 134.328 64.4621 134.37L64.4834 134.362Z" fill="url(#paint32_linear_1045_276)"/>
</g>
<g style="mix-blend-mode:color-dodge" opacity="0.9">
<path d="M97.3085 33.6282C97.3085 33.6282 97.2231 33.6619 97.2101 33.6917C97.0857 33.8147 97.089 34.0108 97.212 34.1351L120.2 56.7642C120.2 56.7642 120.417 56.8762 120.545 56.8256C120.588 56.8088 120.63 56.792 120.643 56.7622C120.768 56.6391 120.765 56.443 120.642 56.3187L97.6537 33.6896C97.6537 33.6896 97.4368 33.5777 97.3299 33.6198L97.3085 33.6282Z" fill="url(#paint33_linear_1045_276)"/>
</g>
<g style="mix-blend-mode:color-dodge" opacity="0.9">
<path d="M22.9791 67.4274C22.9791 67.4274 22.8295 67.4863 22.799 67.597L16.46 85.2216C16.46 85.2216 16.4632 85.4177 16.4801 85.4605C16.4969 85.5032 16.5306 85.5886 16.6627 85.6106C16.752 85.6494 16.8375 85.6158 16.8803 85.5989C16.923 85.5821 17.0299 85.54 17.0519 85.4079L23.4123 67.7749C23.4557 67.6344 23.3884 67.4636 23.218 67.4073C23.1287 67.3684 23.0348 67.3808 22.992 67.3976L22.9791 67.4274Z" fill="url(#paint34_linear_1045_276)"/>
</g>
<g style="mix-blend-mode:color-dodge" opacity="0.9">
<path d="M66.3761 89.3458C66.3761 89.3458 66.2219 89.4558 66.1831 89.5452L58.1919 117.766C58.1569 117.927 58.2456 118.09 58.4075 118.125C58.4885 118.142 58.561 118.138 58.6038 118.122C58.6893 118.088 58.7579 118.011 58.7968 117.922L66.7879 89.7017C66.8229 89.5399 66.7342 89.3774 66.5639 89.3211C66.4829 89.3037 66.4104 89.3076 66.3677 89.3244L66.3761 89.3458Z" fill="url(#paint35_linear_1045_276)"/>
</g>
<g style="mix-blend-mode:color-dodge" opacity="0.9">
<path d="M76.5732 64.9696C76.5732 64.9696 76.4275 65.101 76.423 65.1522C76.4184 65.2033 76.4009 65.2842 76.443 65.391L91.306 94.2811C91.3649 94.4306 91.5566 94.4785 91.6848 94.428C91.813 94.3774 91.8519 94.2881 91.8778 94.2285C91.8823 94.1774 91.8998 94.0965 91.8578 93.9897L76.9948 65.0996C76.9359 64.9501 76.7656 64.8938 76.616 64.9527L76.5946 64.9612L76.5732 64.9696Z" fill="url(#paint36_linear_1045_276)"/>
</g>
<g style="mix-blend-mode:color-dodge" opacity="0.9">
<path d="M28.6817 56.3961C28.5321 56.4551 28.446 56.6124 28.5049 56.7619L30.8246 66.4099C30.8751 66.5381 31.0195 66.6539 31.1775 66.6164C31.3698 66.5406 31.4346 66.3917 31.4055 66.2551L29.0858 56.6071C29.0482 56.4492 28.8825 56.3417 28.7031 56.3877L28.6603 56.4046L28.6817 56.3961Z" fill="url(#paint37_linear_1045_276)"/>
</g>
<g style="mix-blend-mode:color-dodge" opacity="0.9">
<path d="M72.4479 155.58C72.4479 155.58 72.3411 155.622 72.3022 155.712L66.2031 165.986C66.117 166.144 66.1629 166.323 66.3203 166.409C66.4096 166.448 66.512 166.457 66.5975 166.423C66.6402 166.407 66.7043 166.381 66.7432 166.292L72.8423 156.017C72.9284 155.86 72.8825 155.68 72.7251 155.594C72.6357 155.556 72.5334 155.546 72.4479 155.58Z" fill="url(#paint38_linear_1045_276)"/>
</g>
<g style="mix-blend-mode:color-dodge" opacity="0.9">
<path d="M31.001 66.0445C31.001 66.0445 30.8942 66.0866 30.8683 66.1462L16.486 85.1628C16.3914 85.2988 16.416 85.4865 16.552 85.581C16.6284 85.6496 16.7605 85.6716 16.8673 85.6295C16.9101 85.6126 16.9742 85.5874 17.0001 85.5278L31.3908 66.5326C31.4854 66.3966 31.4608 66.2089 31.3164 66.093C31.24 66.0244 31.1079 66.0024 31.001 66.0445Z" fill="url(#paint39_linear_1045_276)"/>
</g>
<g style="mix-blend-mode:color-dodge" opacity="0.9">
<path d="M58.415 117.578C58.3082 117.62 58.2266 117.726 58.2259 117.85C58.2168 117.952 58.2719 118.029 58.3101 118.064C58.3269 118.106 58.4033 118.175 58.527 118.176L75.2678 119.057C75.2678 119.057 75.3617 119.045 75.4044 119.028C75.5113 118.986 75.5929 118.88 75.5935 118.756C75.5942 118.633 75.5392 118.556 75.5094 118.543C75.4926 118.5 75.3948 118.44 75.2925 118.431L58.5303 117.557C58.5303 117.557 58.4662 117.583 58.4234 117.6L58.415 117.578Z" fill="url(#paint40_linear_1045_276)"/>
</g>
<g style="mix-blend-mode:color-dodge" opacity="0.9">
<path d="M144.655 108.748C144.655 108.748 144.548 108.79 144.509 108.879L130.927 130.616C130.854 130.744 130.878 130.931 131.036 131.017C131.134 131.078 131.236 131.087 131.321 131.053C131.364 131.036 131.428 131.011 131.467 130.921L145.028 109.193C145.028 109.193 145.076 109.002 145.059 108.959C145.042 108.916 145.009 108.831 144.911 108.77C144.821 108.732 144.711 108.701 144.625 108.735L144.655 108.748Z" fill="url(#paint41_linear_1045_276)"/>
</g>
<g style="mix-blend-mode:color-dodge" opacity="0.9">
<path d="M120.296 56.2564C120.296 56.2564 120.086 56.4131 120.094 56.5581C120.093 56.6818 120.161 56.729 120.178 56.7717C120.195 56.8144 120.284 56.8533 120.408 56.8539L149.819 55.6805C149.819 55.6805 149.862 55.6637 149.883 55.6553C150.054 55.5879 150.115 55.4902 150.115 55.3665C150.116 55.2429 150.039 55.1743 150.031 55.1529C150.014 55.1102 149.925 55.0713 149.801 55.0707L120.39 56.2441L120.304 56.2778L120.296 56.2564Z" fill="url(#paint42_linear_1045_276)"/>
</g>
<g style="mix-blend-mode:color-dodge" opacity="0.9">
<path d="M75.1259 118.448C75.1259 118.448 75.019 118.49 74.9717 118.558L58.7269 142.873C58.6323 143.009 58.6783 143.189 58.8143 143.283C58.9121 143.343 59.0144 143.352 59.0999 143.319C59.164 143.294 59.2067 143.277 59.2326 143.217L75.4774 118.901C75.4774 118.901 75.5254 118.71 75.5299 118.659C75.5131 118.616 75.4794 118.531 75.403 118.462C75.2755 118.389 75.1602 118.41 75.1174 118.426L75.1259 118.448Z" fill="url(#paint43_linear_1045_276)"/>
</g>
<g style="mix-blend-mode:color-dodge" opacity="0.9">
<path d="M75.1339 118.469C75.1339 118.469 75.0485 118.503 75.0225 118.563C74.9539 118.639 74.9448 118.741 74.9403 118.792C74.9571 118.835 74.9694 118.929 75.0458 118.998L95.6202 135.939C95.7264 136.021 95.85 136.022 95.9355 135.988C95.9783 135.971 96.021 135.954 96.0469 135.895C96.1156 135.818 96.1247 135.716 96.1292 135.665C96.1124 135.622 96.1001 135.528 96.0237 135.46L75.4493 118.518C75.3431 118.436 75.2194 118.436 75.1339 118.469Z" fill="url(#paint44_linear_1045_276)"/>
</g>
<g style="mix-blend-mode:color-dodge" opacity="0.9">
<path d="M131.073 130.485C131.073 130.485 131.009 130.51 130.987 130.519C130.897 130.604 130.88 130.684 130.875 130.736C130.892 130.778 130.883 130.881 130.959 130.949L149.088 152.211C149.088 152.211 149.305 152.323 149.412 152.28C149.587 152.162 149.605 152.081 149.609 152.03C149.592 151.987 149.601 151.885 149.525 151.816L131.397 130.555C131.303 130.444 131.15 130.43 131.043 130.472L131.073 130.485Z" fill="url(#paint45_linear_1045_276)"/>
</g>
<g style="mix-blend-mode:color-dodge" opacity="0.9">
<path d="M95.6787 135.398C95.5291 135.457 95.4598 135.657 95.5485 135.819L106.528 157.109C106.587 157.258 106.779 157.306 106.928 157.247C107.121 157.171 107.169 156.98 107.101 156.809L96.1216 135.519C96.0627 135.37 95.871 135.322 95.7214 135.381L95.7001 135.389L95.6787 135.398Z" fill="url(#paint46_linear_1045_276)"/>
</g>
<g style="mix-blend-mode:color-dodge" opacity="0.9">
<path d="M58.876 142.815C58.7264 142.874 58.6571 143.074 58.7458 143.236L71.0515 166.2C71.1104 166.349 71.3021 166.397 71.4303 166.347C71.6227 166.271 71.6622 166.058 71.6033 165.908L59.2891 142.924C59.2386 142.796 59.047 142.748 58.9187 142.798L58.8973 142.807L58.876 142.815Z" fill="url(#paint47_linear_1045_276)"/>
</g>
<g style="mix-blend-mode:color-dodge" opacity="0.9">
<path d="M95.6999 135.39C95.6999 135.39 95.5931 135.432 95.5672 135.492L71.0622 165.85C70.9806 165.956 70.9838 166.153 71.1282 166.268C71.2344 166.35 71.358 166.351 71.4435 166.317C71.4863 166.3 71.529 166.283 71.5549 166.224L96.0386 135.874C96.0386 135.874 96.1163 135.695 96.0995 135.652C96.0826 135.609 96.0703 135.516 95.9939 135.447C95.9175 135.378 95.7854 135.356 95.6786 135.399L95.6999 135.39Z" fill="url(#paint48_linear_1045_276)"/>
</g>
<g style="mix-blend-mode:color-dodge" opacity="0.9">
<path d="M88.9167 51.3712C88.9167 51.3712 88.7671 51.4301 88.7451 51.5622L69.4623 106.268C69.4059 106.438 69.4946 106.601 69.6435 106.665C69.7329 106.704 69.8184 106.671 69.8611 106.654C69.9039 106.637 70.0107 106.595 70.0328 106.463L89.3156 51.757C89.3156 51.757 89.3123 51.5608 89.2955 51.5181C89.2787 51.4754 89.245 51.3899 89.1129 51.3679C89.0235 51.3291 88.9381 51.3628 88.8953 51.3796L88.9167 51.3712Z" fill="url(#paint49_linear_1045_276)"/>
</g>
<g style="mix-blend-mode:color-dodge" opacity="0.9">
<path d="M69.6559 106.068C69.6559 106.068 69.5276 106.118 69.4758 106.238L53.4969 146.958C53.4322 147.106 53.5079 147.299 53.6568 147.363C53.7462 147.402 53.8401 147.39 53.8828 147.373C53.9256 147.356 54.0111 147.323 54.0629 147.203L70.0418 106.483C70.0418 106.483 70.0599 106.279 70.0431 106.236C70.0263 106.193 69.9926 106.108 69.8819 106.078C69.7925 106.039 69.6986 106.051 69.6559 106.068Z" fill="url(#paint50_linear_1045_276)"/>
</g>
</g>
<g clip-path="url(#clip1_1045_276)">
<mask id="path-90-outside-1_1045_276" maskUnits="userSpaceOnUse" x="80.1455" y="37.3965" width="32" height="116" fill="black">
<rect fill="white" x="80.1455" y="37.3965" width="32" height="116"/>
<path d="M108.604 90.9474C108.604 87.9198 107.2 85.2173 105.016 83.455V75.8167C105.016 74.7804 104.843 73.7829 104.532 72.8574V69.8076C104.532 68.2005 104.037 66.7135 103.197 65.4777V64.4229C103.197 62.5128 102.264 60.8245 100.834 59.7752V58.2697C100.834 56.6201 99.7903 55.2126 98.3273 54.6695L97.7011 50.273C97.5737 49.3605 97.243 48.5662 96.8717 48.1746V39.9082C96.8717 39.6255 96.6445 39.3965 96.36 39.3965C96.0792 39.3965 95.8483 39.6255 95.8483 39.9082V48.2281C95.4955 48.6401 95.1852 49.3956 95.0577 50.2693L94.4093 54.6621C93.8829 54.856 93.4063 55.1608 93.0147 55.5469C92.3201 56.2452 91.8897 57.202 91.8897 58.2679V59.7734C90.4581 60.8226 89.5271 62.511 89.5271 64.421V65.4758C88.6847 66.7098 88.1915 68.1986 88.1915 69.8057V72.8555C87.8812 73.781 87.7094 74.7804 87.7094 75.8148C87.7094 79.0401 87.7094 81.8645 87.7094 83.4513C85.5204 85.2154 84.1202 87.9142 84.1202 90.9456V108.827H82.1455V151.395H110.58V108.827H108.607L108.604 90.9474ZM85.2655 143.778H83.4497V140.37H85.2655V143.778ZM85.2655 137.917H83.4497V134.507H85.2655V137.917ZM85.2655 132.056H83.4497V128.65H85.2655V132.056ZM85.2655 126.196H83.4497V122.786H85.2655V126.196ZM85.2655 120.333H83.4497V116.931H85.2655V120.333ZM85.2655 114.478H83.4497V111.069H85.2655V114.478ZM87.8165 143.778H86.0044V140.37H87.8165V143.778ZM87.8165 137.917H86.0044V134.507H87.8165V137.917ZM87.8165 132.056H86.0044V128.65H87.8165V132.056ZM87.8165 126.196H86.0044V122.786H87.8165V126.196ZM87.8165 120.333H86.0044V116.931H87.8165V120.333ZM87.8165 114.478H86.0044V111.069H87.8165V114.478ZM92.4143 143.778H90.6003V140.37H92.4143V143.778ZM92.4143 137.917H90.6003V134.507H92.4143V137.917ZM92.4143 132.056H90.6003V128.65H92.4143V132.056ZM92.4143 126.196H90.6003V122.786H92.4143V126.196ZM92.4143 120.333H90.6003V116.931H92.4143V120.333ZM92.4143 114.478H90.6003V111.069H92.4143V114.478ZM92.4143 108.302H90.6003V104.896H92.4143V108.302ZM92.4143 102.131H90.6003V98.7243H92.4143V102.131ZM92.4143 95.9627H90.6003V94.2577C90.6003 93.3193 91.0067 92.5545 91.5092 92.5545H92.418V95.9645L92.4143 95.9627ZM94.969 143.778H93.1551V140.37H94.969V143.778ZM94.969 137.917H93.1551V134.507H94.969V137.917ZM94.969 132.056H93.1551V128.65H94.969V132.056ZM94.969 126.196H93.1551V122.786H94.969V126.196ZM94.969 120.333H93.1551V116.931H94.969V120.333ZM94.969 114.478H93.1551V111.069H94.969V114.478ZM94.969 108.302H93.1551V104.896H94.969V108.302ZM94.969 102.131H93.1551V98.7243H94.969V102.131ZM94.969 95.9627H93.1551V92.5527H94.969V95.9627ZM99.5668 143.778H97.751V140.37H99.5668V143.778ZM99.5668 137.917H97.751V134.507H99.5668V137.917ZM99.5668 132.056H97.751V128.65H99.5668V132.056ZM99.5668 126.196H97.751V122.786H99.5668V126.196ZM99.5668 120.333H97.751V116.931H99.5668V120.333ZM99.5668 114.478H97.751V111.069H99.5668V114.478ZM99.5668 108.302H97.751V104.896H99.5668V108.302ZM99.5668 102.131H97.751V98.7243H99.5668V102.131ZM99.5668 95.9627H97.751V92.5527H99.5668V95.9627ZM102.118 143.778H100.308V140.37H102.118V143.778ZM102.118 137.917H100.308V134.507H102.118V137.917ZM102.118 132.056H100.308V128.65H102.118V132.056ZM102.118 126.196H100.308V122.786H102.118V126.196ZM102.118 120.333H100.308V116.931H102.118V120.333ZM102.118 114.478H100.308V111.069H102.118V114.478ZM102.118 108.302H100.308V104.896H102.118V108.302ZM102.118 102.131H100.308V98.7243H102.118V102.131ZM102.118 95.9627H100.308V92.5527C100.308 92.5527 100.714 92.5527 101.213 92.5527C101.713 92.5527 102.12 93.3174 102.12 94.2558L102.118 95.9627ZM104.806 108.827H102.945V94.4646C102.945 90.7036 99.9935 87.6538 96.3563 87.6538C92.721 87.6538 89.7728 90.7036 89.7728 94.4646V108.827H88.0086V94.6641C88.0086 89.8926 91.7752 86.0116 96.4062 86.0116C101.032 86.0116 104.802 89.8926 104.802 94.6641V108.827H104.806ZM106.714 143.778H104.904V140.37H106.714V143.778ZM106.714 137.917H104.904V134.507H106.714V137.917ZM106.714 132.056H104.904V128.65H106.714V132.056ZM106.714 126.196H104.904V122.786H106.714V126.196ZM106.714 120.333H104.904V116.931H106.714V120.333ZM106.714 114.478H104.904V111.069H106.714V114.478ZM109.274 143.778H107.456V140.37H109.274V143.778ZM109.274 137.917H107.456V134.507H109.274V137.917ZM109.274 132.056H107.456V128.65H109.274V132.056ZM109.274 126.196H107.456V122.786H109.274V126.196ZM109.274 120.333H107.456V116.931H109.274V120.333ZM109.274 111.069V114.478H107.456V111.069H109.274Z"/>
</mask>
<path d="M108.604 90.9474C108.604 87.9198 107.2 85.2173 105.016 83.455V75.8167C105.016 74.7804 104.843 73.7829 104.532 72.8574V69.8076C104.532 68.2005 104.037 66.7135 103.197 65.4777V64.4229C103.197 62.5128 102.264 60.8245 100.834 59.7752V58.2697C100.834 56.6201 99.7903 55.2126 98.3273 54.6695L97.7011 50.273C97.5737 49.3605 97.243 48.5662 96.8717 48.1746V39.9082C96.8717 39.6255 96.6445 39.3965 96.36 39.3965C96.0792 39.3965 95.8483 39.6255 95.8483 39.9082V48.2281C95.4955 48.6401 95.1852 49.3956 95.0577 50.2693L94.4093 54.6621C93.8829 54.856 93.4063 55.1608 93.0147 55.5469C92.3201 56.2452 91.8897 57.202 91.8897 58.2679V59.7734C90.4581 60.8226 89.5271 62.511 89.5271 64.421V65.4758C88.6847 66.7098 88.1915 68.1986 88.1915 69.8057V72.8555C87.8812 73.781 87.7094 74.7804 87.7094 75.8148C87.7094 79.0401 87.7094 81.8645 87.7094 83.4513C85.5204 85.2154 84.1202 87.9142 84.1202 90.9456V108.827H82.1455V151.395H110.58V108.827H108.607L108.604 90.9474ZM85.2655 143.778H83.4497V140.37H85.2655V143.778ZM85.2655 137.917H83.4497V134.507H85.2655V137.917ZM85.2655 132.056H83.4497V128.65H85.2655V132.056ZM85.2655 126.196H83.4497V122.786H85.2655V126.196ZM85.2655 120.333H83.4497V116.931H85.2655V120.333ZM85.2655 114.478H83.4497V111.069H85.2655V114.478ZM87.8165 143.778H86.0044V140.37H87.8165V143.778ZM87.8165 137.917H86.0044V134.507H87.8165V137.917ZM87.8165 132.056H86.0044V128.65H87.8165V132.056ZM87.8165 126.196H86.0044V122.786H87.8165V126.196ZM87.8165 120.333H86.0044V116.931H87.8165V120.333ZM87.8165 114.478H86.0044V111.069H87.8165V114.478ZM92.4143 143.778H90.6003V140.37H92.4143V143.778ZM92.4143 137.917H90.6003V134.507H92.4143V137.917ZM92.4143 132.056H90.6003V128.65H92.4143V132.056ZM92.4143 126.196H90.6003V122.786H92.4143V126.196ZM92.4143 120.333H90.6003V116.931H92.4143V120.333ZM92.4143 114.478H90.6003V111.069H92.4143V114.478ZM92.4143 108.302H90.6003V104.896H92.4143V108.302ZM92.4143 102.131H90.6003V98.7243H92.4143V102.131ZM92.4143 95.9627H90.6003V94.2577C90.6003 93.3193 91.0067 92.5545 91.5092 92.5545H92.418V95.9645L92.4143 95.9627ZM94.969 143.778H93.1551V140.37H94.969V143.778ZM94.969 137.917H93.1551V134.507H94.969V137.917ZM94.969 132.056H93.1551V128.65H94.969V132.056ZM94.969 126.196H93.1551V122.786H94.969V126.196ZM94.969 120.333H93.1551V116.931H94.969V120.333ZM94.969 114.478H93.1551V111.069H94.969V114.478ZM94.969 108.302H93.1551V104.896H94.969V108.302ZM94.969 102.131H93.1551V98.7243H94.969V102.131ZM94.969 95.9627H93.1551V92.5527H94.969V95.9627ZM99.5668 143.778H97.751V140.37H99.5668V143.778ZM99.5668 137.917H97.751V134.507H99.5668V137.917ZM99.5668 132.056H97.751V128.65H99.5668V132.056ZM99.5668 126.196H97.751V122.786H99.5668V126.196ZM99.5668 120.333H97.751V116.931H99.5668V120.333ZM99.5668 114.478H97.751V111.069H99.5668V114.478ZM99.5668 108.302H97.751V104.896H99.5668V108.302ZM99.5668 102.131H97.751V98.7243H99.5668V102.131ZM99.5668 95.9627H97.751V92.5527H99.5668V95.9627ZM102.118 143.778H100.308V140.37H102.118V143.778ZM102.118 137.917H100.308V134.507H102.118V137.917ZM102.118 132.056H100.308V128.65H102.118V132.056ZM102.118 126.196H100.308V122.786H102.118V126.196ZM102.118 120.333H100.308V116.931H102.118V120.333ZM102.118 114.478H100.308V111.069H102.118V114.478ZM102.118 108.302H100.308V104.896H102.118V108.302ZM102.118 102.131H100.308V98.7243H102.118V102.131ZM102.118 95.9627H100.308V92.5527C100.308 92.5527 100.714 92.5527 101.213 92.5527C101.713 92.5527 102.12 93.3174 102.12 94.2558L102.118 95.9627ZM104.806 108.827H102.945V94.4646C102.945 90.7036 99.9935 87.6538 96.3563 87.6538C92.721 87.6538 89.7728 90.7036 89.7728 94.4646V108.827H88.0086V94.6641C88.0086 89.8926 91.7752 86.0116 96.4062 86.0116C101.032 86.0116 104.802 89.8926 104.802 94.6641V108.827H104.806ZM106.714 143.778H104.904V140.37H106.714V143.778ZM106.714 137.917H104.904V134.507H106.714V137.917ZM106.714 132.056H104.904V128.65H106.714V132.056ZM106.714 126.196H104.904V122.786H106.714V126.196ZM106.714 120.333H104.904V116.931H106.714V120.333ZM106.714 114.478H104.904V111.069H106.714V114.478ZM109.274 143.778H107.456V140.37H109.274V143.778ZM109.274 137.917H107.456V134.507H109.274V137.917ZM109.274 132.056H107.456V128.65H109.274V132.056ZM109.274 126.196H107.456V122.786H109.274V126.196ZM109.274 120.333H107.456V116.931H109.274V120.333ZM109.274 111.069V114.478H107.456V111.069H109.274Z" stroke="white" stroke-width="3" mask="url(#path-90-outside-1_1045_276)"/>
<path d="M61.0479 151.394V152.144H61.7979H78.3731H79.1231V151.394V75.5687C79.1231 75.5686 79.1231 75.5686 79.1231 75.5685C79.1241 71.779 78.2175 68.3122 76.7124 65.7674C75.2171 63.2392 73.0439 61.498 70.4965 61.498H69.6763C67.1288 61.498 64.9556 63.2398 63.4602 65.7681C61.9549 68.3131 61.0479 71.7799 61.0479 75.5685V151.394Z" stroke="white" stroke-width="1.5"/>
<path d="M113.821 87.7578H113.071V88.5078V151.397V152.147H113.821H130.397H131.147V151.397V88.5078V87.7578H130.397H113.821ZM128.276 118.723H126.577V115.78H128.276V118.723ZM117.529 134.428H115.831V131.491H117.529V134.428ZM117.549 126.574H115.85V123.637H117.549V126.574ZM117.569 118.723H115.87V115.78H117.569V118.723ZM117.588 110.867H115.887V107.926H117.588V110.867ZM117.608 103.012H115.905V100.072H117.608V103.012ZM117.627 95.156H115.927V92.2171H117.627V95.156ZM122.865 134.428H121.168V131.491H122.865V134.428ZM122.884 126.574H121.183V123.637H122.882L122.884 126.574ZM122.902 118.723H121.203V115.78H122.902V118.723ZM122.921 110.867H121.221V107.926H122.921V110.867ZM122.943 103.012H121.244V100.072H122.943V103.012ZM122.963 95.156H121.262V92.2171H122.963V95.156ZM128.237 134.428H126.538V131.491H128.237V134.428ZM128.256 126.574H126.558V123.637H128.256V126.574ZM128.294 110.867H126.597V107.926H128.294V110.867ZM128.315 103.012H126.617V100.072H128.315V103.012ZM128.333 95.156H126.636V92.2171H128.333V95.156Z" stroke="white" stroke-width="1.5"/>
</g>
<defs>
<radialGradient id="paint0_radial_1045_276" cx="0" cy="0" r="1" gradientUnits="userSpaceOnUse" gradientTransform="translate(53.9872 65.1063) rotate(-21.503) scale(1.07961 1.07911)">
<stop stop-color="white"/>
<stop offset="0.11" stop-color="#FAFAFA"/>
<stop offset="0.23" stop-color="#ECECEC"/>
<stop offset="0.36" stop-color="#D4D4D4"/>
<stop offset="0.5" stop-color="#B4B4B4"/>
<stop offset="0.64" stop-color="#8A8A8A"/>
<stop offset="0.79" stop-color="#565656"/>
<stop offset="0.94" stop-color="#1A1A1A"/>
<stop offset="1"/>
</radialGradient>
<radialGradient id="paint1_radial_1045_276" cx="0" cy="0" r="1" gradientUnits="userSpaceOnUse" gradientTransform="translate(116.22 67.9068) rotate(-21.503) scale(1.26338 1.26279)">
<stop stop-color="white"/>
<stop offset="0.11" stop-color="#FAFAFA"/>
<stop offset="0.23" stop-color="#ECECEC"/>
<stop offset="0.36" stop-color="#D4D4D4"/>
<stop offset="0.5" stop-color="#B4B4B4"/>
<stop offset="0.64" stop-color="#8A8A8A"/>
<stop offset="0.79" stop-color="#565656"/>
<stop offset="0.94" stop-color="#1A1A1A"/>
<stop offset="1"/>
</radialGradient>
<radialGradient id="paint2_radial_1045_276" cx="0" cy="0" r="1" gradientUnits="userSpaceOnUse" gradientTransform="translate(55.4811 138.081) rotate(-21.503) scale(1.26337 1.26279)">
<stop stop-color="white"/>
<stop offset="0.11" stop-color="#FAFAFA"/>
<stop offset="0.23" stop-color="#ECECEC"/>
<stop offset="0.36" stop-color="#D4D4D4"/>
<stop offset="0.5" stop-color="#B4B4B4"/>
<stop offset="0.64" stop-color="#8A8A8A"/>
<stop offset="0.79" stop-color="#565656"/>
<stop offset="0.94" stop-color="#1A1A1A"/>
<stop offset="1"/>
</radialGradient>
<radialGradient id="paint3_radial_1045_276" cx="0" cy="0" r="1" gradientUnits="userSpaceOnUse" gradientTransform="translate(107.651 90.2113) rotate(-21.503) scale(1.28635 1.28575)">
<stop stop-color="white"/>
<stop offset="0.11" stop-color="#FAFAFA"/>
<stop offset="0.23" stop-color="#ECECEC"/>
<stop offset="0.36" stop-color="#D4D4D4"/>
<stop offset="0.5" stop-color="#B4B4B4"/>
<stop offset="0.64" stop-color="#8A8A8A"/>
<stop offset="0.79" stop-color="#565656"/>
<stop offset="0.94" stop-color="#1A1A1A"/>
<stop offset="1"/>
</radialGradient>
<radialGradient id="paint4_radial_1045_276" cx="0" cy="0" r="1" gradientUnits="userSpaceOnUse" gradientTransform="translate(58.5026 117.865) rotate(-21.503) scale(1.37823 1.37758)">
<stop stop-color="white"/>
<stop offset="0.11" stop-color="#FAFAFA"/>
<stop offset="0.23" stop-color="#ECECEC"/>
<stop offset="0.36" stop-color="#D4D4D4"/>
<stop offset="0.5" stop-color="#B4B4B4"/>
<stop offset="0.64" stop-color="#8A8A8A"/>
<stop offset="0.79" stop-color="#565656"/>
<stop offset="0.94" stop-color="#1A1A1A"/>
<stop offset="1"/>
</radialGradient>
<radialGradient id="paint5_radial_1045_276" cx="0" cy="0" r="1" gradientUnits="userSpaceOnUse" gradientTransform="translate(131.191 130.784) rotate(-21.503) scale(1.44714 1.44646)">
<stop stop-color="white"/>
<stop offset="0.11" stop-color="#FAFAFA"/>
<stop offset="0.23" stop-color="#ECECEC"/>
<stop offset="0.36" stop-color="#D4D4D4"/>
<stop offset="0.5" stop-color="#B4B4B4"/>
<stop offset="0.64" stop-color="#8A8A8A"/>
<stop offset="0.79" stop-color="#565656"/>
<stop offset="0.94" stop-color="#1A1A1A"/>
<stop offset="1"/>
</radialGradient>
<radialGradient id="paint6_radial_1045_276" cx="0" cy="0" r="1" gradientUnits="userSpaceOnUse" gradientTransform="translate(62.1908 51.4607) rotate(-21.503) scale(1.49308 1.49237)">
<stop stop-color="white"/>
<stop offset="0.11" stop-color="#FAFAFA"/>
<stop offset="0.23" stop-color="#ECECEC"/>
<stop offset="0.36" stop-color="#D4D4D4"/>
<stop offset="0.5" stop-color="#B4B4B4"/>
<stop offset="0.64" stop-color="#8A8A8A"/>
<stop offset="0.79" stop-color="#565656"/>
<stop offset="0.94" stop-color="#1A1A1A"/>
<stop offset="1"/>
</radialGradient>
<radialGradient id="paint7_radial_1045_276" cx="0" cy="0" r="1" gradientUnits="userSpaceOnUse" gradientTransform="translate(38.5957 88.642) rotate(-21.503) scale(1.51605 1.51534)">
<stop stop-color="white"/>
<stop offset="0.11" stop-color="#FAFAFA"/>
<stop offset="0.23" stop-color="#ECECEC"/>
<stop offset="0.36" stop-color="#D4D4D4"/>
<stop offset="0.5" stop-color="#B4B4B4"/>
<stop offset="0.64" stop-color="#8A8A8A"/>
<stop offset="0.79" stop-color="#565656"/>
<stop offset="0.94" stop-color="#1A1A1A"/>
<stop offset="1"/>
</radialGradient>
<radialGradient id="paint8_radial_1045_276" cx="0" cy="0" r="1" gradientUnits="userSpaceOnUse" gradientTransform="translate(149.341 152.038) rotate(-21.503) scale(1.53901 1.5383)">
<stop stop-color="white"/>
<stop offset="0.11" stop-color="#FAFAFA"/>
<stop offset="0.23" stop-color="#ECECEC"/>
<stop offset="0.36" stop-color="#D4D4D4"/>
<stop offset="0.5" stop-color="#B4B4B4"/>
<stop offset="0.64" stop-color="#8A8A8A"/>
<stop offset="0.79" stop-color="#565656"/>
<stop offset="0.94" stop-color="#1A1A1A"/>
<stop offset="1"/>
</radialGradient>
<radialGradient id="paint9_radial_1045_276" cx="0" cy="0" r="1" gradientUnits="userSpaceOnUse" gradientTransform="translate(89.0345 51.6691) rotate(-21.503) scale(1.69982 1.69902)">
<stop stop-color="white"/>
<stop offset="0.11" stop-color="#FAFAFA"/>
<stop offset="0.23" stop-color="#ECECEC"/>
<stop offset="0.36" stop-color="#D4D4D4"/>
<stop offset="0.5" stop-color="#B4B4B4"/>
<stop offset="0.64" stop-color="#8A8A8A"/>
<stop offset="0.79" stop-color="#565656"/>
<stop offset="0.94" stop-color="#1A1A1A"/>
<stop offset="1"/>
</radialGradient>
<radialGradient id="paint10_radial_1045_276" cx="0" cy="0" r="1" gradientUnits="userSpaceOnUse" gradientTransform="translate(53.7821 147.117) rotate(-21.503) scale(1.74575 1.74494)">
<stop stop-color="white"/>
<stop offset="0.11" stop-color="#FAFAFA"/>
<stop offset="0.23" stop-color="#ECECEC"/>
<stop offset="0.36" stop-color="#D4D4D4"/>
<stop offset="0.5" stop-color="#B4B4B4"/>
<stop offset="0.64" stop-color="#8A8A8A"/>
<stop offset="0.79" stop-color="#565656"/>
<stop offset="0.94" stop-color="#1A1A1A"/>
<stop offset="1"/>
</radialGradient>
<linearGradient id="paint11_linear_1045_276" x1="41.595" y1="68.1632" x2="32.8845" y2="46.0539" gradientUnits="userSpaceOnUse">
<stop stop-color="#C91EFE"/>
<stop offset="1" stop-color="#4A68F2"/>
</linearGradient>
<linearGradient id="paint12_linear_1045_276" x1="47.5548" y1="93.2814" x2="37.9607" y2="68.9291" gradientUnits="userSpaceOnUse">
<stop stop-color="#C91EFE"/>
<stop offset="1" stop-color="#4A68F2"/>
</linearGradient>
<linearGradient id="paint13_linear_1045_276" x1="33.6454" y1="75.1687" x2="23.6053" y2="49.6842" gradientUnits="userSpaceOnUse">
<stop stop-color="#C91EFE"/>
<stop offset="1" stop-color="#4A68F2"/>
</linearGradient>
<linearGradient id="paint14_linear_1045_276" x1="38.2565" y1="96.9198" x2="30.0005" y2="75.964" gradientUnits="userSpaceOnUse">
<stop stop-color="#C91EFE"/>
<stop offset="1" stop-color="#4A68F2"/>
</linearGradient>
<linearGradient id="paint15_linear_1045_276" x1="67.0056" y1="56.3511" x2="58.1436" y2="33.8572" gradientUnits="userSpaceOnUse">
<stop stop-color="#C91EFE"/>
<stop offset="1" stop-color="#4A68F2"/>
</linearGradient>
<linearGradient id="paint16_linear_1045_276" x1="76.5108" y1="82.8603" x2="65.9657" y2="56.0941" gradientUnits="userSpaceOnUse">
<stop stop-color="#C91EFE"/>
<stop offset="1" stop-color="#4A68F2"/>
</linearGradient>
<linearGradient id="paint17_linear_1045_276" x1="58.7021" y1="63.571" x2="48.4936" y2="37.6592" gradientUnits="userSpaceOnUse">
<stop stop-color="#C91EFE"/>
<stop offset="1" stop-color="#4A68F2"/>
</linearGradient>
<linearGradient id="paint18_linear_1045_276" x1="66.8336" y1="86.6238" x2="57.6603" y2="63.3396" gradientUnits="userSpaceOnUse">
<stop stop-color="#C91EFE"/>
<stop offset="1" stop-color="#4A68F2"/>
</linearGradient>
<linearGradient id="paint19_linear_1045_276" x1="52.5841" y1="117.012" x2="45.843" y2="99.9018" gradientUnits="userSpaceOnUse">
<stop stop-color="#C91EFE"/>
<stop offset="1" stop-color="#4A68F2"/>
</linearGradient>
<linearGradient id="paint20_linear_1045_276" x1="98.2139" y1="74.5562" x2="89.0827" y2="51.3788" gradientUnits="userSpaceOnUse">
<stop stop-color="#C91EFE"/>
<stop offset="1" stop-color="#4A68F2"/>
</linearGradient>
<linearGradient id="paint21_linear_1045_276" x1="64.095" y1="112.478" x2="63.8257" y2="111.795" gradientUnits="userSpaceOnUse">
<stop stop-color="#C91EFE"/>
<stop offset="1" stop-color="#4A68F2"/>
</linearGradient>
<linearGradient id="paint22_linear_1045_276" x1="60.384" y1="113.843" x2="53.6682" y2="96.7959" gradientUnits="userSpaceOnUse">
<stop stop-color="#C91EFE"/>
<stop offset="1" stop-color="#4A68F2"/>
</linearGradient>
<linearGradient id="paint23_linear_1045_276" x1="82.9845" y1="80.5321" x2="74.5518" y2="59.1277" gradientUnits="userSpaceOnUse">
<stop stop-color="#C91EFE"/>
<stop offset="1" stop-color="#4A68F2"/>
</linearGradient>
<linearGradient id="paint24_linear_1045_276" x1="65.7654" y1="111.722" x2="59.2599" y2="95.2098" gradientUnits="userSpaceOnUse">
<stop stop-color="#C91EFE"/>
<stop offset="1" stop-color="#4A68F2"/>
</linearGradient>
<linearGradient id="paint25_linear_1045_276" x1="127.644" y1="63.726" x2="123.133" y2="52.2761" gradientUnits="userSpaceOnUse">
<stop stop-color="#C91EFE"/>
<stop offset="1" stop-color="#4A68F2"/>
</linearGradient>
<linearGradient id="paint26_linear_1045_276" x1="66.0489" y1="134.387" x2="51.7756" y2="98.1574" gradientUnits="userSpaceOnUse">
<stop stop-color="#C91EFE"/>
<stop offset="1" stop-color="#4A68F2"/>
</linearGradient>
<linearGradient id="paint27_linear_1045_276" x1="115.236" y1="87.5441" x2="108.545" y2="70.5616" gradientUnits="userSpaceOnUse">
<stop stop-color="#C91EFE"/>
<stop offset="1" stop-color="#4A68F2"/>
</linearGradient>
<linearGradient id="paint28_linear_1045_276" x1="60.1993" y1="136.741" x2="59.9132" y2="136.014" gradientUnits="userSpaceOnUse">
<stop stop-color="#C91EFE"/>
<stop offset="1" stop-color="#4A68F2"/>
</linearGradient>
<linearGradient id="paint29_linear_1045_276" x1="75.1989" y1="86.5109" x2="68.0286" y2="68.3108" gradientUnits="userSpaceOnUse">
<stop stop-color="#C91EFE"/>
<stop offset="1" stop-color="#4A68F2"/>
</linearGradient>
<linearGradient id="paint30_linear_1045_276" x1="27.5449" y1="66.2959" x2="24.3216" y2="58.1144" gradientUnits="userSpaceOnUse">
<stop stop-color="#C91EFE"/>
<stop offset="1" stop-color="#4A68F2"/>
</linearGradient>
<linearGradient id="paint31_linear_1045_276" x1="105.882" y1="119.015" x2="96.1864" y2="94.4061" gradientUnits="userSpaceOnUse">
<stop stop-color="#C91EFE"/>
<stop offset="1" stop-color="#4A68F2"/>
</linearGradient>
<linearGradient id="paint32_linear_1045_276" x1="72.8355" y1="156.094" x2="64.3018" y2="134.434" gradientUnits="userSpaceOnUse">
<stop stop-color="#C91EFE"/>
<stop offset="1" stop-color="#4A68F2"/>
</linearGradient>
<linearGradient id="paint33_linear_1045_276" x1="114.443" y1="59.2295" x2="103.41" y2="31.2243" gradientUnits="userSpaceOnUse">
<stop stop-color="#C91EFE"/>
<stop offset="1" stop-color="#4A68F2"/>
</linearGradient>
<linearGradient id="paint34_linear_1045_276" x1="22.627" y1="83.3349" x2="17.2408" y2="69.6634" gradientUnits="userSpaceOnUse">
<stop stop-color="#C91EFE"/>
<stop offset="1" stop-color="#4A68F2"/>
</linearGradient>
<linearGradient id="paint35_linear_1045_276" x1="66.8746" y1="114.863" x2="58.0968" y2="92.5829" gradientUnits="userSpaceOnUse">
<stop stop-color="#C91EFE"/>
<stop offset="1" stop-color="#4A68F2"/>
</linearGradient>
<linearGradient id="paint36_linear_1045_276" x1="90.1888" y1="95.0173" x2="78.112" y2="64.3634" gradientUnits="userSpaceOnUse">
<stop stop-color="#C91EFE"/>
<stop offset="1" stop-color="#4A68F2"/>
</linearGradient>
<linearGradient id="paint37_linear_1045_276" x1="31.8627" y1="66.3464" x2="28.0419" y2="56.6482" gradientUnits="userSpaceOnUse">
<stop stop-color="#C91EFE"/>
<stop offset="1" stop-color="#4A68F2"/>
</linearGradient>
<linearGradient id="paint38_linear_1045_276" x1="70.9786" y1="164.697" x2="68.0667" y2="157.306" gradientUnits="userSpaceOnUse">
<stop stop-color="#C91EFE"/>
<stop offset="1" stop-color="#4A68F2"/>
</linearGradient>
<linearGradient id="paint39_linear_1045_276" x1="26.3243" y1="81.9037" x2="21.5441" y2="69.7703" gradientUnits="userSpaceOnUse">
<stop stop-color="#C91EFE"/>
<stop offset="1" stop-color="#4A68F2"/>
</linearGradient>
<linearGradient id="paint40_linear_1045_276" x1="68.2983" y1="121.828" x2="65.5211" y2="114.779" gradientUnits="userSpaceOnUse">
<stop stop-color="#C91EFE"/>
<stop offset="1" stop-color="#4A68F2"/>
</linearGradient>
<linearGradient id="paint41_linear_1045_276" x1="140.886" y1="127.285" x2="135.063" y2="112.502" gradientUnits="userSpaceOnUse">
<stop stop-color="#C91EFE"/>
<stop offset="1" stop-color="#4A68F2"/>
</linearGradient>
<linearGradient id="paint42_linear_1045_276" x1="136.986" y1="60.7366" x2="133.215" y2="51.1666" gradientUnits="userSpaceOnUse">
<stop stop-color="#C91EFE"/>
<stop offset="1" stop-color="#4A68F2"/>
</linearGradient>
<linearGradient id="paint43_linear_1045_276" x1="70.273" y1="138.917" x2="63.9358" y2="122.832" gradientUnits="userSpaceOnUse">
<stop stop-color="#C91EFE"/>
<stop offset="1" stop-color="#4A68F2"/>
</linearGradient>
<linearGradient id="paint44_linear_1045_276" x1="89.9194" y1="138.358" x2="81.1501" y2="116.099" gradientUnits="userSpaceOnUse">
<stop stop-color="#C91EFE"/>
<stop offset="1" stop-color="#4A68F2"/>
</linearGradient>
<linearGradient id="paint45_linear_1045_276" x1="145.191" y1="153.943" x2="135.285" y2="128.801" gradientUnits="userSpaceOnUse">
<stop stop-color="#C91EFE"/>
<stop offset="1" stop-color="#4A68F2"/>
</linearGradient>
<linearGradient id="paint46_linear_1045_276" x1="105.805" y1="157.69" x2="96.8423" y2="134.939" gradientUnits="userSpaceOnUse">
<stop stop-color="#C91EFE"/>
<stop offset="1" stop-color="#4A68F2"/>
</linearGradient>
<linearGradient id="paint47_linear_1045_276" x1="70.0293" y1="166.899" x2="60.3174" y2="142.247" gradientUnits="userSpaceOnUse">
<stop stop-color="#C91EFE"/>
<stop offset="1" stop-color="#4A68F2"/>
</linearGradient>
<linearGradient id="paint48_linear_1045_276" x1="87.1987" y1="160.11" x2="79.9105" y2="141.611" gradientUnits="userSpaceOnUse">
<stop stop-color="#C91EFE"/>
<stop offset="1" stop-color="#4A68F2"/>
</linearGradient>
<linearGradient id="paint49_linear_1045_276" x1="87.5324" y1="99.6918" x2="71.2393" y2="58.3356" gradientUnits="userSpaceOnUse">
<stop stop-color="#C91EFE"/>
<stop offset="1" stop-color="#4A68F2"/>
</linearGradient>
<linearGradient id="paint50_linear_1045_276" x1="67.7557" y1="141.908" x2="55.7883" y2="111.531" gradientUnits="userSpaceOnUse">
<stop stop-color="#C91EFE"/>
<stop offset="1" stop-color="#4A68F2"/>
</linearGradient>
<clipPath id="clip0_1045_276">
<rect width="142.998" height="150.188" fill="white" transform="matrix(0.930398 -0.36655 -0.36655 -0.930398 55.0518 192.15)"/>
</clipPath>
<clipPath id="clip1_1045_276">
<rect width="112" height="112" fill="white" transform="translate(40.0967 39.3965)"/>
</clipPath>
</defs>
</svg>
