<svg width="22" height="23" viewBox="0 0 22 23" fill="none" xmlns="http://www.w3.org/2000/svg">
<path d="M20.8417 7.43648C20.8306 6.60336 20.6746 5.77853 20.3808 4.99888C20.126 4.34125 19.7368 3.744 19.2381 3.24529C18.7394 2.74659 18.1421 2.35739 17.4845 2.10258C16.7149 1.81367 15.9018 1.65745 15.0799 1.64058C14.0217 1.59328 13.6862 1.58008 11 1.58008C8.31378 1.58008 7.96948 1.58008 6.91898 1.64058C6.09745 1.65758 5.28476 1.81379 4.51548 2.10258C3.85774 2.35722 3.2604 2.74635 2.76168 3.24507C2.26295 3.7438 1.87382 4.34114 1.61918 4.99888C1.32969 5.76792 1.17382 6.5808 1.15828 7.40238C1.11098 8.46168 1.09668 8.79718 1.09668 11.4834C1.09668 14.1696 1.09668 14.5128 1.15828 15.5644C1.17478 16.3872 1.32988 17.199 1.61918 17.9701C1.87425 18.6276 2.26367 19.2247 2.76256 19.7232C3.26145 20.2217 3.85885 20.6107 4.51658 20.8653C5.28376 21.1658 6.09659 21.3332 6.92008 21.3603C7.97938 21.4076 8.31488 21.4219 11.0011 21.4219C13.6873 21.4219 14.0316 21.4219 15.0821 21.3603C15.9039 21.3441 16.7171 21.1882 17.4867 20.8994C18.1441 20.6443 18.7412 20.255 19.2399 19.7563C19.7386 19.2576 20.1279 18.6605 20.383 18.0031C20.6723 17.2331 20.8274 16.4213 20.8439 15.5974C20.8912 14.5392 20.9055 14.2037 20.9055 11.5164C20.9033 8.83018 20.9033 8.48918 20.8417 7.43648ZM10.9934 16.5632C8.18398 16.5632 5.90808 14.2873 5.90808 11.4779C5.90808 8.66848 8.18398 6.39258 10.9934 6.39258C12.3421 6.39258 13.6356 6.92835 14.5892 7.88203C15.5429 8.83571 16.0787 10.1292 16.0787 11.4779C16.0787 12.8266 15.5429 14.12 14.5892 15.0737C13.6356 16.0274 12.3421 16.5632 10.9934 16.5632ZM16.2811 7.39028C16.1253 7.39042 15.9711 7.35985 15.8271 7.30031C15.6832 7.24077 15.5524 7.15343 15.4423 7.04329C15.3321 6.93315 15.2448 6.80237 15.1852 6.65843C15.1257 6.5145 15.0951 6.36024 15.0953 6.20448C15.0953 6.04883 15.1259 5.8947 15.1855 5.7509C15.2451 5.6071 15.3324 5.47644 15.4424 5.36638C15.5525 5.25632 15.6832 5.16901 15.827 5.10945C15.9708 5.04989 16.1249 5.01923 16.2805 5.01923C16.4362 5.01923 16.5903 5.04989 16.7341 5.10945C16.8779 5.16901 17.0086 5.25632 17.1186 5.36638C17.2287 5.47644 17.316 5.6071 17.3756 5.7509C17.4351 5.8947 17.4658 6.04883 17.4658 6.20448C17.4658 6.86008 16.9356 7.39028 16.2811 7.39028Z" fill="#2A3149" stroke="url(#paint0_linear_917_84633)" stroke-linecap="round"/>
<path d="M10.9937 14.7795C12.8181 14.7795 14.297 13.3005 14.297 11.4762C14.297 9.65179 12.8181 8.17285 10.9937 8.17285C9.16937 8.17285 7.69043 9.65179 7.69043 11.4762C7.69043 13.3005 9.16937 14.7795 10.9937 14.7795Z" fill="#2A3149" stroke="url(#paint1_linear_917_84633)" stroke-linecap="round"/>
<defs>
<linearGradient id="paint0_linear_917_84633" x1="11.0011" y1="1.58008" x2="11.0011" y2="21.4219" gradientUnits="userSpaceOnUse">
<stop stop-color="#C91EFE"/>
<stop offset="1" stop-color="#4A68F2"/>
</linearGradient>
<linearGradient id="paint1_linear_917_84633" x1="10.9937" y1="8.17285" x2="10.9937" y2="14.7795" gradientUnits="userSpaceOnUse">
<stop stop-color="#C91EFE"/>
<stop offset="1" stop-color="#4A68F2"/>
</linearGradient>
</defs>
</svg>
