<svg width="26" height="15" viewBox="0 0 26 15" fill="none" xmlns="http://www.w3.org/2000/svg">
<path fill-rule="evenodd" clip-rule="evenodd" d="M21.6623 9.34557C22.4587 10.123 23.2992 10.8546 24.0135 11.7104C24.329 12.0907 24.6277 12.4832 24.8562 12.9246C25.18 13.5521 24.8867 14.2426 24.3241 14.28L20.8265 14.2785C19.9244 14.3533 19.2048 13.9902 18.5997 13.3734C18.1155 12.8802 17.6671 12.3553 17.2013 11.8454C17.0104 11.637 16.8106 11.4409 16.5719 11.2859C16.0944 10.976 15.68 11.0709 15.4071 11.5689C15.1295 12.0754 15.0665 12.6362 15.0391 13.2007C15.0017 14.0242 14.7527 14.2408 13.9254 14.2785C12.1574 14.3618 10.4794 14.0943 8.92069 13.2025C7.54642 12.4162 6.48083 11.3063 5.55321 10.0497C3.74726 7.60279 2.36426 4.91412 1.12125 2.15009C0.841461 1.52737 1.04607 1.1932 1.73319 1.1812C2.8742 1.15902 4.01505 1.16061 5.1574 1.17961C5.62112 1.18639 5.92813 1.45237 6.10717 1.89047C6.72449 3.40831 7.47985 4.85251 8.42801 6.19098C8.68048 6.54732 8.93795 6.9037 9.30458 7.15453C9.71021 7.43227 10.019 7.3402 10.2098 6.88839C10.3309 6.60191 10.3839 6.29334 10.4112 5.98652C10.5016 4.93089 10.5135 3.8771 10.355 2.82518C10.2576 2.16872 9.88784 1.74372 9.23274 1.61935C8.89842 1.55603 8.94821 1.43164 9.11006 1.24083C9.39119 0.911883 9.65556 0.707031 10.1827 0.707031H14.1355C14.7577 0.829834 14.8959 1.10938 14.9811 1.73552L14.9845 6.12606C14.9777 6.36846 15.1056 7.08775 15.5422 7.24819C15.8916 7.36241 16.122 7.08286 16.3316 6.86129C17.2781 5.85687 17.9535 4.66983 18.5569 3.44069C18.8247 2.90023 19.0551 2.33891 19.2781 1.77811C19.4434 1.36195 19.7029 1.15719 20.1717 1.16619L23.976 1.16964C24.0884 1.167 24.2008 1.1738 24.3121 1.18999C24.9532 1.29923 25.1288 1.57497 24.9308 2.20096C24.6188 3.18305 24.0119 4.00159 23.4183 4.8237C22.7838 5.70154 22.1053 6.5493 21.4761 7.43233C20.8981 8.23872 20.944 8.64515 21.6622 9.34554L21.6623 9.34557Z" fill="#2A3149" stroke="url(#paint0_linear_917_84639)" stroke-linecap="round"/>
<defs>
<linearGradient id="paint0_linear_917_84639" x1="13.0039" y1="0.707031" x2="13.0039" y2="14.2929" gradientUnits="userSpaceOnUse">
<stop stop-color="#C91EFE"/>
<stop offset="1" stop-color="#4A68F2"/>
</linearGradient>
</defs>
</svg>
