<svg width="31" height="22" viewBox="0 0 31 22" fill="none" xmlns="http://www.w3.org/2000/svg">
<path d="M30.204 2.95775V11.93C30.204 11.93 28.2882 12.3047 27.8923 12.3575C27.4965 12.4102 26.2668 12.8061 25.3696 11.9458C23.9868 10.5947 19.0837 5.71275 19.0837 5.71275C18.7755 5.46217 18.3955 5.31633 17.9988 5.29639C17.6021 5.27646 17.2094 5.38348 16.8776 5.60192C15.6321 6.25636 13.7796 7.22219 13.009 7.59692C12.7492 7.74881 12.455 7.83229 12.1542 7.83953C11.8533 7.84677 11.5555 7.77754 11.2886 7.63832C11.0218 7.4991 10.7947 7.29445 10.6285 7.04352C10.4623 6.79259 10.3625 6.50359 10.3384 6.20358C10.3553 5.86208 10.4683 5.53229 10.6644 5.25218C10.8605 4.97207 11.1317 4.75302 11.4468 4.62025C13.2043 3.56469 16.9146 1.45358 18.4609 0.651361C19.4004 0.123583 20.0759 0.123583 21.369 1.17914C22.9576 2.54608 24.3984 3.74414 24.3984 3.74414C24.5691 3.86585 24.7641 3.94916 24.97 3.98833C25.1759 4.02751 25.3878 4.02162 25.5912 3.97108C27.3698 3.60164 30.204 2.95775 30.204 2.95775ZM10.6762 18.1155C10.7957 17.8414 10.8351 17.539 10.7898 17.2433C10.7446 16.9477 10.6165 16.6709 10.4205 16.4451C10.2244 16.2192 9.96844 16.0535 9.68212 15.9671C9.39579 15.8807 9.09086 15.8772 8.80261 15.9569C8.89009 15.6866 8.90493 15.3979 8.84565 15.12C8.78636 14.8421 8.65503 14.5847 8.46483 14.3736C8.25778 14.1761 8.00301 14.0359 7.72546 13.9665C7.44791 13.8971 7.15709 13.901 6.88149 13.9777C6.96829 13.7069 6.98228 13.4181 6.92206 13.1401C6.86185 12.8622 6.72954 12.605 6.53844 12.3944C6.19639 12.0785 5.74437 11.9088 5.27892 11.9216C4.81346 11.9344 4.37146 12.1287 4.04733 12.463C3.31899 13.1597 2.84927 14.4264 3.51955 15.1758C4.18983 15.9253 4.91288 15.4661 5.48288 15.3341C5.32455 15.8989 4.84955 16.4266 5.43538 17.1655C6.02122 17.9044 6.82872 17.4558 7.39872 17.3239C7.24039 17.8886 6.7865 18.4639 7.34594 19.15C7.90539 19.8361 8.84483 19.4719 9.45705 19.2819C9.21955 19.8889 8.71288 20.5433 9.36205 21.2822C10.0112 22.0211 11.5154 21.678 12.249 20.9761C12.597 20.6692 12.8092 20.2369 12.8389 19.7738C12.8685 19.3108 12.7134 18.8549 12.4073 18.5061C12.1841 18.2857 11.9036 18.1323 11.5976 18.0633C11.2916 17.9943 10.9724 18.0124 10.6762 18.1155ZM24.0554 13.4605L18.3923 7.82386C18.1304 7.57887 17.8033 7.41469 17.4504 7.35103C17.0974 7.28737 16.7336 7.32693 16.4026 7.46497C15.6109 7.81331 14.5923 8.28831 13.8218 8.64719C13.2913 8.96308 12.6991 9.16108 12.0854 9.22775C11.4415 9.23389 10.8134 9.02923 10.2967 8.64499C9.78003 8.26076 9.40325 7.71806 9.22384 7.09968C9.04443 6.48131 9.07223 5.82122 9.30302 5.22013C9.53381 4.61903 9.9549 4.10994 10.5021 3.77053C11.7318 2.93136 14.4182 1.49053 14.4182 1.49053C14.0801 1.13512 13.6694 0.85683 13.214 0.674663C12.7585 0.492496 12.2692 0.410739 11.7793 0.434972C9.97427 0.434972 6.19538 2.91553 6.19538 2.91553C5.79556 3.12442 5.3533 3.23919 4.90235 3.25108C4.45141 3.26297 4.00371 3.17167 3.59344 2.98414L0.648438 1.96025V12.1991C0.648438 12.1991 1.4876 12.4419 2.23177 12.7269C2.40082 12.2341 2.68277 11.7877 3.05511 11.4233C3.65573 10.847 4.45423 10.5226 5.28658 10.5167C6.11894 10.5108 6.92195 10.8239 7.53066 11.3916C7.86937 11.7413 8.11285 12.172 8.23788 12.6425C8.69568 12.785 9.11096 13.0389 9.4465 13.3814C9.78643 13.7376 10.0283 14.1758 10.1484 14.6533C10.631 14.8031 11.0658 15.0769 11.4094 15.4473C11.7531 15.8178 11.9934 16.272 12.1065 16.7644C12.5859 16.9009 13.021 17.1612 13.3679 17.5191C13.6917 17.8577 13.9311 18.2678 14.0668 18.7162C14.2025 19.1646 14.2307 19.6387 14.149 20.1C14.149 20.1 14.5712 20.575 14.8298 20.8336C15.0734 21.0771 15.4037 21.214 15.7482 21.214C16.0926 21.214 16.4229 21.0771 16.6665 20.8336C16.9101 20.59 17.0469 20.2597 17.0469 19.9152C17.0469 19.5708 16.9101 19.2405 16.6665 18.9969C16.6665 18.9969 17.7221 20.3058 18.9254 19.5247C19.9809 18.7858 19.8173 17.9097 19.3159 17.4136C19.469 17.5958 19.6589 17.7435 19.8733 17.847C20.0876 17.9504 20.3214 18.0073 20.5593 18.0137C20.7972 18.0202 21.0337 17.9762 21.2533 17.8846C21.473 17.793 21.6707 17.6558 21.8334 17.4822C22.06 17.2527 22.1926 16.9469 22.2053 16.6247C22.218 16.3024 22.1098 15.9871 21.9021 15.7405C21.9021 15.7405 22.604 16.6958 24.0132 15.8039C25.0107 14.9594 24.5409 13.9936 24.0132 13.4869L24.0554 13.4605Z" fill="white"/>
</svg>
