<svg width="17" height="20" viewBox="0 0 17 20" fill="none" xmlns="http://www.w3.org/2000/svg">
<path d="M9.52352 3.64836C9.40399 3.74792 9.27362 3.83664 9.13242 3.90276C8.89398 4.01441 8.62502 4.05102 8.36174 4.05106C8.35829 4.05106 8.35484 4.05106 8.3514 4.05106C8.20488 4.05106 8.05837 4.05106 7.87522 4.01445C7.61882 3.97784 7.43567 3.83141 7.2159 3.64836C6.77635 3.31888 6.55658 2.84297 6.55658 2.25723C6.55658 1.67148 6.81298 1.19557 7.2159 0.866089C7.39904 0.719653 7.58219 0.646435 7.80196 0.573218C7.98511 0.536609 8.13162 0.5 8.31477 0.5C8.39182 0.5 8.46888 0.50648 8.54594 0.516715C8.75925 0.545046 8.96876 0.604155 9.16185 0.699136C9.3152 0.774569 9.44493 0.860751 9.56015 0.975915C9.92644 1.342 10.1462 1.7447 10.1462 2.29383C10.1096 2.84297 9.92644 3.31888 9.52352 3.64836ZM14.8347 3.61175C16.0801 5.14933 16.7028 6.86994 16.7028 8.81021C16.7028 10.3478 13.919 19.5 8.3514 19.5C2.82043 19.5 0 10.3478 0 8.81021C0 6.86994 0.65932 5.11272 1.86808 3.57514C2.95304 2.23563 4.28821 1.34067 5.87359 0.866069C6.08365 0.803186 6.27516 1.09339 6.16612 1.28363C6.1589 1.29622 6.15133 1.31233 6.1468 1.32612C6.04073 1.64869 5.97052 1.97126 5.97052 2.29383C5.97052 2.76975 6.0804 3.20906 6.33681 3.57514C6.52814 3.88111 6.45353 4.42061 6.13118 4.58282C5.50209 4.89937 4.96015 5.34866 4.50536 5.95472C3.84604 6.79672 3.55301 7.74856 3.55301 8.81021C3.55301 10.0549 5.75074 15.9123 8.31477 15.9123C10.8788 15.9123 13.0765 10.5308 13.0765 8.81021C13.0765 7.74856 12.7835 6.79672 12.0875 5.95472C11.6926 5.4504 11.2452 5.05114 10.7294 4.74909C10.303 4.49938 10.1815 3.7974 10.4026 3.35549C10.5858 3.02601 10.659 2.69653 10.659 2.29383C10.659 2.00096 10.6224 1.7447 10.4759 1.45183C10.3756 1.18462 10.6033 0.84237 10.8741 0.932571C12.4579 1.46019 13.7781 2.33835 14.8347 3.61175Z" fill="white"/>
</svg>
