<svg width="152" height="146" viewBox="0 0 152 146" fill="none" xmlns="http://www.w3.org/2000/svg">
<g clip-path="url(#clip0_1045_275)">
<path style="mix-blend-mode:color-dodge" d="M78.3718 110.513C78.3477 109.846 78.8591 109.298 79.5281 109.274C80.1971 109.25 80.7469 109.759 80.771 110.426C80.7951 111.093 80.2837 111.641 79.6146 111.666C78.9456 111.69 78.3959 111.18 78.3718 110.513Z" fill="white"/>
<path style="mix-blend-mode:color-dodge" d="M71.7387 86.139C71.7125 85.415 71.1026 84.8495 70.3764 84.8757C69.6501 84.902 69.0826 85.5102 69.1088 86.2341C69.135 86.9581 69.745 87.5236 70.4712 87.4974C71.1974 87.4711 71.7649 86.8629 71.7387 86.139Z" fill="white"/>
<path style="mix-blend-mode:color-dodge" d="M78.4836 31.8728C78.4565 31.1235 77.8252 30.5381 77.0735 30.5653C76.3218 30.5925 75.7344 31.222 75.7615 31.9713C75.7886 32.7207 76.4199 33.3061 77.1716 33.2789C77.9233 33.2517 78.5108 32.6222 78.4836 31.8728Z" fill="white"/>
<path style="mix-blend-mode:color-dodge" d="M39.3629 113.86C39.3354 113.098 38.6933 112.503 37.9289 112.53C37.1644 112.558 36.5671 113.198 36.5946 113.96C36.6222 114.722 37.2642 115.317 38.0287 115.29C38.7931 115.262 39.3905 114.622 39.3629 113.86Z" fill="white"/>
<path style="mix-blend-mode:color-dodge" d="M67.9307 53.6695C67.9024 52.8876 68.5028 52.2441 69.2872 52.2158C70.0715 52.1874 70.7169 52.7858 70.7452 53.5677C70.7734 54.3495 70.173 54.993 69.3887 55.0214C68.6043 55.0497 67.959 54.4514 67.9307 53.6695Z" fill="white"/>
<path style="mix-blend-mode:color-dodge" d="M54.6768 50.6265C54.6485 49.8446 55.2489 49.2012 56.0333 49.1728C56.8176 49.1444 57.463 49.7428 57.4913 50.5247C57.5195 51.3066 56.9191 51.95 56.1348 51.9784C55.3504 52.0068 54.7051 51.4084 54.6768 50.6265Z" fill="white"/>
<path style="mix-blend-mode:color-dodge" d="M68.6748 41.6929C68.6466 40.911 69.247 40.2676 70.0313 40.2392C70.8157 40.2108 71.461 40.8092 71.4893 41.5911C71.5176 42.373 70.9172 43.0164 70.1328 43.0448C69.3485 43.0732 68.7031 42.4748 68.6748 41.6929Z" fill="white"/>
<path style="mix-blend-mode:color-dodge" d="M125.57 51.2984C125.542 50.5165 126.142 49.873 126.927 49.8447C127.711 49.8163 128.357 50.4147 128.385 51.1966C128.413 51.9784 127.813 52.6219 127.028 52.6503C126.244 52.6786 125.599 52.0803 125.57 51.2984Z" fill="white"/>
<path style="mix-blend-mode:color-dodge" d="M63.6319 118.117C63.6036 117.335 64.204 116.691 64.9884 116.663C65.7727 116.635 66.418 117.233 66.4463 118.015C66.4746 118.797 65.8742 119.44 65.0898 119.469C64.3055 119.497 63.6602 118.899 63.6319 118.117Z" fill="white"/>
<path style="mix-blend-mode:color-dodge" d="M84.7246 72.2203C84.6964 71.4384 85.2968 70.7949 86.0811 70.7666C86.8655 70.7382 87.5108 71.3366 87.5391 72.1184C87.5674 72.9003 86.967 73.5438 86.1826 73.5721C85.3983 73.6005 84.7529 73.0021 84.7246 72.2203Z" fill="white"/>
<path style="mix-blend-mode:color-dodge" d="M83.4601 60.2461C83.4319 59.4642 84.0545 58.7969 84.8389 58.7685C85.6232 58.7402 86.2924 59.3607 86.3207 60.1426C86.349 60.9245 85.7264 61.5918 84.942 61.6201C84.1577 61.6485 83.4884 61.028 83.4601 60.2461Z" fill="white"/>
<path style="mix-blend-mode:color-dodge" d="M35.548 83.1191C35.5197 82.3372 36.1424 81.67 36.9268 81.6416C37.7111 81.6132 38.3803 82.2338 38.4086 83.0157C38.4369 83.7975 37.8143 84.4648 37.0299 84.4932C36.2455 84.5216 35.5763 83.901 35.548 83.1191Z" fill="white"/>
<path style="mix-blend-mode:color-dodge" d="M32.7131 62.2202C32.6837 61.4074 31.9988 60.7724 31.1834 60.8019C30.368 60.8313 29.7308 61.5142 29.7602 62.327C29.7896 63.1399 30.4745 63.7749 31.2899 63.7454C32.1053 63.7159 32.7425 63.0331 32.7131 62.2202Z" fill="white"/>
<path style="mix-blend-mode:color-dodge" d="M57.7788 77.6161C57.7497 76.8112 58.3946 76.1201 59.202 76.0909C60.0094 76.0617 60.7025 76.7044 60.7317 77.5093C60.7608 78.3142 60.1159 79.0053 59.3085 79.0345C58.501 79.0637 57.8079 78.421 57.7788 77.6161Z" fill="white"/>
<path style="mix-blend-mode:color-dodge" d="M51.8032 94.4345C51.7741 93.6296 52.419 92.9385 53.2264 92.9093C54.0338 92.8801 54.727 93.5228 54.7561 94.3276C54.7852 95.1325 54.1403 95.8236 53.3329 95.8528C52.5255 95.882 51.8323 95.2393 51.8032 94.4345Z" fill="white"/>
<path style="mix-blend-mode:color-dodge" d="M5.01037 60.7815C4.9805 59.956 4.28494 59.311 3.45679 59.341C2.62863 59.3709 1.98149 60.0644 2.01136 60.89C2.04122 61.7155 2.73678 62.3605 3.56493 62.3305C4.39309 62.3006 5.04023 61.607 5.01037 60.7815Z" fill="white"/>
<path style="mix-blend-mode:color-dodge" d="M138.724 66.719C138.694 65.8934 137.999 65.2485 137.171 65.2785C136.343 65.3084 135.695 66.0019 135.725 66.8275C135.755 67.653 136.451 68.298 137.279 68.268C138.107 68.2381 138.754 67.5445 138.724 66.719Z" fill="white"/>
<path style="mix-blend-mode:color-dodge" d="M17.197 56.0291C17.1671 55.2012 17.8112 54.4871 18.6647 54.4562C19.5183 54.4254 20.2114 55.0681 20.2422 55.9189C20.273 56.7698 19.6281 57.4609 18.7745 57.4918C17.921 57.5227 17.2278 56.88 17.197 56.0291Z" fill="white"/>
<path style="mix-blend-mode:color-dodge" d="M29.2469 83.2537C29.2161 82.4028 29.884 81.7109 30.7145 81.6809C31.545 81.6508 32.2621 82.3157 32.292 83.1435C32.322 83.9714 31.6548 84.6864 30.8243 84.7164C29.9938 84.7464 29.2768 84.0816 29.2469 83.2537Z" fill="white"/>
<path style="mix-blend-mode:color-dodge" d="M17.1366 125.43C17.1059 124.579 17.773 123.864 18.6266 123.833C19.4801 123.802 20.1972 124.467 20.2279 125.318C20.2587 126.169 19.5916 126.884 18.738 126.915C17.8845 126.946 17.1674 126.281 17.1366 125.43Z" fill="white"/>
<path style="mix-blend-mode:color-dodge" d="M19.1897 90.0421C19.1581 89.1683 19.8474 88.4295 20.7241 88.3978C21.6007 88.3661 22.3416 89.0531 22.3732 89.927C22.4048 90.8008 21.7155 91.5396 20.8389 91.5713C19.9622 91.603 19.2213 90.916 19.1897 90.0421Z" fill="white"/>
<path style="mix-blend-mode:color-dodge" d="M66.6418 37.2062C66.6102 36.3323 67.2996 35.5936 68.1762 35.5618C69.0528 35.5301 69.7938 36.2172 69.8254 37.091C69.857 37.9649 69.1676 38.7037 68.291 38.7354C67.4144 38.7671 66.6734 38.0801 66.6418 37.2062Z" fill="white"/>
<path style="mix-blend-mode:color-dodge" d="M83.8825 93.6196C83.8492 92.6998 84.5608 91.9372 85.4836 91.9038C86.4064 91.8704 87.1712 92.5796 87.2045 93.4995C87.2377 94.4193 86.5261 95.1819 85.6034 95.2153C84.6806 95.2487 83.9158 94.5395 83.8825 93.6196Z" fill="white"/>
<path style="mix-blend-mode:color-dodge" d="M46.1317 131.436C46.0984 130.517 46.8322 129.73 47.755 129.697C48.6778 129.663 49.4665 130.395 49.4998 131.315C49.533 132.235 48.7992 133.021 47.8764 133.054C46.9537 133.088 46.1649 132.356 46.1317 131.436Z" fill="white"/>
<path style="mix-blend-mode:color-dodge" d="M26.2832 56.2584C26.2458 55.2235 27.0463 54.3656 28.0844 54.328C29.1226 54.2905 29.983 55.0883 30.0204 56.1232C30.0579 57.158 29.2573 58.0159 28.2192 58.0535C27.1811 58.0911 26.3206 57.2932 26.2832 56.2584Z" fill="white"/>
<path style="mix-blend-mode:color-dodge" d="M88.0045 108.6C87.9654 107.519 88.8104 106.614 89.8947 106.574C90.9789 106.535 91.8872 107.377 91.9263 108.458C91.9654 109.539 91.1203 110.445 90.0361 110.484C88.9518 110.523 88.0436 109.681 88.0045 108.6Z" fill="white"/>
<g style="mix-blend-mode:color-dodge" opacity="0.9">
<path d="M79.8716 110.46C79.8716 110.46 79.8329 110.669 79.7432 110.741L48.9407 130.875C48.8048 130.949 48.6186 130.91 48.5213 130.775C48.4966 130.73 48.471 130.662 48.4693 130.616C48.4652 130.501 48.508 130.408 48.5978 130.335L79.4002 110.201C79.5361 110.127 79.7224 110.166 79.8196 110.301C79.8444 110.346 79.8699 110.414 79.8716 110.46Z" fill="url(#paint0_linear_1045_275)"/>
</g>
<g style="mix-blend-mode:color-dodge" opacity="0.9">
<path d="M90.5014 108.677C90.5014 108.677 90.4619 108.862 90.3952 108.934C90.2609 109.054 90.0755 109.038 89.9552 108.904L70.1773 86.4019C70.1773 86.4019 70.1031 86.2665 70.1014 86.2205C70.0981 86.1285 70.1409 86.0348 70.2076 85.9633C70.3419 85.8433 70.5281 85.8827 70.6476 85.9935L90.4255 108.495C90.4255 108.495 90.4766 108.632 90.4783 108.678L90.5014 108.677Z" fill="url(#paint1_linear_1045_275)"/>
</g>
<g style="mix-blend-mode:color-dodge" opacity="0.9">
<path d="M49.0686 130.594C49.0686 130.594 49.0299 130.803 48.9171 130.876C48.8273 130.948 48.7342 130.929 48.6881 130.93C48.6419 130.932 48.548 130.889 48.4985 130.799L37.7299 114.08C37.7299 114.08 37.7044 114.011 37.7019 113.942C37.6977 113.827 37.7405 113.734 37.8303 113.661C37.9654 113.564 38.1747 113.603 38.2719 113.738L49.0397 130.434C49.0397 130.434 49.0892 130.524 49.0917 130.593L49.0686 130.594Z" fill="url(#paint2_linear_1045_275)"/>
</g>
<g style="mix-blend-mode:color-dodge" opacity="0.9">
<path d="M100.18 30.7432C100.186 30.9042 100.052 31.0471 99.8916 31.076L77.1355 32.2676C76.9509 32.2743 76.8075 32.1413 76.8017 31.9803C76.795 31.7964 76.9284 31.6534 77.0899 31.6475L99.846 30.4559C99.846 30.4559 100.032 30.4952 100.08 30.5396C100.127 30.5609 100.176 30.6512 100.181 30.7662L100.18 30.7432Z" fill="url(#paint3_linear_1045_275)"/>
</g>
<g style="mix-blend-mode:color-dodge" opacity="0.9">
<path d="M93.3468 87.7059C93.3526 87.8669 93.1962 88.0107 93.0108 87.9944L70.388 86.4871C70.2265 86.4929 70.1054 86.3361 70.1004 86.1981C70.0954 86.0601 70.1621 85.9887 70.2066 85.941C70.2519 85.9163 70.3194 85.8678 70.4348 85.8637L93.0806 87.3702C93.219 87.3652 93.3402 87.522 93.3452 87.6599L93.346 87.6829L93.3468 87.7059Z" fill="url(#paint4_linear_1045_275)"/>
</g>
<g style="mix-blend-mode:color-dodge" opacity="0.9">
<path d="M70.7246 86.198C70.7246 86.198 70.6851 86.3837 70.6184 86.4552L38.1955 114.155C38.1955 114.155 38.0134 114.231 37.9673 114.232C37.9211 114.234 37.828 114.214 37.7555 114.125C37.7068 114.057 37.6813 113.989 37.6796 113.943C37.6763 113.851 37.7191 113.758 37.7858 113.686L70.2318 85.9856C70.3438 85.8894 70.5523 85.9049 70.6487 86.0166C70.7204 86.083 70.7229 86.152 70.7254 86.221L70.7246 86.198Z" fill="url(#paint5_linear_1045_275)"/>
</g>
<g style="mix-blend-mode:color-dodge" opacity="0.9">
<path d="M93.3692 87.6822C93.3742 87.8202 93.3083 87.9147 93.1955 87.9878C93.0818 88.038 93.0109 87.9945 92.9648 87.9962C92.9186 87.9978 92.8469 87.9314 92.7975 87.841L85.8836 72.3178C85.8836 72.3178 85.8811 72.2488 85.8794 72.2029C85.8744 72.0649 85.9394 71.9474 86.0531 71.8972C86.2121 71.8224 86.3992 71.8847 86.4742 72.0432L93.3881 87.5664C93.3881 87.5664 93.3906 87.6354 93.3923 87.6814L93.3692 87.6822Z" fill="url(#paint6_linear_1045_275)"/>
</g>
<g style="mix-blend-mode:color-dodge" opacity="0.9">
<path d="M77.423 31.9111C77.423 31.9111 77.4272 32.0261 77.3605 32.0976L70.3433 41.8154C70.2329 41.9576 70.0492 41.9873 69.9066 41.8773C69.8349 41.8108 69.7855 41.7205 69.7821 41.6285C69.7805 41.5825 69.778 41.5135 69.8447 41.442L76.8619 31.7242C76.9722 31.582 77.156 31.5524 77.2985 31.6623C77.3702 31.7288 77.4197 31.8191 77.423 31.9111Z" fill="url(#paint7_linear_1045_275)"/>
</g>
<g style="mix-blend-mode:color-dodge" opacity="0.9">
<path d="M65.3188 118.125C65.3016 118.287 65.1442 118.408 64.9589 118.392L37.9199 114.212C37.7806 114.194 37.6603 114.06 37.6553 113.922C37.6725 113.76 37.7392 113.689 37.7845 113.664C37.8298 113.639 37.8974 113.591 38.0136 113.61L65.0756 117.789C65.2149 117.807 65.3122 117.941 65.3172 118.079L65.3188 118.125Z" fill="url(#paint8_linear_1045_275)"/>
</g>
<g style="mix-blend-mode:color-dodge" opacity="0.9">
<path d="M69.6373 53.6084C69.6373 53.6084 69.639 53.6544 69.6406 53.7004C69.6217 53.8162 69.5311 53.8655 69.5089 53.8893C69.4636 53.914 69.373 53.9633 69.279 53.9207L56.0484 50.8762C55.9314 50.8344 55.8349 50.7227 55.8299 50.5848C55.8694 50.3991 55.9361 50.3276 55.9814 50.303C56.0268 50.2783 56.1174 50.229 56.2113 50.2716L69.442 53.3161C69.582 53.3571 69.6785 53.4687 69.6835 53.6067L69.6373 53.6084Z" fill="url(#paint9_linear_1045_275)"/>
</g>
<g style="mix-blend-mode:color-dodge" opacity="0.9">
<path d="M69.6383 53.6312C69.6441 53.7922 69.4868 53.913 69.3022 53.9197C69.1407 53.9255 69.0196 53.7687 69.0146 53.6307L69.7816 41.6291C69.7758 41.4681 69.9331 41.3473 70.1177 41.3406C70.2791 41.3348 70.4003 41.4916 70.4053 41.6295L69.6383 53.6312Z" fill="url(#paint10_linear_1045_275)"/>
</g>
<g style="mix-blend-mode:color-dodge" opacity="0.9">
<path d="M86.4543 72.1348C86.4601 72.2958 86.3497 72.4379 86.1882 72.4438C86.0268 72.4496 85.8611 72.3405 85.8322 72.1803L84.5683 60.2291C84.5617 60.0451 84.6951 59.9022 84.8566 59.8963C84.9719 59.8921 85.0428 59.9356 85.0898 59.957C85.1367 59.9783 85.1854 60.0456 85.2126 60.1598L86.4773 72.134L86.4543 72.1348Z" fill="url(#paint11_linear_1045_275)"/>
</g>
<g style="mix-blend-mode:color-dodge" opacity="0.9">
<path d="M65.3383 118.031C65.3425 118.146 65.2774 118.263 65.1637 118.313C65.0731 118.363 64.98 118.343 64.933 118.322C64.8869 118.323 64.7921 118.258 64.7426 118.167L53.0068 94.506C53.0068 94.506 53.0043 94.437 53.0035 94.414C52.9994 94.2991 53.0644 94.1816 53.1781 94.1314C53.3371 94.0566 53.5241 94.1189 53.5983 94.2544L65.3341 117.916C65.3341 117.916 65.3366 117.985 65.3383 118.031Z" fill="url(#paint12_linear_1045_275)"/>
</g>
<g style="mix-blend-mode:color-dodge" opacity="0.9">
<path d="M137.624 67.153C137.629 67.268 137.564 67.3855 137.45 67.4356C137.359 67.485 137.266 67.4653 137.219 67.444C137.173 67.4456 137.078 67.38 137.029 67.2897L127.207 52.3523C127.207 52.3523 127.205 52.2833 127.204 52.2603C127.2 52.1454 127.265 52.0279 127.379 51.9777C127.538 51.9029 127.725 51.9652 127.799 52.1007L137.62 67.038C137.62 67.038 137.623 67.107 137.624 67.153Z" fill="url(#paint13_linear_1045_275)"/>
</g>
<g style="mix-blend-mode:color-dodge" opacity="0.9">
<path d="M86.4548 72.159C86.4606 72.32 86.3494 72.4391 86.2118 72.4671L59.3343 77.8605C59.1959 77.8655 59.0311 77.7794 58.9791 77.6201C58.9716 77.4131 59.0828 77.294 59.2204 77.266L86.0748 71.8734C86.0748 71.8734 86.2602 71.8897 86.3072 71.911C86.3542 71.9323 86.4259 71.9988 86.43 72.1138L86.4317 72.1598L86.4548 72.159Z" fill="url(#paint14_linear_1045_275)"/>
</g>
<g style="mix-blend-mode:color-dodge" opacity="0.9">
<path d="M37.3008 83.0556C37.3057 83.1936 37.2185 83.3349 37.0809 83.3629C36.9664 83.3901 36.8963 83.3696 36.8485 83.3253C36.8015 83.304 36.7298 83.2375 36.7034 83.1463C36.7034 83.1463 30.9387 62.3545 30.9379 62.3315C30.9312 62.1475 31.0194 62.0292 31.1561 61.9782C31.3159 61.9264 31.5038 62.0117 31.5566 62.194L37.3213 82.9858L37.3238 83.0548L37.3008 83.0556Z" fill="url(#paint15_linear_1045_275)"/>
</g>
<g style="mix-blend-mode:color-dodge" opacity="0.9">
<path d="M59.5789 77.5748C59.5789 77.5748 59.5814 77.6438 59.5831 77.6898L53.6081 94.5082C53.5439 94.6487 53.3849 94.7235 53.2218 94.6834C53.0817 94.6424 53.0075 94.5069 53.0033 94.3919C53.0017 94.3459 53.0008 94.3229 52.9992 94.2769L58.9749 77.4815C58.9749 77.4815 59.0845 77.3164 59.1298 77.2917C59.1759 77.29 59.2665 77.2407 59.3605 77.2834C59.4775 77.3252 59.5739 77.4368 59.5789 77.5748Z" fill="url(#paint16_linear_1045_275)"/>
</g>
<g style="mix-blend-mode:color-dodge" opacity="0.9">
<path d="M31.5373 62.286C31.5431 62.447 31.3866 62.5908 31.2012 62.5745L3.49911 61.1358C3.33762 61.1416 3.21728 61.0078 3.21146 60.8468C3.20397 60.6399 3.3613 60.519 3.54585 60.5123L31.2711 61.9502C31.4325 61.9444 31.5529 62.0782 31.5587 62.2392L31.5595 62.2622L31.5373 62.286Z" fill="url(#paint17_linear_1045_275)"/>
</g>
<g style="mix-blend-mode:color-dodge" opacity="0.9">
<path d="M37.2776 83.0557C37.2834 83.2167 37.15 83.3597 36.9893 83.3885L30.7803 83.521C30.6419 83.5261 30.4985 83.3931 30.4927 83.2321C30.486 83.0481 30.6195 82.9051 30.7809 82.8993L36.9899 82.7668C37.1283 82.7618 37.2717 82.8948 37.2776 83.0557Z" fill="url(#paint18_linear_1045_275)"/>
</g>
<g style="mix-blend-mode:color-dodge" opacity="0.9">
<path d="M31.5376 62.3098C31.5376 62.3098 31.452 62.4972 31.4297 62.521C31.3844 62.5457 31.3169 62.5941 31.2007 62.5753L19.5111 57.0439C19.3718 57.026 19.2515 56.8922 19.2465 56.7542C19.2621 56.5464 19.4186 56.4025 19.6048 56.4419L31.2944 61.9732C31.4337 61.9912 31.554 62.125 31.559 62.263L31.5607 62.309L31.5376 62.3098Z" fill="url(#paint19_linear_1045_275)"/>
</g>
<g style="mix-blend-mode:color-dodge" opacity="0.9">
<path d="M53.5797 94.3718C53.5797 94.3718 53.583 94.4638 53.5386 94.5115C53.4752 94.675 53.2692 94.7285 53.1283 94.6645L30.6176 83.4819C30.4997 83.417 30.4494 83.3037 30.4461 83.2117C30.4444 83.1658 30.4428 83.1198 30.4872 83.0721C30.5301 82.9784 30.6207 82.9291 30.666 82.9044C30.7121 82.9028 30.8036 82.8764 30.8975 82.9191L53.4082 94.1017C53.4082 94.1017 53.5764 94.2798 53.5797 94.3718Z" fill="url(#paint20_linear_1045_275)"/>
</g>
<g style="mix-blend-mode:color-dodge" opacity="0.9">
<path d="M19.02 55.9629C19.0266 56.1468 18.8693 56.2677 18.7078 56.2735L3.52256 61.1356C3.36107 61.1415 3.21766 61.0085 3.21101 60.8245C3.20435 60.6406 3.36085 60.4967 3.52233 60.4909L18.7076 55.6288C18.8691 55.6229 19.0125 55.7559 19.0192 55.9399L19.02 55.9629Z" fill="url(#paint21_linear_1045_275)"/>
</g>
<g style="mix-blend-mode:color-dodge" opacity="0.9">
<path d="M94.6666 39.2546C94.6724 39.4156 94.5159 39.5594 94.3305 39.5431L68.2216 37.448C68.0601 37.4538 67.939 37.2971 67.934 37.1591C67.9265 36.9521 68.1069 36.8304 68.2684 36.8246L94.4003 38.9188C94.5388 38.9138 94.6599 39.0706 94.6649 39.2086L94.6658 39.2316L94.6666 39.2546Z" fill="url(#paint22_linear_1045_275)"/>
</g>
<g style="mix-blend-mode:color-dodge" opacity="0.9">
<path d="M31.0695 83.2116C31.0695 83.2116 31.0309 83.4202 30.9403 83.4696L20.9518 90.2323C20.8168 90.3293 20.6305 90.29 20.5333 90.1554C20.5085 90.1102 20.483 90.042 20.4813 89.9961C20.4771 89.8811 20.52 89.7874 20.6106 89.7381L30.599 82.9753C30.7349 82.9013 30.9203 82.9176 31.0184 83.0753C31.0431 83.1204 31.0687 83.1886 31.0704 83.2346L31.0695 83.2116Z" fill="url(#paint23_linear_1045_275)"/>
</g>
<g style="mix-blend-mode:color-dodge" opacity="0.9">
<path d="M137.964 66.9556C137.964 66.9556 137.926 67.1872 137.789 67.2382L85.6684 93.8313C85.6684 93.8313 85.4847 93.861 85.4377 93.8397C85.3916 93.8414 85.2968 93.7757 85.2473 93.6854C85.2457 93.6394 85.2209 93.5942 85.2193 93.5482C85.2151 93.4333 85.2802 93.3158 85.3939 93.2656L137.514 66.6725C137.65 66.5985 137.837 66.6608 137.913 66.8193C137.914 66.8653 137.939 66.9104 137.941 66.9564L137.964 66.9556Z" fill="url(#paint24_linear_1045_275)"/>
</g>
<g style="mix-blend-mode:color-dodge" opacity="0.9">
<path d="M93.0496 45.6457C93.0554 45.8067 92.945 45.9488 92.7835 45.9547L28.1849 56.466C28.0234 56.4718 27.8586 56.3857 27.8289 56.2026C27.8222 56.0186 27.9326 55.8764 28.0932 55.8476L92.6688 45.3371C92.6688 45.3371 92.8542 45.3534 92.902 45.3977C92.949 45.4191 93.0207 45.4856 93.0248 45.6005L93.0265 45.6465L93.0496 45.6457Z" fill="url(#paint25_linear_1045_275)"/>
</g>
<g style="mix-blend-mode:color-dodge" opacity="0.9">
<path d="M138.137 67.1965C138.137 67.1965 138.076 67.452 137.94 67.503L90.0913 108.824C89.9315 108.876 89.7667 108.79 89.7147 108.631L89.7131 108.585C89.7064 108.401 89.7715 108.283 89.9082 108.232L137.757 66.9109C137.893 66.8599 138.081 66.9452 138.133 67.1045L138.137 67.1965Z" fill="url(#paint26_linear_1045_275)"/>
</g>
<g style="mix-blend-mode:color-dodge" opacity="0.9">
<path d="M90.2883 108.517C90.2933 108.655 90.1829 108.797 90.0453 108.825L19.4852 125.032C19.3245 125.061 19.1367 124.976 19.1069 124.792C19.0994 124.585 19.2106 124.466 19.3482 124.438L89.9092 108.254C89.9092 108.254 90.1168 108.246 90.1415 108.292C90.1885 108.313 90.2602 108.379 90.2875 108.494L90.2899 108.563L90.2883 108.517Z" fill="url(#paint27_linear_1045_275)"/>
</g>
<path d="M70.4238 86.1852L93.0696 87.6916L86.1326 72.1693L70.4238 86.1852Z" fill="url(#paint28_linear_1045_275)" fill-opacity="0.04"/>
</g>
<g clip-path="url(#clip1_1045_275)">
<path d="M99.5148 43.4657L102.979 40.002L120.017 57.0387L116.553 60.5037L99.5148 43.4657Z" stroke="white" stroke-width="1.5"/>
<path d="M131.384 45.6713L131.384 45.6716L123.339 53.7163L106.301 36.6782L114.347 28.6335L114.347 28.6331C115.541 27.438 117.126 26.7812 118.815 26.7812C120.505 26.7812 122.09 27.4382 123.284 28.6331L123.284 28.6334L131.384 36.7349L131.384 36.7353C132.579 37.9288 133.236 39.5136 133.236 41.2041C133.236 42.8914 132.579 44.4777 131.384 45.6713Z" stroke="white" stroke-width="1.5"/>
<path d="M41.9398 102.404L56.9427 118.196L39.7796 121.225C39.779 121.226 39.7785 121.226 39.778 121.226C39.7265 121.234 39.6767 121.239 39.6281 121.239C39.4042 121.239 39.1892 121.151 39.0273 120.99L38.497 121.52L39.0273 120.99C38.8325 120.795 38.7438 120.515 38.7923 120.241L38.7924 120.241L41.9398 102.404Z" stroke="white" stroke-width="1.5"/>
<path d="M44.598 98.3824L96.1912 46.7892L103.049 53.6468L51.2798 105.416L44.598 98.3824Z" stroke="white" stroke-width="1.5"/>
<path d="M106.373 56.967L113.23 63.8246L61.2004 115.856L54.5176 108.822L106.373 56.967Z" stroke="white" stroke-width="1.5"/>
<path d="M52.3961 39.3064L52.3975 39.3078C53.313 40.2258 53.314 41.7126 52.3968 42.6299L45.0078 50.0188L46.2097 51.2216L51.3361 46.0951C52.2533 45.178 53.7404 45.1789 54.6583 46.0945L54.6595 46.0958C55.5752 47.0136 55.5761 48.5007 54.6589 49.4179L49.5324 54.5444L50.7352 55.7462L58.1242 48.3572C59.0413 47.4401 60.5285 47.441 61.4463 48.3566L61.4469 48.3572C62.3648 49.2751 62.3661 50.7626 61.4469 51.68L52.3961 39.3064ZM52.3961 39.3064C51.4783 38.3908 49.9912 38.3899 49.0741 39.307C49.074 39.307 49.074 39.3071 49.074 39.3071L41.6836 46.6959L39.9517 44.9641C38.3729 43.3852 38.3729 40.8156 39.9517 39.2367C39.9517 39.2367 39.9517 39.2367 39.9517 39.2367L51.2657 27.9244L51.2659 27.9242C52.8429 26.3459 55.4122 26.3452 56.9931 27.9244M52.3961 39.3064L56.9933 27.9246M70.4961 57.4081C69.5787 56.4883 68.0907 56.4893 67.1726 57.4074L67.1726 57.4075L59.7853 64.7963L58.5826 63.5945L63.709 58.4681C63.709 58.4681 63.709 58.4681 63.7091 58.4681C64.6272 57.5501 64.6281 56.0619 63.7083 55.1446C62.7899 54.2267 61.3046 54.2271 60.3864 55.1452C60.3863 55.1452 60.3863 55.1453 60.3863 55.1453L55.2597 60.2703L54.0582 59.0688L61.4462 51.6807L69.9651 57.9377M70.4961 57.4081L69.9651 57.9377M70.4961 57.4081C70.4957 57.4076 70.4952 57.4072 70.4947 57.4067L69.9651 57.9377M70.4961 57.4081C71.4145 58.3255 71.4131 59.8126 70.4955 60.7301L69.9651 60.1999M69.9651 57.9377C70.5907 58.5617 70.5907 59.5744 69.9651 60.1999M69.9651 60.1999L70.4953 60.7303L69.9651 60.1999ZM56.9933 27.9246L57.5234 27.3941L56.9931 27.9244M56.9933 27.9246C56.9933 27.9246 56.9932 27.9245 56.9931 27.9244M56.9933 27.9246L56.9931 27.9244M62.5779 67.5886L62.0477 68.119L62.5782 68.6491L63.1084 68.1187L62.5779 67.5886Z" stroke="white" stroke-width="1.5"/>
<path d="M115.746 103.716L115.746 103.716C114.8 104.661 114.799 106.203 115.746 107.151C116.694 108.095 118.236 108.094 119.18 107.151C120.126 106.204 120.126 104.663 119.18 103.716C119.18 103.716 119.18 103.716 119.179 103.716M115.746 103.716L119.179 103.716M115.746 103.716C116.218 103.244 116.838 103.008 117.464 103.008C118.088 103.008 118.707 103.244 119.179 103.716M115.746 103.716L119.179 103.716" stroke="white" stroke-width="1.5"/>
<path d="M132.385 103.315L132.385 103.315L106.073 77.0054L106.073 77.0054C105.74 76.6726 105.204 76.6727 104.871 77.0053L104.871 77.0054L89.0346 92.8418C89.0346 92.8419 89.0346 92.8419 89.0346 92.8419C88.702 93.1747 88.7021 93.7109 89.0346 94.0434L89.0347 94.0435L91.4608 96.4709L96.5857 91.3445L96.5858 91.3444C97.5043 90.4262 98.9901 90.4261 99.9085 91.3444C100.827 92.2628 100.827 93.7487 99.9086 94.6671C99.9085 94.6672 99.9085 94.6672 99.9084 94.6673L94.7835 99.7938L95.985 100.995L103.374 93.6066C104.292 92.6882 105.778 92.6882 106.697 93.6066L106.697 93.6066C107.614 94.5245 107.615 96.0119 106.697 96.9293L132.385 103.315ZM132.385 103.315C133.562 104.49 133.562 106.407 132.385 107.582L132.385 107.583L119.612 120.355C119.025 120.943 118.254 121.236 117.479 121.236C116.703 121.236 115.931 120.943 115.344 120.355C115.344 120.355 115.344 120.355 115.344 120.355L99.3078 104.318L106.696 96.93L132.385 103.315ZM112.422 110.474L112.423 110.474C113.814 111.864 115.641 112.557 117.464 112.557C119.285 112.557 121.114 111.864 122.503 110.473C125.282 107.694 125.282 103.174 122.503 100.393C119.725 97.6136 115.203 97.6182 112.423 100.393L112.422 100.394C109.645 103.174 109.645 107.694 112.422 110.474Z" stroke="white" stroke-width="1.5"/>
</g>
<defs>
<linearGradient id="paint0_linear_1045_275" x1="48.1258" y1="121.119" x2="80.2152" y2="119.958" gradientUnits="userSpaceOnUse">
<stop stop-color="#C91EFE"/>
<stop offset="1" stop-color="#4A68F2"/>
</linearGradient>
<linearGradient id="paint1_linear_1045_275" x1="70.636" y1="100.999" x2="94.1898" y2="100.147" gradientUnits="userSpaceOnUse">
<stop stop-color="#C91EFE"/>
<stop offset="1" stop-color="#4A68F2"/>
</linearGradient>
<linearGradient id="paint2_linear_1045_275" x1="38.0101" y1="122.464" x2="48.7835" y2="122.074" gradientUnits="userSpaceOnUse">
<stop stop-color="#C91EFE"/>
<stop offset="1" stop-color="#4A68F2"/>
</linearGradient>
<linearGradient id="paint3_linear_1045_275" x1="76.7946" y1="31.7849" x2="100.187" y2="30.9387" gradientUnits="userSpaceOnUse">
<stop stop-color="#C91EFE"/>
<stop offset="1" stop-color="#4A68F2"/>
</linearGradient>
<linearGradient id="paint4_linear_1045_275" x1="70.142" y1="87.3492" x2="93.3036" y2="86.5114" gradientUnits="userSpaceOnUse">
<stop stop-color="#C91EFE"/>
<stop offset="1" stop-color="#4A68F2"/>
</linearGradient>
<linearGradient id="paint5_linear_1045_275" x1="37.2002" y1="100.692" x2="71.2044" y2="99.4617" gradientUnits="userSpaceOnUse">
<stop stop-color="#C91EFE"/>
<stop offset="1" stop-color="#4A68F2"/>
</linearGradient>
<linearGradient id="paint6_linear_1045_275" x1="86.1638" y1="80.0646" x2="93.1076" y2="79.8134" gradientUnits="userSpaceOnUse">
<stop stop-color="#C91EFE"/>
<stop offset="1" stop-color="#4A68F2"/>
</linearGradient>
<linearGradient id="paint7_linear_1045_275" x1="69.6116" y1="36.9142" x2="77.5936" y2="36.6254" gradientUnits="userSpaceOnUse">
<stop stop-color="#C91EFE"/>
<stop offset="1" stop-color="#4A68F2"/>
</linearGradient>
<linearGradient id="paint8_linear_1045_275" x1="37.7484" y1="116.496" x2="65.2239" y2="115.502" gradientUnits="userSpaceOnUse">
<stop stop-color="#C91EFE"/>
<stop offset="1" stop-color="#4A68F2"/>
</linearGradient>
<linearGradient id="paint9_linear_1045_275" x1="55.8936" y1="52.344" x2="69.6198" y2="51.8475" gradientUnits="userSpaceOnUse">
<stop stop-color="#C91EFE"/>
<stop offset="1" stop-color="#4A68F2"/>
</linearGradient>
<linearGradient id="paint10_linear_1045_275" x1="68.7987" y1="47.6631" x2="70.6212" y2="47.5972" gradientUnits="userSpaceOnUse">
<stop stop-color="#C91EFE"/>
<stop offset="1" stop-color="#4A68F2"/>
</linearGradient>
<linearGradient id="paint11_linear_1045_275" x1="84.7842" y1="66.1967" x2="86.2606" y2="66.1433" gradientUnits="userSpaceOnUse">
<stop stop-color="#C91EFE"/>
<stop offset="1" stop-color="#4A68F2"/>
</linearGradient>
<linearGradient id="paint12_linear_1045_275" x1="53.4382" y1="106.43" x2="64.9036" y2="106.015" gradientUnits="userSpaceOnUse">
<stop stop-color="#C91EFE"/>
<stop offset="1" stop-color="#4A68F2"/>
</linearGradient>
<linearGradient id="paint13_linear_1045_275" x1="125.724" y1="55.5517" x2="137.19" y2="55.137" gradientUnits="userSpaceOnUse">
<stop stop-color="#C91EFE"/>
<stop offset="1" stop-color="#4A68F2"/>
</linearGradient>
<linearGradient id="paint14_linear_1045_275" x1="58.8976" y1="75.3664" x2="86.5346" y2="74.3667" gradientUnits="userSpaceOnUse">
<stop stop-color="#C91EFE"/>
<stop offset="1" stop-color="#4A68F2"/>
</linearGradient>
<linearGradient id="paint15_linear_1045_275" x1="31.3155" y1="72.7706" x2="36.9444" y2="72.567" gradientUnits="userSpaceOnUse">
<stop stop-color="#C91EFE"/>
<stop offset="1" stop-color="#4A68F2"/>
</linearGradient>
<linearGradient id="paint16_linear_1045_275" x1="52.7037" y1="86.11" x2="59.8783" y2="85.8505" gradientUnits="userSpaceOnUse">
<stop stop-color="#C91EFE"/>
<stop offset="1" stop-color="#4A68F2"/>
</linearGradient>
<linearGradient id="paint17_linear_1045_275" x1="3.25518" y1="62.0554" x2="31.5151" y2="61.0331" gradientUnits="userSpaceOnUse">
<stop stop-color="#C91EFE"/>
<stop offset="1" stop-color="#4A68F2"/>
</linearGradient>
<linearGradient id="paint18_linear_1045_275" x1="30.4939" y1="83.2666" x2="37.2763" y2="83.0212" gradientUnits="userSpaceOnUse">
<stop stop-color="#C91EFE"/>
<stop offset="1" stop-color="#4A68F2"/>
</linearGradient>
<linearGradient id="paint19_linear_1045_275" x1="18.6279" y1="61.7509" x2="31.5236" y2="61.2844" gradientUnits="userSpaceOnUse">
<stop stop-color="#C91EFE"/>
<stop offset="1" stop-color="#4A68F2"/>
</linearGradient>
<linearGradient id="paint20_linear_1045_275" x1="30.6629" y1="89.2035" x2="53.363" y2="88.3824" gradientUnits="userSpaceOnUse">
<stop stop-color="#C91EFE"/>
<stop offset="1" stop-color="#4A68F2"/>
</linearGradient>
<linearGradient id="paint21_linear_1045_275" x1="3.21974" y1="61.066" x2="19.1837" y2="60.4885" gradientUnits="userSpaceOnUse">
<stop stop-color="#C91EFE"/>
<stop offset="1" stop-color="#4A68F2"/>
</linearGradient>
<linearGradient id="paint22_linear_1045_275" x1="67.9885" y1="38.6666" x2="94.6105" y2="37.7036" gradientUnits="userSpaceOnUse">
<stop stop-color="#C91EFE"/>
<stop offset="1" stop-color="#4A68F2"/>
</linearGradient>
<linearGradient id="paint23_linear_1045_275" x1="20.3659" y1="86.8051" x2="31.1854" y2="86.4137" gradientUnits="userSpaceOnUse">
<stop stop-color="#C91EFE"/>
<stop offset="1" stop-color="#4A68F2"/>
</linearGradient>
<linearGradient id="paint24_linear_1045_275" x1="84.7731" y1="81.2138" x2="138.409" y2="79.2736" gradientUnits="userSpaceOnUse">
<stop stop-color="#C91EFE"/>
<stop offset="1" stop-color="#4A68F2"/>
</linearGradient>
<linearGradient id="paint25_linear_1045_275" x1="27.68" y1="52.0862" x2="93.1968" y2="49.7161" gradientUnits="userSpaceOnUse">
<stop stop-color="#C91EFE"/>
<stop offset="1" stop-color="#4A68F2"/>
</linearGradient>
<linearGradient id="paint26_linear_1045_275" x1="89.3861" y1="99.5471" x2="149.62" y2="97.3682" gradientUnits="userSpaceOnUse">
<stop stop-color="#C91EFE"/>
<stop offset="1" stop-color="#4A68F2"/>
</linearGradient>
<linearGradient id="paint27_linear_1045_275" x1="18.8591" y1="117.941" x2="90.5354" y2="115.348" gradientUnits="userSpaceOnUse">
<stop stop-color="#C91EFE"/>
<stop offset="1" stop-color="#4A68F2"/>
</linearGradient>
<linearGradient id="paint28_linear_1045_275" x1="81.7887" y1="88.0997" x2="81.2189" y2="72.347" gradientUnits="userSpaceOnUse">
<stop offset="0.07" stop-color="white"/>
<stop offset="0.56" stop-color="#EBCFCF"/>
</linearGradient>
<clipPath id="clip0_1045_275">
<rect width="140.601" height="146.193" fill="white" transform="translate(5.08301 145.795) rotate(-92.0717)"/>
</clipPath>
<clipPath id="clip1_1045_275">
<rect width="96" height="96" fill="white" transform="translate(38.0176 25.9902)"/>
</clipPath>
</defs>
</svg>
