<svg width="237" height="65" viewBox="0 0 237 65" fill="none" xmlns="http://www.w3.org/2000/svg">
<g clip-path="url(#clip0_917_79515)">
<path d="M19.3418 0C19.7641 0 20.0175 0 20.2708 0C23.4804 0.168831 26.1832 1.51948 28.3792 3.88312C30.3218 6.07792 31.3354 8.69481 31.3354 11.6494C31.3354 14.6883 30.3218 17.3896 28.1258 19.7532C27.2812 20.6818 26.1832 21.4416 25.0007 22.1169L30.7441 29.039C30.4907 28.9545 30.1529 28.9545 29.815 28.9545C28.3792 28.9545 27.1967 29.3766 26.0987 30.3896C25.0007 31.4026 24.4095 32.6688 24.325 34.2727L15.6254 23.7208V23.6364C15.541 23.5519 15.541 23.3831 15.3721 23.2987H8.27726V34.1883V34.2727C8.27726 35.3701 7.93941 36.2987 7.17926 37.0584C6.4191 37.9026 5.40556 38.4091 4.13863 38.4091C3.04063 38.4091 2.02708 37.987 1.18247 37.2273C0.422309 36.3831 0 35.4545 0 34.3571V34.2727V13.1688C0.506771 13.7597 1.098 14.1818 1.7737 14.5195C2.53386 14.8571 3.29401 15.1104 4.13863 15.1104L6.08125 15.1948H8.27726H19.4262C19.6796 15.1948 19.7641 15.1948 19.8485 15.1948C20.5242 15.1104 21.1999 14.9416 21.7067 14.5195C22.6358 13.8442 23.0581 12.8312 23.0581 11.7338C23.0581 10.7208 22.6358 9.79221 21.8756 9.11688C21.3689 8.52597 20.6087 8.27273 19.7641 8.27273C19.6796 8.27273 19.5952 8.27273 19.5107 8.27273H8.27726V9.87662C8.27726 11.0584 7.85495 11.987 6.92587 12.8312C6.16572 13.5065 5.23664 13.8442 4.13863 13.8442C2.95617 13.8442 1.85816 13.3377 1.098 12.4935C0.422309 11.7338 0.0844619 10.8896 0.0844619 9.96104V4.13636V4.05195C0.0844619 3.03896 0.422309 2.19481 1.098 1.43507C1.7737 0.422078 2.8717 0 4.05417 0H4.13863H19.3418ZM32.3489 31.1494C32.6023 31.3182 32.8557 31.5714 33.1091 31.9935C33.6158 32.6688 33.7847 33.4286 33.7847 34.2727C33.7847 35.539 33.278 36.5519 32.2644 37.4805C31.5887 38.0714 30.6597 38.4091 29.6461 38.4091C29.5617 38.4091 29.3927 38.4091 29.2238 38.4091C28.4636 38.3247 27.7035 37.987 27.1123 37.4805C26.6055 37.0584 26.2676 36.6364 25.9298 36.1299C25.6764 35.539 25.5075 34.9481 25.5075 34.3571C25.5075 33.1753 25.9298 32.1623 26.6899 31.4026C27.5346 30.6429 28.4636 30.2208 29.5617 30.2208C30.6597 30.2208 31.5887 30.474 32.3489 31.1494Z" fill="white"/>
<g filter="url(#filter0_d_917_79515)">
<path d="M56.7584 7.25974C56.3511 7.59903 55.8891 7.88377 55.3726 8.02627C55.1188 8.09628 54.8586 8.1533 54.5962 8.1745C54.4252 8.18831 54.2404 8.18831 54.0556 8.18831C53.7178 8.18831 53.38 8.18831 52.9576 8.1039C52.3664 8.01948 51.9441 7.68182 51.4373 7.25974C50.4238 6.5 49.917 5.4026 49.917 4.05195C49.917 2.7013 50.5082 1.6039 51.4373 0.844156C51.8596 0.506494 52.2819 0.337662 52.7887 0.168831C53.211 0.0844156 53.5489 0 53.9712 0C54.2877 0 54.6043 0.0474289 54.9208 0.106736C55.1323 0.146362 55.3402 0.204851 55.5392 0.286695C56.0682 0.504261 56.4858 0.74046 56.8429 1.0974C57.6875 1.94156 58.1943 2.87013 58.1943 4.13636C58.1098 5.4026 57.6875 6.5 56.7584 7.25974ZM69.0054 7.17532C71.8771 10.7208 73.313 14.6883 73.313 19.1623C73.313 22.7078 66.8938 43.8117 54.0556 43.8117C41.3019 43.8117 34.7983 22.7078 34.7983 19.1623C34.7983 14.6883 36.3187 10.6364 39.1059 7.09091C41.6077 4.00214 44.6864 1.93848 48.3421 0.844111C48.8265 0.69911 49.2681 1.36828 49.0167 1.80695C49 1.83598 48.9826 1.87314 48.9721 1.90493C48.7275 2.64874 48.5656 3.39255 48.5656 4.13636C48.5656 5.23377 48.819 6.24675 49.4102 7.09091C49.8514 7.79643 49.6794 9.04045 48.9361 9.41448C47.4855 10.1444 46.2359 11.1804 45.1871 12.5779C43.6668 14.5195 42.9911 16.7143 42.9911 19.1623C42.9911 22.0325 48.0589 35.539 53.9712 35.539C59.8835 35.539 64.9512 23.1299 64.9512 19.1623C64.9512 16.7143 64.2755 14.5195 62.6708 12.5779C61.7602 11.415 60.7284 10.4944 59.5391 9.79788C58.5559 9.22208 58.2757 7.6034 58.7855 6.58442C59.2078 5.82468 59.3767 5.06494 59.3767 4.13636C59.3767 3.46104 59.2923 2.87013 58.9544 2.19481C58.7232 1.57864 59.2482 0.789465 59.8726 0.997456C63.5248 2.21408 66.5691 4.239 69.0054 7.17532Z" fill="url(#paint0_linear_917_79515)"/>
</g>
<path d="M84.462 1.0974C85.0532 1.60389 85.3911 2.1948 85.6445 2.87013C85.8134 3.2922 85.8979 3.71428 85.8979 4.13636C85.8979 4.72727 85.8134 5.31818 85.56 5.90909C85.3066 6.5 84.9688 6.92207 84.462 7.34415C83.7019 8.01948 82.7728 8.35714 81.7592 8.35714C80.9991 8.35714 80.2389 8.10389 79.5632 7.76623C78.8875 7.34415 78.3808 6.75324 78.0429 6.07792C77.7895 5.48701 77.6206 4.8961 77.6206 4.22078C77.6206 3.54545 77.7051 3.03896 77.9585 2.53246C78.2963 1.77272 78.8031 1.18181 79.4788 0.759736C80.1545 0.337658 80.9146 0.0844116 81.7592 0.0844116C82.7728 0.0844116 83.7019 0.422074 84.462 1.0974ZM85.8134 34.2727C85.8134 35.4545 85.4756 36.3831 84.7154 37.1429C83.9552 37.987 82.9417 38.4935 81.6748 38.4935C80.5768 38.4935 79.5632 38.0714 78.8031 37.3117C78.0429 36.4675 77.6206 35.539 77.6206 34.4416V34.3571V7.76623C78.7186 9.03246 80.07 9.70779 81.7592 9.70779C83.4485 9.70779 84.7999 9.03246 85.8979 7.76623V34.2727H85.8134Z" fill="white"/>
<path d="M94.4282 0C95.6106 0 96.7086 0.422078 97.4688 1.35065C98.1445 2.11039 98.4823 3.03896 98.4823 4.13636V25.0714C98.4823 26.2532 97.9756 27.2662 96.962 28.026C96.2019 28.6169 95.2728 28.9545 94.3437 28.9545C92.9923 28.9545 91.9788 28.3636 91.1342 27.4351C90.5429 26.6753 90.2051 25.8312 90.2051 24.9026V4.13636V4.05195C90.2051 3.03896 90.5429 2.19481 91.2186 1.43507C92.0632 0.422078 93.0768 0 94.2592 0L94.4282 0ZM91.8943 29.6299C92.6545 29.9675 93.4991 30.2208 94.3437 30.2208H98.4823H110.729H110.814C111.827 30.2208 112.672 30.5584 113.432 31.2338C114.446 31.9935 114.952 33.0065 114.952 34.2727V34.3571C114.952 35.539 114.53 36.5519 113.601 37.3961C112.841 38.0714 111.912 38.4091 110.814 38.4091H94.5126C94.4282 38.4091 94.4282 38.4091 94.4282 38.4091C93.3302 38.4091 92.3166 37.987 91.472 37.2273C90.7118 36.3831 90.2895 35.4545 90.2895 34.3571V34.2727V28.3636C90.7118 28.8701 91.2186 29.2922 91.8943 29.6299Z" fill="white"/>
<path d="M134.125 9.70779C134.886 9.70779 135.561 9.87662 136.153 10.2987C137.166 10.8896 137.842 11.6494 138.095 12.7468C138.18 13.1688 138.264 13.5065 138.264 13.9286C138.264 14.5195 138.18 15.1104 137.842 15.6169L126.27 36.2143C125.933 36.8896 125.426 37.3961 124.75 37.8182C124.074 38.2403 123.399 38.4091 122.639 38.4091C121.456 38.4091 120.527 37.987 119.682 37.1429C118.922 36.2987 118.5 35.3701 118.5 34.2727C118.5 33.5974 118.669 32.9221 119.007 32.3312L130.578 11.7338C131.338 10.3831 132.436 9.79221 133.957 9.79221C134.041 9.70779 134.125 9.70779 134.125 9.70779ZM140.967 0.253248C141.389 0.337663 141.811 0.59091 142.149 0.844157C142.741 1.26623 143.078 1.68831 143.332 2.27922L160.14 32.3312C160.562 32.9221 160.731 33.5974 160.731 34.2727C160.731 35.3701 160.309 36.3831 159.464 37.2273C158.704 37.987 157.69 38.4091 156.592 38.4091C155.832 38.4091 155.072 38.1558 154.481 37.8182C153.805 37.3961 153.298 36.8896 152.96 36.2143L138.94 11.2273C138.686 10.8052 138.349 10.3831 138.011 10.0455C137.673 9.70779 137.335 9.45455 136.913 9.2013C136.913 9.11688 136.828 9.11688 136.828 9.11688C136.153 8.77922 135.477 8.52598 134.801 8.52598C134.632 8.52598 134.463 8.52598 134.21 8.52598C133.534 8.52598 132.943 8.61039 132.352 8.86364L135.984 2.36364C136.321 1.68831 136.828 1.18182 137.419 0.759741C138.095 0.253248 138.94 0.0844167 139.7 0.0844167C140.122 1.11014e-06 140.545 0.0844167 140.967 0.253248Z" fill="white"/>
<path d="M170.782 0.337662C171.373 0.590909 171.796 0.928571 172.218 1.35065L190.293 22.7078C190.715 23.2987 191.306 23.7208 191.897 24.0584C192.742 24.4805 193.756 24.7338 194.769 24.7338C195.614 24.7338 196.458 24.4805 197.219 24.1429C197.894 23.8052 198.401 23.4675 198.908 22.961V34.1039V34.1883C198.908 35.2013 198.57 36.1299 197.894 36.974C197.05 37.8182 196.036 38.3247 194.854 38.3247C193.502 38.3247 192.404 37.7338 191.644 36.7208L173.654 15.6169C173.569 15.5325 173.485 15.3636 173.4 15.2792C172.978 14.6883 172.387 14.3506 171.711 14.0974C170.951 13.6753 170.191 13.5065 169.262 13.5065H169.177C168.333 13.5065 167.488 13.6753 166.728 14.0974C166.137 14.3506 165.545 14.7727 165.123 15.2792V4.13636C165.123 2.95455 165.545 1.94156 166.39 1.18182C167.235 0.422078 168.164 0 169.262 0C169.684 0 170.275 0.0844156 170.782 0.337662ZM169.177 14.7727C169.853 14.7727 170.529 14.8571 171.12 15.1948C172.556 15.8701 173.231 16.9675 173.231 18.4026V34.1883V34.2727C173.231 35.3701 172.809 36.3831 172.049 37.1429C171.289 37.987 170.275 38.4091 169.093 38.4091C167.741 38.4091 166.643 37.8182 165.799 36.7208C165.292 35.961 164.954 35.1169 164.954 34.2727V34.1883V18.4026C165.039 17.3896 165.461 16.461 166.221 15.7857C166.981 15.1104 167.91 14.7727 169.008 14.7727H169.177ZM197.303 1.01299C198.317 1.77273 198.823 2.78571 198.823 4.13636V20.0909C198.823 21.1883 198.317 22.1169 197.303 22.8766C196.543 23.4675 195.614 23.7208 194.685 23.7208C193.249 23.7208 192.151 23.1299 191.306 22.2013C190.799 21.526 190.546 20.8506 190.546 20.0909V4.13636C190.546 2.95455 190.968 1.94156 191.813 1.18182C192.573 0.422078 193.587 0 194.685 0C195.698 0 196.543 0.337662 197.303 1.01299Z" fill="white"/>
<path d="M213.266 0C212.76 0.422078 212.337 1.01299 211.999 1.68831C211.577 2.44805 211.408 3.29221 211.408 4.13636V8.27273V30.2208H217.827C218.841 30.2208 219.854 30.0519 220.868 29.7987C220.53 30.474 220.361 31.3182 220.361 32.0779C220.361 32.9221 220.614 33.8506 220.952 34.6948C221.29 35.2013 221.712 35.7078 222.135 36.2143C222.81 36.8052 223.486 37.2273 224.331 37.3961C223.317 37.7338 222.304 37.987 221.29 38.2403C220.277 38.4935 219.179 38.5779 218.081 38.5779C218.081 38.5779 217.996 38.5779 217.912 38.5779C217.827 38.5779 217.827 38.5779 217.827 38.5779H207.354C206.171 38.5779 205.242 38.1558 204.398 37.3961C203.638 36.5519 203.215 35.6234 203.215 34.526V34.4416V4.13636V4.05195C203.215 3.03896 203.553 2.19481 204.229 1.43507C205.073 0.422078 206.087 0 207.269 0H207.354L213.266 0ZM217.658 0C217.827 0 218.081 0 218.503 0C221.881 0.0844156 225.006 1.0974 227.794 2.87013C230.665 4.64286 232.861 6.83766 234.466 9.79221C236.155 12.6623 236.916 15.8701 236.916 19.2468C236.916 22.7078 236.071 25.9156 234.297 28.8701C232.608 31.8247 230.328 34.1039 227.371 35.7922C226.78 36.0455 226.273 36.2143 225.598 36.2143C224.922 36.2143 224.331 36.0455 223.74 35.7922C222.979 35.3701 222.388 34.7792 221.966 34.0195C221.712 33.3442 221.544 32.6688 221.544 32.0779C221.544 31.8247 221.628 31.6558 221.628 31.4026C221.881 30.3052 222.304 29.461 223.148 28.7857C223.233 28.7013 223.317 28.7013 223.317 28.7013C225.006 27.6883 226.273 26.3377 227.287 24.7338C228.301 23.0455 228.807 21.1883 228.807 19.2468C228.807 16.2078 227.794 13.6753 225.682 11.5649C223.571 9.45455 221.037 8.35714 218.081 8.27273C217.996 8.27273 217.827 8.27273 217.658 8.27273H216.645C215.547 8.18831 214.533 7.76623 213.773 7.00649C213.097 6.16234 212.675 5.23377 212.675 4.13636C212.675 3.20779 212.928 2.36364 213.435 1.68831C214.28 0.590909 215.293 0 216.645 0L217.658 0Z" fill="white"/>
<path d="M142.571 32.6688H136.659C134.379 32.6688 132.521 30.8117 132.521 28.5325C132.521 26.2532 134.379 24.3961 136.659 24.3961H142.571C144.852 24.3961 146.71 26.2532 146.71 28.5325C146.626 30.8117 144.767 32.6688 142.571 32.6688Z" fill="white"/>
<path d="M52.7043 64.8312H51.015L50.0015 61.961H45.1872L44.1736 64.8312H42.4844L46.7075 53.5195H48.3967L52.7043 64.8312ZM45.6095 60.6104H49.4947L47.5521 55.2078L45.6095 60.6104Z" fill="white"/>
<path d="M55.5762 53.5195H57.0965V64.8312H55.5762V53.5195Z" fill="white"/>
<path d="M71.0325 53.0974V54.3636C70.7791 54.3636 70.5257 54.3636 70.2724 54.3636C69.6811 54.3636 69.2588 54.5325 69.0054 54.7857C68.752 55.039 68.5831 55.461 68.5831 56.052V56.5584H70.9481V57.8247H68.5831V64.9156H67.1473V57.8247H65.7114V56.5584H67.1473V56.052C67.1473 55.039 67.4007 54.3636 67.9074 53.8572C68.4142 53.3507 69.1744 53.1818 70.1879 53.1818C70.4413 53.0974 70.6947 53.0974 71.0325 53.0974Z" fill="white"/>
<path d="M75.0022 56.8961C75.6779 56.474 76.438 56.3052 77.2826 56.3052C78.1273 56.3052 78.8874 56.474 79.5631 56.8961C80.2388 57.3182 80.83 57.8247 81.1679 58.5C81.5902 59.1753 81.7591 59.9351 81.7591 60.6948C81.7591 61.4546 81.5902 62.2143 81.1679 62.8896C80.7456 63.5649 80.2388 64.0714 79.5631 64.4935C78.8874 64.9156 78.1273 65.0844 77.2826 65.0844C76.438 65.0844 75.6779 64.9156 75.0022 64.4935C74.3265 64.0714 73.7352 63.5649 73.3974 62.8896C72.9751 62.2143 72.8062 61.4546 72.8062 60.6948C72.8062 59.9351 72.9751 59.1753 73.3974 58.5C73.7352 57.8247 74.242 57.2338 75.0022 56.8961ZM75.1711 62.8052C75.7623 63.3961 76.438 63.7338 77.2826 63.7338C78.1273 63.7338 78.8874 63.3961 79.3942 62.8052C79.901 62.2143 80.2388 61.4546 80.2388 60.6104C80.2388 59.7663 79.9854 59.0065 79.3942 58.4156C78.8029 57.8247 78.1273 57.487 77.2826 57.487C76.438 57.487 75.6779 57.8247 75.1711 58.4156C74.6643 59.0065 74.3265 59.7663 74.3265 60.6104C74.242 61.539 74.5799 62.2143 75.1711 62.8052Z" fill="white"/>
<path d="M88.4316 57.5714C88.0093 57.5714 87.5026 57.7403 87.0802 58.0779C86.6579 58.4156 86.3201 58.8377 85.9822 59.4286V64.7468H84.5464V56.3896H85.9822V57.7403C86.7424 56.7273 87.587 56.1364 88.6006 56.1364C88.8539 56.1364 89.1918 56.2208 89.3607 56.3052L89.2762 57.5714C89.0229 57.6558 88.685 57.5714 88.4316 57.5714Z" fill="white"/>
<path d="M100.848 60.6104H99.3274V64.8312H97.8071V53.5195H101.439C102.621 53.5195 103.551 53.8571 104.311 54.4481C104.986 55.1234 105.324 55.9675 105.324 56.9805C105.324 57.9091 105.071 58.6688 104.564 59.2597C104.057 59.8507 103.382 60.2727 102.453 60.4416L105.493 64.8312H103.804L100.848 60.6104ZM103.128 58.6688C103.551 58.2468 103.719 57.7403 103.719 57.0649C103.719 56.3896 103.466 55.8831 103.128 55.461C102.79 55.039 102.115 54.8701 101.355 54.8701H99.3274V59.2597H101.355C102.115 59.2597 102.706 59.0909 103.128 58.6688Z" fill="white"/>
<path d="M109.04 61.1169C109.125 61.8766 109.463 62.4675 109.969 62.974C110.561 63.4805 111.236 63.7338 111.996 63.7338C113.01 63.7338 113.855 63.3117 114.615 62.552L115.628 63.4805C115.206 63.987 114.699 64.3247 114.024 64.6623C113.432 64.9156 112.757 65.0844 111.996 65.0844C111.321 65.0844 110.73 65 110.138 64.7468C109.547 64.4935 109.125 64.2403 108.702 63.8182C108.28 63.3961 108.027 62.974 107.773 62.4675C107.52 61.961 107.436 61.3701 107.436 60.7792C107.436 60.1883 107.52 59.5974 107.773 59.0909C108.027 58.5844 108.28 58.0779 108.702 57.6559C109.125 57.2338 109.547 56.9805 110.138 56.7273C110.645 56.474 111.236 56.3896 111.912 56.3896C112.757 56.3896 113.432 56.5584 114.108 56.9805C114.784 57.4026 115.29 57.8247 115.628 58.5C115.966 59.1753 116.135 59.8507 116.135 60.6104C116.135 60.8636 116.135 61.0325 116.051 61.2857H109.04V61.1169ZM111.996 57.5714C111.321 57.5714 110.73 57.8247 110.138 58.2468C109.632 58.6688 109.294 59.2597 109.125 59.9351H114.699C114.615 59.2597 114.277 58.6688 113.77 58.2468C113.263 57.7403 112.672 57.5714 111.996 57.5714Z" fill="white"/>
<path d="M122.639 56.3052C123.821 56.3052 124.835 56.7273 125.595 57.5714V56.474H127.031V64.8312H125.595V63.7338C124.835 64.5779 123.821 65 122.639 65C121.794 65 121.118 64.8312 120.443 64.4091C119.767 63.987 119.26 63.4805 118.922 62.8052C118.584 62.1299 118.416 61.4546 118.416 60.6104C118.416 59.8507 118.584 59.0909 118.922 58.4156C119.26 57.7403 119.767 57.2338 120.443 56.8117C121.118 56.474 121.878 56.3052 122.639 56.3052ZM122.892 63.7338C123.483 63.7338 123.99 63.5649 124.497 63.3117C125.004 62.974 125.341 62.6364 125.595 62.1299V59.3442C125.341 58.8377 125.004 58.4156 124.497 58.1624C123.99 57.8247 123.483 57.7403 122.892 57.7403C122.047 57.7403 121.287 58.0779 120.78 58.6688C120.274 59.2598 119.936 60.0195 119.936 60.8636C119.936 61.7078 120.189 62.4675 120.78 63.0585C121.372 63.6494 122.047 63.7338 122.892 63.7338Z" fill="white"/>
<path d="M130.578 64.8312V53.0974H132.014V64.8312H130.578Z" fill="white"/>
<path d="M141.474 64.8312V53.5195H148.146V54.8701H142.994V58.5H147.724V59.8507H142.994V63.5649H148.315V64.9156H141.474V64.8312Z" fill="white"/>
<path d="M150.68 63.6494L151.525 62.6364C151.778 62.974 152.116 63.2273 152.538 63.4805C152.961 63.6494 153.383 63.8182 153.805 63.8182C154.312 63.8182 154.734 63.7338 155.072 63.4805C155.41 63.2273 155.495 62.974 155.495 62.552C155.495 62.2143 155.326 61.8766 155.072 61.7078C154.734 61.4546 154.312 61.2857 153.636 61.2013C151.863 60.8637 150.934 60.0195 150.934 58.6688C150.934 57.9935 151.187 57.487 151.694 56.9805C152.2 56.474 152.876 56.3052 153.805 56.3052C154.903 56.3052 155.832 56.6429 156.593 57.4026L155.832 58.4156C155.157 57.8247 154.565 57.5714 153.89 57.5714C153.467 57.5714 153.13 57.6559 152.792 57.9091C152.538 58.0779 152.369 58.3312 152.369 58.6688C152.369 59.0065 152.538 59.2598 152.792 59.513C153.045 59.7662 153.552 59.9351 154.059 60.0195C154.988 60.1883 155.748 60.526 156.17 60.9481C156.677 61.3701 156.846 61.9611 156.846 62.6364C156.846 63.3961 156.593 63.987 156.001 64.4091C155.41 64.8312 154.734 65.0844 153.721 65.0844C153.045 65.0844 152.454 65 151.863 64.7468C151.525 64.4091 151.102 64.0714 150.68 63.6494Z" fill="white"/>
<path d="M161.829 57.7403V62.1299C161.829 62.6364 161.914 63.0584 162.167 63.3117C162.42 63.5649 162.843 63.7338 163.434 63.7338C163.687 63.7338 163.941 63.7338 164.194 63.7338V65C163.941 65.0844 163.687 65.0844 163.35 65.0844C162.336 65.0844 161.576 64.8312 161.069 64.4091C160.562 63.987 160.309 63.2273 160.309 62.2987V57.9091H158.789V56.6429H160.309V54.3636L161.745 54.1948V56.6429H164.025V57.9091H161.829V57.7403Z" fill="white"/>
<path d="M170.444 56.3052C171.627 56.3052 172.64 56.7273 173.4 57.5714V56.474H174.836V64.8312H173.4V63.7338C172.64 64.5779 171.627 65 170.444 65C169.6 65 168.924 64.8312 168.248 64.4091C167.573 63.987 167.066 63.4805 166.728 62.8052C166.39 62.1299 166.221 61.4546 166.221 60.6104C166.221 59.8507 166.39 59.0909 166.728 58.4156C167.066 57.7403 167.573 57.2338 168.248 56.8117C168.924 56.474 169.6 56.3052 170.444 56.3052ZM170.698 63.7338C171.289 63.7338 171.796 63.5649 172.302 63.3117C172.809 62.974 173.147 62.6364 173.4 62.1299V59.3442C173.147 58.8377 172.809 58.4156 172.302 58.1624C171.796 57.8247 171.289 57.7403 170.698 57.7403C169.853 57.7403 169.093 58.0779 168.586 58.6688C168.079 59.2598 167.742 60.0195 167.742 60.8636C167.742 61.7078 167.995 62.4675 168.586 63.0585C169.177 63.6494 169.853 63.7338 170.698 63.7338Z" fill="white"/>
<path d="M180.242 57.7403V62.1299C180.242 62.6364 180.326 63.0584 180.58 63.3117C180.833 63.5649 181.255 63.7338 181.847 63.7338C182.1 63.7338 182.353 63.7338 182.607 63.7338V65C182.353 65.0844 182.1 65.0844 181.762 65.0844C180.749 65.0844 179.988 64.8312 179.482 64.4091C178.975 63.987 178.721 63.2273 178.721 62.2987V57.9091H177.201V56.6429H178.721V54.3636L180.157 54.1948V56.6429H182.438V57.9091H180.242V57.7403Z" fill="white"/>
<path d="M186.154 61.1169C186.239 61.8766 186.576 62.4675 187.083 62.974C187.674 63.4805 188.35 63.7338 189.11 63.7338C190.124 63.7338 190.968 63.3117 191.729 62.552L192.742 63.4805C192.32 63.987 191.813 64.3247 191.137 64.6623C190.546 64.9156 189.87 65.0844 189.11 65.0844C188.435 65.0844 187.843 65 187.252 64.7468C186.661 64.4935 186.239 64.2403 185.816 63.8182C185.394 63.3961 185.141 62.974 184.887 62.4675C184.634 61.961 184.549 61.3701 184.549 60.7792C184.549 60.1883 184.634 59.5974 184.887 59.0909C185.141 58.5844 185.394 58.0779 185.816 57.6559C186.239 57.2338 186.661 56.9805 187.252 56.7273C187.759 56.474 188.35 56.3896 189.026 56.3896C189.87 56.3896 190.546 56.5584 191.222 56.9805C191.897 57.4026 192.404 57.8247 192.742 58.5C193.08 59.1753 193.249 59.8507 193.249 60.6104C193.249 60.8636 193.249 61.0325 193.164 61.2857H186.154V61.1169ZM189.026 57.5714C188.35 57.5714 187.759 57.8247 187.168 58.2468C186.661 58.6688 186.323 59.2597 186.154 59.9351H191.729C191.644 59.2597 191.306 58.6688 190.799 58.2468C190.377 57.7403 189.786 57.5714 189.026 57.5714Z" fill="white"/>
</g>
<defs>
<filter id="filter0_d_917_79515" x="19.7983" y="-10" width="68.5146" height="73.8117" filterUnits="userSpaceOnUse" color-interpolation-filters="sRGB">
<feFlood flood-opacity="0" result="BackgroundImageFix"/>
<feColorMatrix in="SourceAlpha" type="matrix" values="0 0 0 0 0 0 0 0 0 0 0 0 0 0 0 0 0 0 127 0" result="hardAlpha"/>
<feOffset dy="5"/>
<feGaussianBlur stdDeviation="7.5"/>
<feColorMatrix type="matrix" values="0 0 0 0 0.294118 0 0 0 0 0.403922 0 0 0 0 0.94902 0 0 0 0.8 0"/>
<feBlend mode="normal" in2="BackgroundImageFix" result="effect1_dropShadow_917_79515"/>
<feBlend mode="normal" in="SourceGraphic" in2="effect1_dropShadow_917_79515" result="shape"/>
</filter>
<linearGradient id="paint0_linear_917_79515" x1="54.0556" y1="0" x2="54.0556" y2="43.8117" gradientUnits="userSpaceOnUse">
<stop stop-color="#D11AFF"/>
<stop offset="1" stop-color="#3D70F1"/>
</linearGradient>
<clipPath id="clip0_917_79515">
<rect width="237" height="65" fill="white"/>
</clipPath>
</defs>
</svg>
