<svg width="14" height="18" viewBox="0 0 14 18" fill="none" xmlns="http://www.w3.org/2000/svg">
<path d="M13.125 6.75H12V5.24999C12 2.35512 9.64491 0 6.75 0C3.85509 0 1.50001 2.35512 1.50001 5.24999V6.75H0.375012C0.16773 6.75 0 6.91773 0 7.12501V16.5C0 17.3273 0.672715 18 1.50001 18H12C12.8273 18 13.5 17.3273 13.5 16.5V7.12501C13.5 6.91773 13.3323 6.75 13.125 6.75ZM7.87282 14.5836C7.88453 14.6894 7.8505 14.7956 7.77945 14.8751C7.7084 14.9546 7.60658 15 7.50002 15H6.00001C5.89345 15 5.79164 14.9546 5.72059 14.8751C5.64954 14.7957 5.61547 14.6895 5.62721 14.5836L5.86378 12.4563C5.47963 12.1769 5.25002 11.7349 5.25002 11.25C5.25002 10.4227 5.92274 9.74999 6.75004 9.74999C7.57733 9.74999 8.25005 10.4227 8.25005 11.25C8.25005 11.7349 8.02044 12.1769 7.63629 12.4563L7.87282 14.5836ZM9.74999 6.75H3.75001V5.24999C3.75001 3.59582 5.09583 2.25 6.75 2.25C8.40417 2.25 9.74999 3.59582 9.74999 5.24999V6.75Z" fill="white"/>
</svg>
