<svg width="30" height="25" viewBox="0 0 30 25" fill="none" xmlns="http://www.w3.org/2000/svg">
<path d="M29.3202 3.36854C28.8489 3.57061 28.3643 3.74115 27.8692 3.8796C28.4554 3.23879 28.9023 2.48479 29.1751 1.6597C29.2363 1.47475 29.1729 1.27231 29.0156 1.15135C28.8586 1.0303 28.6403 1.0158 28.4674 1.11487C27.4159 1.7177 26.2816 2.15092 25.0921 2.40425C23.8939 1.2725 22.2666 0.628418 20.5843 0.628418C17.0331 0.628418 14.144 3.42112 14.144 6.85378C14.144 7.12414 14.1618 7.39299 14.1968 7.65811C9.79018 7.2841 5.69344 5.1904 2.88021 1.85456C2.77996 1.73566 2.6255 1.67158 2.46737 1.68383C2.30915 1.69581 2.16699 1.78206 2.08705 1.91461C1.51647 2.86104 1.21483 3.94349 1.21483 5.04484C1.21483 6.54488 1.76886 7.96813 2.74754 9.08023C2.44996 8.9806 2.16118 8.85609 1.88557 8.70819C1.7376 8.62858 1.55702 8.6298 1.41002 8.71128C1.26292 8.79276 1.1707 8.94262 1.16683 9.10643C1.16615 9.13402 1.16615 9.16162 1.16615 9.18959C1.16615 11.4287 2.41279 13.4445 4.31876 14.5433C4.15502 14.5275 3.99137 14.5045 3.82879 14.4745C3.66118 14.4435 3.48883 14.5003 3.37579 14.6239C3.26257 14.7474 3.22512 14.9195 3.27728 15.0767C3.98276 17.2058 5.79912 18.7719 7.99492 19.2494C6.17373 20.3521 4.09105 20.9296 1.90473 20.9296C1.44854 20.9296 0.98973 20.9037 0.540698 20.8524C0.317633 20.8267 0.104343 20.954 0.0283754 21.1591C-0.0475924 21.3643 0.0329237 21.593 0.222698 21.7106C3.03137 23.4514 6.27902 24.3716 9.61434 24.3716C16.1712 24.3716 20.273 21.3827 22.5592 18.8753C25.4102 15.7488 27.0453 11.6105 27.0453 7.52162C27.0453 7.3508 27.0426 7.1783 27.0372 7.00636C28.162 6.18716 29.1304 5.19573 29.9184 4.05622C30.0381 3.88315 30.0252 3.65443 29.8865 3.49511C29.748 3.33571 29.5172 3.28416 29.3202 3.36854Z" fill="#2A3149" stroke="url(#paint0_linear_917_131587)" stroke-linecap="round"/>
<defs>
<linearGradient id="paint0_linear_917_131587" x1="15" y1="0.628418" x2="15" y2="24.3716" gradientUnits="userSpaceOnUse">
<stop stop-color="#C91EFE"/>
<stop offset="1" stop-color="#4A68F2"/>
</linearGradient>
</defs>
</svg>
