<svg width="24" height="20" viewBox="0 0 24 20" fill="none" xmlns="http://www.w3.org/2000/svg">
<path d="M23.6421 10.4474L22.4741 9.27935C21.9971 8.80231 21.2213 8.80313 20.7442 9.27935L14.4365 15.587L13.5673 18.7751L13.3546 18.9878C13.1956 19.1468 13.1952 19.4034 13.3521 19.5636L13.3501 19.5718L13.3579 19.5697C13.4374 19.648 13.5406 19.6878 13.6443 19.6878C13.7493 19.6878 13.8542 19.6476 13.9341 19.5677L14.1472 19.3546L17.3348 18.4853L23.6421 12.1777C24.1192 11.7006 24.1192 10.9244 23.6421 10.4474ZM15.3828 15.8001L19.5807 11.6023L21.3196 13.3412L17.1217 17.539L15.3828 15.8001ZM15.0132 16.5895L16.3328 17.9091L14.5181 18.4038L15.0132 16.5895ZM23.0626 11.5982L21.8991 12.7617L20.1602 11.0232L21.3237 9.85967C21.4815 9.70188 21.7376 9.70229 21.895 9.85926L23.063 11.0273C23.22 11.1842 23.22 11.4408 23.0626 11.5982Z" fill="white" fill-opacity="0.6"/>
<path d="M11.885 16.2978H1.58973C3.45363 14.8208 7.65561 11.4696 9.81459 9.57536L10.397 10.0897C10.8072 10.4561 11.3465 10.6393 11.8855 10.6393C12.4236 10.6393 12.9621 10.4565 13.3711 10.0913L22.9504 1.63287V8.1008C22.9504 8.32743 23.134 8.51062 23.3603 8.51062C23.5865 8.51062 23.7701 8.32743 23.7701 8.1008V0.723872C23.7701 0.720594 23.7684 0.718135 23.768 0.714856C23.7672 0.669365 23.7603 0.623464 23.7434 0.579203C23.7422 0.576334 23.7402 0.574285 23.7389 0.571416C23.7344 0.560351 23.7271 0.551744 23.7221 0.541498C23.7053 0.508302 23.6853 0.477565 23.6607 0.450516C23.65 0.439041 23.6389 0.429205 23.6271 0.41896C23.6016 0.396419 23.5738 0.377977 23.5434 0.362813C23.5299 0.355846 23.5176 0.348879 23.5037 0.343551C23.4586 0.326338 23.4111 0.314453 23.3603 0.314453H0.409829C0.35901 0.314453 0.31147 0.326338 0.265979 0.343551C0.251635 0.348879 0.23934 0.355846 0.226226 0.362813C0.195898 0.378386 0.16803 0.396829 0.142621 0.41896C0.130735 0.429615 0.11967 0.439041 0.109015 0.450516C0.0844248 0.477565 0.064753 0.507892 0.0475402 0.541498C0.0426222 0.552154 0.0352453 0.56076 0.0307372 0.571416C0.0295077 0.574285 0.0274585 0.576334 0.0262291 0.579203C0.0098359 0.623464 0.0028688 0.669365 0.00204915 0.714856C0.00163932 0.718135 0 0.721004 0 0.724282V16.7076C0 16.7088 0.000819658 16.7097 0.000819658 16.7113C0.00122949 16.7552 0.00778675 16.799 0.0225406 16.842C0.0241799 16.847 0.0278684 16.8506 0.0299175 16.8556C0.0356551 16.8699 0.0442615 16.8822 0.0512286 16.8957C0.0668021 16.9256 0.0848346 16.9535 0.106965 16.9781C0.118441 16.9908 0.129916 17.0019 0.142621 17.0129C0.16762 17.0347 0.194669 17.0527 0.224176 17.0679C0.238111 17.0752 0.250815 17.083 0.265569 17.0888C0.31106 17.1056 0.35901 17.1174 0.409829 17.1174H11.885C12.1113 17.1174 12.2949 16.9343 12.2949 16.7076C12.2949 16.481 12.1113 16.2978 11.885 16.2978ZM0.819658 15.8617V1.63287L9.19533 9.02865C6.91832 11.018 2.49422 14.5368 0.819658 15.8617ZM22.2771 1.13411L12.8272 9.47823C12.308 9.94216 11.4625 9.94216 10.9412 9.47659L10.1302 8.76062C10.1277 8.75775 10.1273 8.75447 10.1248 8.75201C10.1158 8.74177 10.1031 8.73767 10.0933 8.72865L1.49301 1.13411H22.2771Z" fill="white" fill-opacity="0.6"/>
</svg>
