<svg width="38" height="47" viewBox="0 0 38 47" fill="none" xmlns="http://www.w3.org/2000/svg">
<path d="M32.1046 14.7455C31.889 14.5346 31.5937 14.4049 31.2687 14.4049C31.1921 14.4049 31.1171 14.4127 31.0437 14.4252L31.0515 14.4236C30.664 14.5018 30.3499 14.7627 30.1999 15.1096L30.1968 15.1174C29.4718 16.7705 28.3702 18.1424 26.9968 19.1689C26.9868 19.176 26.9732 19.1677 26.975 19.1556C27.0861 18.3975 27.1499 17.5268 27.1499 16.6424C27.1499 13.908 26.5421 11.3158 25.4546 8.99238L25.5015 9.10332C23.5952 5.12363 20.4015 2.01426 16.4702 0.262695L16.3546 0.217383C16.2171 0.156445 16.0577 0.12207 15.8905 0.12207C15.2421 0.12207 14.7171 0.64707 14.7171 1.29551C14.7171 1.36582 14.7233 1.43457 14.7358 1.50176C14.7357 1.501 14.7346 1.50112 14.7346 1.50189C14.7391 1.61894 14.7421 1.75644 14.7421 1.89395C14.7421 5.23144 13.2624 8.22363 10.9233 10.2502L10.9093 10.2627C10.0858 11.0971 9.20615 11.8861 8.32959 12.6752C6.33271 14.3283 4.59521 16.1877 3.11709 18.2455L3.05771 18.333C1.42334 20.9924 0.45459 24.2158 0.45459 27.6627C0.45459 29.3689 0.69209 31.0205 1.13584 32.5861L1.10459 32.4596C2.25459 37.1643 5.14521 41.0533 9.0374 43.4877L9.1124 43.5314C11.9515 45.3439 15.4093 46.4299 19.1202 46.4486H19.1249C19.1312 46.4486 19.1405 46.4486 19.1483 46.4486C19.9374 46.4486 20.7155 46.3971 21.4765 46.2955L21.3874 46.3049C28.4655 45.2705 34.2046 40.4486 36.5374 33.9939L36.5796 33.8627C37.1718 32.1096 37.5124 30.0908 37.5124 27.9924C37.5124 22.833 35.4483 18.1549 32.0999 14.7408L32.103 14.7439L32.1046 14.7455ZM34.3593 33.1142C34.3593 33.1136 34.3584 33.1134 34.3582 33.114C32.2842 38.8657 27.2708 43.08 21.178 43.9705L21.089 43.9814C20.5015 44.0564 19.8218 44.0986 19.1327 44.0986C15.8749 44.0986 12.8405 43.1455 10.2921 41.5033L10.3562 41.5424C6.89834 39.3846 4.38115 35.9955 3.40147 32.0033L3.37959 31.8971C3.01084 30.6299 2.79834 29.1736 2.79834 27.6674C2.79834 24.6939 3.62646 21.9127 5.06396 19.5439L5.0249 19.6143C6.44834 17.6455 8.05303 15.9377 9.85147 14.458L9.89834 14.4205C10.8108 13.6018 11.7233 12.7799 12.5812 11.9111C14.9968 9.70488 16.6515 6.70488 17.1343 3.3252C17.1387 3.28918 17.1788 3.26965 17.2098 3.28844C19.891 4.91015 22.0077 7.23073 23.339 9.99863L23.3796 10.0939C24.2812 12.0143 24.8077 14.2643 24.8077 16.6377C24.8077 18.2471 24.5655 19.8002 24.1155 21.2627L24.1452 21.1518C24.1124 21.2533 24.0952 21.3705 24.0952 21.4924C24.0952 22.1393 24.6202 22.6643 25.2671 22.6643C25.4249 22.6643 25.5765 22.633 25.7124 22.5768L25.7046 22.5799C28.1655 21.5596 30.1671 19.8408 31.5124 17.6736C31.5266 17.6482 31.562 17.6452 31.5801 17.668C33.8199 20.4721 35.1733 24.0676 35.1733 27.9783C35.1733 29.8143 34.8749 31.5799 34.3249 33.2314L34.3593 33.1143C34.3593 33.1143 34.3593 33.1142 34.3593 33.1142Z" fill="url(#paint0_linear_917_84531)"/>
<defs>
<linearGradient id="paint0_linear_917_84531" x1="18.9835" y1="0.12207" x2="18.9835" y2="46.4486" gradientUnits="userSpaceOnUse">
<stop stop-color="#D11AFF"/>
<stop offset="1" stop-color="#3D70F1"/>
</linearGradient>
</defs>
</svg>
