<svg width="50" height="41" viewBox="0 0 50 41" fill="none" xmlns="http://www.w3.org/2000/svg">
<g clip-path="url(#clip0_917_84559)">
<path d="M21.2583 14.5538C20.9391 14.2326 20.4202 14.2308 20.099 14.5496C19.7778 14.8685 19.7759 15.3876 20.0948 15.7088C21.9367 17.5639 22.9509 20.0251 22.9509 22.6392C22.9509 28.0629 18.5386 32.4752 13.1148 32.4752C7.73449 32.4752 3.34904 28.1329 3.27967 22.7687C3.27904 22.7204 3.2815 22.6782 3.28808 22.6303C3.52156 20.9327 4.77595 10.6474 1.31161 8.04906C0.9494 7.77768 0.435923 7.85111 0.163951 8.21293C-0.107631 8.57514 -0.0341938 9.089 0.327818 9.36059C1.43602 10.1916 2.04745 12.7545 2.0492 16.5769C2.05057 19.6603 1.65155 22.4951 1.64754 22.5233C1.64217 22.5617 1.63934 22.6005 1.63934 22.6391C1.63934 28.9667 6.7871 34.1145 13.1147 34.1145C19.4424 34.1145 24.5901 28.9667 24.5901 22.6391C24.5902 19.5894 23.4069 16.718 21.2583 14.5538Z" fill="url(#paint0_linear_917_84559)"/>
<path d="M11.4753 18.541C9.21543 18.541 7.37695 20.3795 7.37695 22.6394C7.37695 24.8992 9.21543 26.7377 11.4753 26.7377C13.7352 26.7377 15.5736 24.8992 15.5736 22.6394C15.5736 20.3795 13.7353 18.541 11.4753 18.541ZM11.4753 25.0983C10.1193 25.0983 9.01631 23.9953 9.01631 22.6394C9.01631 21.2834 10.1193 20.1804 11.4753 20.1804C12.8313 20.1804 13.9343 21.2834 13.9343 22.6394C13.9343 23.9953 12.8313 25.0983 11.4753 25.0983Z" fill="url(#paint1_linear_917_84559)"/>
<path d="M11.4753 24.2787C12.3807 24.2787 13.1146 23.5447 13.1146 22.6394C13.1146 21.734 12.3807 21 11.4753 21C10.5699 21 9.83594 21.734 9.83594 22.6394C9.83594 23.5447 10.5699 24.2787 11.4753 24.2787Z" fill="url(#paint2_linear_917_84559)"/>
<path d="M49.8358 8.21305C49.5643 7.85084 49.0506 7.77779 48.6882 8.04918C45.2239 10.6475 46.4783 20.9329 46.7118 22.6304C46.7184 22.6783 46.7208 22.7206 46.7202 22.7689C46.6509 28.133 42.2654 32.4753 36.8851 32.4753C31.4613 32.4753 27.049 28.063 27.049 22.6393C27.049 20.0253 28.0634 17.564 29.9053 15.7089C30.2242 15.3878 30.2223 14.8687 29.9011 14.5497C29.5799 14.2309 29.061 14.2327 28.7418 14.5539C26.5932 16.7181 25.4097 19.5895 25.4097 22.6393C25.4097 28.9669 30.5574 34.1147 36.8851 34.1147C43.2127 34.1147 48.3605 28.9669 48.3605 22.6393C48.3605 22.6005 48.3576 22.5619 48.3522 22.5235C47.7449 18.2724 47.5662 10.94 49.672 9.3607C50.034 9.08912 50.1074 8.57525 49.8358 8.21305Z" fill="url(#paint3_linear_917_84559)"/>
<path d="M36.8854 18.541C34.6256 18.541 32.7871 20.3795 32.7871 22.6394C32.7871 24.8992 34.6256 26.7377 36.8854 26.7377C39.1453 26.7377 40.9838 24.8992 40.9838 22.6394C40.9838 20.3795 39.1453 18.541 36.8854 18.541ZM36.8854 25.0983C35.5295 25.0983 34.4265 23.9953 34.4265 22.6394C34.4265 21.2834 35.5295 20.1804 36.8854 20.1804C38.2414 20.1804 39.3444 21.2834 39.3444 22.6394C39.3444 23.9953 38.2414 25.0983 36.8854 25.0983Z" fill="url(#paint4_linear_917_84559)"/>
<path d="M36.885 24.2787C37.7904 24.2787 38.5243 23.5447 38.5243 22.6394C38.5243 21.734 37.7904 21 36.885 21C35.9796 21 35.2456 21.734 35.2456 22.6394C35.2456 23.5447 35.9796 24.2787 36.885 24.2787Z" fill="url(#paint5_linear_917_84559)"/>
</g>
<defs>
<linearGradient id="paint0_linear_917_84559" x1="12.2951" y1="7.88525" x2="12.2951" y2="34.1145" gradientUnits="userSpaceOnUse">
<stop stop-color="#D11AFF"/>
<stop offset="1" stop-color="#3D70F1"/>
</linearGradient>
<linearGradient id="paint1_linear_917_84559" x1="11.4753" y1="18.541" x2="11.4753" y2="26.7377" gradientUnits="userSpaceOnUse">
<stop stop-color="#D11AFF"/>
<stop offset="1" stop-color="#3D70F1"/>
</linearGradient>
<linearGradient id="paint2_linear_917_84559" x1="11.4753" y1="21" x2="11.4753" y2="24.2787" gradientUnits="userSpaceOnUse">
<stop stop-color="#D11AFF"/>
<stop offset="1" stop-color="#3D70F1"/>
</linearGradient>
<linearGradient id="paint3_linear_917_84559" x1="37.7047" y1="7.88525" x2="37.7047" y2="34.1147" gradientUnits="userSpaceOnUse">
<stop stop-color="#D11AFF"/>
<stop offset="1" stop-color="#3D70F1"/>
</linearGradient>
<linearGradient id="paint4_linear_917_84559" x1="36.8854" y1="18.541" x2="36.8854" y2="26.7377" gradientUnits="userSpaceOnUse">
<stop stop-color="#D11AFF"/>
<stop offset="1" stop-color="#3D70F1"/>
</linearGradient>
<linearGradient id="paint5_linear_917_84559" x1="36.885" y1="21" x2="36.885" y2="24.2787" gradientUnits="userSpaceOnUse">
<stop stop-color="#D11AFF"/>
<stop offset="1" stop-color="#3D70F1"/>
</linearGradient>
<clipPath id="clip0_917_84559">
<rect width="50" height="41" fill="white"/>
</clipPath>
</defs>
</svg>
