<svg width="174" height="236" viewBox="0 0 174 236" fill="none" xmlns="http://www.w3.org/2000/svg">
<g clip-path="url(#clip0_1011_261)">
<path style="mix-blend-mode:color-dodge" d="M131.5 187C132.318 187 133 187.682 133 188.5C133 189.318 132.318 190 131.5 190C130.682 190 130 189.318 130 188.5C130 187.682 130.682 187 131.5 187Z" fill="white"/>
<path style="mix-blend-mode:color-dodge" d="M102.649 151.729C103.244 151.729 103.724 152.209 103.724 152.803C103.724 153.397 103.244 153.876 102.649 153.876C102.055 153.876 101.575 153.397 101.575 152.803C101.575 152.209 102.055 151.729 102.649 151.729Z" fill="white"/>
<path style="mix-blend-mode:color-dodge" d="M132.323 116.961C132.941 116.961 133.421 117.463 133.421 118.057C133.421 118.651 132.918 119.154 132.323 119.154C131.729 119.154 131.226 118.651 131.226 118.057C131.226 117.463 131.706 116.961 132.323 116.961Z" fill="white"/>
<path style="mix-blend-mode:color-dodge" d="M76.0153 178.571C76.6326 178.571 77.1127 179.073 77.1127 179.667C77.1127 180.261 76.6097 180.764 76.0153 180.764C75.4209 180.764 74.918 180.261 74.918 179.667C74.918 179.073 75.4209 178.571 76.0153 178.571Z" fill="white"/>
<path style="mix-blend-mode:color-dodge" d="M135.5 202C136.327 202 137 202.673 137 203.5C137 204.327 136.327 205 135.5 205C134.673 205 134 204.327 134 203.5C134 202.673 134.673 202 135.5 202Z" fill="white"/>
<path style="mix-blend-mode:color-dodge" d="M54.4107 201.711C55.028 201.711 55.531 202.214 55.531 202.831C55.531 203.448 55.028 203.95 54.4107 203.95C53.7935 203.95 53.2905 203.448 53.2905 202.831C53.2905 202.214 53.7935 201.711 54.4107 201.711Z" fill="url(#paint0_radial_1011_261)"/>
<path style="mix-blend-mode:color-dodge" d="M85.5713 117.92C86.2026 117.92 86.7144 117.409 86.7144 116.778C86.7144 116.147 86.2026 115.636 85.5713 115.636C84.94 115.636 84.4282 116.147 84.4282 116.778C84.4282 117.409 84.94 117.92 85.5713 117.92Z" fill="white"/>
<path style="mix-blend-mode:color-dodge" d="M109.919 98.5256C110.559 98.5256 111.062 99.0282 111.062 99.6678C111.062 100.307 110.559 100.81 109.919 100.81C109.279 100.81 108.776 100.307 108.776 99.6678C108.776 99.0282 109.279 98.5256 109.919 98.5256Z" fill="white"/>
<path style="mix-blend-mode:color-dodge" d="M54.0679 131.238C54.708 131.238 55.211 131.741 55.211 132.38C55.211 133.02 54.708 133.522 54.0679 133.522C53.4278 133.522 52.9248 133.02 52.9248 132.38C52.9248 131.741 53.4278 131.238 54.0679 131.238Z" fill="url(#paint1_radial_1011_261)"/>
<path style="mix-blend-mode:color-dodge" d="M26.4971 163.288C27.1284 163.288 27.6402 162.777 27.6402 162.146C27.6402 161.515 27.1284 161.004 26.4971 161.004C25.8658 161.004 25.354 161.515 25.354 162.146C25.354 162.777 25.8658 163.288 26.4971 163.288Z" fill="white"/>
<path style="mix-blend-mode:color-dodge" d="M121.647 137.063C122.291 137.063 122.813 136.542 122.813 135.898C122.813 135.255 122.291 134.733 121.647 134.733C121.003 134.733 120.481 135.255 120.481 135.898C120.481 136.542 121.003 137.063 121.647 137.063Z" fill="white"/>
<path style="mix-blend-mode:color-dodge" d="M131.706 66.156C132.369 66.156 132.895 66.6814 132.895 67.3439C132.895 68.0064 132.369 68.5318 131.706 68.5318C131.043 68.5318 130.518 68.0064 130.518 67.3439C130.518 66.6814 131.043 66.156 131.706 66.156Z" fill="white"/>
<path style="mix-blend-mode:color-dodge" d="M94.8988 160.615C95.5617 160.615 96.0876 161.141 96.0876 161.803C96.0876 162.466 95.5617 162.991 94.8988 162.991C94.2358 162.991 93.71 162.466 93.71 161.803C93.71 161.141 94.2358 160.615 94.8988 160.615Z" fill="white"/>
<path style="mix-blend-mode:color-dodge" d="M73.5461 73.0776C74.2091 73.0776 74.7578 73.6259 74.7578 74.2884C74.7578 74.9508 74.2091 75.4991 73.5461 75.4991C72.8831 75.4991 72.3345 74.9508 72.3345 74.2884C72.3345 73.6259 72.8831 73.0776 73.5461 73.0776Z" fill="url(#paint2_radial_1011_261)"/>
<path style="mix-blend-mode:color-dodge" d="M89.1833 73.4659C89.8525 73.4659 90.395 72.9238 90.395 72.2552C90.395 71.5865 89.8525 71.0444 89.1833 71.0444C88.5142 71.0444 87.9717 71.5865 87.9717 72.2552C87.9717 72.9238 88.5142 73.4659 89.1833 73.4659Z" fill="white"/>
<path style="mix-blend-mode:color-dodge" d="M59.029 193.51C59.692 193.51 60.2407 194.059 60.2407 194.721C60.2407 195.384 59.692 195.932 59.029 195.932C58.3661 195.932 57.8174 195.384 57.8174 194.721C57.8174 194.059 58.3661 193.51 59.029 193.51Z" fill="white"/>
<path style="mix-blend-mode:color-dodge" d="M46.2722 81.9182C46.9352 81.9182 47.4839 82.4665 47.4839 83.1289C47.4839 83.7914 46.9352 84.3397 46.2722 84.3397C45.6092 84.3397 45.0605 83.7914 45.0605 83.1289C45.0605 82.4665 45.6092 81.9182 46.2722 81.9182Z" fill="white"/>
<path style="mix-blend-mode:color-dodge" d="M128.254 90.7359C128.923 90.7359 129.466 90.1938 129.466 89.5252C129.466 88.8565 128.923 88.3145 128.254 88.3145C127.585 88.3145 127.042 88.8565 127.042 89.5252C127.042 90.1938 127.585 90.7359 128.254 90.7359Z" fill="white"/>
<path style="mix-blend-mode:color-dodge" d="M100.431 107.892C101.094 107.892 101.643 108.44 101.643 109.102C101.643 109.765 101.094 110.313 100.431 110.313C99.7684 110.313 99.2197 109.765 99.2197 109.102C99.2197 108.44 99.7684 107.892 100.431 107.892Z" fill="url(#paint3_radial_1011_261)"/>
<path style="mix-blend-mode:color-dodge" d="M9.30493 116.435C9.97411 116.435 10.5166 115.893 10.5166 115.225C10.5166 114.556 9.97411 114.014 9.30493 114.014C8.63574 114.014 8.09326 114.556 8.09326 115.225C8.09326 115.893 8.63574 116.435 9.30493 116.435Z" fill="white"/>
<path style="mix-blend-mode:color-dodge" d="M66.4132 125.116C67.1076 125.116 67.6705 124.553 67.6705 123.859C67.6705 123.166 67.1076 122.603 66.4132 122.603C65.7187 122.603 65.1558 123.166 65.1558 123.859C65.1558 124.553 65.7187 125.116 66.4132 125.116Z" fill="white"/>
<path style="mix-blend-mode:color-dodge" d="M107.815 41.7358C108.501 41.7358 109.073 42.3069 109.073 42.9923C109.073 43.6776 108.501 44.2487 107.815 44.2487C107.13 44.2487 106.558 43.6776 106.558 42.9923C106.558 42.3069 107.13 41.7358 107.815 41.7358Z" fill="white"/>
<path style="mix-blend-mode:color-dodge" d="M26.337 153.351C27.0314 153.351 27.5944 152.788 27.5944 152.095C27.5944 151.401 27.0314 150.838 26.337 150.838C25.6425 150.838 25.0796 151.401 25.0796 152.095C25.0796 152.788 25.6425 153.351 26.337 153.351Z" fill="white"/>
<path style="mix-blend-mode:color-dodge" d="M90.4638 78.7201C91.1709 78.7201 91.7441 78.1474 91.7441 77.4409C91.7441 76.7344 91.1709 76.1616 90.4638 76.1616C89.7568 76.1616 89.1836 76.7344 89.1836 77.4409C89.1836 78.1474 89.7568 78.7201 90.4638 78.7201Z" fill="white"/>
<path style="mix-blend-mode:color-dodge" d="M109.553 62.7065C110.262 62.7065 110.833 63.2776 110.833 63.9858C110.833 64.694 110.262 65.2651 109.553 65.2651C108.844 65.2651 108.273 64.694 108.273 63.9858C108.273 63.2776 108.844 62.7065 109.553 62.7065Z" fill="url(#paint4_radial_1011_261)"/>
<path style="mix-blend-mode:color-dodge" d="M65.7959 192.003C66.5046 192.003 67.0761 192.574 67.0761 193.282C67.0761 193.99 66.5046 194.561 65.7959 194.561C65.0872 194.561 64.5156 193.99 64.5156 193.282C64.5156 192.574 65.0872 192.003 65.7959 192.003Z" fill="url(#paint5_radial_1011_261)"/>
<path style="mix-blend-mode:color-dodge" d="M58.5034 86.464C59.2105 86.464 59.7836 85.8913 59.7836 85.1848C59.7836 84.4783 59.2105 83.9055 58.5034 83.9055C57.7963 83.9055 57.2231 84.4783 57.2231 85.1848C57.2231 85.8913 57.7963 86.464 58.5034 86.464Z" fill="white"/>
<path style="mix-blend-mode:color-dodge" d="M112.662 156.275C113.371 156.275 113.966 156.846 113.966 157.577C113.966 158.308 113.394 158.879 112.662 158.879C111.931 158.879 111.359 158.308 111.359 157.577C111.359 156.846 111.931 156.275 112.662 156.275Z" fill="url(#paint6_radial_1011_261)"/>
<path style="mix-blend-mode:color-dodge" d="M125.625 35.9106C126.356 35.9106 126.951 36.5046 126.951 37.2356C126.951 37.9666 126.356 38.5605 125.625 38.5605C124.893 38.5605 124.299 37.9666 124.299 37.2356C124.299 36.5046 124.893 35.9106 125.625 35.9106Z" fill="white"/>
<path style="mix-blend-mode:color-dodge" d="M10.928 103.003C11.6603 103.003 12.254 102.41 12.254 101.678C12.254 100.946 11.6603 100.353 10.928 100.353C10.1957 100.353 9.60205 100.946 9.60205 101.678C9.60205 102.41 10.1957 103.003 10.928 103.003Z" fill="white"/>
<path style="mix-blend-mode:color-dodge" d="M112.502 110.564C113.257 110.564 113.851 111.181 113.851 111.912C113.851 112.643 113.234 113.26 112.502 113.26C111.771 113.26 111.153 112.643 111.153 111.912C111.153 111.181 111.771 110.564 112.502 110.564Z" fill="white"/>
<path style="mix-blend-mode:color-dodge" d="M73.2946 131.284C74.0521 131.284 74.6663 130.67 74.6663 129.913C74.6663 129.156 74.0521 128.542 73.2946 128.542C72.537 128.542 71.9229 129.156 71.9229 129.913C71.9229 130.67 72.537 131.284 73.2946 131.284Z" fill="white"/>
<path style="mix-blend-mode:color-dodge" d="M22.4273 152.049C23.2046 152.049 23.8218 152.666 23.8218 153.442C23.8218 154.219 23.2046 154.836 22.4273 154.836C21.65 154.836 21.0327 154.219 21.0327 153.442C21.0327 152.666 21.65 152.049 22.4273 152.049Z" fill="url(#paint7_radial_1011_261)"/>
<path style="mix-blend-mode:color-dodge" d="M69.5684 192.962C70.3457 192.962 70.963 193.579 70.963 194.356C70.963 195.132 70.3457 195.749 69.5684 195.749C68.7911 195.749 68.1738 195.132 68.1738 194.356C68.1738 193.579 68.7911 192.962 69.5684 192.962Z" fill="white"/>
<path style="mix-blend-mode:color-dodge" d="M115.452 165.275C116.222 165.275 116.846 164.652 116.846 163.882C116.846 163.112 116.222 162.489 115.452 162.489C114.681 162.489 114.057 163.112 114.057 163.882C114.057 164.652 114.681 165.275 115.452 165.275Z" fill="white"/>
<path style="mix-blend-mode:color-dodge" d="M60.7437 98.8455C61.521 98.8455 62.1382 99.4622 62.1382 100.239C62.1382 101.016 61.521 101.632 60.7437 101.632C59.9664 101.632 59.3491 101.016 59.3491 100.239C59.3491 99.4622 59.9664 98.8455 60.7437 98.8455Z" fill="white"/>
<path style="mix-blend-mode:color-dodge" d="M98.2368 76.5498C99.0141 76.5498 99.6314 77.1894 99.6314 77.9433C99.6314 78.6971 98.9913 79.3368 98.2368 79.3368C97.4824 79.3368 96.8423 78.6971 96.8423 77.9433C96.8423 77.1894 97.4824 76.5498 98.2368 76.5498Z" fill="white"/>
<path style="mix-blend-mode:color-dodge" d="M124.985 45.231C125.762 45.231 126.402 45.8706 126.402 46.6473C126.402 47.424 125.762 48.0636 124.985 48.0636C124.208 48.0636 123.567 47.424 123.567 46.6473C123.567 45.8706 124.208 45.231 124.985 45.231Z" fill="url(#paint8_radial_1011_261)"/>
<path style="mix-blend-mode:color-dodge" d="M4.43531 104.899C5.24339 104.899 5.89846 104.245 5.89846 103.437C5.89846 102.63 5.24339 101.975 4.43531 101.975C3.62724 101.975 2.97217 102.63 2.97217 103.437C2.97217 104.245 3.62724 104.899 4.43531 104.899Z" fill="white"/>
<path style="mix-blend-mode:color-dodge" d="M117.006 151.958C117.829 151.958 118.492 152.62 118.492 153.442C118.492 154.265 117.829 154.927 117.006 154.927C116.183 154.927 115.52 154.265 115.52 153.442C115.52 152.62 116.183 151.958 117.006 151.958Z" fill="white"/>
<path style="mix-blend-mode:color-dodge" d="M111.862 108.303C112.683 108.303 113.348 107.638 113.348 106.818C113.348 105.998 112.683 105.333 111.862 105.333C111.042 105.333 110.376 105.998 110.376 106.818C110.376 107.638 111.042 108.303 111.862 108.303Z" fill="white"/>
<path style="mix-blend-mode:color-dodge" d="M67.4649 130.827C68.2879 130.827 68.9738 131.512 68.9738 132.335C68.9738 133.157 68.2879 133.842 67.4649 133.842C66.6419 133.842 65.9561 133.157 65.9561 132.335C65.9561 131.512 66.6419 130.827 67.4649 130.827Z" fill="white"/>
<path style="mix-blend-mode:color-dodge" d="M15.5005 154.516C16.3464 154.516 17.0322 153.831 17.0322 152.986C17.0322 152.14 16.3464 151.455 15.5005 151.455C14.6545 151.455 13.9688 152.14 13.9688 152.986C13.9688 153.831 14.6545 154.516 15.5005 154.516Z" fill="white"/>
<path style="mix-blend-mode:color-dodge" d="M71.3516 179.941C72.1974 179.941 72.8833 180.626 72.8833 181.472C72.8833 182.317 72.1974 183.002 71.3516 183.002C70.5057 183.002 69.8198 182.317 69.8198 181.472C69.8198 180.626 70.5057 179.941 71.3516 179.941Z" fill="white"/>
<path style="mix-blend-mode:color-dodge" d="M46.9809 94.825C47.8267 94.825 48.5355 95.5103 48.5355 96.3783C48.5355 97.2464 47.8496 97.9317 46.9809 97.9317C46.1121 97.9317 45.4263 97.2464 45.4263 96.3783C45.4263 95.5103 46.1121 94.825 46.9809 94.825Z" fill="white"/>
<path style="mix-blend-mode:color-dodge" d="M94.7846 63.4604C95.6533 63.4604 96.3392 64.1686 96.3392 65.0138C96.3392 65.8591 95.6533 66.5672 94.7846 66.5672C93.9158 66.5672 93.23 65.8591 93.23 65.0138C93.23 64.1686 93.9387 63.4604 94.7846 63.4604Z" fill="white"/>
<path style="mix-blend-mode:color-dodge" d="M114.446 148.417C115.314 148.417 116.023 149.125 116.023 149.993C116.023 150.861 115.314 151.569 114.446 151.569C113.577 151.569 112.868 150.861 112.868 149.993C112.868 149.125 113.577 148.417 114.446 148.417Z" fill="white"/>
<path style="mix-blend-mode:color-dodge" d="M91.4924 72.9635C92.3762 72.9635 93.0927 72.2476 93.0927 71.3644C93.0927 70.4813 92.3762 69.7654 91.4924 69.7654C90.6086 69.7654 89.8921 70.4813 89.8921 71.3644C89.8921 72.2476 90.6086 72.9635 91.4924 72.9635Z" fill="white"/>
<path style="mix-blend-mode:color-dodge" d="M59.7149 114.905C60.6065 114.905 61.3609 115.636 61.3609 116.527C61.3609 117.418 60.6294 118.171 59.7149 118.171C58.8004 118.171 58.0688 117.44 58.0688 116.527C58.0688 115.613 58.8004 114.905 59.7149 114.905Z" fill="url(#paint9_radial_1011_261)"/>
<path style="mix-blend-mode:color-dodge" d="M73.0887 187.617C74.0231 187.617 74.7805 186.86 74.7805 185.926C74.7805 184.993 74.0231 184.236 73.0887 184.236C72.1544 184.236 71.397 184.993 71.397 185.926C71.397 186.86 72.1544 187.617 73.0887 187.617Z" fill="white"/>
<path style="mix-blend-mode:color-dodge" d="M135.09 101.633C136.027 101.633 136.781 102.386 136.781 103.323C136.781 104.26 136.027 105.013 135.09 105.013C134.152 105.013 133.398 104.26 133.398 103.323C133.398 102.386 134.152 101.633 135.09 101.633Z" fill="white"/>
<path style="mix-blend-mode:color-dodge" d="M60.995 38.8575C61.9293 38.8575 62.6867 38.1006 62.6867 37.167C62.6867 36.2334 61.9293 35.4766 60.995 35.4766C60.0606 35.4766 59.3032 36.2334 59.3032 37.167C59.3032 38.1006 60.0606 38.8575 60.995 38.8575Z" fill="white"/>
<path style="mix-blend-mode:color-dodge" d="M12.4369 138.525C13.3742 138.525 14.1286 139.279 14.1286 140.216C14.1286 141.152 13.3742 141.906 12.4369 141.906C11.4996 141.906 10.7451 141.152 10.7451 140.216C10.7451 139.279 11.4996 138.525 12.4369 138.525Z" fill="white"/>
<path style="mix-blend-mode:color-dodge" d="M20.8045 80.7303C21.7514 80.7303 22.5191 79.9632 22.5191 79.017C22.5191 78.0708 21.7514 77.3037 20.8045 77.3037C19.8575 77.3037 19.0898 78.0708 19.0898 79.017C19.0898 79.9632 19.8575 80.7303 20.8045 80.7303Z" fill="white"/>
<path style="mix-blend-mode:color-dodge" d="M78.5071 43.1978C79.4541 43.1978 80.2217 42.4308 80.2217 41.4845C80.2217 40.5383 79.4541 39.7712 78.5071 39.7712C77.5601 39.7712 76.7925 40.5383 76.7925 41.4845C76.7925 42.4308 77.5601 43.1978 78.5071 43.1978Z" fill="white"/>
<path style="mix-blend-mode:color-dodge" d="M111.679 140.81C112.639 140.81 113.417 140.032 113.417 139.074C113.417 138.115 112.639 137.337 111.679 137.337C110.72 137.337 109.942 138.115 109.942 139.074C109.942 140.032 110.72 140.81 111.679 140.81Z" fill="white"/>
<path style="mix-blend-mode:color-dodge" d="M52.4907 102.386C53.4756 102.386 54.2739 101.589 54.2739 100.605C54.2739 99.6205 53.4756 98.8228 52.4907 98.8228C51.5059 98.8228 50.7075 99.6205 50.7075 100.605C50.7075 101.589 51.5059 102.386 52.4907 102.386Z" fill="white"/>
<path style="mix-blend-mode:color-dodge" d="M93.367 181.175C94.3771 181.175 95.1959 180.357 95.1959 179.347C95.1959 178.338 94.3771 177.52 93.367 177.52C92.3569 177.52 91.5381 178.338 91.5381 179.347C91.5381 180.357 92.3569 181.175 93.367 181.175Z" fill="white"/>
<path style="mix-blend-mode:color-dodge" d="M9.67055 132.106C10.6993 132.106 11.5452 132.951 11.5452 133.979C11.5452 135.007 10.6993 135.853 9.67055 135.853C8.64178 135.853 7.7959 135.007 7.7959 133.979C7.7959 132.951 8.64178 132.106 9.67055 132.106Z" fill="url(#paint10_radial_1011_261)"/>
<path style="mix-blend-mode:color-dodge" d="M66.9393 82.4436C68.0138 82.4436 68.8826 83.3117 68.8826 84.3853C68.8826 85.459 68.0138 86.3271 66.9393 86.3271C65.8648 86.3271 64.9961 85.459 64.9961 84.3853C64.9961 83.3117 65.8648 82.4436 66.9393 82.4436Z" fill="white"/>
<path style="mix-blend-mode:color-dodge" d="M132.621 110.656C133.718 110.656 134.633 111.547 134.633 112.666C134.633 113.785 133.741 114.676 132.621 114.676C131.5 114.676 130.609 113.785 130.609 112.666C130.609 111.547 131.5 110.656 132.621 110.656Z" fill="url(#paint11_radial_1011_261)"/>
<path style="mix-blend-mode:color-dodge" d="M36.7845 121.278C37.9276 121.278 38.8649 122.215 38.8649 123.357C38.8649 124.499 37.9276 125.436 36.7845 125.436C35.6414 125.436 34.7041 124.499 34.7041 123.357C34.7041 122.215 35.6414 121.278 36.7845 121.278Z" fill="white"/>
<path style="mix-blend-mode:color-dodge" d="M132.095 159.245C133.238 159.245 134.175 160.181 134.175 161.323C134.175 162.466 133.238 163.402 132.095 163.402C130.951 163.402 130.014 162.466 130.014 161.323C130.014 160.181 130.951 159.245 132.095 159.245Z" fill="url(#paint12_radial_1011_261)"/>
<path style="mix-blend-mode:color-dodge" d="M4.09244 139.576C5.25839 139.576 6.21858 140.536 6.21858 141.701C6.21858 142.866 5.25839 143.825 4.09244 143.825C2.9265 143.825 1.96631 142.866 1.96631 141.701C1.96631 140.536 2.9265 139.576 4.09244 139.576Z" fill="white"/>
<path style="mix-blend-mode:color-dodge" d="M112.205 198.308C113.379 198.308 114.331 197.357 114.331 196.183C114.331 195.01 113.379 194.059 112.205 194.059C111.031 194.059 110.079 195.01 110.079 196.183C110.079 197.357 111.031 198.308 112.205 198.308Z" fill="white"/>
<path style="mix-blend-mode:color-dodge" d="M114.057 64.6482C115.269 64.6482 116.252 63.6664 116.252 62.4552C116.252 61.2441 115.269 60.2622 114.057 60.2622C112.845 60.2622 111.862 61.2441 111.862 62.4552C111.862 63.6664 112.845 64.6482 114.057 64.6482Z" fill="white"/>
<path style="mix-blend-mode:color-dodge" d="M90.1208 107.206C91.4339 107.206 92.4984 106.143 92.4984 104.831C92.4984 103.519 91.4339 102.455 90.1208 102.455C88.8077 102.455 87.7432 103.519 87.7432 104.831C87.7432 106.143 88.8077 107.206 90.1208 107.206Z" fill="white"/>
<path style="mix-blend-mode:color-dodge" d="M55.897 121.872C57.2229 121.872 58.3203 122.946 58.3203 124.294C58.3203 125.641 57.2458 126.715 55.897 126.715C54.5481 126.715 53.4736 125.641 53.4736 124.294C53.4736 122.946 54.5481 121.872 55.897 121.872Z" fill="url(#paint13_radial_1011_261)"/>
<g style="mix-blend-mode:color-dodge" opacity="0.9">
<path d="M131.324 188.257C131.324 188.257 131.459 188.125 131.541 188.122C131.718 188.098 131.861 188.213 131.886 188.39L135.689 203.632C135.689 203.632 135.675 203.785 135.639 203.843C135.59 203.921 135.503 203.975 135.421 203.977C135.244 204.002 135.101 203.886 135.076 203.71L131.274 188.467C131.274 188.467 131.288 188.315 131.324 188.257Z" fill="url(#paint14_linear_1011_261)"/>
</g>
<g style="mix-blend-mode:color-dodge" opacity="0.9">
<path d="M54.411 203.151C54.411 203.151 54.2738 203.151 54.2052 203.059C54.1138 202.991 54.1138 202.899 54.1138 202.854C54.1138 202.808 54.1138 202.717 54.2052 202.625L75.8095 179.461C75.8095 179.461 75.9924 179.37 76.0381 179.37C76.0838 179.37 76.1753 179.37 76.2438 179.461C76.3581 179.576 76.381 179.781 76.2438 179.896L54.6396 203.059C54.6396 203.059 54.4567 203.151 54.411 203.151Z" fill="url(#paint15_linear_1011_261)"/>
</g>
<g style="mix-blend-mode:color-dodge" opacity="0.9">
<path d="M102.649 153.1C102.649 153.1 102.489 153.1 102.42 153.008C102.352 152.917 102.329 152.826 102.352 152.78C102.352 152.734 102.352 152.643 102.443 152.574L121.441 135.67C121.441 135.67 121.601 135.601 121.647 135.601C121.693 135.601 121.807 135.601 121.876 135.716C121.99 135.853 121.967 136.035 121.853 136.15L102.832 153.054C102.832 153.054 102.695 153.123 102.626 153.123L102.649 153.1Z" fill="url(#paint16_linear_1011_261)"/>
</g>
<g style="mix-blend-mode:color-dodge" opacity="0.9">
<path d="M132.323 118.354C132.323 118.354 132.209 118.354 132.118 118.286L109.736 99.8964C109.599 99.7822 109.576 99.5994 109.69 99.4624C109.759 99.3938 109.828 99.3481 109.942 99.3481C109.988 99.3481 110.056 99.3481 110.148 99.4167L132.529 117.806C132.666 117.92 132.689 118.103 132.575 118.24C132.506 118.309 132.438 118.354 132.346 118.354H132.323Z" fill="url(#paint17_linear_1011_261)"/>
</g>
<g style="mix-blend-mode:color-dodge" opacity="0.9">
<path d="M85.5715 117.075C85.5715 117.075 85.4115 117.075 85.32 116.938C85.2286 116.801 85.2514 116.595 85.3886 116.504L109.759 99.3938C109.759 99.3938 109.896 99.3481 109.942 99.3481C110.033 99.3481 110.148 99.3938 110.193 99.4852C110.262 99.5766 110.262 99.668 110.239 99.7136C110.239 99.7593 110.193 99.8507 110.102 99.9192L85.7315 117.029C85.7315 117.029 85.5943 117.075 85.5486 117.075H85.5715Z" fill="url(#paint18_linear_1011_261)"/>
</g>
<g style="mix-blend-mode:color-dodge" opacity="0.9">
<path d="M54.0678 132.7C54.0678 132.7 53.8621 132.654 53.7935 132.517C53.7249 132.357 53.7935 132.175 53.9307 132.106L85.4112 116.481C85.4112 116.481 85.5026 116.458 85.5483 116.458C85.6398 116.458 85.7541 116.504 85.8227 116.641C85.8684 116.732 85.8455 116.824 85.8227 116.869C85.8227 116.915 85.777 117.006 85.6626 117.052L54.1822 132.677C54.1822 132.677 54.0907 132.7 54.045 132.7H54.0678Z" fill="url(#paint19_linear_1011_261)"/>
</g>
<g style="mix-blend-mode:color-dodge" opacity="0.9">
<path d="M26.5199 162.443C26.5199 162.443 26.3827 162.443 26.3141 162.351C26.2227 162.283 26.2227 162.191 26.2227 162.146C26.2227 162.1 26.2227 162.009 26.3141 161.917L53.8852 132.175C53.8852 132.175 54.0681 132.083 54.1139 132.083C54.1596 132.083 54.251 132.083 54.3196 132.175C54.4339 132.289 54.4568 132.494 54.3196 132.609L26.7485 162.351C26.7485 162.351 26.5656 162.443 26.5199 162.443Z" fill="url(#paint20_linear_1011_261)"/>
</g>
<g style="mix-blend-mode:color-dodge" opacity="0.9">
<path d="M76.015 179.987C76.015 179.987 75.8779 179.987 75.7864 179.896C75.6721 179.781 75.6721 179.576 75.7864 179.462L94.6701 161.598C94.6701 161.598 94.8302 161.506 94.8759 161.506C94.9216 161.506 95.0131 161.506 95.1045 161.598C95.1731 161.689 95.1959 161.78 95.1959 161.826C95.1959 161.872 95.1959 161.963 95.1045 162.032L76.2436 179.896C76.2436 179.896 76.0836 179.987 76.0379 179.987H76.015Z" fill="url(#paint21_linear_1011_261)"/>
</g>
<g style="mix-blend-mode:color-dodge" opacity="0.9">
<path d="M54.4108 203.151C54.4108 203.151 54.2965 203.151 54.2508 203.105C54.0907 203.014 54.045 202.831 54.1365 202.694L58.7545 194.584C58.7545 194.584 58.9145 194.424 59.0288 194.424C59.0746 194.424 59.1432 194.424 59.1889 194.47C59.3489 194.561 59.3946 194.744 59.3032 194.881L54.6851 202.991C54.6165 203.105 54.5022 203.151 54.4108 203.151Z" fill="url(#paint22_linear_1011_261)"/>
</g>
<g style="mix-blend-mode:color-dodge" opacity="0.9">
<path d="M26.4971 162.443C26.4971 162.443 26.2456 162.374 26.1999 162.237L9.0079 115.339C8.93932 115.179 9.03076 114.996 9.1908 114.95C9.23652 114.95 9.25938 114.95 9.3051 114.95C9.41941 114.95 9.55658 115.019 9.6023 115.156L26.7943 162.055C26.8628 162.214 26.7714 162.397 26.6114 162.443C26.5656 162.443 26.5428 162.443 26.4971 162.443Z" fill="url(#paint23_linear_1011_261)"/>
</g>
<g style="mix-blend-mode:color-dodge" opacity="0.9">
<path d="M121.647 136.218C121.647 136.218 121.464 136.172 121.396 136.104L100.18 109.331C100.089 109.194 100.111 109.011 100.226 108.897C100.294 108.851 100.363 108.828 100.409 108.828C100.5 108.828 100.591 108.874 100.66 108.943L121.876 135.716C121.876 135.716 121.944 135.898 121.944 135.944C121.944 135.99 121.921 136.081 121.83 136.15C121.761 136.195 121.693 136.218 121.647 136.218Z" fill="url(#paint24_linear_1011_261)"/>
</g>
<g style="mix-blend-mode:color-dodge" opacity="0.9">
<path d="M128.208 89.8451C128.048 89.8222 127.934 89.6623 127.957 89.4795L131.409 67.2982C131.432 67.1611 131.569 67.0469 131.706 67.0469C131.866 67.0469 131.935 67.1382 131.958 67.1611C131.981 67.2068 132.026 67.2753 132.026 67.3895L128.574 89.5709C128.551 89.7308 128.414 89.8222 128.277 89.8222H128.231L128.208 89.8451Z" fill="url(#paint25_linear_1011_261)"/>
</g>
<g style="mix-blend-mode:color-dodge" opacity="0.9">
<path d="M26.4967 162.443C26.3367 162.443 26.1995 162.306 26.1766 162.146L26.0166 152.094C26.0166 151.935 26.1538 151.775 26.3138 151.775C26.4967 151.775 26.6339 151.912 26.6339 152.072L26.7939 162.123C26.7939 162.283 26.6567 162.443 26.4967 162.443Z" fill="url(#paint26_linear_1011_261)"/>
</g>
<g style="mix-blend-mode:color-dodge" opacity="0.9">
<path d="M73.5462 74.5854C73.3862 74.5854 73.249 74.4712 73.249 74.3113C73.249 74.1514 73.3405 73.9915 73.5234 73.9687L89.1607 71.9355C89.3436 71.9355 89.4579 72.0498 89.4808 72.2097C89.5036 72.3696 89.3893 72.5295 89.2293 72.5523L73.5691 74.5854H73.5462Z" fill="url(#paint27_linear_1011_261)"/>
</g>
<g style="mix-blend-mode:color-dodge" opacity="0.9">
<path d="M46.295 83.426C46.295 83.426 46.0435 83.3574 45.9978 83.2204C45.9521 83.0605 46.0207 82.8777 46.1807 82.832L73.4318 73.9915C73.4318 73.9915 73.4546 73.9915 73.4775 73.9915C73.6375 73.9915 73.7747 74.06 73.8204 74.1971C73.8661 74.3113 73.8204 74.4027 73.8204 74.4255C73.8204 74.4712 73.7518 74.5397 73.6375 74.5854L46.3864 83.426H46.3179H46.295Z" fill="url(#paint28_linear_1011_261)"/>
</g>
<g style="mix-blend-mode:color-dodge" opacity="0.9">
<path d="M66.4135 124.156C66.2992 124.156 66.1849 124.088 66.1163 123.974C66.0477 123.814 66.1163 123.631 66.2764 123.563L100.294 108.828C100.294 108.828 100.363 108.805 100.409 108.805C100.523 108.805 100.637 108.874 100.683 108.988C100.729 109.102 100.683 109.171 100.683 109.217C100.683 109.262 100.615 109.354 100.523 109.377L66.505 124.111C66.505 124.111 66.4364 124.134 66.3907 124.134L66.4135 124.156Z" fill="url(#paint29_linear_1011_261)"/>
</g>
<g style="mix-blend-mode:color-dodge" opacity="0.9">
<path d="M90.4636 77.7377C90.3264 77.7377 90.1892 77.6464 90.1664 77.5093L88.8861 72.3238C88.8404 72.1638 88.9547 72.0039 89.1147 71.9583C89.1147 71.9583 89.1148 71.9583 89.1376 71.9583C89.3434 71.9583 89.4577 72.0496 89.4805 72.1867L90.7608 77.3722C90.7608 77.3722 90.7608 77.555 90.7151 77.6007C90.6922 77.6464 90.6236 77.7149 90.5322 77.7377H90.4636Z" fill="url(#paint30_linear_1011_261)"/>
</g>
<g style="mix-blend-mode:color-dodge" opacity="0.9">
<path d="M94.8987 162.1C94.7615 162.1 94.6243 162.009 94.6015 161.872C94.5557 161.712 94.67 161.529 94.8301 161.506L112.594 157.257H112.616C112.822 157.257 112.937 157.349 112.959 157.486C112.982 157.6 112.959 157.669 112.914 157.714C112.891 157.76 112.822 157.828 112.731 157.851L94.9673 162.1H94.8987Z" fill="url(#paint31_linear_1011_261)"/>
</g>
<g style="mix-blend-mode:color-dodge" opacity="0.9">
<path d="M59.029 195.041C58.8919 195.041 58.7547 194.927 58.7318 194.79C58.6861 194.63 58.8004 194.447 58.9605 194.424L65.7275 193.008C65.9333 193.008 66.0476 193.099 66.0704 193.259C66.0933 193.419 66.0018 193.602 65.8418 193.625L59.0748 195.064H59.0062L59.029 195.041Z" fill="url(#paint32_linear_1011_261)"/>
</g>
<g style="mix-blend-mode:color-dodge" opacity="0.9">
<path d="M100.431 109.422C100.294 109.422 100.18 109.331 100.134 109.194L90.1666 77.5094C90.1208 77.3495 90.2123 77.1896 90.3723 77.1211H90.418C90.6009 77.1211 90.7152 77.1896 90.761 77.3267L100.729 109.011C100.729 109.011 100.729 109.217 100.729 109.24C100.729 109.262 100.66 109.354 100.546 109.399H100.454L100.431 109.422Z" fill="url(#paint33_linear_1011_261)"/>
</g>
<g style="mix-blend-mode:color-dodge" opacity="0.9">
<path d="M58.4575 85.4818L46.2266 83.4259C46.0665 83.403 45.9522 83.2431 45.9751 83.0832C45.9979 82.9233 46.1351 82.8091 46.2723 82.8091L58.549 84.865C58.709 84.8879 58.8233 85.0478 58.8005 85.2077C58.7776 85.3676 58.6404 85.4818 58.5033 85.4818H58.4575Z" fill="url(#paint34_linear_1011_261)"/>
</g>
<g style="mix-blend-mode:color-dodge" opacity="0.9">
<path d="M109.553 64.3055C109.393 64.3055 109.256 64.1913 109.233 64.0085L107.496 42.9922C107.496 42.8323 107.61 42.6724 107.77 42.6724C107.953 42.6724 108.09 42.7866 108.113 42.9465L109.85 63.94C109.85 64.0999 109.736 64.2598 109.576 64.2827H109.553V64.3055Z" fill="url(#paint35_linear_1011_261)"/>
</g>
<g style="mix-blend-mode:color-dodge" opacity="0.9">
<path d="M66.4134 124.157C66.2763 124.157 66.1391 124.042 66.1162 123.905L58.2061 85.2534C58.1832 85.0935 58.2747 84.9336 58.4576 84.8879C58.6633 84.8879 58.7776 84.9793 58.8005 85.1164L66.7106 123.768C66.7335 123.928 66.642 124.088 66.4591 124.134H66.3906L66.4134 124.157Z" fill="url(#paint36_linear_1011_261)"/>
</g>
<g style="mix-blend-mode:color-dodge" opacity="0.9">
<path d="M9.28215 115.544C9.28215 115.544 9.09926 115.476 9.0764 115.43C9.05354 115.384 9.00781 115.316 9.00781 115.202L10.6081 101.655C10.6081 101.495 10.7682 101.381 10.9053 101.381C11.1111 101.381 11.2254 101.564 11.2254 101.724L9.62508 115.27C9.62508 115.43 9.46505 115.544 9.32788 115.544H9.28215Z" fill="url(#paint37_linear_1011_261)"/>
</g>
<g style="mix-blend-mode:color-dodge" opacity="0.9">
<path d="M90.4867 77.7377C90.4867 77.7377 90.3038 77.692 90.2352 77.6006C90.1666 77.5093 90.1666 77.4179 90.1895 77.3722C90.2123 77.3265 90.2123 77.2351 90.3038 77.1666L109.37 63.7344C109.37 63.7344 109.508 63.6887 109.553 63.6887C109.668 63.6887 109.759 63.7344 109.805 63.8258C109.873 63.9172 109.873 64.0085 109.85 64.0542C109.85 64.0999 109.805 64.1913 109.713 64.2598L90.6238 77.692C90.6238 77.692 90.5324 77.7377 90.4638 77.7377H90.4867Z" fill="url(#paint38_linear_1011_261)"/>
</g>
<g style="mix-blend-mode:color-dodge" opacity="0.9">
<path d="M58.5029 85.4818C58.3658 85.4818 58.2286 85.3904 58.2057 85.2534C58.1829 85.1392 58.2057 85.0478 58.2515 85.0249C58.2743 84.9792 58.3429 84.9107 58.4344 84.8879L90.395 77.1438C90.395 77.1438 90.3949 77.1438 90.4178 77.1438C90.6236 77.1438 90.7379 77.2352 90.7607 77.3722C90.8065 77.5321 90.6921 77.7149 90.5321 77.7606L58.5715 85.5047H58.5029V85.4818Z" fill="url(#paint39_linear_1011_261)"/>
</g>
<g style="mix-blend-mode:color-dodge" opacity="0.9">
<path d="M107.816 43.2892C107.816 43.2892 107.564 43.2206 107.518 43.0836C107.473 42.9694 107.518 42.878 107.518 42.8551C107.518 42.8095 107.587 42.7409 107.701 42.6952L125.51 36.9614C125.51 36.9614 125.533 36.9614 125.556 36.9614C125.716 36.9614 125.853 37.03 125.899 37.167C125.945 37.2812 125.899 37.3726 125.899 37.3955C125.899 37.4411 125.831 37.5097 125.716 37.5554L107.907 43.2892H107.816Z" fill="url(#paint40_linear_1011_261)"/>
</g>
<g style="mix-blend-mode:color-dodge" opacity="0.9">
<path d="M22.4274 153.739C22.4274 153.739 22.1759 153.671 22.1302 153.534C22.0845 153.42 22.1302 153.351 22.1302 153.305C22.1302 153.26 22.1988 153.191 22.3131 153.145L26.2224 151.798C26.2224 151.798 26.2681 151.798 26.291 151.798C26.4739 151.798 26.5882 151.866 26.6339 152.003C26.6797 152.163 26.6111 152.346 26.451 152.392L22.5417 153.739H22.4502H22.4274Z" fill="url(#paint41_linear_1011_261)"/>
</g>
<g style="mix-blend-mode:color-dodge" opacity="0.9">
<path d="M69.568 194.675C69.568 194.675 69.5222 194.675 69.4765 194.675L65.7043 193.625C65.5443 193.579 65.4529 193.396 65.4986 193.236C65.5443 193.099 65.6586 193.008 65.7958 193.008L69.6365 194.081C69.7966 194.127 69.888 194.31 69.8423 194.47C69.7966 194.607 69.6823 194.698 69.5451 194.698L69.568 194.675Z" fill="url(#paint42_linear_1011_261)"/>
</g>
<g style="mix-blend-mode:color-dodge" opacity="0.9">
<path d="M115.452 164.202C115.337 164.202 115.223 164.133 115.154 164.019L112.365 157.691C112.297 157.531 112.365 157.372 112.525 157.28C112.571 157.28 112.617 157.257 112.663 157.257C112.777 157.257 112.891 157.326 112.937 157.44L115.726 163.745C115.795 163.905 115.726 164.088 115.566 164.156C115.52 164.156 115.475 164.179 115.452 164.179V164.202Z" fill="url(#paint43_linear_1011_261)"/>
</g>
<g style="mix-blend-mode:color-dodge" opacity="0.9">
<path d="M112.503 112.209C112.388 112.209 112.274 112.141 112.205 112.027L97.9397 78.0577C97.8939 77.9206 97.9397 77.7379 98.0997 77.6693C98.1454 77.6693 98.1911 77.6465 98.214 77.6465C98.3283 77.6465 98.4426 77.715 98.4883 77.8292L112.754 111.775C112.823 111.935 112.754 112.118 112.594 112.186C112.548 112.186 112.525 112.209 112.48 112.209H112.503Z" fill="url(#paint44_linear_1011_261)"/>
</g>
<g style="mix-blend-mode:color-dodge" opacity="0.9">
<path d="M4.43544 103.734C4.29827 103.734 4.18396 103.643 4.13823 103.506C4.09251 103.346 4.18396 103.163 4.34399 103.117L10.8138 101.358H10.8367C11.0425 101.358 11.1568 101.45 11.1796 101.587C11.2025 101.701 11.1796 101.77 11.1568 101.815C11.1339 101.861 11.0882 101.93 10.9739 101.952L4.50402 103.711H4.43544V103.734Z" fill="url(#paint45_linear_1011_261)"/>
</g>
<g style="mix-blend-mode:color-dodge" opacity="0.9">
<path d="M73.2946 130.21C73.1803 130.21 73.066 130.141 72.9974 130.027L60.4692 100.353C60.4692 100.353 60.4692 100.17 60.4692 100.125C60.4692 100.079 60.5378 99.9876 60.6293 99.9647C60.675 99.9647 60.6979 99.9419 60.7436 99.9419C60.8579 99.9419 60.9722 100.01 61.0408 100.125L73.569 129.799C73.569 129.799 73.569 129.982 73.569 130.027C73.569 130.073 73.5004 130.141 73.4089 130.187C73.3632 130.187 73.3403 130.21 73.2946 130.21Z" fill="url(#paint46_linear_1011_261)"/>
</g>
<g style="mix-blend-mode:color-dodge" opacity="0.9">
<path d="M60.7663 100.559C60.7663 100.559 60.5605 100.513 60.4919 100.399C60.4005 100.262 60.4462 100.056 60.6062 99.9648L98.0765 77.6692C98.0765 77.6692 98.1679 77.6235 98.2365 77.6235C98.3508 77.6235 98.4423 77.6692 98.5108 77.7834C98.5794 77.8748 98.5566 77.9662 98.5337 78.0119C98.5337 78.0576 98.488 78.1489 98.3965 78.1946L60.9263 100.49C60.9263 100.49 60.8348 100.536 60.7663 100.536V100.559Z" fill="url(#paint47_linear_1011_261)"/>
</g>
<g style="mix-blend-mode:color-dodge" opacity="0.9">
<path d="M98.2365 78.2631C98.2365 78.2631 98.0993 78.2631 98.0307 78.1946C97.8936 78.0804 97.8936 77.8976 98.0079 77.7606L124.756 46.4416C124.756 46.4416 124.939 46.3274 124.985 46.3274C125.03 46.3274 125.122 46.3274 125.19 46.3959C125.282 46.4645 125.305 46.5558 125.305 46.6015C125.305 46.6472 125.305 46.7386 125.236 46.83L98.488 78.1489C98.488 78.1489 98.3051 78.2631 98.2594 78.2631H98.2365Z" fill="url(#paint48_linear_1011_261)"/>
</g>
<g style="mix-blend-mode:color-dodge" opacity="0.9">
<path d="M112.502 112.209C112.342 112.209 112.205 112.095 112.182 111.935L111.542 106.841C111.542 106.681 111.633 106.521 111.816 106.498C111.999 106.498 112.136 106.613 112.159 106.772L112.799 111.867C112.799 112.027 112.708 112.186 112.525 112.209H112.479H112.502Z" fill="url(#paint49_linear_1011_261)"/>
</g>
<g style="mix-blend-mode:color-dodge" opacity="0.9">
<path d="M22.4276 153.739C22.4276 153.739 22.1761 153.671 22.1304 153.534L4.13827 103.528C4.06969 103.369 4.16114 103.186 4.32117 103.14C4.36689 103.14 4.38975 103.14 4.43548 103.14C4.54978 103.14 4.68695 103.209 4.73268 103.346L22.7248 153.328C22.7705 153.488 22.7019 153.671 22.5419 153.716C22.519 153.716 22.4733 153.716 22.4276 153.716V153.739Z" fill="url(#paint50_linear_1011_261)"/>
</g>
<g style="mix-blend-mode:color-dodge" opacity="0.9">
<path d="M115.406 164.179C115.246 164.156 115.109 163.996 115.131 163.836L116.686 153.397C116.686 153.26 116.846 153.146 116.983 153.146C117.189 153.168 117.326 153.328 117.303 153.511L115.749 163.951C115.749 164.088 115.589 164.202 115.451 164.202H115.406V164.179Z" fill="url(#paint51_linear_1011_261)"/>
</g>
<g style="mix-blend-mode:color-dodge" opacity="0.9">
<path d="M67.4648 132.654C67.3276 132.654 67.2362 132.586 67.1676 132.472C67.099 132.312 67.1676 132.129 67.3276 132.061L73.1573 129.639C73.1573 129.639 73.2259 129.616 73.2717 129.616C73.386 129.616 73.5003 129.685 73.5689 129.799C73.6374 129.959 73.5689 130.142 73.4088 130.21L67.5791 132.632C67.5791 132.632 67.5105 132.654 67.4648 132.654Z" fill="url(#paint52_linear_1011_261)"/>
</g>
<g style="mix-blend-mode:color-dodge" opacity="0.9">
<path d="M15.4777 153.282C15.4777 153.282 15.2948 153.214 15.2719 153.168C15.2491 153.123 15.1805 153.054 15.2033 152.94C15.2033 152.78 15.3405 152.643 15.5234 152.643L22.4733 153.1C22.4733 153.1 22.6562 153.168 22.6791 153.214C22.702 153.26 22.7705 153.328 22.7477 153.442C22.7477 153.602 22.6105 153.739 22.4276 153.739L15.4777 153.282Z" fill="url(#paint53_linear_1011_261)"/>
</g>
<g style="mix-blend-mode:color-dodge" opacity="0.9">
<path d="M69.5224 194.676C69.3624 194.653 69.2252 194.493 69.2481 194.333L71.0313 181.449C71.0313 181.289 71.1913 181.175 71.3285 181.175C71.5343 181.198 71.6714 181.358 71.6257 181.517L69.8425 194.401C69.8425 194.561 69.6825 194.676 69.5453 194.676H69.4996H69.5224Z" fill="url(#paint54_linear_1011_261)"/>
</g>
<g style="mix-blend-mode:color-dodge" opacity="0.9">
<path d="M111.862 107.138C111.725 107.138 111.611 107.069 111.565 106.932L94.4874 65.128C94.4188 64.9681 94.4874 64.7853 94.6475 64.7168C94.6932 64.7168 94.716 64.7168 94.7618 64.7168C94.8989 64.7168 94.9904 64.7853 95.059 64.8995L112.137 106.681C112.205 106.841 112.137 107.024 111.977 107.092C111.931 107.092 111.908 107.115 111.862 107.115V107.138Z" fill="url(#paint55_linear_1011_261)"/>
</g>
<g style="mix-blend-mode:color-dodge" opacity="0.9">
<path d="M117.029 153.762C117.029 153.762 116.846 153.717 116.777 153.648L114.217 150.199C114.126 150.062 114.148 149.879 114.286 149.765C114.354 149.719 114.423 149.696 114.468 149.696C114.56 149.696 114.651 149.742 114.72 149.81L117.28 153.26C117.372 153.397 117.349 153.602 117.212 153.694C117.143 153.739 117.075 153.762 117.029 153.762Z" fill="url(#paint56_linear_1011_261)"/>
</g>
<g style="mix-blend-mode:color-dodge" opacity="0.9">
<path d="M67.4651 132.654C67.4651 132.654 67.2593 132.586 67.1907 132.495L46.7067 96.5383C46.6152 96.3784 46.6838 96.1957 46.821 96.1043C46.8667 96.0814 46.9124 96.0586 46.981 96.0586C47.0725 96.0586 47.1868 96.1043 47.2554 96.2185L67.7394 132.175C67.7394 132.175 67.7851 132.358 67.7623 132.403C67.7623 132.449 67.7165 132.54 67.6251 132.586C67.5794 132.609 67.5336 132.632 67.4651 132.632V132.654Z" fill="url(#paint57_linear_1011_261)"/>
</g>
<g style="mix-blend-mode:color-dodge" opacity="0.9">
<path d="M42.7972 211.648C42.7972 211.648 42.66 211.648 42.5914 211.557C42.5 211.489 42.5 211.397 42.5 211.329C42.5 211.283 42.5 211.192 42.5914 211.1L71.1456 181.243C71.1456 181.243 71.3285 181.152 71.3743 181.152C71.42 181.152 71.5114 181.152 71.58 181.243C71.6943 181.357 71.7172 181.563 71.58 181.677L43.0258 211.534C43.0258 211.534 42.8429 211.626 42.7972 211.626V211.648Z" fill="url(#paint58_linear_1011_261)"/>
</g>
<g style="mix-blend-mode:color-dodge" opacity="0.9">
<path d="M67.4649 132.654C67.4649 132.654 67.2592 132.609 67.1906 132.472L59.4405 116.686C59.3719 116.527 59.4405 116.344 59.5776 116.275C59.6234 116.275 59.6691 116.252 59.7148 116.252C59.8063 116.252 59.9434 116.298 59.9892 116.435L67.7393 132.22C67.8078 132.38 67.7393 132.563 67.6021 132.632C67.5564 132.632 67.5106 132.654 67.4649 132.654Z" fill="url(#paint59_linear_1011_261)"/>
</g>
<g style="mix-blend-mode:color-dodge" opacity="0.9">
<path d="M91.5154 71.6612C91.5154 71.6612 91.4239 71.6612 91.3782 71.6384C91.2868 71.5927 91.241 71.5013 91.2182 71.4556C91.2182 71.4099 91.1953 71.3185 91.2182 71.2272L94.5102 64.8994C94.5102 64.8994 94.6931 64.7395 94.7846 64.7395C94.8303 64.7395 94.876 64.7395 94.9218 64.7623C95.0818 64.8309 95.1275 65.0365 95.0589 65.1735L91.7668 71.5013C91.7668 71.5013 91.584 71.6612 91.4925 71.6612H91.5154Z" fill="url(#paint60_linear_1011_261)"/>
</g>
<g style="mix-blend-mode:color-dodge" opacity="0.9">
<path d="M15.5002 153.282C15.363 153.282 15.2259 153.191 15.203 153.054L12.1396 140.284C12.0938 140.124 12.2081 139.964 12.3682 139.919C12.3682 139.919 12.3682 139.919 12.391 139.919C12.5968 139.919 12.7111 140.01 12.734 140.147L15.7974 152.917C15.8431 153.077 15.7288 153.237 15.5688 153.282H15.5002Z" fill="url(#paint61_linear_1011_261)"/>
</g>
<g style="mix-blend-mode:color-dodge" opacity="0.9">
<path d="M73.0891 186.223C72.9519 186.223 72.8376 186.155 72.7919 186.018L71.0544 181.586C70.9858 181.426 71.0544 181.243 71.2373 181.175C71.283 181.175 71.3059 181.175 71.3516 181.175C71.4888 181.175 71.6031 181.243 71.6488 181.38L73.3863 185.812C73.4549 185.972 73.3863 186.155 73.2034 186.2C73.1577 186.2 73.1348 186.2 73.0891 186.2V186.223Z" fill="url(#paint62_linear_1011_261)"/>
</g>
<g style="mix-blend-mode:color-dodge" opacity="0.9">
<path d="M46.9578 96.6982C46.9578 96.6982 46.8435 96.6982 46.7978 96.6525L20.6441 79.2912C20.5298 79.1998 20.4841 79.017 20.5755 78.88C20.6441 78.7886 20.7355 78.7429 20.8498 78.7429C20.9184 78.7429 20.9641 78.7429 21.0099 78.7886L47.1407 96.1499C47.2779 96.2413 47.3236 96.4241 47.2322 96.584C47.1636 96.6754 47.0722 96.721 46.9807 96.721L46.9578 96.6982Z" fill="url(#paint63_linear_1011_261)"/>
</g>
<g style="mix-blend-mode:color-dodge" opacity="0.9">
<path d="M91.4927 71.6614C91.3784 71.6614 91.2641 71.5928 91.2184 71.4786L78.2101 41.5988C78.1415 41.4389 78.2101 41.2562 78.3701 41.1876C78.4158 41.1876 78.4616 41.1648 78.4844 41.1648C78.5987 41.1648 78.713 41.2333 78.7816 41.3475L91.7899 71.2273C91.8585 71.3872 91.7899 71.57 91.6299 71.6385C91.5841 71.6385 91.5384 71.6614 91.5156 71.6614H91.4927Z" fill="url(#paint64_linear_1011_261)"/>
</g>
<g style="mix-blend-mode:color-dodge" opacity="0.9">
<path d="M114.446 150.313C114.309 150.313 114.171 150.221 114.148 150.084L111.382 139.165C111.337 139.005 111.451 138.822 111.611 138.777C111.611 138.777 111.611 138.777 111.634 138.777C111.839 138.777 111.954 138.868 111.977 139.005L114.743 149.924C114.789 150.084 114.674 150.244 114.514 150.29H114.446V150.313Z" fill="url(#paint65_linear_1011_261)"/>
</g>
<g style="mix-blend-mode:color-dodge" opacity="0.9">
<path d="M78.4155 41.7814L60.9035 37.464C60.7663 37.4183 60.652 37.2584 60.6977 37.0985C60.7206 36.9614 60.8578 36.8472 60.9949 36.8472L78.5527 41.1875C78.5527 41.1875 78.7127 41.2789 78.7356 41.3246C78.7584 41.3703 78.8042 41.4388 78.7813 41.553C78.7356 41.6901 78.6213 41.7814 78.4841 41.7814C78.4841 41.7814 78.4384 41.7814 78.4155 41.7814Z" fill="url(#paint66_linear_1011_261)"/>
</g>
<g style="mix-blend-mode:color-dodge" opacity="0.9">
<path d="M59.715 116.846C59.6007 116.846 59.4864 116.778 59.4407 116.664L52.2164 100.719C52.1478 100.582 52.2164 100.376 52.3765 100.308C52.4222 100.308 52.4679 100.285 52.5136 100.285C52.6279 100.285 52.7422 100.353 52.788 100.467L60.0122 116.412C60.0808 116.572 60.0122 116.755 59.8522 116.824C59.8065 116.824 59.7608 116.846 59.715 116.846Z" fill="url(#paint67_linear_1011_261)"/>
</g>
<g style="mix-blend-mode:color-dodge" opacity="0.9">
<path d="M111.68 139.393C111.68 139.393 111.565 139.393 111.519 139.348C111.428 139.279 111.405 139.188 111.382 139.142C111.382 139.096 111.382 139.005 111.428 138.914L134.816 103.14C134.816 103.14 134.976 103.003 135.067 103.003C135.136 103.003 135.181 103.003 135.227 103.049C135.318 103.117 135.341 103.186 135.364 103.254C135.364 103.3 135.364 103.392 135.318 103.483L111.931 139.234C111.931 139.234 111.771 139.371 111.68 139.371V139.393Z" fill="url(#paint68_linear_1011_261)"/>
</g>
<g style="mix-blend-mode:color-dodge" opacity="0.9">
<path d="M73.0888 186.223C73.0888 186.223 72.8373 186.155 72.7916 186.018C72.7458 185.858 72.8373 185.675 72.9973 185.629L93.2756 179.05C93.2756 179.05 93.3213 179.05 93.3442 179.05C93.5271 179.05 93.6414 179.119 93.6871 179.256C93.7328 179.416 93.6414 179.599 93.4813 179.644L73.2031 186.223H73.1116H73.0888Z" fill="url(#paint69_linear_1011_261)"/>
</g>
<g style="mix-blend-mode:color-dodge" opacity="0.9">
<path d="M12.4367 140.513C12.3224 140.513 12.2081 140.444 12.1624 140.33L9.39611 134.094C9.32753 133.934 9.39611 133.751 9.55614 133.683C9.60187 133.683 9.64759 133.66 9.69331 133.66C9.80762 133.66 9.92193 133.728 9.96765 133.842L12.7339 140.079C12.8025 140.239 12.7339 140.421 12.5739 140.49C12.5282 140.49 12.4824 140.513 12.4367 140.513Z" fill="url(#paint70_linear_1011_261)"/>
</g>
<g style="mix-blend-mode:color-dodge" opacity="0.9">
<path d="M52.4904 100.901C52.4904 100.901 52.3532 100.901 52.2846 100.833C52.1475 100.719 52.1475 100.513 52.2618 100.399L66.7103 84.1797C66.7103 84.1797 66.8932 84.0884 66.939 84.0884C66.9847 84.0884 67.0761 84.0884 67.1447 84.1569C67.2362 84.2254 67.259 84.3168 67.259 84.3625C67.259 84.4082 67.259 84.4996 67.1904 84.5909L52.7419 100.787C52.7419 100.787 52.559 100.901 52.5133 100.901H52.4904Z" fill="url(#paint71_linear_1011_261)"/>
</g>
<g style="mix-blend-mode:color-dodge" opacity="0.9">
<path d="M164.421 207.651C164.421 207.651 164.238 207.651 164.17 207.514L131.843 161.506C131.752 161.369 131.775 161.164 131.912 161.072C131.981 161.027 132.049 161.027 132.095 161.027C132.209 161.027 132.301 161.072 132.346 161.164L164.673 207.194C164.764 207.331 164.741 207.537 164.604 207.628C164.536 207.674 164.467 207.674 164.421 207.674V207.651Z" fill="url(#paint72_linear_1011_261)"/>
</g>
<g style="mix-blend-mode:color-dodge" opacity="0.9">
<path d="M36.7845 123.677C36.7845 123.677 36.6702 123.677 36.6016 123.608C36.5102 123.54 36.4873 123.448 36.4873 123.403C36.4873 123.357 36.4873 123.266 36.5559 123.174L66.7104 84.2026C66.7104 84.2026 66.8704 84.0884 66.9619 84.0884C67.0076 84.0884 67.0762 84.0884 67.1448 84.1569C67.2362 84.2254 67.2591 84.3168 67.2591 84.3625C67.2591 84.4082 67.2591 84.4996 67.1905 84.5909L37.036 123.563C37.036 123.563 36.876 123.677 36.7845 123.677Z" fill="url(#paint73_linear_1011_261)"/>
</g>
<g style="mix-blend-mode:color-dodge" opacity="0.9">
<path d="M164.353 207.651L112.137 196.503C112.137 196.503 111.977 196.412 111.931 196.366C111.908 196.32 111.862 196.252 111.885 196.138C111.908 196 112.045 195.886 112.182 195.886L164.467 207.034C164.627 207.08 164.741 207.24 164.696 207.4C164.673 207.537 164.536 207.651 164.398 207.651C164.398 207.651 164.353 207.651 164.33 207.651H164.353Z" fill="url(#paint74_linear_1011_261)"/>
</g>
<g style="mix-blend-mode:color-dodge" opacity="0.9">
<path d="M132.621 112.94C132.484 112.94 132.369 112.872 132.324 112.735L113.76 62.5695C113.714 62.4096 113.783 62.2497 113.943 62.1812C113.989 62.1812 114.011 62.1812 114.057 62.1812C114.172 62.1812 114.286 62.2497 114.354 62.3867L132.918 112.575C132.964 112.712 132.895 112.872 132.735 112.94C132.689 112.94 132.667 112.94 132.621 112.94Z" fill="url(#paint75_linear_1011_261)"/>
</g>
<g style="mix-blend-mode:color-dodge" opacity="0.9">
<path d="M4.09235 142.02C4.09235 142.02 3.88659 141.975 3.81801 141.86C3.72656 141.701 3.79514 141.518 3.93231 141.426L36.6245 123.083C36.6245 123.083 36.7159 123.037 36.7616 123.037C36.8531 123.037 36.9674 123.083 37.036 123.197C37.1274 123.357 37.0588 123.54 36.9217 123.631L4.22952 141.975C4.22952 141.975 4.13807 142.02 4.09235 142.02Z" fill="url(#paint76_linear_1011_261)"/>
</g>
<g style="mix-blend-mode:color-dodge" opacity="0.9">
<path d="M112.205 196.503C112.205 196.503 112.091 196.503 112.045 196.457C111.908 196.366 111.839 196.183 111.931 196.023L131.82 161.141C131.82 161.141 131.98 161.004 132.072 161.004C132.118 161.004 132.186 161.004 132.232 161.049C132.392 161.141 132.438 161.323 132.346 161.461L112.479 196.32C112.411 196.435 112.297 196.48 112.205 196.48V196.503Z" fill="url(#paint77_linear_1011_261)"/>
</g>
<g style="mix-blend-mode:color-dodge" opacity="0.9">
<path d="M132.072 161.598C132.072 161.598 131.889 161.552 131.82 161.483L89.8693 105.013C89.7779 104.876 89.8007 104.693 89.9379 104.579C90.0065 104.534 90.0751 104.511 90.1208 104.511C90.2122 104.511 90.3037 104.556 90.3723 104.625L132.346 161.095C132.438 161.209 132.415 161.392 132.278 161.506C132.209 161.552 132.141 161.575 132.095 161.575L132.072 161.598Z" fill="url(#paint78_linear_1011_261)"/>
</g>
<g style="mix-blend-mode:color-dodge" opacity="0.9">
<path d="M55.8967 124.591C55.8967 124.591 55.6909 124.522 55.6224 124.431C55.5766 124.339 55.5766 124.248 55.5995 124.202C55.5995 124.157 55.6452 124.065 55.7367 124.02L89.9605 104.579C89.9605 104.579 90.052 104.534 90.1206 104.534C90.212 104.534 90.3263 104.579 90.3949 104.694C90.4406 104.785 90.4406 104.876 90.4178 104.922C90.4178 104.968 90.3721 105.059 90.2806 105.105L56.0567 124.545C56.0567 124.545 55.9653 124.591 55.9196 124.591H55.8967Z" fill="url(#paint79_linear_1011_261)"/>
</g>
<path d="M46.272 83.1288L73.5459 74.2654L89.1833 72.2551L46.272 83.1288Z" fill="url(#paint80_linear_1011_261)" fill-opacity="0.12"/>
<path d="M131.706 67.3439L109.553 63.9858L128.254 89.5253L131.706 67.3439Z" fill="url(#paint81_linear_1011_261)" fill-opacity="0.02"/>
<path d="M115.452 163.882L117.006 153.442L114.446 149.993L115.452 163.882Z" fill="url(#paint82_linear_1011_261)" fill-opacity="0.11"/>
<path d="M46.981 96.3784L67.465 132.335L59.7149 116.55L46.981 96.3784Z" fill="url(#paint83_linear_1011_261)" fill-opacity="0.12"/>
</g>
<path d="M95.9263 104.381C94.0953 105.376 91.8097 104.7 90.8266 102.882C89.8312 101.051 90.5071 98.765 92.3381 97.7819C100.989 93.0878 105.02 87.0173 105.831 81.082C106.261 77.9116 105.769 74.7289 104.577 71.7797C103.361 68.7936 101.431 66.0778 98.9861 63.8905C94.2305 59.6387 87.5579 57.4022 80.5903 59.1349C77.764 59.8353 75.3186 61.2485 73.1804 63.2392C70.9071 65.3528 68.9409 68.1177 67.2205 71.3864C66.2498 73.2297 63.9764 73.9301 62.1454 72.9716C60.3022 72.0009 59.6017 69.7275 60.5602 67.8965C62.6738 63.8905 65.1438 60.4497 68.0684 57.7217C71.1283 54.8831 74.6796 52.8432 78.8085 51.8233C88.3935 49.4516 97.5238 52.4746 104.012 58.2747C107.305 61.2239 109.923 64.8982 111.569 68.9533C113.228 73.0454 113.904 77.5429 113.278 82.1019C112.159 90.2369 106.949 98.3964 95.9263 104.381ZM67.0977 134.082C52.8431 114.937 52.499 96.7989 69.8011 79.9392L57.3407 73.0577C47.3625 69.1745 29.0527 97.7942 36.1309 105.438L45.8387 119.84L43.8357 124.018C43.2827 125.259 43.8234 126.131 45.1751 126.733L46.49 127.09L21.2373 177.067L26.3493 187.967L36.5732 184.956L39.203 179.844L36.6838 175.125L42.2382 173.933L43.5285 171.426L40.6284 167.003L42.5331 163.304L48.0752 162.603L49.8816 159.101L46.7849 155.058L48.7633 151.224L54.416 150.303L62.1086 135.618L63.4111 136.331C65.6722 137.707 66.8396 136.822 67.0977 134.082ZM93.9233 146.088L90.163 160.121L84.9404 162.186L83.8468 166.278L87.6562 169.509L86.6608 173.233L81.4997 175.051L80.4429 178.984L84.1417 182.609L83.429 185.275L78.3538 187.573L81.7454 191.567L80.2831 197.011L71.1283 202.012L63.9764 192.636L77.6165 141.725L74.311 140.841C73.6351 140.656 73.2173 139.956 73.4016 139.268L74.7902 134.094C64.7874 126.512 59.8352 113.388 63.276 100.522C67.6998 83.9943 84.3875 74.0162 100.928 77.7273C101.001 78.612 100.989 79.5091 100.866 80.4061C100.559 82.6426 99.5882 84.9406 97.7941 87.1648C97.5483 87.4597 97.2903 87.7669 97.0199 88.0618C91.7359 87.7177 86.7837 91.1339 85.3582 96.4425C84.7438 98.7281 84.879 101.038 85.604 103.115C85.776 103.852 86.0587 104.565 86.4273 105.266C87.2998 106.863 88.5778 108.08 90.077 108.854C91.0601 109.505 92.166 109.997 93.358 110.328C99.2933 111.914 105.376 108.497 107.146 102.66C108.94 101.075 110.5 99.404 111.84 97.6836C114.445 94.3289 116.227 90.7653 117.284 87.1402C124.46 94.8819 127.618 106.027 124.681 116.989C121.24 129.855 110.365 138.752 97.9293 140.312L96.5407 145.486C96.3564 146.161 95.6559 146.579 94.9678 146.395L93.9233 146.088Z" stroke="white" stroke-width="1.5"/>
<defs>
<radialGradient id="paint0_radial_1011_261" cx="0" cy="0" r="1" gradientUnits="userSpaceOnUse" gradientTransform="translate(54.4107 202.831) scale(1.12022 1.11934)">
<stop stop-color="white"/>
<stop offset="0.11" stop-color="#FAFAFA"/>
<stop offset="0.23" stop-color="#ECECEC"/>
<stop offset="0.36" stop-color="#D4D4D4"/>
<stop offset="0.5" stop-color="#B4B4B4"/>
<stop offset="0.64" stop-color="#8A8A8A"/>
<stop offset="0.79" stop-color="#565656"/>
<stop offset="0.94" stop-color="#1A1A1A"/>
<stop offset="1"/>
</radialGradient>
<radialGradient id="paint1_radial_1011_261" cx="0" cy="0" r="1" gradientUnits="userSpaceOnUse" gradientTransform="translate(54.0679 132.403) scale(1.14308 1.14219)">
<stop stop-color="white"/>
<stop offset="0.11" stop-color="#FAFAFA"/>
<stop offset="0.23" stop-color="#ECECEC"/>
<stop offset="0.36" stop-color="#D4D4D4"/>
<stop offset="0.5" stop-color="#B4B4B4"/>
<stop offset="0.64" stop-color="#8A8A8A"/>
<stop offset="0.79" stop-color="#565656"/>
<stop offset="0.94" stop-color="#1A1A1A"/>
<stop offset="1"/>
</radialGradient>
<radialGradient id="paint2_radial_1011_261" cx="0" cy="0" r="1" gradientUnits="userSpaceOnUse" gradientTransform="translate(73.5461 74.2655) scale(1.21167 1.21072)">
<stop stop-color="white"/>
<stop offset="0.11" stop-color="#FAFAFA"/>
<stop offset="0.23" stop-color="#ECECEC"/>
<stop offset="0.36" stop-color="#D4D4D4"/>
<stop offset="0.5" stop-color="#B4B4B4"/>
<stop offset="0.64" stop-color="#8A8A8A"/>
<stop offset="0.79" stop-color="#565656"/>
<stop offset="0.94" stop-color="#1A1A1A"/>
<stop offset="1"/>
</radialGradient>
<radialGradient id="paint3_radial_1011_261" cx="0" cy="0" r="1" gradientUnits="userSpaceOnUse" gradientTransform="translate(100.431 109.125) scale(1.21166 1.21073)">
<stop stop-color="white"/>
<stop offset="0.11" stop-color="#FAFAFA"/>
<stop offset="0.23" stop-color="#ECECEC"/>
<stop offset="0.36" stop-color="#D4D4D4"/>
<stop offset="0.5" stop-color="#B4B4B4"/>
<stop offset="0.64" stop-color="#8A8A8A"/>
<stop offset="0.79" stop-color="#565656"/>
<stop offset="0.94" stop-color="#1A1A1A"/>
<stop offset="1"/>
</radialGradient>
<radialGradient id="paint4_radial_1011_261" cx="0" cy="0" r="1" gradientUnits="userSpaceOnUse" gradientTransform="translate(109.553 63.9858) scale(1.28025 1.27926)">
<stop stop-color="white"/>
<stop offset="0.11" stop-color="#FAFAFA"/>
<stop offset="0.23" stop-color="#ECECEC"/>
<stop offset="0.36" stop-color="#D4D4D4"/>
<stop offset="0.5" stop-color="#B4B4B4"/>
<stop offset="0.64" stop-color="#8A8A8A"/>
<stop offset="0.79" stop-color="#565656"/>
<stop offset="0.94" stop-color="#1A1A1A"/>
<stop offset="1"/>
</radialGradient>
<radialGradient id="paint5_radial_1011_261" cx="0" cy="0" r="1" gradientUnits="userSpaceOnUse" gradientTransform="translate(65.7959 193.305) scale(1.28025 1.27925)">
<stop stop-color="white"/>
<stop offset="0.11" stop-color="#FAFAFA"/>
<stop offset="0.23" stop-color="#ECECEC"/>
<stop offset="0.36" stop-color="#D4D4D4"/>
<stop offset="0.5" stop-color="#B4B4B4"/>
<stop offset="0.64" stop-color="#8A8A8A"/>
<stop offset="0.79" stop-color="#565656"/>
<stop offset="0.94" stop-color="#1A1A1A"/>
<stop offset="1"/>
</radialGradient>
<radialGradient id="paint6_radial_1011_261" cx="0" cy="0" r="1" gradientUnits="userSpaceOnUse" gradientTransform="translate(112.662 157.554) scale(1.30311 1.3021)">
<stop stop-color="white"/>
<stop offset="0.11" stop-color="#FAFAFA"/>
<stop offset="0.23" stop-color="#ECECEC"/>
<stop offset="0.36" stop-color="#D4D4D4"/>
<stop offset="0.5" stop-color="#B4B4B4"/>
<stop offset="0.64" stop-color="#8A8A8A"/>
<stop offset="0.79" stop-color="#565656"/>
<stop offset="0.94" stop-color="#1A1A1A"/>
<stop offset="1"/>
</radialGradient>
<radialGradient id="paint7_radial_1011_261" cx="0" cy="0" r="1" gradientUnits="userSpaceOnUse" gradientTransform="translate(22.4273 153.419) scale(1.39456 1.39348)">
<stop stop-color="white"/>
<stop offset="0.11" stop-color="#FAFAFA"/>
<stop offset="0.23" stop-color="#ECECEC"/>
<stop offset="0.36" stop-color="#D4D4D4"/>
<stop offset="0.5" stop-color="#B4B4B4"/>
<stop offset="0.64" stop-color="#8A8A8A"/>
<stop offset="0.79" stop-color="#565656"/>
<stop offset="0.94" stop-color="#1A1A1A"/>
<stop offset="1"/>
</radialGradient>
<radialGradient id="paint8_radial_1011_261" cx="0" cy="0" r="1" gradientUnits="userSpaceOnUse" gradientTransform="translate(124.985 46.6244) scale(1.41742 1.41632)">
<stop stop-color="white"/>
<stop offset="0.11" stop-color="#FAFAFA"/>
<stop offset="0.23" stop-color="#ECECEC"/>
<stop offset="0.36" stop-color="#D4D4D4"/>
<stop offset="0.5" stop-color="#B4B4B4"/>
<stop offset="0.64" stop-color="#8A8A8A"/>
<stop offset="0.79" stop-color="#565656"/>
<stop offset="0.94" stop-color="#1A1A1A"/>
<stop offset="1"/>
</radialGradient>
<radialGradient id="paint9_radial_1011_261" cx="0" cy="0" r="1" gradientUnits="userSpaceOnUse" gradientTransform="translate(59.7149 116.55) scale(1.62318 1.62192)">
<stop stop-color="white"/>
<stop offset="0.11" stop-color="#FAFAFA"/>
<stop offset="0.23" stop-color="#ECECEC"/>
<stop offset="0.36" stop-color="#D4D4D4"/>
<stop offset="0.5" stop-color="#B4B4B4"/>
<stop offset="0.64" stop-color="#8A8A8A"/>
<stop offset="0.79" stop-color="#565656"/>
<stop offset="0.94" stop-color="#1A1A1A"/>
<stop offset="1"/>
</radialGradient>
<radialGradient id="paint10_radial_1011_261" cx="0" cy="0" r="1" gradientUnits="userSpaceOnUse" gradientTransform="translate(9.67055 133.957) scale(1.87466 1.8732)">
<stop stop-color="white"/>
<stop offset="0.11" stop-color="#FAFAFA"/>
<stop offset="0.23" stop-color="#ECECEC"/>
<stop offset="0.36" stop-color="#D4D4D4"/>
<stop offset="0.5" stop-color="#B4B4B4"/>
<stop offset="0.64" stop-color="#8A8A8A"/>
<stop offset="0.79" stop-color="#565656"/>
<stop offset="0.94" stop-color="#1A1A1A"/>
<stop offset="1"/>
</radialGradient>
<radialGradient id="paint11_radial_1011_261" cx="0" cy="0" r="1" gradientUnits="userSpaceOnUse" gradientTransform="translate(132.621 112.643) scale(2.01182 2.01026)">
<stop stop-color="white"/>
<stop offset="0.11" stop-color="#FAFAFA"/>
<stop offset="0.23" stop-color="#ECECEC"/>
<stop offset="0.36" stop-color="#D4D4D4"/>
<stop offset="0.5" stop-color="#B4B4B4"/>
<stop offset="0.64" stop-color="#8A8A8A"/>
<stop offset="0.79" stop-color="#565656"/>
<stop offset="0.94" stop-color="#1A1A1A"/>
<stop offset="1"/>
</radialGradient>
<radialGradient id="paint12_radial_1011_261" cx="0" cy="0" r="1" gradientUnits="userSpaceOnUse" gradientTransform="translate(132.095 161.323) scale(2.08041 2.07879)">
<stop stop-color="white"/>
<stop offset="0.11" stop-color="#FAFAFA"/>
<stop offset="0.23" stop-color="#ECECEC"/>
<stop offset="0.36" stop-color="#D4D4D4"/>
<stop offset="0.5" stop-color="#B4B4B4"/>
<stop offset="0.64" stop-color="#8A8A8A"/>
<stop offset="0.79" stop-color="#565656"/>
<stop offset="0.94" stop-color="#1A1A1A"/>
<stop offset="1"/>
</radialGradient>
<radialGradient id="paint13_radial_1011_261" cx="0" cy="0" r="1" gradientUnits="userSpaceOnUse" gradientTransform="translate(55.897 124.271) scale(2.42334 2.42145)">
<stop stop-color="white"/>
<stop offset="0.11" stop-color="#FAFAFA"/>
<stop offset="0.23" stop-color="#ECECEC"/>
<stop offset="0.36" stop-color="#D4D4D4"/>
<stop offset="0.5" stop-color="#B4B4B4"/>
<stop offset="0.64" stop-color="#8A8A8A"/>
<stop offset="0.79" stop-color="#565656"/>
<stop offset="0.94" stop-color="#1A1A1A"/>
<stop offset="1"/>
</radialGradient>
<linearGradient id="paint14_linear_1011_261" x1="142.218" y1="206.848" x2="126.745" y2="197.252" gradientUnits="userSpaceOnUse">
<stop stop-color="#C91EFE"/>
<stop offset="1" stop-color="#4A68F2"/>
</linearGradient>
<linearGradient id="paint15_linear_1011_261" x1="65.2261" y1="179.37" x2="65.2261" y2="203.151" gradientUnits="userSpaceOnUse">
<stop stop-color="#C91EFE"/>
<stop offset="1" stop-color="#4A68F2"/>
</linearGradient>
<linearGradient id="paint16_linear_1011_261" x1="112.147" y1="135.601" x2="112.147" y2="153.123" gradientUnits="userSpaceOnUse">
<stop stop-color="#C91EFE"/>
<stop offset="1" stop-color="#4A68F2"/>
</linearGradient>
<linearGradient id="paint17_linear_1011_261" x1="121.133" y1="99.3481" x2="121.133" y2="118.354" gradientUnits="userSpaceOnUse">
<stop stop-color="#C91EFE"/>
<stop offset="1" stop-color="#4A68F2"/>
</linearGradient>
<linearGradient id="paint18_linear_1011_261" x1="97.759" y1="99.3481" x2="97.759" y2="117.075" gradientUnits="userSpaceOnUse">
<stop stop-color="#C91EFE"/>
<stop offset="1" stop-color="#4A68F2"/>
</linearGradient>
<linearGradient id="paint19_linear_1011_261" x1="69.8078" y1="116.458" x2="69.8078" y2="132.7" gradientUnits="userSpaceOnUse">
<stop stop-color="#C91EFE"/>
<stop offset="1" stop-color="#4A68F2"/>
</linearGradient>
<linearGradient id="paint20_linear_1011_261" x1="40.3184" y1="132.083" x2="40.3184" y2="162.443" gradientUnits="userSpaceOnUse">
<stop stop-color="#C91EFE"/>
<stop offset="1" stop-color="#4A68F2"/>
</linearGradient>
<linearGradient id="paint21_linear_1011_261" x1="85.4483" y1="161.506" x2="85.4483" y2="179.987" gradientUnits="userSpaceOnUse">
<stop stop-color="#C91EFE"/>
<stop offset="1" stop-color="#4A68F2"/>
</linearGradient>
<linearGradient id="paint22_linear_1011_261" x1="56.7198" y1="194.424" x2="56.7198" y2="203.151" gradientUnits="userSpaceOnUse">
<stop stop-color="#C91EFE"/>
<stop offset="1" stop-color="#4A68F2"/>
</linearGradient>
<linearGradient id="paint23_linear_1011_261" x1="17.9011" y1="114.95" x2="17.9011" y2="162.443" gradientUnits="userSpaceOnUse">
<stop stop-color="#C91EFE"/>
<stop offset="1" stop-color="#4A68F2"/>
</linearGradient>
<linearGradient id="paint24_linear_1011_261" x1="111.034" y1="108.828" x2="111.034" y2="136.218" gradientUnits="userSpaceOnUse">
<stop stop-color="#C91EFE"/>
<stop offset="1" stop-color="#4A68F2"/>
</linearGradient>
<linearGradient id="paint25_linear_1011_261" x1="129.99" y1="67.0469" x2="129.99" y2="89.8451" gradientUnits="userSpaceOnUse">
<stop stop-color="#C91EFE"/>
<stop offset="1" stop-color="#4A68F2"/>
</linearGradient>
<linearGradient id="paint26_linear_1011_261" x1="26.4052" y1="151.775" x2="26.4052" y2="162.443" gradientUnits="userSpaceOnUse">
<stop stop-color="#C91EFE"/>
<stop offset="1" stop-color="#4A68F2"/>
</linearGradient>
<linearGradient id="paint27_linear_1011_261" x1="81.3664" y1="71.9355" x2="81.3664" y2="74.5854" gradientUnits="userSpaceOnUse">
<stop stop-color="#C91EFE"/>
<stop offset="1" stop-color="#4A68F2"/>
</linearGradient>
<linearGradient id="paint28_linear_1011_261" x1="59.9123" y1="73.9915" x2="59.9123" y2="83.426" gradientUnits="userSpaceOnUse">
<stop stop-color="#C91EFE"/>
<stop offset="1" stop-color="#4A68F2"/>
</linearGradient>
<linearGradient id="paint29_linear_1011_261" x1="83.3967" y1="108.805" x2="83.3967" y2="124.156" gradientUnits="userSpaceOnUse">
<stop stop-color="#C91EFE"/>
<stop offset="1" stop-color="#4A68F2"/>
</linearGradient>
<linearGradient id="paint30_linear_1011_261" x1="89.8184" y1="71.9583" x2="89.8184" y2="77.7377" gradientUnits="userSpaceOnUse">
<stop stop-color="#C91EFE"/>
<stop offset="1" stop-color="#4A68F2"/>
</linearGradient>
<linearGradient id="paint31_linear_1011_261" x1="103.78" y1="157.257" x2="103.78" y2="162.1" gradientUnits="userSpaceOnUse">
<stop stop-color="#C91EFE"/>
<stop offset="1" stop-color="#4A68F2"/>
</linearGradient>
<linearGradient id="paint32_linear_1011_261" x1="62.3978" y1="193.008" x2="62.3978" y2="195.064" gradientUnits="userSpaceOnUse">
<stop stop-color="#C91EFE"/>
<stop offset="1" stop-color="#4A68F2"/>
</linearGradient>
<linearGradient id="paint33_linear_1011_261" x1="95.4417" y1="77.1211" x2="95.4417" y2="109.422" gradientUnits="userSpaceOnUse">
<stop stop-color="#C91EFE"/>
<stop offset="1" stop-color="#4A68F2"/>
</linearGradient>
<linearGradient id="paint34_linear_1011_261" x1="52.3878" y1="82.8091" x2="52.3878" y2="85.4818" gradientUnits="userSpaceOnUse">
<stop stop-color="#C91EFE"/>
<stop offset="1" stop-color="#4A68F2"/>
</linearGradient>
<linearGradient id="paint35_linear_1011_261" x1="108.673" y1="42.6724" x2="108.673" y2="64.3055" gradientUnits="userSpaceOnUse">
<stop stop-color="#C91EFE"/>
<stop offset="1" stop-color="#4A68F2"/>
</linearGradient>
<linearGradient id="paint36_linear_1011_261" x1="62.4584" y1="84.8879" x2="62.4584" y2="124.157" gradientUnits="userSpaceOnUse">
<stop stop-color="#C91EFE"/>
<stop offset="1" stop-color="#4A68F2"/>
</linearGradient>
<linearGradient id="paint37_linear_1011_261" x1="10.1166" y1="101.381" x2="10.1166" y2="115.544" gradientUnits="userSpaceOnUse">
<stop stop-color="#C91EFE"/>
<stop offset="1" stop-color="#4A68F2"/>
</linearGradient>
<linearGradient id="paint38_linear_1011_261" x1="100.02" y1="63.6887" x2="100.02" y2="77.7377" gradientUnits="userSpaceOnUse">
<stop stop-color="#C91EFE"/>
<stop offset="1" stop-color="#4A68F2"/>
</linearGradient>
<linearGradient id="paint39_linear_1011_261" x1="74.4838" y1="77.1438" x2="74.4838" y2="85.5047" gradientUnits="userSpaceOnUse">
<stop stop-color="#C91EFE"/>
<stop offset="1" stop-color="#4A68F2"/>
</linearGradient>
<linearGradient id="paint40_linear_1011_261" x1="116.709" y1="36.9614" x2="116.709" y2="43.2892" gradientUnits="userSpaceOnUse">
<stop stop-color="#C91EFE"/>
<stop offset="1" stop-color="#4A68F2"/>
</linearGradient>
<linearGradient id="paint41_linear_1011_261" x1="24.3788" y1="151.798" x2="24.3788" y2="153.739" gradientUnits="userSpaceOnUse">
<stop stop-color="#C91EFE"/>
<stop offset="1" stop-color="#4A68F2"/>
</linearGradient>
<linearGradient id="paint42_linear_1011_261" x1="67.6704" y1="193.008" x2="67.6704" y2="194.698" gradientUnits="userSpaceOnUse">
<stop stop-color="#C91EFE"/>
<stop offset="1" stop-color="#4A68F2"/>
</linearGradient>
<linearGradient id="paint43_linear_1011_261" x1="114.046" y1="157.257" x2="114.046" y2="164.202" gradientUnits="userSpaceOnUse">
<stop stop-color="#C91EFE"/>
<stop offset="1" stop-color="#4A68F2"/>
</linearGradient>
<linearGradient id="paint44_linear_1011_261" x1="105.352" y1="77.6465" x2="105.352" y2="112.209" gradientUnits="userSpaceOnUse">
<stop stop-color="#C91EFE"/>
<stop offset="1" stop-color="#4A68F2"/>
</linearGradient>
<linearGradient id="paint45_linear_1011_261" x1="7.65778" y1="101.358" x2="7.65778" y2="103.734" gradientUnits="userSpaceOnUse">
<stop stop-color="#C91EFE"/>
<stop offset="1" stop-color="#4A68F2"/>
</linearGradient>
<linearGradient id="paint46_linear_1011_261" x1="67.0191" y1="99.9419" x2="67.0191" y2="130.21" gradientUnits="userSpaceOnUse">
<stop stop-color="#C91EFE"/>
<stop offset="1" stop-color="#4A68F2"/>
</linearGradient>
<linearGradient id="paint47_linear_1011_261" x1="79.5009" y1="77.6235" x2="79.5009" y2="100.559" gradientUnits="userSpaceOnUse">
<stop stop-color="#C91EFE"/>
<stop offset="1" stop-color="#4A68F2"/>
</linearGradient>
<linearGradient id="paint48_linear_1011_261" x1="111.615" y1="46.3274" x2="111.615" y2="78.2631" gradientUnits="userSpaceOnUse">
<stop stop-color="#C91EFE"/>
<stop offset="1" stop-color="#4A68F2"/>
</linearGradient>
<linearGradient id="paint49_linear_1011_261" x1="112.171" y1="106.498" x2="112.171" y2="112.209" gradientUnits="userSpaceOnUse">
<stop stop-color="#C91EFE"/>
<stop offset="1" stop-color="#4A68F2"/>
</linearGradient>
<linearGradient id="paint50_linear_1011_261" x1="13.427" y1="103.14" x2="13.427" y2="153.739" gradientUnits="userSpaceOnUse">
<stop stop-color="#C91EFE"/>
<stop offset="1" stop-color="#4A68F2"/>
</linearGradient>
<linearGradient id="paint51_linear_1011_261" x1="116.217" y1="153.146" x2="116.217" y2="164.202" gradientUnits="userSpaceOnUse">
<stop stop-color="#C91EFE"/>
<stop offset="1" stop-color="#4A68F2"/>
</linearGradient>
<linearGradient id="paint52_linear_1011_261" x1="70.3682" y1="129.616" x2="70.3682" y2="132.654" gradientUnits="userSpaceOnUse">
<stop stop-color="#C91EFE"/>
<stop offset="1" stop-color="#4A68F2"/>
</linearGradient>
<linearGradient id="paint53_linear_1011_261" x1="18.9755" y1="152.643" x2="18.9755" y2="153.739" gradientUnits="userSpaceOnUse">
<stop stop-color="#C91EFE"/>
<stop offset="1" stop-color="#4A68F2"/>
</linearGradient>
<linearGradient id="paint54_linear_1011_261" x1="70.4401" y1="181.175" x2="70.4401" y2="194.676" gradientUnits="userSpaceOnUse">
<stop stop-color="#C91EFE"/>
<stop offset="1" stop-color="#4A68F2"/>
</linearGradient>
<linearGradient id="paint55_linear_1011_261" x1="103.312" y1="64.7168" x2="103.312" y2="107.138" gradientUnits="userSpaceOnUse">
<stop stop-color="#C91EFE"/>
<stop offset="1" stop-color="#4A68F2"/>
</linearGradient>
<linearGradient id="paint56_linear_1011_261" x1="115.749" y1="149.696" x2="115.749" y2="153.762" gradientUnits="userSpaceOnUse">
<stop stop-color="#C91EFE"/>
<stop offset="1" stop-color="#4A68F2"/>
</linearGradient>
<linearGradient id="paint57_linear_1011_261" x1="57.2168" y1="96.0586" x2="57.2168" y2="132.654" gradientUnits="userSpaceOnUse">
<stop stop-color="#C91EFE"/>
<stop offset="1" stop-color="#4A68F2"/>
</linearGradient>
<linearGradient id="paint58_linear_1011_261" x1="57.0873" y1="181.152" x2="57.0873" y2="211.648" gradientUnits="userSpaceOnUse">
<stop stop-color="#C91EFE"/>
<stop offset="1" stop-color="#4A68F2"/>
</linearGradient>
<linearGradient id="paint59_linear_1011_261" x1="63.5899" y1="116.252" x2="63.5899" y2="132.654" gradientUnits="userSpaceOnUse">
<stop stop-color="#C91EFE"/>
<stop offset="1" stop-color="#4A68F2"/>
</linearGradient>
<linearGradient id="paint60_linear_1011_261" x1="93.1489" y1="64.7395" x2="93.1489" y2="71.6612" gradientUnits="userSpaceOnUse">
<stop stop-color="#C91EFE"/>
<stop offset="1" stop-color="#4A68F2"/>
</linearGradient>
<linearGradient id="paint61_linear_1011_261" x1="13.9685" y1="139.919" x2="13.9685" y2="153.282" gradientUnits="userSpaceOnUse">
<stop stop-color="#C91EFE"/>
<stop offset="1" stop-color="#4A68F2"/>
</linearGradient>
<linearGradient id="paint62_linear_1011_261" x1="72.2204" y1="181.175" x2="72.2204" y2="186.223" gradientUnits="userSpaceOnUse">
<stop stop-color="#C91EFE"/>
<stop offset="1" stop-color="#4A68F2"/>
</linearGradient>
<linearGradient id="paint63_linear_1011_261" x1="33.9033" y1="78.7429" x2="33.9033" y2="96.721" gradientUnits="userSpaceOnUse">
<stop stop-color="#C91EFE"/>
<stop offset="1" stop-color="#4A68F2"/>
</linearGradient>
<linearGradient id="paint64_linear_1011_261" x1="85" y1="41.1648" x2="85" y2="71.6614" gradientUnits="userSpaceOnUse">
<stop stop-color="#C91EFE"/>
<stop offset="1" stop-color="#4A68F2"/>
</linearGradient>
<linearGradient id="paint65_linear_1011_261" x1="113.063" y1="138.777" x2="113.063" y2="150.313" gradientUnits="userSpaceOnUse">
<stop stop-color="#C91EFE"/>
<stop offset="1" stop-color="#4A68F2"/>
</linearGradient>
<linearGradient id="paint66_linear_1011_261" x1="69.7375" y1="36.8472" x2="69.7375" y2="41.7814" gradientUnits="userSpaceOnUse">
<stop stop-color="#C91EFE"/>
<stop offset="1" stop-color="#4A68F2"/>
</linearGradient>
<linearGradient id="paint67_linear_1011_261" x1="56.1143" y1="100.285" x2="56.1143" y2="116.846" gradientUnits="userSpaceOnUse">
<stop stop-color="#C91EFE"/>
<stop offset="1" stop-color="#4A68F2"/>
</linearGradient>
<linearGradient id="paint68_linear_1011_261" x1="123.373" y1="103.003" x2="123.373" y2="139.393" gradientUnits="userSpaceOnUse">
<stop stop-color="#C91EFE"/>
<stop offset="1" stop-color="#4A68F2"/>
</linearGradient>
<linearGradient id="paint69_linear_1011_261" x1="83.2393" y1="179.05" x2="83.2393" y2="186.223" gradientUnits="userSpaceOnUse">
<stop stop-color="#C91EFE"/>
<stop offset="1" stop-color="#4A68F2"/>
</linearGradient>
<linearGradient id="paint70_linear_1011_261" x1="11.065" y1="133.66" x2="11.065" y2="140.513" gradientUnits="userSpaceOnUse">
<stop stop-color="#C91EFE"/>
<stop offset="1" stop-color="#4A68F2"/>
</linearGradient>
<linearGradient id="paint71_linear_1011_261" x1="59.7189" y1="84.0884" x2="59.7189" y2="100.901" gradientUnits="userSpaceOnUse">
<stop stop-color="#C91EFE"/>
<stop offset="1" stop-color="#4A68F2"/>
</linearGradient>
<linearGradient id="paint72_linear_1011_261" x1="148.258" y1="161.027" x2="148.258" y2="207.674" gradientUnits="userSpaceOnUse">
<stop stop-color="#C91EFE"/>
<stop offset="1" stop-color="#4A68F2"/>
</linearGradient>
<linearGradient id="paint73_linear_1011_261" x1="51.8732" y1="84.0884" x2="51.8732" y2="123.677" gradientUnits="userSpaceOnUse">
<stop stop-color="#C91EFE"/>
<stop offset="1" stop-color="#4A68F2"/>
</linearGradient>
<linearGradient id="paint74_linear_1011_261" x1="138.292" y1="195.886" x2="138.292" y2="207.651" gradientUnits="userSpaceOnUse">
<stop stop-color="#C91EFE"/>
<stop offset="1" stop-color="#4A68F2"/>
</linearGradient>
<linearGradient id="paint75_linear_1011_261" x1="123.339" y1="62.1812" x2="123.339" y2="112.94" gradientUnits="userSpaceOnUse">
<stop stop-color="#C91EFE"/>
<stop offset="1" stop-color="#4A68F2"/>
</linearGradient>
<linearGradient id="paint76_linear_1011_261" x1="20.427" y1="123.037" x2="20.427" y2="142.02" gradientUnits="userSpaceOnUse">
<stop stop-color="#C91EFE"/>
<stop offset="1" stop-color="#4A68F2"/>
</linearGradient>
<linearGradient id="paint77_linear_1011_261" x1="122.141" y1="161.004" x2="122.141" y2="196.503" gradientUnits="userSpaceOnUse">
<stop stop-color="#C91EFE"/>
<stop offset="1" stop-color="#4A68F2"/>
</linearGradient>
<linearGradient id="paint78_linear_1011_261" x1="111.108" y1="104.511" x2="111.108" y2="161.598" gradientUnits="userSpaceOnUse">
<stop stop-color="#C91EFE"/>
<stop offset="1" stop-color="#4A68F2"/>
</linearGradient>
<linearGradient id="paint79_linear_1011_261" x1="73.0086" y1="104.534" x2="73.0086" y2="124.591" gradientUnits="userSpaceOnUse">
<stop stop-color="#C91EFE"/>
<stop offset="1" stop-color="#4A68F2"/>
</linearGradient>
<linearGradient id="paint80_linear_1011_261" x1="46.272" y1="77.692" x2="89.1833" y2="77.692" gradientUnits="userSpaceOnUse">
<stop offset="0.07" stop-color="white"/>
<stop offset="0.56" stop-color="#EBCFCF"/>
</linearGradient>
<linearGradient id="paint81_linear_1011_261" x1="109.553" y1="76.7556" x2="131.706" y2="76.7556" gradientUnits="userSpaceOnUse">
<stop offset="0.07" stop-color="white"/>
<stop offset="0.56" stop-color="#EBCFCF"/>
</linearGradient>
<linearGradient id="paint82_linear_1011_261" x1="114.446" y1="156.937" x2="117.006" y2="156.937" gradientUnits="userSpaceOnUse">
<stop offset="0.07" stop-color="white"/>
<stop offset="0.56" stop-color="#EBCFCF"/>
</linearGradient>
<linearGradient id="paint83_linear_1011_261" x1="46.981" y1="114.357" x2="67.465" y2="114.357" gradientUnits="userSpaceOnUse">
<stop offset="0.07" stop-color="white"/>
<stop offset="0.56" stop-color="#EBCFCF"/>
</linearGradient>
<clipPath id="clip0_1011_261">
<rect width="174" height="236" fill="white"/>
</clipPath>
</defs>
</svg>
