<svg width="132" height="171" viewBox="0 0 132 171" fill="none" xmlns="http://www.w3.org/2000/svg">
<path fill-rule="evenodd" clip-rule="evenodd" d="M51.3354 70.9285C50.2962 70.9744 49.5054 71.1856 48.972 71.5437C48.6685 71.7457 48.4386 72.012 48.2915 72.3241C48.1352 72.673 48.0524 73.0954 48.0708 73.582C48.1168 75.0052 48.8525 76.8691 50.3054 79.0176L50.3238 79.0544L55.0229 86.4916C56.9081 89.4756 58.8761 92.524 61.3314 94.7643C63.6855 96.9128 66.5455 98.3636 70.325 98.3819C74.4172 98.3911 77.4151 96.8761 79.8429 94.6082C82.3717 92.2485 84.3673 89.0074 86.3352 85.7754L91.6137 77.0803C92.6069 74.8399 92.9563 73.3341 92.7264 72.4527C92.5885 71.9293 92.0183 71.663 91.0252 71.6263C90.8136 71.6171 90.6021 71.608 90.3814 71.6171C90.1423 71.6263 89.9032 71.6447 89.6458 71.663C89.4986 71.6814 89.3699 71.6631 89.2411 71.6355C88.7721 71.6631 88.2848 71.6263 87.7974 71.562L89.609 63.5648C76.1737 65.6766 66.1317 55.7144 51.9331 61.5723L52.9539 71.002C52.3745 71.0203 51.832 71.002 51.3354 70.9285ZM130.274 117.765C130.743 118.545 131 119.381 131 120.253C131 124.844 123.882 128.572 115.109 128.572C106.336 128.572 99.2188 124.844 99.2188 120.253C99.2188 119.39 99.4762 118.554 99.9452 117.765C101.968 121.143 107.992 123.595 115.109 123.595C122.236 123.595 128.26 121.143 130.274 117.765ZM120.848 100.576L120.664 102.642L112.866 101.963C113.509 102.78 113.951 103.717 114.199 104.763L112.323 104.598C112.194 104.047 111.909 103.432 111.477 102.762C111.036 102.082 110.502 101.605 109.858 101.311L110.006 99.6398L120.848 100.576ZM115.109 97.3444C122.319 97.3444 128.168 99.6398 128.168 102.459C128.168 105.287 122.319 107.573 115.109 107.573C107.9 107.573 102.051 105.277 102.051 102.459C102.051 99.6306 107.9 97.3444 115.109 97.3444ZM115.109 95.6458C123.882 95.6458 131 99.3736 131 103.964C131 108.555 123.882 112.283 115.109 112.283C106.336 112.283 99.2188 108.555 99.2188 103.964C99.2188 99.3736 106.336 95.6458 115.109 95.6458ZM130.329 109.51C130.761 110.263 131 111.071 131 111.897C131 116.488 123.882 120.216 115.109 120.216C106.336 120.216 99.2188 116.488 99.2188 111.897C99.2188 111.062 99.4487 110.263 99.8901 109.51C101.849 112.935 107.918 115.442 115.109 115.442C122.301 115.442 128.37 112.935 130.329 109.51ZM130.255 126.157C130.743 126.956 131 127.8 131 128.682C131 133.273 123.882 137 115.109 137C106.336 137 99.2188 133.273 99.2188 128.682C99.2188 127.8 99.4854 126.956 99.9636 126.157C102.005 129.517 108.01 131.95 115.109 131.95C122.209 131.95 128.204 129.517 130.255 126.157ZM73.2126 111.246L77.3508 125.597C80.5509 118.876 83.8891 112.2 84.6432 104.57C83.3741 103.083 82.0315 101.118 80.8636 99.4103C80.5142 98.9053 80.1923 98.4278 79.8796 97.9871C77.314 99.8602 74.2425 101.035 70.3066 101.017C66.0673 101.008 62.8119 99.5021 60.1083 97.2158C60.0899 97.2434 60.0715 97.2709 60.0531 97.2985C59.6117 97.9045 59.1243 98.6207 58.591 99.4011C57.5978 100.861 56.4759 102.495 55.3816 103.873C56.7978 112.715 60.2003 118.94 63.2809 125.578L67.4191 111.227C62.2142 102.615 77.9577 102.119 73.2126 111.246ZM81.5257 96.6466C81.8568 97.1148 82.2246 97.6566 82.62 98.2258C83.3465 99.2909 84.1466 100.466 84.9466 101.531C86.4915 102.863 88.8549 103.9 91.5861 104.772C89.8021 108.812 88.8089 113.266 88.8089 117.957C88.8089 124.752 90.8872 131.069 94.446 136.303H70.325H23.6923C20.1243 136.036 18.3127 134.191 18 130.995L19.2323 125.486C19.5817 120.969 20.8507 117.416 22.9106 114.689C24.2716 112.889 25.9637 111.567 27.8397 110.529C33.4216 107.426 47.8593 106.388 54.0206 102.229C54.9862 100.99 55.9701 99.5296 56.8713 98.2258C57.4231 97.4178 57.9381 96.6649 58.3703 96.0773C58.4438 95.9763 58.5266 95.8937 58.637 95.8202C56.3656 93.4881 54.5356 90.6693 52.7975 87.9056L48.1076 80.45C46.3879 77.8883 45.5051 75.5653 45.4408 73.6463C45.4132 72.7465 45.5695 71.9293 45.9006 71.204C46.25 70.4511 46.7834 69.8175 47.519 69.3309C47.8593 69.1013 48.2363 68.9085 48.6593 68.7524C48.3559 64.7125 48.2455 59.6166 48.4386 55.3563C48.5398 54.3463 48.7329 53.3271 49.018 52.3263C50.2227 48.0476 53.2297 44.6044 56.9449 42.2447C58.2507 41.4092 59.6945 40.7206 61.2118 40.1697C63.8879 39.1872 62.582 35.0738 65.5707 35.0003C72.578 34.8443 84.0546 40.7573 88.533 45.5961C91.1355 48.4149 92.7724 52.1335 93.1218 57.0733L92.8276 69.2299C94.1334 69.6247 94.961 70.4419 95.3013 71.7824C95.6783 73.2607 95.2645 75.3449 94.0138 78.1821C93.9863 78.228 93.9679 78.2831 93.9403 78.3382L88.5882 87.1343C86.5283 90.5224 84.4408 93.9196 81.6361 96.5272L81.5257 96.6466Z" stroke="white" stroke-width="1.5"/>
<path style="mix-blend-mode:color-dodge" d="M26.8172 93.2771C27.6526 93.2771 28.3151 93.9417 28.3151 94.7797C28.3151 95.6177 27.6526 96.2823 26.8172 96.2823C25.9819 96.2823 25.3193 95.6177 25.3193 94.7797C25.3193 93.9417 25.9819 93.2771 26.8172 93.2771Z" fill="white"/>
<path style="mix-blend-mode:color-dodge" d="M57.6097 86.082C58.5165 86.082 59.2516 85.3446 59.2516 84.4349C59.2516 83.5253 58.5165 82.7878 57.6097 82.7878C56.7029 82.7878 55.9678 83.5253 55.9678 84.4349C55.9678 85.3446 56.7029 86.082 57.6097 86.082Z" fill="white"/>
<path style="mix-blend-mode:color-dodge" d="M125.187 96.9759C126.125 96.9759 126.886 96.2126 126.886 95.271C126.886 94.3295 126.125 93.5662 125.187 93.5662C124.248 93.5662 123.487 94.3295 123.487 95.271C123.487 96.2126 124.248 96.9759 125.187 96.9759Z" fill="white"/>
<path style="mix-blend-mode:color-dodge" d="M24.3973 44.3269C25.3518 44.3269 26.1256 43.5507 26.1256 42.5931C26.1256 41.6356 25.3518 40.8594 24.3973 40.8594C23.4427 40.8594 22.6689 41.6356 22.6689 42.5931C22.6689 43.5507 23.4427 44.3269 24.3973 44.3269Z" fill="white"/>
<path style="mix-blend-mode:color-dodge" d="M98.3982 82.7878C99.3776 82.7878 100.155 83.568 100.155 84.5505C100.155 85.533 99.3776 86.3132 98.3982 86.3132C97.4189 86.3132 96.6411 85.533 96.6411 84.5505C96.6411 83.568 97.4189 82.7878 98.3982 82.7878Z" fill="white"/>
<path style="mix-blend-mode:color-dodge" d="M102.805 66.3457C103.785 66.3457 104.563 67.1259 104.563 68.1084C104.563 69.0908 103.785 69.8711 102.805 69.8711C101.826 69.8711 101.048 69.0908 101.048 68.1084C101.048 67.1259 101.826 66.3457 102.805 66.3457Z" fill="white"/>
<path style="mix-blend-mode:color-dodge" d="M113.348 84.2615C114.327 84.2615 115.105 85.0417 115.105 86.0241C115.105 87.0066 114.327 87.7868 113.348 87.7868C112.369 87.7868 111.591 87.0066 111.591 86.0241C111.591 85.0417 112.369 84.2615 113.348 84.2615Z" fill="white"/>
<path style="mix-blend-mode:color-dodge" d="M98.7571 155C99.7365 155 100.514 155.78 100.514 156.763C100.514 157.745 99.7365 158.525 98.7571 158.525C97.7777 158.525 97 157.745 97 156.763C97 155.78 97.7777 155 98.7571 155Z" fill="white"/>
<path style="mix-blend-mode:color-dodge" d="M17.9739 74.4946C18.9533 74.4946 19.731 75.2748 19.731 76.2573C19.731 77.2398 18.9533 78.02 17.9739 78.02C16.9945 78.02 16.2168 77.2398 16.2168 76.2573C16.2168 75.2748 16.9945 74.4946 17.9739 74.4946Z" fill="white"/>
<path style="mix-blend-mode:color-dodge" d="M74.4319 102.957C75.4113 102.957 76.189 103.737 76.189 104.72C76.189 105.702 75.4113 106.483 74.4319 106.483C73.4525 106.483 72.6748 105.702 72.6748 104.72C72.6748 103.737 73.4525 102.957 74.4319 102.957Z" fill="white"/>
<path style="mix-blend-mode:color-dodge" d="M89.4685 101.917C90.4479 101.917 91.2545 102.726 91.2545 103.709C91.2545 104.691 90.4479 105.5 89.4685 105.5C88.4892 105.5 87.6826 104.691 87.6826 103.709C87.6826 102.726 88.4892 101.917 89.4685 101.917Z" fill="white"/>
<path style="mix-blend-mode:color-dodge" d="M63.0252 40.946C64.0046 40.946 64.8111 41.7551 64.8111 42.7376C64.8111 43.7201 64.0046 44.5292 63.0252 44.5292C62.0458 44.5292 61.2393 43.7201 61.2393 42.7376C61.2393 41.7551 62.0458 40.946 63.0252 40.946Z" fill="white"/>
<path style="mix-blend-mode:color-dodge" d="M89.2957 38.3455C90.3138 38.3455 91.1392 37.5175 91.1392 36.4961C91.1392 35.4747 90.3138 34.6467 89.2957 34.6467C88.2775 34.6467 87.4521 35.4747 87.4521 36.4961C87.4521 37.5175 88.2775 38.3455 89.2957 38.3455Z" fill="white"/>
<path style="mix-blend-mode:color-dodge" d="M68.9016 69.0042C69.9098 69.0042 70.7452 69.8421 70.7452 70.8535C70.7452 71.8649 69.9098 72.7029 68.9016 72.7029C67.8935 72.7029 67.0581 71.8649 67.0581 70.8535C67.0581 69.8421 67.8935 69.0042 68.9016 69.0042Z" fill="white"/>
<path style="mix-blend-mode:color-dodge" d="M48.1331 60.7688C49.1413 60.7688 49.9766 61.6068 49.9766 62.6182C49.9766 63.6295 49.1413 64.4675 48.1331 64.4675C47.1249 64.4675 46.2896 63.6295 46.2896 62.6182C46.2896 61.6068 47.1249 60.7688 48.1331 60.7688Z" fill="white"/>
<path style="mix-blend-mode:color-dodge" d="M92.3489 3.75651C93.383 3.75651 94.2212 2.91559 94.2212 1.87826C94.2212 0.840924 93.383 0 92.3489 0C91.3148 0 90.4766 0.840924 90.4766 1.87826C90.4766 2.91559 91.3148 3.75651 92.3489 3.75651Z" fill="white"/>
<path style="mix-blend-mode:color-dodge" d="M78.8723 170.757C79.9064 170.757 80.7447 169.916 80.7447 168.878C80.7447 167.841 79.9064 167 78.8723 167C77.8383 167 77 167.841 77 168.878C77 169.916 77.8383 170.757 78.8723 170.757Z" fill="white"/>
<path style="mix-blend-mode:color-dodge" d="M97.7439 19.2161C98.7809 19.2161 99.6451 20.0541 99.6451 21.1232C99.6451 22.1924 98.8097 23.0304 97.7439 23.0304C96.6781 23.0304 95.8428 22.1924 95.8428 21.1232C95.8428 20.0541 96.6781 19.2161 97.7439 19.2161Z" fill="white"/>
<path style="mix-blend-mode:color-dodge" d="M63.1404 33.0574C64.2062 33.0574 65.0415 33.9243 65.0415 34.9645C65.0415 36.0048 64.1774 36.8717 63.1404 36.8717C62.1034 36.8717 61.2393 36.0048 61.2393 34.9645C61.2393 33.9243 62.1034 33.0574 63.1404 33.0574Z" fill="white"/>
<path style="mix-blend-mode:color-dodge" d="M10.93 16C11.9957 16 12.8599 16.8669 12.8599 17.936C12.8599 19.0052 11.9957 19.8721 10.93 19.8721C9.86416 19.8721 9 19.0052 9 17.936C9 16.8669 9.86416 16 10.93 16Z" fill="white"/>
<path style="mix-blend-mode:color-dodge" d="M55.1038 20.1697C56.1984 20.1697 57.0913 21.0655 57.0913 22.1635C57.0913 23.2616 56.1984 24.1574 55.1038 24.1574C54.0092 24.1574 53.1162 23.2616 53.1162 22.1635C53.1162 21.0655 54.0092 20.1697 55.1038 20.1697Z" fill="white"/>
<path style="mix-blend-mode:color-dodge" d="M119.052 81.9209C120.146 81.9209 121.039 82.8167 121.039 83.9147C121.039 85.0128 120.146 85.9086 119.052 85.9086C117.957 85.9086 117.064 85.0128 117.064 83.9147C117.064 82.8167 117.957 81.9209 119.052 81.9209Z" fill="white"/>
<path style="mix-blend-mode:color-dodge" d="M47.7009 100.935C48.8531 100.935 49.7749 101.859 49.7749 103.015C49.7749 104.171 48.8531 105.096 47.7009 105.096C46.5487 105.096 45.627 104.171 45.627 103.015C45.627 101.859 46.5487 100.935 47.7009 100.935Z" fill="white"/>
<path style="mix-blend-mode:color-dodge" d="M2.10278 52C3.25499 52 4.20556 52.9536 4.20556 54.1094C4.20556 55.2653 3.25499 56.2189 2.10278 56.2189C0.950572 56.2189 0 55.2653 0 54.1094C0 52.9536 0.950572 52 2.10278 52Z" fill="white"/>
<path style="mix-blend-mode:color-dodge" d="M97.0442 30.5723C98.3404 30.5723 99.3774 31.6125 99.3774 32.9129C99.3774 34.2132 98.3404 35.2535 97.0442 35.2535C95.7479 35.2535 94.7109 34.2132 94.7109 32.9129C94.7109 31.6125 95.7479 30.5723 97.0442 30.5723Z" fill="white"/>
<path style="mix-blend-mode:color-dodge" d="M28.7756 105.414C30.1294 105.414 31.224 106.512 31.224 107.87C31.224 109.228 30.1294 110.326 28.7756 110.326C27.4217 110.326 26.3271 109.228 26.3271 107.87C26.3271 106.512 27.4217 105.414 28.7756 105.414Z" fill="white"/>
<g style="mix-blend-mode:color-dodge" opacity="0.9">
<path d="M26.8172 95.1554C26.8172 95.1554 26.5579 95.0976 26.4715 94.982L2.67837 55.5386C2.59196 55.3652 2.64957 55.1341 2.8224 55.0185C2.88001 54.9896 2.96643 54.9607 3.02404 54.9607C3.16806 54.9607 3.28328 55.0185 3.3697 55.1341L27.1628 94.5775C27.2492 94.7508 27.1916 94.982 27.0188 95.0976C26.9612 95.1265 26.8748 95.1554 26.8172 95.1554Z" fill="url(#paint0_linear_1012_270)"/>
</g>
<g style="mix-blend-mode:color-dodge" opacity="0.9">
<path d="M28.5663 108.533C28.5663 108.533 28.3359 108.476 28.2494 108.389C28.1054 108.215 28.1342 107.984 28.3071 107.84L57.3506 84.117C57.3506 84.117 57.5234 84.0303 57.581 84.0303C57.6963 84.0303 57.8115 84.0881 57.8979 84.1748C58.0419 84.3481 57.9843 84.5793 57.8403 84.7238L28.7967 108.447C28.7967 108.447 28.6239 108.504 28.5663 108.504V108.533Z" fill="url(#paint1_linear_1012_270)"/>
</g>
<g style="mix-blend-mode:color-dodge" opacity="0.9">
<path d="M3.02409 55.712C3.02409 55.712 2.76485 55.6542 2.67843 55.5097C2.59201 55.3941 2.62082 55.2786 2.62082 55.2208C2.62082 55.163 2.67843 55.0474 2.79365 54.9896L24.1959 42.2752C24.1959 42.2752 24.2824 42.2463 24.3688 42.2463C24.5128 42.2463 24.628 42.3041 24.7144 42.4197C24.8297 42.5931 24.772 42.8532 24.5992 42.9687L3.22573 55.6831C3.22573 55.6831 3.11051 55.7409 3.02409 55.7409V55.712Z" fill="url(#paint2_linear_1012_270)"/>
</g>
<g style="mix-blend-mode:color-dodge" opacity="0.9">
<path d="M125.619 124.167C125.417 124.167 125.245 123.994 125.216 123.792L124.755 95.271C124.755 95.0398 124.928 94.8665 125.129 94.8665C125.36 94.8665 125.533 95.0398 125.533 95.2421L125.994 123.763C125.994 123.763 125.936 123.994 125.878 124.052C125.849 124.109 125.734 124.167 125.59 124.167H125.619Z" fill="url(#paint3_linear_1012_270)"/>
</g>
<g style="mix-blend-mode:color-dodge" opacity="0.9">
<path d="M54.6716 113.042C54.4699 113.042 54.2971 112.84 54.3259 112.609L57.2352 84.377C57.2352 84.1748 57.4369 84.0303 57.6097 84.0303C57.7825 84.0303 57.869 84.117 57.9266 84.1748C57.9554 84.2325 58.013 84.3192 58.013 84.4637L55.1036 112.724C55.1036 112.898 54.902 113.042 54.7292 113.042H54.7004H54.6716Z" fill="url(#paint4_linear_1012_270)"/>
</g>
<g style="mix-blend-mode:color-dodge" opacity="0.9">
<path d="M57.5811 84.8106C57.5811 84.8106 57.3506 84.7528 57.2642 84.6661L24.0806 42.8532C24.0806 42.8532 23.9941 42.6221 23.9941 42.5643C23.9941 42.5065 24.0229 42.3909 24.1382 42.3042C24.2246 42.2464 24.311 42.2175 24.3686 42.2175C24.4838 42.2175 24.5991 42.2753 24.6855 42.362L57.8691 84.2038C57.9843 84.3483 57.9555 84.6083 57.8115 84.7239C57.7251 84.8106 57.6387 84.8106 57.5522 84.8106H57.5811Z" fill="url(#paint5_linear_1012_270)"/>
</g>
<g style="mix-blend-mode:color-dodge" opacity="0.9">
<path d="M54.7004 113.071C54.5275 113.071 54.4123 112.984 54.3259 112.84C54.2683 112.695 54.3259 112.609 54.3259 112.551C54.3259 112.493 54.4123 112.406 54.5275 112.349L74.2591 104.402C74.2591 104.402 74.3455 104.402 74.4032 104.402C74.576 104.402 74.72 104.489 74.7776 104.633C74.864 104.836 74.7776 105.067 74.576 105.153L54.8444 113.1C54.8444 113.1 54.758 113.1 54.7004 113.1V113.071Z" fill="url(#paint6_linear_1012_270)"/>
</g>
<g style="mix-blend-mode:color-dodge" opacity="0.9">
<path d="M125.187 95.6465C125.187 95.6465 125.043 95.6465 124.957 95.5599L113.118 86.3419C112.945 86.1975 112.916 85.9663 113.06 85.7929C113.146 85.7062 113.262 85.6484 113.377 85.6484C113.434 85.6484 113.521 85.6484 113.607 85.7351L125.446 94.953C125.619 95.0975 125.648 95.3287 125.504 95.5021C125.417 95.5887 125.302 95.6465 125.187 95.6465Z" fill="url(#paint7_linear_1012_270)"/>
</g>
<g style="mix-blend-mode:color-dodge" opacity="0.9">
<path d="M17.8874 76.6039C17.6858 76.575 17.5418 76.3727 17.5706 76.1416L24.0229 42.5063C24.0517 42.333 24.2246 42.1885 24.3974 42.1885C24.599 42.2174 24.6855 42.3041 24.7143 42.3619C24.7431 42.4196 24.8007 42.5063 24.7719 42.6508L18.3195 76.315C18.2907 76.4883 18.1179 76.6039 17.945 76.6039H17.8874Z" fill="url(#paint8_linear_1012_270)"/>
</g>
<g style="mix-blend-mode:color-dodge" opacity="0.9">
<path d="M98.3981 84.926C98.3981 84.926 98.3405 84.926 98.2829 84.926C98.1389 84.8971 98.0813 84.7815 98.0525 84.7526C98.0237 84.6948 97.9661 84.5793 98.0237 84.4637L102.431 68.0506C102.488 67.9061 102.633 67.7905 102.805 67.7905C103.036 67.8483 103.122 67.935 103.151 67.9928C103.18 68.0506 103.237 68.1662 103.18 68.2818L98.7726 84.6948C98.715 84.8682 98.571 84.9838 98.3981 84.9838V84.926Z" fill="url(#paint9_linear_1012_270)"/>
</g>
<g style="mix-blend-mode:color-dodge" opacity="0.9">
<path d="M98.3691 84.9262C98.1675 84.9262 98.0234 84.7239 98.0234 84.4927C98.0234 84.2905 98.2251 84.146 98.3979 84.146L113.377 85.6486C113.578 85.6486 113.722 85.8509 113.722 86.082C113.722 86.2843 113.521 86.4288 113.348 86.4288L98.3691 84.9262Z" fill="url(#paint10_linear_1012_270)"/>
</g>
<g style="mix-blend-mode:color-dodge" opacity="0.9">
<path d="M74.4609 105.125C74.2593 105.125 74.0864 104.98 74.0864 104.778C74.0864 104.576 74.2305 104.373 74.4321 104.344L89.4396 103.304C89.6701 103.304 89.8429 103.478 89.8429 103.68C89.8429 103.824 89.7853 103.911 89.7565 103.969C89.7277 104.027 89.6413 104.084 89.4972 104.113L74.4609 105.154V105.125Z" fill="url(#paint11_linear_1012_270)"/>
</g>
<g style="mix-blend-mode:color-dodge" opacity="0.9">
<path d="M18.0025 76.6329C17.8584 76.6329 17.7144 76.5462 17.6568 76.4018C17.5992 76.2862 17.628 76.1706 17.6568 76.1128C17.6568 76.055 17.7432 75.9394 17.8584 75.8816L47.9887 62.2715C47.9887 62.2715 48.0751 62.2715 48.1039 62.2715C48.248 62.2715 48.392 62.3582 48.4496 62.5027C48.536 62.7049 48.4496 62.9361 48.2768 63.0228L18.1465 76.6329C18.1465 76.6329 18.0601 76.6329 18.0025 76.6329Z" fill="url(#paint12_linear_1012_270)"/>
</g>
<g style="mix-blend-mode:color-dodge" opacity="0.9">
<path d="M78.3789 169.361C78.2349 169.361 78.0909 169.275 78.0333 169.13C77.9757 169.015 78.0045 168.899 78.0333 168.841C78.0333 168.784 78.1197 168.668 78.2349 168.61L97.3652 157C97.3652 157 97.4516 157 97.4804 157C97.6244 157 97.7685 157.087 97.8261 157.231C97.9125 157.433 97.8261 157.665 97.6532 157.751L78.523 169.361C78.523 169.361 78.4365 169.361 78.3789 169.361Z" fill="url(#paint13_linear_1012_270)"/>
</g>
<g style="mix-blend-mode:color-dodge" opacity="0.9">
<path d="M74.4319 105.125C74.2303 105.125 74.0863 104.98 74.0575 104.807L68.5269 70.9403C68.5269 70.7669 68.6421 70.5646 68.8437 70.5068C69.103 70.5068 69.247 70.6513 69.2758 70.8247L74.8064 104.662C74.8064 104.662 74.7776 104.893 74.7488 104.951C74.72 105.009 74.6336 105.096 74.4895 105.096H74.4319V105.125Z" fill="url(#paint14_linear_1012_270)"/>
</g>
<g style="mix-blend-mode:color-dodge" opacity="0.9">
<path d="M63.0254 43.1422C62.8526 43.1422 62.6798 43.0266 62.6509 42.8532C62.6221 42.7087 62.6509 42.622 62.7086 42.5642C62.7374 42.5064 62.8238 42.4197 62.939 42.3908C62.939 42.3908 89.2094 36.1204 89.2382 36.1204C89.4686 36.1204 89.6127 36.2359 89.6703 36.4093C89.7279 36.6116 89.6126 36.8428 89.3822 36.9006L63.1118 43.171H63.0254V43.1422Z" fill="url(#paint15_linear_1012_270)"/>
</g>
<g style="mix-blend-mode:color-dodge" opacity="0.9">
<path d="M68.8727 71.2582C68.8727 71.2582 68.7863 71.2582 68.7287 71.2582L47.9601 63.0228C47.7873 62.9361 47.7009 62.7338 47.7585 62.5316C47.8161 62.3582 47.9889 62.2715 48.133 62.2715C48.1906 62.2715 48.2194 62.2715 48.277 62.2715L69.0168 70.5069C69.0168 70.5069 69.2184 70.6514 69.2472 70.7092C69.2472 70.767 69.3048 70.8826 69.2472 70.9982C69.1896 71.1426 69.0456 71.2582 68.8727 71.2582Z" fill="url(#paint16_linear_1012_270)"/>
</g>
<g style="mix-blend-mode:color-dodge" opacity="0.9">
<path d="M89.2668 36.8717C89.0651 36.8717 88.8923 36.6694 88.9211 36.4383L91.9745 1.84944C91.9745 1.64717 92.1473 1.50269 92.3489 1.50269C92.6082 1.50269 92.7522 1.70496 92.7522 1.93613L89.6989 36.5538C89.6989 36.7561 89.526 36.9006 89.3244 36.9006H89.2956L89.2668 36.8717Z" fill="url(#paint17_linear_1012_270)"/>
</g>
<g style="mix-blend-mode:color-dodge" opacity="0.9">
<path d="M63.0253 43.1132C62.8237 43.1132 62.6509 42.9398 62.6221 42.7375L62.7373 34.9644C62.7373 34.7911 62.9101 34.6177 63.1118 34.6177C63.3422 34.6177 63.515 34.7911 63.515 34.9933L63.3998 42.7664C63.3998 42.9398 63.227 43.1132 63.0253 43.1132Z" fill="url(#paint18_linear_1012_270)"/>
</g>
<g style="mix-blend-mode:color-dodge" opacity="0.9">
<path d="M89.2378 36.8717C89.2378 36.8717 89.0074 36.7561 88.9785 36.7272C88.9497 36.6694 88.8921 36.5827 88.9209 36.4382L96.3694 22.0654C96.3982 21.892 96.571 21.7476 96.7438 21.7476C97.0031 21.7765 97.1759 21.9787 97.1183 22.2099L89.6699 36.5827C89.6411 36.7561 89.4682 36.9006 89.2954 36.9006H89.2378V36.8717Z" fill="url(#paint19_linear_1012_270)"/>
</g>
<g style="mix-blend-mode:color-dodge" opacity="0.9">
<path d="M48.1331 62.9937C48.1331 62.9937 48.0179 62.9937 47.9603 62.9359C47.7586 62.8493 47.701 62.5892 47.7874 62.4158L62.7949 34.7621C62.8814 34.6176 63.0254 34.5598 63.1406 34.5598C63.1982 34.5598 63.2558 34.5598 63.3134 34.6176C63.4287 34.6754 63.4863 34.791 63.5151 34.8488C63.5151 34.9066 63.5439 35.0222 63.4863 35.1377L48.4787 62.7915C48.4787 62.7915 48.2483 62.9937 48.1331 62.9937Z" fill="url(#paint20_linear_1012_270)"/>
</g>
<g style="mix-blend-mode:color-dodge" opacity="0.9">
<path d="M97.7442 21.4989C97.5137 21.4989 97.3697 21.2966 97.3697 21.0943L91.9746 1.87834C91.9746 1.67606 92.1474 1.50269 92.3779 1.50269C92.6083 1.50269 92.7812 1.70496 92.7812 1.90723L98.1762 21.1232C98.1762 21.3255 98.0034 21.4989 97.773 21.4989H97.7442Z" fill="url(#paint21_linear_1012_270)"/>
</g>
<g style="mix-blend-mode:color-dodge" opacity="0.9">
<path d="M115.22 116.885C115.019 116.885 114.846 116.683 114.875 116.452L118.677 83.8858C118.677 83.6835 118.879 83.5391 119.051 83.5391C119.311 83.5391 119.455 83.7702 119.455 83.9725L115.652 116.567C115.652 116.741 115.451 116.885 115.278 116.885H115.249H115.22Z" fill="url(#paint22_linear_1012_270)"/>
</g>
<g style="mix-blend-mode:color-dodge" opacity="0.9">
<path d="M63.1117 35.3402C63.1117 35.3402 62.8525 35.2824 62.7949 35.1668L54.787 22.3658C54.6718 22.1924 54.7294 21.9612 54.9022 21.8456C54.9598 21.8167 55.0462 21.7878 55.1039 21.7878C55.2479 21.7878 55.3631 21.8456 55.4207 21.9612L63.4286 34.7623C63.515 34.9356 63.4862 35.1668 63.2845 35.2824C63.2269 35.3113 63.1405 35.3402 63.0829 35.3402H63.1117Z" fill="url(#paint23_linear_1012_270)"/>
</g>
<g style="mix-blend-mode:color-dodge" opacity="0.9">
<path d="M78.6088 169.794C78.6088 169.794 78.3207 169.737 78.2631 169.563L47.3551 103.16C47.3551 103.16 47.3263 102.928 47.3551 102.871C47.3551 102.813 47.4415 102.697 47.5567 102.639C47.6143 102.639 47.6719 102.611 47.7296 102.611C47.8736 102.611 48.0176 102.697 48.0752 102.842L78.9832 169.245C79.0697 169.419 78.9832 169.65 78.7816 169.737C78.724 169.737 78.6664 169.766 78.6088 169.766V169.794Z" fill="url(#paint24_linear_1012_270)"/>
</g>
<g style="mix-blend-mode:color-dodge" opacity="0.9">
<path d="M107.299 114.574C107.097 114.574 106.924 114.429 106.924 114.227L96.6982 32.9417C96.6982 32.7395 96.8135 32.5372 97.0439 32.5083C97.2743 32.5083 97.4472 32.6528 97.476 32.8551L107.702 114.111C107.702 114.111 107.673 114.343 107.615 114.4C107.587 114.458 107.5 114.545 107.356 114.545H107.299V114.574Z" fill="url(#paint25_linear_1012_270)"/>
</g>
<g style="mix-blend-mode:color-dodge" opacity="0.9">
<path d="M78.3017 170C78.3017 170 77.9849 169.913 77.9272 169.74L28.4015 108.014C28.3439 107.812 28.4592 107.61 28.6608 107.552H28.7184C28.9488 107.552 29.0929 107.638 29.1505 107.812L78.6762 169.538C78.7338 169.711 78.6186 169.942 78.4169 170H78.3017Z" fill="url(#paint26_linear_1012_270)"/>
</g>
<g style="mix-blend-mode:color-dodge" opacity="0.9">
<path d="M28.7758 108.274C28.6029 108.274 28.4301 108.13 28.4013 107.956L11.3198 18.956C11.291 18.7537 11.4062 18.5225 11.6366 18.4937C11.8959 18.4937 12.0399 18.6381 12.0687 18.8115L29.1214 107.812C29.1214 107.812 29.1214 108.072 29.0638 108.101C29.035 108.159 28.9486 108.245 28.8046 108.274H28.7181H28.7758Z" fill="url(#paint27_linear_1012_270)"/>
</g>
<path d="M57.61 84.4348L54.7007 112.695L74.4323 104.72L57.61 84.4348Z" fill="url(#paint28_linear_1012_270)" fill-opacity="0.04"/>
<defs>
<linearGradient id="paint0_linear_1012_270" x1="14.9206" y1="54.9607" x2="14.9206" y2="95.1554" gradientUnits="userSpaceOnUse">
<stop stop-color="#C91EFE"/>
<stop offset="1" stop-color="#4A68F2"/>
</linearGradient>
<linearGradient id="paint1_linear_1012_270" x1="39.0693" y1="84.0303" x2="39.0693" y2="113.533" gradientUnits="userSpaceOnUse">
<stop stop-color="#C91EFE"/>
<stop offset="1" stop-color="#4A68F2"/>
</linearGradient>
<linearGradient id="paint2_linear_1012_270" x1="13.6953" y1="42.2463" x2="13.6953" y2="55.7409" gradientUnits="userSpaceOnUse">
<stop stop-color="#C91EFE"/>
<stop offset="1" stop-color="#4A68F2"/>
</linearGradient>
<linearGradient id="paint3_linear_1012_270" x1="125.374" y1="94.8665" x2="125.374" y2="124.167" gradientUnits="userSpaceOnUse">
<stop stop-color="#C91EFE"/>
<stop offset="1" stop-color="#4A68F2"/>
</linearGradient>
<linearGradient id="paint4_linear_1012_270" x1="56.1679" y1="84.0303" x2="56.1679" y2="113.042" gradientUnits="userSpaceOnUse">
<stop stop-color="#C91EFE"/>
<stop offset="1" stop-color="#4A68F2"/>
</linearGradient>
<linearGradient id="paint5_linear_1012_270" x1="40.9672" y1="42.2175" x2="40.9672" y2="84.8106" gradientUnits="userSpaceOnUse">
<stop stop-color="#C91EFE"/>
<stop offset="1" stop-color="#4A68F2"/>
</linearGradient>
<linearGradient id="paint6_linear_1012_270" x1="64.5556" y1="104.402" x2="64.5556" y2="113.1" gradientUnits="userSpaceOnUse">
<stop stop-color="#C91EFE"/>
<stop offset="1" stop-color="#4A68F2"/>
</linearGradient>
<linearGradient id="paint7_linear_1012_270" x1="119.282" y1="85.6484" x2="119.282" y2="95.6465" gradientUnits="userSpaceOnUse">
<stop stop-color="#C91EFE"/>
<stop offset="1" stop-color="#4A68F2"/>
</linearGradient>
<linearGradient id="paint8_linear_1012_270" x1="21.1733" y1="42.1885" x2="21.1733" y2="76.6039" gradientUnits="userSpaceOnUse">
<stop stop-color="#C91EFE"/>
<stop offset="1" stop-color="#4A68F2"/>
</linearGradient>
<linearGradient id="paint9_linear_1012_270" x1="100.602" y1="67.7905" x2="100.602" y2="84.9838" gradientUnits="userSpaceOnUse">
<stop stop-color="#C91EFE"/>
<stop offset="1" stop-color="#4A68F2"/>
</linearGradient>
<linearGradient id="paint10_linear_1012_270" x1="105.873" y1="84.146" x2="105.873" y2="86.4288" gradientUnits="userSpaceOnUse">
<stop stop-color="#C91EFE"/>
<stop offset="1" stop-color="#4A68F2"/>
</linearGradient>
<linearGradient id="paint11_linear_1012_270" x1="81.9647" y1="103.304" x2="81.9647" y2="105.154" gradientUnits="userSpaceOnUse">
<stop stop-color="#C91EFE"/>
<stop offset="1" stop-color="#4A68F2"/>
</linearGradient>
<linearGradient id="paint12_linear_1012_270" x1="33.0535" y1="62.2715" x2="33.0535" y2="76.6329" gradientUnits="userSpaceOnUse">
<stop stop-color="#C91EFE"/>
<stop offset="1" stop-color="#4A68F2"/>
</linearGradient>
<linearGradient id="paint13_linear_1012_270" x1="93.43" y1="155" x2="93.43" y2="169.361" gradientUnits="userSpaceOnUse">
<stop stop-color="#C91EFE"/>
<stop offset="1" stop-color="#4A68F2"/>
</linearGradient>
<linearGradient id="paint14_linear_1012_270" x1="71.6666" y1="70.5068" x2="71.6666" y2="105.125" gradientUnits="userSpaceOnUse">
<stop stop-color="#C91EFE"/>
<stop offset="1" stop-color="#4A68F2"/>
</linearGradient>
<linearGradient id="paint15_linear_1012_270" x1="76.1623" y1="36.1204" x2="76.1623" y2="43.171" gradientUnits="userSpaceOnUse">
<stop stop-color="#C91EFE"/>
<stop offset="1" stop-color="#4A68F2"/>
</linearGradient>
<linearGradient id="paint16_linear_1012_270" x1="58.5068" y1="62.2715" x2="58.5068" y2="71.2582" gradientUnits="userSpaceOnUse">
<stop stop-color="#C91EFE"/>
<stop offset="1" stop-color="#4A68F2"/>
</linearGradient>
<linearGradient id="paint17_linear_1012_270" x1="90.8351" y1="1.50269" x2="90.8351" y2="36.9006" gradientUnits="userSpaceOnUse">
<stop stop-color="#C91EFE"/>
<stop offset="1" stop-color="#4A68F2"/>
</linearGradient>
<linearGradient id="paint18_linear_1012_270" x1="63.0686" y1="34.6177" x2="63.0686" y2="43.1132" gradientUnits="userSpaceOnUse">
<stop stop-color="#C91EFE"/>
<stop offset="1" stop-color="#4A68F2"/>
</linearGradient>
<linearGradient id="paint19_linear_1012_270" x1="90.5213" y1="20.7476" x2="90.5213" y2="36.9006" gradientUnits="userSpaceOnUse">
<stop stop-color="#C91EFE"/>
<stop offset="1" stop-color="#4A68F2"/>
</linearGradient>
<linearGradient id="paint20_linear_1012_270" x1="55.6354" y1="34.5598" x2="55.6354" y2="62.9937" gradientUnits="userSpaceOnUse">
<stop stop-color="#C91EFE"/>
<stop offset="1" stop-color="#4A68F2"/>
</linearGradient>
<linearGradient id="paint21_linear_1012_270" x1="92.0755" y1="1.50269" x2="92.0755" y2="21.4989" gradientUnits="userSpaceOnUse">
<stop stop-color="#C91EFE"/>
<stop offset="1" stop-color="#4A68F2"/>
</linearGradient>
<linearGradient id="paint22_linear_1012_270" x1="117.163" y1="83.5391" x2="117.163" y2="116.885" gradientUnits="userSpaceOnUse">
<stop stop-color="#C91EFE"/>
<stop offset="1" stop-color="#4A68F2"/>
</linearGradient>
<linearGradient id="paint23_linear_1012_270" x1="59.1008" y1="21.7878" x2="59.1008" y2="35.3402" gradientUnits="userSpaceOnUse">
<stop stop-color="#C91EFE"/>
<stop offset="1" stop-color="#4A68F2"/>
</linearGradient>
<linearGradient id="paint24_linear_1012_270" x1="63.1794" y1="102.611" x2="63.1794" y2="169.794" gradientUnits="userSpaceOnUse">
<stop stop-color="#C91EFE"/>
<stop offset="1" stop-color="#4A68F2"/>
</linearGradient>
<linearGradient id="paint25_linear_1012_270" x1="102.2" y1="32.5083" x2="102.2" y2="114.574" gradientUnits="userSpaceOnUse">
<stop stop-color="#C91EFE"/>
<stop offset="1" stop-color="#4A68F2"/>
</linearGradient>
<linearGradient id="paint26_linear_1012_270" x1="40.0389" y1="107.552" x2="40.0389" y2="183" gradientUnits="userSpaceOnUse">
<stop stop-color="#C91EFE"/>
<stop offset="1" stop-color="#4A68F2"/>
</linearGradient>
<linearGradient id="paint27_linear_1012_270" x1="20.2184" y1="18.4937" x2="20.2184" y2="108.274" gradientUnits="userSpaceOnUse">
<stop stop-color="#C91EFE"/>
<stop offset="1" stop-color="#4A68F2"/>
</linearGradient>
<linearGradient id="paint28_linear_1012_270" x1="54.7007" y1="98.5651" x2="74.4323" y2="98.5651" gradientUnits="userSpaceOnUse">
<stop offset="0.07" stop-color="white"/>
<stop offset="0.56" stop-color="#EBCFCF"/>
</linearGradient>
</defs>
</svg>
