<svg width="21" height="14" viewBox="0 0 21 14" fill="none" xmlns="http://www.w3.org/2000/svg">
<path fill-rule="evenodd" clip-rule="evenodd" d="M0.325195 6.75002C0.325195 6.3358 0.660982 6.00002 1.0752 6.00002H19.0759C19.4901 6.00002 19.8259 6.3358 19.8259 6.75002C19.8259 7.16423 19.4901 7.50002 19.0759 7.50002H1.0752C0.660982 7.50002 0.325195 7.16423 0.325195 6.75002Z" fill="url(#paint0_linear_917_84648)"/>
<path fill-rule="evenodd" clip-rule="evenodd" d="M14.5953 0.173862C14.9135 -0.0913172 15.3864 -0.048333 15.6516 0.26987L20.385 5.94977C20.7714 6.41333 20.7714 7.0867 20.385 7.55027L15.6516 13.2302C15.3864 13.5484 14.9135 13.5914 14.5953 13.3262C14.2771 13.061 14.2341 12.5881 14.4993 12.2699L19.0994 6.75002L14.4993 1.23017C14.2341 0.911965 14.2771 0.439041 14.5953 0.173862Z" fill="url(#paint1_linear_917_84648)"/>
<defs>
<linearGradient id="paint0_linear_917_84648" x1="14.3254" y1="6.91465" x2="20.4323" y2="6.91465" gradientUnits="userSpaceOnUse">
<stop stop-color="#D11AFF"/>
<stop offset="1" stop-color="#3D70F1"/>
</linearGradient>
<linearGradient id="paint1_linear_917_84648" x1="14.3254" y1="6.91465" x2="20.4323" y2="6.91465" gradientUnits="userSpaceOnUse">
<stop stop-color="#D11AFF"/>
<stop offset="1" stop-color="#3D70F1"/>
</linearGradient>
</defs>
</svg>
