<svg width="69" height="74" viewBox="0 0 69 74" fill="none" xmlns="http://www.w3.org/2000/svg">
<g filter="url(#filter0_d_917_84667)">
<path d="M36.9601 17.2597C36.5527 17.599 36.0908 17.8838 35.5742 18.0263C35.3205 18.0963 35.0603 18.1533 34.7978 18.1745C34.6269 18.1883 34.4421 18.1883 34.2573 18.1883C33.9195 18.1883 33.5816 18.1883 33.1593 18.1039C32.5681 18.0195 32.1458 17.6818 31.639 17.2597C30.6254 16.5 30.1187 15.4026 30.1187 14.0519C30.1187 12.7013 30.7099 11.6039 31.639 10.8442C32.0613 10.5065 32.4836 10.3377 32.9904 10.1688C33.4127 10.0844 33.7505 10 34.1728 10C34.4894 10 34.8059 10.0474 35.1225 10.1067C35.334 10.1464 35.5418 10.2049 35.7408 10.2867C36.2699 10.5043 36.6874 10.7405 37.0445 11.0974C37.8892 11.9416 38.3959 12.8701 38.3959 14.1364C38.3115 15.4026 37.8892 16.5 36.9601 17.2597ZM49.2071 17.1753C52.0788 20.7208 53.5146 24.6883 53.5146 29.1623C53.5146 32.7078 47.0955 53.8117 34.2573 53.8117C21.5036 53.8117 15 32.7078 15 29.1623C15 24.6883 16.5203 20.6364 19.3076 17.0909C21.8094 14.0021 24.8881 11.9385 28.5438 10.8441C29.0281 10.6991 29.4697 11.3683 29.2183 11.8069C29.2017 11.836 29.1842 11.8731 29.1738 11.9049C28.9292 12.6487 28.7673 13.3926 28.7673 14.1364C28.7673 15.2338 29.0207 16.2468 29.6119 17.0909C30.0531 17.7964 29.8811 19.0405 29.1377 19.4145C27.6872 20.1444 26.4375 21.1804 25.3888 22.5779C23.8685 24.5195 23.1928 26.7143 23.1928 29.1623C23.1928 32.0325 28.2605 45.539 34.1728 45.539C40.0852 45.539 45.1529 33.1299 45.1529 29.1623C45.1529 26.7143 44.4772 24.5195 42.8724 22.5779C41.9618 21.415 40.93 20.4944 39.7407 19.7979C38.7575 19.2221 38.4774 17.6034 38.9872 16.5844C39.4095 15.8247 39.5784 15.0649 39.5784 14.1364C39.5784 13.461 39.4939 12.8701 39.1561 12.1948C38.9249 11.5786 39.4499 10.7895 40.0743 10.9975C43.7265 12.2141 46.7707 14.239 49.2071 17.1753Z" fill="url(#paint0_linear_917_84667)"/>
</g>
<defs>
<filter id="filter0_d_917_84667" x="0" y="0" width="68.5146" height="73.8116" filterUnits="userSpaceOnUse" color-interpolation-filters="sRGB">
<feFlood flood-opacity="0" result="BackgroundImageFix"/>
<feColorMatrix in="SourceAlpha" type="matrix" values="0 0 0 0 0 0 0 0 0 0 0 0 0 0 0 0 0 0 127 0" result="hardAlpha"/>
<feOffset dy="5"/>
<feGaussianBlur stdDeviation="7.5"/>
<feColorMatrix type="matrix" values="0 0 0 0 0.294118 0 0 0 0 0.403922 0 0 0 0 0.94902 0 0 0 0.8 0"/>
<feBlend mode="normal" in2="BackgroundImageFix" result="effect1_dropShadow_917_84667"/>
<feBlend mode="normal" in="SourceGraphic" in2="effect1_dropShadow_917_84667" result="shape"/>
</filter>
<linearGradient id="paint0_linear_917_84667" x1="34.2573" y1="10" x2="34.2573" y2="53.8117" gradientUnits="userSpaceOnUse">
<stop stop-color="#D11AFF"/>
<stop offset="1" stop-color="#3D70F1"/>
</linearGradient>
</defs>
</svg>
