<svg width="20" height="21" viewBox="0 0 20 21" fill="none" xmlns="http://www.w3.org/2000/svg">
<path d="M0.999648 20.1004H4.59965V6.78039H0.999648V20.1004ZM2.79965 0.900391C1.59965 0.900391 0.639648 1.86039 0.639648 3.06039C0.639648 4.26039 1.59965 5.22039 2.79965 5.22039C3.99965 5.22039 4.95965 4.26039 4.95965 3.06039C4.95965 1.86039 3.99965 0.900391 2.79965 0.900391ZM10.7197 8.82039V6.78039H7.11965V20.1004H10.7197V13.2604C10.7197 9.42039 15.6397 9.18039 15.6397 13.2604V20.1004H19.2397V11.9404C19.2397 5.46039 12.3997 5.70039 10.7197 8.82039Z" fill="#2A3149" stroke="url(#paint0_linear_917_84629)" stroke-linecap="round"/>
<defs>
<linearGradient id="paint0_linear_917_84629" x1="9.93965" y1="0.900391" x2="9.93965" y2="20.1004" gradientUnits="userSpaceOnUse">
<stop stop-color="#C91EFE"/>
<stop offset="1" stop-color="#4A68F2"/>
</linearGradient>
</defs>
</svg>
