<svg width="22" height="21" viewBox="0 0 22 21" fill="none" xmlns="http://www.w3.org/2000/svg">
<path d="M21.5015 3.57286C21.1558 3.72615 20.8005 3.85552 20.4374 3.96055C20.8673 3.47442 21.195 2.90242 21.3951 2.27649C21.4399 2.13619 21.3934 1.98261 21.2781 1.89085C21.1629 1.79902 21.0029 1.78802 20.8761 1.86317C20.105 2.32049 19.2731 2.64914 18.4009 2.84132C17.5222 1.98275 16.3288 1.49414 15.0951 1.49414C12.491 1.49414 10.3723 3.61274 10.3723 6.21683C10.3723 6.42193 10.3853 6.62589 10.411 6.82701C7.17946 6.54328 4.17519 4.95495 2.11216 2.42431C2.03863 2.33411 1.92537 2.2855 1.80941 2.2948C1.69338 2.30388 1.58912 2.36931 1.53051 2.46988C1.11208 3.18786 0.890873 4.00902 0.890873 4.84453C0.890873 5.98249 1.29716 7.0622 2.01486 7.90586C1.79663 7.83028 1.58487 7.73582 1.38275 7.62362C1.27424 7.56323 1.14181 7.56415 1.03401 7.62597C0.926144 7.68778 0.858512 7.80147 0.855673 7.92573C0.855176 7.94667 0.855176 7.9676 0.855176 7.98882C0.855176 9.68744 1.76938 11.2167 3.16709 12.0502C3.04701 12.0382 2.92701 12.0209 2.80778 11.9981C2.68487 11.9746 2.55847 12.0177 2.47558 12.1114C2.39255 12.2051 2.36509 12.3357 2.40334 12.4549C2.92069 14.0701 4.25269 15.2582 5.86294 15.6204C4.5274 16.4569 3.0001 16.8951 1.3968 16.8951C1.06226 16.8951 0.725802 16.8754 0.396512 16.8364C0.232931 16.817 0.0765183 16.9136 0.0208086 17.0691C-0.0349011 17.2248 0.0241441 17.3983 0.163312 17.4875C2.22301 18.8081 4.60461 19.5062 7.05052 19.5062C11.8589 19.5062 14.8668 17.2388 16.5434 15.3366C18.6342 12.9648 19.8332 9.8254 19.8332 6.72347C19.8332 6.59388 19.8312 6.46302 19.8273 6.33258C20.6521 5.71111 21.3623 4.959 21.9402 4.09454C22.028 3.96325 22.0185 3.78973 21.9168 3.66888C21.8152 3.54795 21.646 3.50884 21.5015 3.57286Z" fill="#2A3149" stroke="url(#paint0_linear_917_84632)" stroke-linecap="round"/>
<defs>
<linearGradient id="paint0_linear_917_84632" x1="11" y1="1.49414" x2="11" y2="19.5062" gradientUnits="userSpaceOnUse">
<stop stop-color="#C91EFE"/>
<stop offset="1" stop-color="#4A68F2"/>
</linearGradient>
</defs>
</svg>
