<svg width="14" height="26" viewBox="0 0 14 26" fill="none" xmlns="http://www.w3.org/2000/svg">
<path d="M1.32557 13.7824H3.95636V24.6129C3.95636 24.8267 4.12962 25 4.34346 25H8.80405C9.01788 25 9.19115 24.8267 9.19115 24.6129V13.8334H12.2155C12.4121 13.8334 12.5775 13.6859 12.6 13.4905L13.0593 9.50328C13.0719 9.39357 13.0372 9.28372 12.9638 9.20142C12.8903 9.11905 12.7852 9.0719 12.6749 9.0719H9.1913V6.57249C9.1913 5.81905 9.59698 5.43698 10.3972 5.43698C10.5112 5.43698 12.6749 5.43698 12.6749 5.43698C12.8887 5.43698 13.062 5.26364 13.062 5.04988V1.38996C13.062 1.17613 12.8887 1.00286 12.6749 1.00286H9.5359C9.51375 1.00178 9.46459 1 9.39213 1C8.84748 1 6.95435 1.10692 5.45891 2.48266C3.80199 4.0072 4.03231 5.83259 4.08735 6.14908V9.07182H1.32557C1.11174 9.07182 0.938477 9.24508 0.938477 9.45892V13.3952C0.938477 13.6091 1.11174 13.7824 1.32557 13.7824Z" fill="#2A3149" stroke="url(#paint0_linear_917_84642)" stroke-linecap="round"/>
<defs>
<linearGradient id="paint0_linear_917_84642" x1="7.00022" y1="1" x2="7.00022" y2="25" gradientUnits="userSpaceOnUse">
<stop stop-color="#C91EFE"/>
<stop offset="1" stop-color="#4A68F2"/>
</linearGradient>
</defs>
</svg>
