<svg width="26" height="18" viewBox="0 0 26 18" fill="none" xmlns="http://www.w3.org/2000/svg">
<path d="M24.0645 2.0046C23.1982 0.974765 21.5987 0.554688 18.5441 0.554688H7.45569C4.33112 0.554688 2.70454 1.00186 1.84147 2.09827C1 3.16728 1 4.74238 1 6.92235V11.0774C1 15.3007 1.9984 17.445 7.45569 17.445H18.5442C21.1931 17.445 22.661 17.0743 23.6106 16.1654C24.5845 15.2335 25 13.7118 25 11.0774V6.92235C25 4.62338 24.9349 3.039 24.0645 2.0046ZM16.4081 9.5735L11.3729 12.2051C11.2603 12.2639 11.1372 12.2931 11.0143 12.2931C10.8751 12.2931 10.7362 12.2556 10.6132 12.1811C10.3815 12.0408 10.2401 11.7897 10.2401 11.5189V6.27265C10.2401 6.0023 10.3811 5.75146 10.6123 5.61102C10.8436 5.47058 11.1312 5.46098 11.3711 5.58563L16.4063 8.20024C16.6625 8.33324 16.8234 8.59771 16.8237 8.88625C16.8241 9.17502 16.6639 9.43987 16.4081 9.5735Z" fill="#2A3149" stroke="url(#paint0_linear_917_84645)" stroke-linecap="round"/>
<defs>
<linearGradient id="paint0_linear_917_84645" x1="13" y1="0.554687" x2="13" y2="17.445" gradientUnits="userSpaceOnUse">
<stop stop-color="#C91EFE"/>
<stop offset="1" stop-color="#4A68F2"/>
</linearGradient>
</defs>
</svg>
