<svg width="24" height="20" viewBox="0 0 24 20" fill="none" xmlns="http://www.w3.org/2000/svg">
<path d="M23.6426 10.4454L22.4746 9.2774C21.9976 8.80035 21.2217 8.80117 20.7447 9.2774L14.437 15.5851L13.5678 18.7731L13.3551 18.9858C13.1961 19.1448 13.1957 19.4014 13.3526 19.5616L13.3506 19.5698L13.3584 19.5678C13.4379 19.6461 13.5411 19.6858 13.6448 19.6858C13.7497 19.6858 13.8547 19.6457 13.9346 19.5657L14.1477 19.3526L17.3353 18.4834L23.6426 12.1757C24.1196 11.6987 24.1196 10.9224 23.6426 10.4454ZM15.3833 15.7982L19.5812 11.6003L21.3201 13.3392L17.1222 17.5371L15.3833 15.7982ZM15.0137 16.5875L16.3333 17.9072L14.5186 18.4018L15.0137 16.5875ZM23.0631 11.5962L21.8996 12.7597L20.1607 11.0212L21.3242 9.85771C21.482 9.69993 21.7381 9.70034 21.8955 9.8573L23.0635 11.0253C23.2205 11.1823 23.2205 11.4388 23.0631 11.5962Z" fill="white" fill-opacity="0.6"/>
<path d="M11.885 16.2968H1.58973C3.45363 14.8198 7.65561 11.4686 9.81459 9.57438L10.397 10.0887C10.8072 10.4551 11.3465 10.6383 11.8855 10.6383C12.4236 10.6383 12.9621 10.4555 13.3711 10.0904L22.9504 1.6319V8.09982C22.9504 8.32646 23.134 8.50965 23.3603 8.50965C23.5865 8.50965 23.7701 8.32646 23.7701 8.09982V0.722896C23.7701 0.719617 23.7684 0.717158 23.768 0.71388C23.7672 0.668389 23.7603 0.622488 23.7434 0.578226C23.7422 0.575357 23.7402 0.573308 23.7389 0.570439C23.7344 0.559374 23.7271 0.550768 23.7221 0.540522C23.7053 0.507326 23.6853 0.476589 23.6607 0.44954C23.65 0.438065 23.6389 0.428229 23.6271 0.417983C23.6016 0.395442 23.5738 0.377 23.5434 0.361836C23.5299 0.354869 23.5176 0.347902 23.5037 0.342574C23.4586 0.325362 23.4111 0.313477 23.3603 0.313477H0.409829C0.35901 0.313477 0.31147 0.325362 0.265979 0.342574C0.251635 0.347902 0.23934 0.354869 0.226226 0.361836C0.195898 0.37741 0.16803 0.395852 0.142621 0.417983C0.130735 0.428639 0.11967 0.438065 0.109015 0.44954C0.0844248 0.476589 0.064753 0.506916 0.0475402 0.540522C0.0426222 0.551177 0.0352453 0.559784 0.0307372 0.570439C0.0295077 0.573308 0.0274585 0.575357 0.0262291 0.578226C0.0098359 0.622488 0.0028688 0.668389 0.00204915 0.71388C0.00163932 0.717158 0 0.720027 0 0.723306V16.7066C0 16.7079 0.000819658 16.7087 0.000819658 16.7103C0.00122949 16.7542 0.00778675 16.798 0.0225406 16.8411C0.0241799 16.846 0.0278684 16.8497 0.0299175 16.8546C0.0356551 16.8689 0.0442615 16.8812 0.0512286 16.8948C0.0668021 16.9247 0.0848346 16.9525 0.106965 16.9771C0.118441 16.9898 0.129916 17.0009 0.142621 17.012C0.16762 17.0337 0.194669 17.0517 0.224176 17.0669C0.238111 17.0743 0.250815 17.082 0.265569 17.0878C0.31106 17.1046 0.35901 17.1165 0.409829 17.1165H11.885C12.1113 17.1165 12.2949 16.9333 12.2949 16.7066C12.2949 16.48 12.1113 16.2968 11.885 16.2968ZM0.819658 15.8608V1.6319L9.19533 9.02767C6.91832 11.017 2.49422 14.5358 0.819658 15.8608ZM22.2771 1.13313L12.8272 9.47725C12.308 9.94118 11.4625 9.94118 10.9412 9.47562L10.1302 8.75964C10.1277 8.75677 10.1273 8.7535 10.1248 8.75104C10.1158 8.74079 10.1031 8.73669 10.0933 8.72768L1.49301 1.13313H22.2771Z" fill="white" fill-opacity="0.6"/>
</svg>
